<?xml version="1.0" encoding="utf-8"?>
<!-- Generator: Adobe Illustrator 27.2.0, SVG Export Plug-In . SVG Version: 6.00 Build 0)  -->
<svg version="1.1" id="レイヤー_1" xmlns="http://www.w3.org/2000/svg" xmlns:xlink="http://www.w3.org/1999/xlink" x="0px"
	 y="0px" viewBox="0 0 280 70" style="enable-background:new 0 0 280 70;" xml:space="preserve">
<style type="text/css">
	.st0{fill:#FFFFFF;}
	.st1{fill:none;stroke:#E0E0E0;stroke-linejoin:round;}
	.st2{enable-background:new    ;}
	.st3{clip-path:url(#SVGID_00000114069750864382153180000010926603330944785041_);}
	.st4{fill:#89BA40;}
	.st5{fill:#1A1311;}
	.st6{fill:#FFBA00;}
</style>
<g id="グループ_1227" transform="translate(-45 -327)">
	<g id="長方形_492" transform="translate(45 327)">
		<path class="st0" d="M8,0h264c4.4,0,8,3.6,8,8v54c0,4.4-3.6,8-8,8H8c-4.4,0-8-3.6-8-8V8C0,3.6,3.6,0,8,0z"/>
		<path class="st1" d="M8,0.5h264c4.1,0,7.5,3.4,7.5,7.5v54c0,4.1-3.4,7.5-7.5,7.5H8c-4.1,0-7.5-3.4-7.5-7.5V8
			C0.5,3.9,3.9,0.5,8,0.5z"/>
	</g>
	<g class="st2">
		<path d="M105.8,375.6c0.1-0.3,0.2-0.5,0.3-0.9c0.5,0.1,1,0.3,1.4,0.5c0.2,0.1,0.2,0.1,0.2,0.2c0,0.1,0,0.1-0.1,0.2
			c-0.1,0.1-0.2,0.2-0.3,0.4c-1.1,2.2-2.4,3.8-4.1,5.2c-0.2,0.1-0.3,0.2-0.3,0.2c-0.1,0-0.1-0.1-0.3-0.3c-0.2-0.4-0.5-0.7-0.8-0.9
			C103.6,379,105,377.3,105.8,375.6z M110.4,381.5c0.1,0,0.1-0.1,0.2-0.1c0,0,0.1,0,0.1,0.1c1.1,1.4,2,2.8,3,4.5
			c0.1,0.1,0.1,0.2-0.1,0.3l-1.1,0.6c-0.1,0-0.1,0.1-0.2,0.1c-0.1,0-0.1,0-0.1-0.1c-0.2-0.4-0.4-0.9-0.7-1.3
			c-2.4,0.4-4.9,0.6-7.4,0.8c-0.3,0-0.4,0.1-0.5,0.2c-0.1,0.1-0.2,0.1-0.2,0.1c-0.1,0-0.2-0.1-0.2-0.2c-0.1-0.4-0.2-0.9-0.3-1.5
			c0.5,0,1,0,1.6,0c0.1,0,0.3,0,0.4,0c0.8-1.7,1.4-3.3,1.8-4.5c0.2-0.6,0.3-1,0.4-1.5c0.5,0.1,1,0.2,1.5,0.4
			c0.2,0.1,0.3,0.1,0.3,0.2c0,0.1,0,0.2-0.1,0.3c-0.1,0.1-0.2,0.3-0.4,0.7c-0.5,1.3-1.1,2.9-1.8,4.4c1.4-0.1,2.9-0.3,4.3-0.4
			c-0.4-0.7-0.9-1.4-1.4-2.1c-0.1-0.1-0.1-0.1,0.1-0.3L110.4,381.5z M110.2,374.7c0.2-0.1,0.2-0.1,0.3,0.1c0.9,2.2,2.6,4.1,4.6,5.2
			c-0.3,0.2-0.6,0.6-0.8,1c-0.1,0.2-0.2,0.3-0.3,0.3c-0.1,0-0.2-0.1-0.3-0.2c-2-1.6-3.6-3.6-4.6-5.8c-0.1-0.2,0-0.2,0.1-0.3
			L110.2,374.7z"/>
		<path d="M118.3,378.3c-1.3,0-1.7,0-1.8,0c-0.1,0-0.1,0-0.1-0.2v-1.1c0-0.2,0-0.2,0.1-0.2c0.1,0,0.5,0,1.8,0h5c0-0.2,0-0.4,0-0.6
			c0-0.9,0-1.3-0.1-2c0.5,0,1.1,0,1.5,0.1c0.1,0,0.2,0.1,0.2,0.2c0,0.1-0.1,0.2-0.1,0.3c-0.1,0.2-0.1,0.5-0.1,1.4v0.6h1.7
			c1.3,0,1.7,0,1.8,0c0.1,0,0.2,0,0.2,0.2v1.1c0,0.2,0,0.2-0.2,0.2c-0.1,0-0.5,0-1.8,0h-1.7c0.1,1.8,0.3,3.4,0.8,4.8
			c0.4,1.3,0.8,2.1,1.3,2.1c0.4,0,0.5-0.8,0.6-2c0.2,0.2,0.6,0.5,0.9,0.6c0.4,0.2,0.4,0.2,0.4,0.7c-0.3,1.8-0.9,2.5-1.7,2.5
			c-1.1,0-2-1-2.7-3.1c-0.5-1.5-0.8-3.5-1-5.6H118.3z M120.6,381.4v2.7c0.9-0.2,1.9-0.5,2.7-0.8c0,0.3,0,0.6,0,0.9
			c0,0.5,0,0.5-0.4,0.6c-1.4,0.5-3.5,1-5,1.4c-0.4,0.1-0.5,0.2-0.6,0.2c-0.1,0.1-0.2,0.1-0.3,0.1s-0.2-0.1-0.2-0.2
			c-0.1-0.3-0.3-0.9-0.4-1.4c0.5,0,0.8-0.1,1.3-0.2l1.3-0.3v-3.1h-0.5c-1.2,0-1.6,0-1.7,0c-0.1,0-0.2,0-0.2-0.1v-1.1
			c0-0.2,0-0.2,0.2-0.2c0.1,0,0.5,0,1.7,0h2.5c1.2,0,1.6,0,1.7,0c0.2,0,0.2,0,0.2,0.2v1.1c0,0.1,0,0.1-0.2,0.1c-0.1,0-0.5,0-1.7,0
			H120.6z M126.2,374.6c0.1-0.1,0.1-0.1,0.2-0.1s0.1,0,0.1,0.1c0.4,0.4,0.9,0.8,1.2,1.3c0.1,0.1,0.1,0.2-0.1,0.3l-0.7,0.4
			c-0.1,0.1-0.1,0.1-0.2,0.1s-0.1,0-0.1-0.1c-0.3-0.5-0.7-1-1.1-1.3c-0.1-0.1-0.1-0.2,0.1-0.3L126.2,374.6z"/>
		<path d="M133.5,381c0.1,0.1,0.2,0.2,0.2,0.3c0,0.1,0,0.1-0.2,0.2c-0.1,0.1-0.2,0.3-0.4,0.5c-0.4,0.7-1,1.7-1.6,2.3
			c-0.1,0.1-0.2,0.2-0.3,0.2c-0.1,0-0.1,0-0.2-0.1c-0.4-0.3-0.8-0.5-1.2-0.6c0.8-0.8,1.3-1.6,1.7-2.3c0.2-0.4,0.3-0.7,0.4-1.1
			C132.6,380.6,133.1,380.8,133.5,381z M135.3,377.2c0-0.9,0-1.5-0.2-2.2c0.7,0.1,1.4,0.1,1.7,0.2c0.2,0,0.3,0.1,0.3,0.2
			c0,0.1,0,0.2-0.1,0.3c-0.1,0.2-0.1,0.6-0.1,1.4v0.7h1.7c1.2,0,2.2-0.1,2.9-0.1c0.1,0,0.2,0.1,0.2,0.2c0,0.4,0,0.7,0,1.1
			c0,0.2-0.1,0.3-0.2,0.3c-0.9,0-1.9-0.1-2.9-0.1H137l0,2.8c0,0.7,0,1.3,0,2.4c0,0.7-0.3,1.1-0.8,1.4c-0.4,0.3-1.2,0.4-1.8,0.5
			c-0.2,0-0.3-0.1-0.3-0.3c-0.2-0.5-0.5-0.9-0.9-1.3c1,0,1.6-0.1,1.9-0.2c0.2-0.1,0.3-0.3,0.3-0.6v-4.8h-2.2c-0.8,0-1.8,0-2.4,0.1
			c-0.1,0-0.2-0.1-0.2-0.3c0-0.3-0.1-0.9-0.1-1.3c1.1,0.1,1.9,0.1,2.6,0.1h2.2V377.2z M139.4,380.5c0.1-0.1,0.1-0.1,0.2-0.1
			c0.1,0,0.1,0,0.2,0.1c0.7,0.6,1.4,1.5,2,2.6c0.1,0.1,0.1,0.2,0.1,0.2c0,0.1,0,0.2-0.1,0.2c-0.2,0.2-0.6,0.5-0.9,0.7
			c-0.1,0-0.1,0.1-0.2,0.1c-0.1,0-0.1,0-0.2-0.1c-0.5-0.9-1.3-2.1-2.1-2.9C138.8,381,139.1,380.8,139.4,380.5z"/>
		<path d="M146.4,381.7c-1.4,0-1.9,0.2-2.1,0.2c-0.2,0-0.3-0.1-0.3-0.3c-0.1-0.3-0.2-1-0.2-1.7c0.9,0.1,1.6,0.2,3,0.2h4.5
			c1.1,0,2.1,0,3.2,0c0.2,0,0.3,0,0.3,0.2c0,0.4,0,0.9,0,1.3c0,0.2-0.1,0.2-0.3,0.2c-1.1,0-2.1,0-3.1,0H146.4z"/>
		<path d="M162.3,375.7c0.1,0.1,0.2,0.1,0.2,0.2c0,0.1,0,0.2-0.1,0.3c-0.3,0.3-0.4,0.8-0.6,1.2c-0.8,2.1-1.5,4.2-2.4,6.3
			c2.2-0.2,3.3-0.3,4.9-0.5c-0.4-0.8-1-1.5-1.6-2.2c0.4-0.2,0.8-0.5,1.2-0.7c0.2-0.1,0.2,0,0.3,0.1c1.1,1.3,2.1,3,2.8,4.6
			c0,0.1,0.1,0.1,0.1,0.2c0,0.1-0.1,0.2-0.2,0.2c-0.3,0.2-0.7,0.4-1.1,0.6c-0.1,0-0.1,0-0.2,0c-0.1,0-0.2-0.1-0.2-0.2
			c-0.2-0.4-0.3-0.8-0.5-1.1c-2.2,0.3-4.4,0.6-6.7,0.8c-0.9,0.1-1.3,0.2-1.6,0.3c-0.2,0.1-0.3,0.1-0.4-0.1c-0.1-0.2-0.3-0.9-0.5-1.8
			c0.6,0,1.1,0,1.7,0c1-2.5,1.7-4.6,2.5-6.9c0.2-0.7,0.4-1.2,0.4-1.9C161.3,375.2,161.9,375.4,162.3,375.7z"/>
		<path d="M170,380.4c0.7-0.7,1.4-1.4,2-2.1c0.6-0.6,0.8-0.7,1.3-0.7c0.4,0,0.7,0.1,1.2,0.6c1.8,1.6,3.9,3.1,6.3,4.6
			c0.2,0.1,0.2,0.2,0.1,0.4c-0.3,0.5-0.5,0.9-0.7,1.2c-0.1,0.1-0.1,0.2-0.2,0.2c-0.1,0-0.1,0-0.2-0.1c-2.2-1.5-4.2-3.1-6.2-4.9
			c-0.1-0.1-0.2-0.1-0.2-0.1c-0.1,0-0.2,0-0.2,0.1c-0.7,0.7-1.3,1.5-2.3,2.5c-0.4,0.4-0.5,0.6-0.6,0.7c-0.1,0.1-0.2,0.2-0.3,0.2
			c-0.1,0-0.1,0-0.2-0.1c-0.4-0.3-0.8-0.7-1.3-1.2C169.2,381.3,169.5,381,170,380.4z M180,377.2c0,0.8-0.7,1.5-1.5,1.5
			s-1.5-0.7-1.5-1.5c0-0.9,0.7-1.5,1.5-1.5S180,376.3,180,377.2z M177.6,377.2c0,0.5,0.4,0.8,0.8,0.8s0.8-0.4,0.8-0.8
			c0-0.5-0.4-0.8-0.8-0.8S177.6,376.7,177.6,377.2z"/>
		<path d="M185.1,381.7c-1.4,0-1.9,0.2-2.1,0.2c-0.2,0-0.3-0.1-0.3-0.3c-0.1-0.3-0.2-1-0.2-1.7c0.9,0.1,1.6,0.2,3,0.2h4.5
			c1.1,0,2.1,0,3.2,0c0.2,0,0.3,0,0.3,0.2c0,0.4,0,0.9,0,1.3c0,0.2-0.1,0.2-0.3,0.2c-1.1,0-2.1,0-3.1,0H185.1z"/>
		<path d="M196.2,378.9c0.1-0.1,0.1-0.2,0.3-0.1c1.1,0.4,1.9,0.8,2.7,1.4c0.1,0.1,0.2,0.1,0.2,0.2c0,0,0,0.1-0.1,0.2
			c-0.2,0.4-0.4,0.7-0.6,1.1c-0.1,0.1-0.1,0.1-0.2,0.1c-0.1,0-0.1,0-0.2-0.1c-0.9-0.7-1.8-1.1-2.8-1.5
			C195.8,379.5,196,379.1,196.2,378.9z M198.4,384.1c1.3-0.7,2.5-1.4,3.8-2.4c1.1-0.9,2.6-2.2,4-3.9c0.1,0.6,0.2,1,0.4,1.6
			c0,0.1,0.1,0.2,0.1,0.3c0,0.1,0,0.2-0.2,0.3c-1.3,1.4-2.2,2.2-3.6,3.2c-1.2,0.9-2.5,1.7-4.2,2.6c-0.3,0.2-0.7,0.3-0.8,0.5
			c-0.1,0.1-0.2,0.1-0.2,0.1c-0.1,0-0.2-0.1-0.3-0.2c-0.3-0.3-0.7-0.8-1-1.4C197.1,384.6,197.6,384.5,198.4,384.1z M197.9,375.6
			c0.1-0.2,0.2-0.2,0.4-0.1c0.9,0.4,1.9,0.9,2.6,1.6c0.1,0.1,0.1,0.1,0.1,0.2c0,0.1,0,0.1-0.1,0.2c-0.2,0.4-0.5,0.8-0.7,1.1
			c0,0.1-0.1,0.1-0.1,0.1c-0.1,0-0.1,0-0.2-0.1c-0.7-0.6-1.8-1.3-2.7-1.7C197.4,376.4,197.6,376,197.9,375.6z M204.3,375.2
			c0.1-0.1,0.1,0,0.2,0c0.4,0.3,0.9,0.9,1.3,1.5c0.1,0.1,0.1,0.2,0,0.2l-0.6,0.4c-0.1,0.1-0.2,0.1-0.2,0c-0.4-0.6-0.9-1.2-1.4-1.6
			L204.3,375.2z M205.5,374.3c0.1-0.1,0.1,0,0.2,0c0.5,0.4,1,1,1.3,1.4c0.1,0.1,0.1,0.2,0,0.3l-0.6,0.4c-0.1,0.1-0.2,0-0.2,0
			c-0.4-0.6-0.8-1.1-1.4-1.6L205.5,374.3z"/>
		<path d="M211.4,375.6c0.2,0.1,0.2,0.2,0.2,0.3c0,0.1,0,0.2-0.1,0.3c-0.1,0.2-0.2,0.4-0.3,0.8c-0.5,2.1-0.7,4.1-0.7,5.1
			c0,0.6,0,1.2,0,1.8c0.3-0.6,0.6-1.2,0.9-1.9c0.2,0.4,0.3,0.6,0.5,0.9c0.1,0.1,0.1,0.1,0.1,0.2s0,0.1-0.1,0.2
			c-0.5,1.1-0.7,1.7-0.7,2.1c-0.1,0.4,0,0.6,0,0.7c0,0.1,0,0.1-0.2,0.2c-0.3,0.1-0.7,0.2-1.1,0.2c-0.2,0-0.2,0-0.3-0.2
			c-0.4-1-0.6-2.7-0.6-4.3c0-1.3,0.1-2.5,0.6-5.3c0.1-0.5,0.2-1.1,0.1-1.7C210.4,375.2,211.2,375.4,211.4,375.6z M216.3,379.3
			c-1,0-1.9,0.1-2.9,0c-0.2,0-0.2,0-0.3-0.2c-0.1-0.3-0.1-0.8-0.1-1.3c1,0.1,2.1,0.1,3.2,0c0-0.5,0-1,0-1.5c0-0.5-0.1-0.9-0.2-1.4
			c0.8,0.1,1.2,0.1,1.7,0.3c0.2,0,0.3,0.1,0.3,0.2c0,0.1,0,0.1-0.1,0.2s-0.1,0.3-0.1,0.5c0,0.5,0,0.8,0,1.5c0.7-0.1,1.4-0.2,2-0.3
			c0.2,0,0.2,0,0.2,0.2c0.1,0.3,0.1,0.7,0.1,1c0,0.1-0.1,0.2-0.2,0.2c-0.5,0.1-1.4,0.2-2.2,0.3c0,1.6,0,2.5,0.1,3.8
			c0.8,0.3,1.5,0.7,2.3,1.3c0.1,0.1,0.1,0.1,0.1,0.3c-0.2,0.4-0.4,0.8-0.6,1.1c0,0.1-0.1,0.1-0.1,0.1s-0.1,0-0.1-0.1
			c-0.4-0.4-0.9-0.8-1.5-1.1c-0.1,1.2-0.9,1.8-2.6,1.8c-1.6,0-2.5-0.8-2.5-2c0-1.1,1-2,2.5-2c0.4,0,0.8,0,1.1,0.1
			C216.3,381.4,216.3,380.4,216.3,379.3z M215.1,383.7c-0.7,0-1.1,0.2-1.1,0.7s0.3,0.7,1.1,0.7c0.7,0,1.1-0.4,1.1-0.9
			c0-0.1,0-0.2,0-0.3C215.9,383.7,215.5,383.7,215.1,383.7z"/>
		<path d="M224.3,381.7c0.1,0.1,0.1,0.1,0.1,0.3c-0.2,0.3-0.4,0.8-0.4,1.1c0,0.9,0.9,1.3,3.3,1.3c1.4,0,2.6-0.2,3.8-0.4
			c0.2,0,0.3,0,0.3,0.1c0.1,0.3,0.2,1,0.2,1.4c0,0.1-0.1,0.2-0.2,0.2c-1.3,0.2-2.4,0.3-4.2,0.3c-3.1,0-4.7-1-4.7-2.8
			c0-0.6,0.2-1.2,0.7-2C223.6,381.3,224,381.5,224.3,381.7z M227.5,376.2c1,0,2.1-0.1,3-0.1c0.1,0,0.2,0,0.2,0.2
			c0,0.3,0.1,0.7,0.1,1.2c0,0.2-0.1,0.3-0.2,0.3c-1.3,0.2-2.3,0.7-3.4,1.4c-0.1,0.1-0.2,0.1-0.4,0.1c-0.1,0-0.2,0-0.3-0.1
			c-0.3-0.2-0.6-0.3-1-0.4c0.7-0.5,1.3-0.9,1.8-1.2c-0.3,0-0.7,0-1.1,0c-0.5,0-1.7-0.1-2.5-0.2c-0.1,0-0.2-0.1-0.2-0.3
			c0-0.3,0-0.7,0.1-1.2C224.6,376.1,226,376.2,227.5,376.2z"/>
		<path d="M236.7,376c0.1-0.6,0-1,0-1.4c0.8,0.1,1.3,0.2,1.7,0.3c0.2,0.1,0.3,0.1,0.3,0.3c0,0.1-0.1,0.2-0.1,0.2
			c-0.1,0.1-0.2,0.4-0.2,0.5c-0.1,0.4-0.1,0.7-0.2,1.1c0.7-0.1,1.8-0.3,2.6-0.5c0.2-0.1,0.3,0,0.3,0.1c0.1,0.3,0.1,0.7,0.1,1
			c0,0.2,0,0.2-0.2,0.2c-1.2,0.3-2,0.4-3.1,0.6c-0.2,1.2-0.4,2.1-0.6,3.1c1.1-1,2.5-1.5,4-1.5c1.9,0,3.1,1.2,3.1,2.6
			c0,1.2-0.5,2.1-1.6,2.8c-0.8,0.5-2,0.9-3.6,1.1c-0.3,0.1-0.7,0.1-1,0.1c-0.1,0-0.2-0.1-0.4-0.3c-0.2-0.5-0.4-0.7-0.8-1
			c2-0.1,2.9-0.3,4-0.8c1.1-0.4,1.6-1.1,1.6-2c0-0.7-0.5-1.3-1.6-1.3c-1.5,0-2.9,0.7-3.7,1.7c-0.1,0.2-0.3,0.3-0.4,0.5
			c-0.1,0.2-0.1,0.2-0.3,0.2c-0.3,0-0.8-0.2-1.1-0.3c-0.2-0.1-0.3-0.2-0.3-0.3c0-0.1,0-0.2,0.1-0.3c0.1-0.2,0.1-0.4,0.2-0.7
			c0.3-1.2,0.5-2.3,0.7-3.7c-0.8,0.1-1.6,0.1-2.4,0.1c-0.2,0-0.2-0.1-0.3-0.2c0-0.2-0.1-0.8-0.2-1.2c1.1,0,2,0,3-0.1
			C236.6,376.8,236.7,376.3,236.7,376z"/>
		<path d="M248.8,378.1c0.2,0.1,0.2,0.2,0.2,0.3c0,0.1,0,0.1-0.1,0.2c-0.1,0.2-0.2,0.5-0.3,0.7c-0.1,0.7-0.3,1.8-0.3,2.5
			c1.3-1.3,3-2.2,4.7-2.2c2,0,3.3,1.2,3.3,3c0,1.5-0.9,2.5-2.1,3.1c-0.9,0.5-2.4,0.8-3.6,1c-0.3,0-0.4,0-0.6-0.2
			c-0.3-0.5-0.5-0.9-1-1.2c1.6-0.1,2.9-0.4,3.9-0.8c1.1-0.5,1.7-1.2,1.7-2.1c0-0.8-0.5-1.4-1.7-1.4c-1.2,0-2.7,0.8-4,2.1
			c-0.3,0.3-0.4,0.5-0.6,0.8c-0.1,0.1-0.1,0.1-0.3,0.1c-0.3-0.1-0.7-0.2-1-0.4c-0.1-0.1-0.2-0.1-0.2-0.3c0.1-1.6,0.3-3.3,0.4-4.5
			c0.1-0.4,0.1-0.8,0.1-1.3C247.9,377.8,248.5,378,248.8,378.1z M249.1,374.6c0.1-0.1,0.2-0.1,0.3-0.1c1,0.4,1.9,0.9,2.7,1.7
			c0.1,0.1,0.1,0.1,0.1,0.2c0,0,0,0.1-0.1,0.2c-0.2,0.3-0.5,0.7-0.7,1c-0.1,0.1-0.1,0.1-0.2,0.1c-0.1,0-0.1,0-0.2-0.1
			c-0.8-0.7-1.7-1.3-2.8-1.8C248.6,375.2,248.9,374.8,249.1,374.6z"/>
	</g>
	<g id="グループ_1222" transform="translate(142 333.5)">
		<g>
			<defs>
				<rect id="SVGID_1_" width="85.6" height="40.1"/>
			</defs>
			<clipPath id="SVGID_00000102522219052175015610000005709561172886859930_">
				<use xlink:href="#SVGID_1_"  style="overflow:visible;"/>
			</clipPath>
			<g id="グループ_1066" style="clip-path:url(#SVGID_00000102522219052175015610000005709561172886859930_);">
				<path id="パス_2073" class="st4" d="M40.5,7.8c-0.2,0.3-0.1,0.9-0.6,0.8l-0.2-1.5C40.3,6.9,40.3,7.6,40.5,7.8"/>
				<path id="パス_2074" class="st4" d="M42,9.4c-0.2,0.3-0.6,0.5-0.9,0.3c0,0-0.1,0-0.1-0.1l0.2-0.8C41.5,8.8,42.2,8.9,42,9.4"/>
				<path id="パス_2075" class="st4" d="M85.6,0.9c-0.1,0.8-1.1,0.8-1.7,1c-1.7,1.1-3.2,2.4-4.4,4c-1.2-0.6-1.1,1-1.9,1.3
					c-0.2,0.7-0.8,1.3-0.8,2.1c-1,0.6-0.9,1.4-1.7,2.1c-0.3,0.1-0.4-0.3-0.6-0.4c-0.8-2,2.4-1.5,1.3-3.4c0.7-0.5,1.3-1.3,1.7-2.1
					c-0.4-0.2,0-0.6,0.2-0.8c0.8,0.1,0.8-0.8,1.3-1.3l-0.2-0.2c0.4-0.4-0.7-1.3,0.2-1.5c1.5-0.7,1.2,2.6,2.7,0.8
					C82.3,1.2,84.6-1.3,85.6,0.9"/>
				<path id="パス_2076" class="st4" d="M73.2,11.1c-0.1,0.9-1.5,0.6-1.1,1.7c-2.2,0.6-2.6,2.8-4,4.2c0,0.3-0.2,0.7,0.2,0.8
					c-0.1,0.3-0.4,0.2-0.6,0.2c0-0.2,0.1-0.5-0.2-0.6h-0.4c0-0.2-0.1-0.5,0.2-0.6l-0.2-0.2c2.3-1.5,1.2-6.5,5-5.2L73.2,11.1z"/>
				<path id="パス_2077" class="st4" d="M76,15.5c0.1,1-1,0.7-1.5,1.1l-0.2-0.2C74.6,16,75.4,15.2,76,15.5"/>
				<rect id="長方形_645" x="72.6" y="17.4" class="st4" width="0.4" height="0.4"/>
				<path id="パス_2078" class="st4" d="M72.4,18.7c0.1,0.2-0.1,0.3-0.2,0.4h-0.4v-0.4H72.4z"/>
				<path id="パス_2079" class="st4" d="M34,33.8c-0.3,0.5-0.3,1.1-0.8,1.5C33.5,34.5,32.5,33.3,34,33.8"/>
				<path id="パス_2080" class="st4" d="M45.6,6.3c3.3,3.3,6.4,7.7,10.9,9c1.1,1.1,2.5,0.3,3.8,0.2c0.2,1.5,2.2,0.7,3.1,0.6
					c1-0.6,1.1-1.8,1.9-2.3c-0.2-0.4,0.2-0.6,0.4-0.8h0.4c-0.1,2.1-2.3,4.7,0.6,6.1c0.3,0.7,0.1,1.6,1,2.1c0.8-0.2,1.2-1.7,2.3-1.3
					c-0.9,0.8-1.9,2.3-3.3,2.3c-0.8,0.5-0.5,1.2-1.5,1.5l-0.6-0.6L64,23.7l0.2,0.2c-0.2,0.8-1.1,0-1.5,0.4c-1.2-0.8-2,0.6-2.9,1.1
					c-1.5,1.7-3.1,3.6-2.9,5.7c-0.4,0.2-0.2,0.6-0.2,0.8c0.2,0.4-0.5,1-0.2,1.7c-2.5-1.9-5.8-2.1-8.4-3.8c-1.7-0.5-3.5,0-4.8,1.3
					c-0.5,2.4-1.6-1.1-2.5-0.2c-0.4-0.4-1-0.2-1.5-0.2c-0.7,0.3-1.1,1-1.3,1.7c0.5,1,1.4,1.6,2.5,1.7l0.2-0.2
					c0.8,0.8,1.9,1.9,3.1,2.1c-0.2,2.2-3.3,0.1-4.2,1.9c-0.5,0.6,0.4,1.5-0.8,1.5c-0.3,0.7-1.1,1.2-1.7,0.6
					c-1.1-1.6,1.3-3.9-0.4-5.3c-0.7-0.4-1.3-0.9-1.9-1.5l0.4-2.7c1.2-1.4,2.8-1.4,3.4-3.3c0-1.2-2.4-1.6-0.6-2.7
					c1.7,0,2.9,1.8,4.8,0.8c0.6-0.5,1.1-1.1,1-1.9l-0.2-0.2c0.2-0.9-0.9-2-0.2-3.2c0.7-0.5,1.1-1.3,1.3-2.1l-0.2-0.2
					c0.2-0.1,0.2-0.4,0.2-0.6l-0.2-0.2c0.1-0.1,0.2-0.2,0.2-0.4c-0.2-1.1,1.3-2.4,0.2-3.6c0-0.2-0.1-0.3-0.2-0.4
					c0-0.8-0.9-1.7-0.8-2.7l-0.4-0.4c0.2-0.8-0.3-1.6,0.2-2.5l0.6,0.4C45,6.8,44.6,6,45.6,6.3"/>
				<path id="パス_2081" class="st5" d="M33.2,23.7C33.3,23.6,33.1,23.6,33.2,23.7c0-0.1,0-0.1,0-0.1c0,0,0-0.1,0-0.1c0,0,0,0,0,0
					c0,0,0-0.1,0-0.1l0,0l-0.1,0l0,0c0,0,0-0.1-0.1-0.1c0,0,0,0,0,0c-0.1,0,0-0.1-0.1-0.1c0,0,0-0.1,0-0.1c0,0,0-0.1,0-0.1
					c0-0.1-0.1-0.1-0.1-0.1c-0.1,0,0-0.1-0.1,0c0-0.1-0.1,0-0.1-0.1c0,0-0.1,0-0.1,0c0,0-0.1,0-0.2,0c0,0,0,0,0,0c0,0,0,0-0.1,0
					c0,0-0.1,0-0.1,0l0,0l0,0l0,0c-0.1,0-0.1-0.1-0.1,0c-0.1,0-0.1,0-0.2,0c0,0-0.1,0.1-0.1,0c0,0-0.1,0.1-0.1,0.1c0,0-0.1,0-0.1,0
					c0,0-0.1,0-0.1,0c-0.1,0-0.1,0-0.1,0l0,0c0,0-0.1,0-0.2,0.1h0c0,0.1-0.1,0-0.2,0c0,0.1-0.1,0.1-0.1,0.1l0,0c0,0-0.1,0-0.1,0l0,0
					c0,0,0,0-0.1,0.1l0,0l-0.1,0c0,0.1-0.1,0-0.1,0.1c-0.1,0-0.1,0-0.2,0.1c0-0.1-0.1,0-0.1,0v0c0,0,0,0,0,0l0,0c0,0-0.1,0-0.1,0
					l0,0c-0.1,0-0.1,0-0.2,0c0.1,0.1,0,0,0,0.1c0,0-0.1,0-0.1,0c0,0.1-0.1,0-0.1,0.1l0,0c-0.1,0,0,0.1-0.1,0.1c-0.1,0-0.1,0.1-0.1,0
					v0c0,0,0,0,0,0c0,0,0,0-0.1,0l0,0c0,0,0,0-0.1,0c0,0,0,0,0,0l0,0l0,0H29c-0.1-0.1-0.1,0-0.1,0c0-0.1-0.1,0-0.1,0c0,0,0,0,0,0
					c0,0,0,0,0,0c0-0.1-0.1,0-0.1,0v0l0,0l0,0l-0.1,0c0,0,0,0,0,0c0,0,0,0-0.1,0c0,0,0,0,0,0h0c0,0-0.1-0.1-0.1-0.1v0c0,0,0,0,0,0
					c-0.1,0-0.1-0.1-0.2-0.1c-0.1-0.1-0.2,0-0.3-0.1l0,0l-0.1,0c0,0,0-0.1,0-0.1l0,0h0c-0.1,0,0-0.1,0-0.1c0,0,0,0,0,0l0,0l0,0l0,0
					l0,0c0,0,0,0,0,0c0,0,0,0,0-0.1c0.1,0-0.1-0.1,0-0.1h0c0,0,0,0,0,0l0,0c0,0-0.1-0.1-0.1-0.1h0c0-0.1-0.1,0-0.1-0.1
					c0,0.1-0.1,0-0.1,0l0,0l-0.1,0c0,0,0,0,0,0l-0.1,0v0c0,0,0,0,0,0s0,0-0.1,0l0,0l-0.1,0c-0.1,0-0.2-0.1-0.2-0.1c0,0,0-0.1,0-0.1
					l-0.1,0c0,0,0,0,0-0.1c0,0,0,0,0,0c0-0.1-0.1,0-0.1-0.1c-0.1,0-0.1,0-0.2,0c0,0,0,0,0,0c0,0-0.1,0-0.1,0c0,0-0.1,0-0.1,0l0,0
					c0,0-0.1-0.1-0.1-0.1c0,0-0.1-0.1-0.1-0.1c0,0,0,0,0,0l0,0c0,0,0,0-0.1,0c0,0-0.1,0-0.1-0.1c-0.1,0-0.2,0-0.3-0.1
					c-0.1,0-0.1-0.1-0.2,0c0,0,0,0,0,0v0c-0.1,0,0,0.1-0.1,0.1c0,0,0,0,0,0c0,0-0.1,0-0.1,0c0,0-0.1,0-0.1,0c0,0.1-0.1,0-0.1,0.1
					l0,0c0,0.1-0.1,0-0.2,0c-0.1-0.1-0.1,0-0.2,0c0-0.1,0,0,0.1,0c0,0,0,0-0.1,0c0,0-0.1,0-0.1,0l0,0c-0.1,0-0.1,0-0.1,0
					c-0.1,0-0.1,0-0.2,0c0,0,0,0,0,0l0,0c0,0-0.1,0-0.1,0.1c0,0-0.1,0-0.2,0.1c0,0,0,0,0,0h0c-0.1,0-0.1,0-0.2,0c0,0,0,0-0.1,0
					c0,0,0,0,0,0c-0.1,0-0.1,0.1-0.2,0.1c-0.1,0-0.1,0.1-0.2,0l0,0c0,0-0.1,0-0.1,0c-0.1,0-0.1,0.1-0.2,0.1l0,0c-0.1,0-0.1,0-0.1,0
					c0,0.1-0.1,0.1-0.1,0.2c0,0-0.1,0.1-0.1,0.1c0,0,0,0.1-0.1,0.1c-0.1-0.1-0.1,0.1-0.1,0.1c0,0-0.1,0-0.1,0c0.1,0.1-0.1,0-0.1,0.1
					l0,0c0,0,0,0,0,0c0,0,0,0-0.1,0c0,0.1-0.1,0-0.2,0.1c0,0,0,0,0,0c0,0-0.1,0-0.1,0c-0.1,0,0,0.1,0,0.1c0,0,0,0-0.1,0c0,0,0,0,0,0
					c-0.1,0,0,0.1-0.1,0.1l0,0c0,0-0.1,0-0.1,0l0.1,0c0,0-0.1,0-0.1,0.1c0,0,0,0,0,0c-0.1,0-0.1,0-0.1,0c0,0.1-0.1,0-0.1,0.1
					c0,0-0.1,0-0.1,0c0,0,0,0-0.1,0c0.1,0-0.1-0.1,0.1-0.2l0,0c0-0.1,0.1-0.1,0.1-0.2c0,0,0-0.1,0,0c0,0,0-0.1,0-0.1
					c0.1,0,0-0.1,0-0.1c-0.1,0,0-0.1-0.1-0.1c0,0,0-0.1,0-0.1l0,0c0,0,0-0.1,0-0.1c0-0.1,0-0.1,0.1-0.1l0,0c0-0.1,0-0.1,0.1-0.2l0,0
					l0,0c0,0,0-0.1,0-0.1c0,0,0-0.1,0-0.1c0,0,0,0,0,0c0,0,0-0.1,0.1-0.1l0,0l0.1,0l0,0c0,0,0,0,0.1,0c0,0,0.1,0,0.1-0.1h0
					c0-0.1,0.1-0.1,0.1-0.1c0,0,0,0,0,0h0c0,0,0.1,0,0.1-0.1c0,0,0-0.1,0-0.1c0,0,0-0.1,0-0.1c0-0.1,0.1-0.1,0.1-0.1c0,0,0,0,0,0
					c0.1,0,0.1-0.1,0.1-0.2c0,0,0-0.1,0-0.1s0.1-0.1,0-0.1c0.1,0,0-0.1,0-0.1l0,0c0.1,0,0.1-0.1,0.1-0.1c0,0,0,0,0,0l0,0
					c0,0,0,0,0,0l0,0l0,0c0,0,0.1,0,0.1,0c0.1,0,0.1-0.1,0.2-0.1l0,0c0,0,0.1-0.1,0.1-0.1s0,0,0,0s0.1,0,0.1,0l0,0
					c0,0,0.1,0,0.1-0.1c0,0,0,0,0,0c0,0,0-0.1,0.1,0c0-0.1,0.1-0.1,0.1-0.2c0.1,0,0-0.1,0.1-0.1c0,0,0.1-0.1,0-0.1l0.1-0.1l0,0l0,0
					c0-0.1,0.1-0.2,0.1-0.3c0.1,0,0-0.1,0-0.1c0,0,0-0.1-0.1,0c0,0,0,0,0-0.1c0,0.1,0,0-0.1,0l0,0c0,0,0,0-0.1,0c0-0.1-0.1,0-0.1,0
					c0,0,0,0,0,0c0,0,0,0,0,0c0,0,0,0-0.1,0l0-0.1c0,0,0,0,0,0c0,0,0,0-0.1,0c0,0,0,0,0,0c0,0.1-0.1,0-0.1,0l0,0c0,0,0,0-0.1,0
					c0,0,0,0,0,0h0l0,0c0,0,0,0,0,0c0,0,0,0,0,0c0,0,0,0,0,0c0,0,0,0,0,0c0,0-0.1,0,0-0.1c0,0,0,0,0,0c0,0-0.1,0-0.1-0.1
					c0,0,0,0-0.1,0c0,0-0.1,0-0.1-0.1c0,0,0,0,0,0c0,0-0.1,0-0.1,0c0,0-0.1,0-0.1,0l0,0c0,0-0.1,0-0.1,0c0,0.1-0.1,0-0.2,0.1
					c0,0-0.1,0-0.1,0c0,0-0.1,0-0.1,0.1c0,0-0.1,0.1-0.1,0l0,0c0,0,0,0-0.1,0c0,0,0,0,0,0c0,0-0.1,0-0.1,0.1c0,0,0,0.1,0,0.1
					c0,0,0,0.1-0.1,0c0,0,0,0,0,0.1c0,0,0,0,0,0.1c0,0,0,0,0,0c0,0,0,0,0,0s0,0.1,0,0.1c0,0,0,0.1-0.1,0v0c0,0,0,0.1-0.1,0
					c0,0-0.1,0.1-0.1,0.1c0,0.1,0.1,0,0.1,0l-0.1,0c0,0,0,0,0,0.1c0,0,0,0,0,0l0,0l-0.2,0.2c0.1,0-0.1,0.1,0,0.1c0,0,0,0-0.1,0l0,0
					c0,0,0,0.1-0.1,0.1c0,0,0,0,0,0c-0.1,0,0,0.1-0.1,0.1c0,0,0,0,0,0.1l0,0l0,0c0,0,0,0.1,0,0.1c0,0-0.1,0,0,0.1c0,0,0,0,0,0.1
					c0,0,0,0,0,0c0,0-0.1,0.1,0,0.1c0,0,0,0,0,0c0,0,0,0.1,0,0.1l-0.1,0c0,0,0,0,0,0l0,0c0,0.1,0,0,0,0.1c0,0,0,0,0,0
					c0,0-0.1,0-0.1,0c0,0,0,0-0.1,0.1l0,0c0,0-0.1,0-0.1,0.1c0,0,0,0,0.1,0v0c0,0,0,0-0.1,0v0c0,0,0,0,0,0c0,0.1-0.1,0.2-0.2,0.2
					l0,0c0,0-0.1,0.1-0.1,0.1l0,0c0,0,0,0.1-0.1,0.1c0,0,0,0,0,0.1l0,0c0,0,0,0,0,0l0,0l0,0c0,0,0,0,0,0c0,0,0,0,0,0
					c0,0,0,0.1,0,0.1l0,0c0,0,0,0,0,0.1l0,0l0,0l0,0l0,0c0,0,0,0,0,0c0,0,0,0.1,0,0.1c0,0-0.1,0-0.1,0c0,0,0,0,0,0c0,0-0.1,0-0.1,0
					v0c0.1,0-0.1,0.1,0,0.1h0c0,0,0,0,0,0.1h0c0,0,0,0.1,0,0.1c0,0.1-0.1,0-0.1,0.1c0,0,0,0.1,0,0.1l0,0c0,0,0,0-0.1,0.1
					c0,0,0,0.1,0,0.1c0,0,0,0-0.1,0.1s0,0,0,0l0,0c0,0,0,0.1,0,0.1c0,0,0,0.1,0,0.1c-0.1,0,0,0.1-0.1,0.1h0c0,0,0,0.1-0.1,0.1
					c0,0,0,0.1,0,0.1c0,0,0,0.1-0.1,0l0,0l0,0c0,0.1-0.1,0.1-0.2,0.1l0,0l0,0.1c-0.1,0,0,0.1-0.1,0.2c0,0,0,0,0,0c0,0,0,0,0,0
					l-0.1,0.1h0v0h0c0,0.1,0,0.1,0,0.1c0,0,0,0.1,0.1,0.1c0,0,0,0,0,0.1c0,0,0,0,0,0c0,0,0,0.1-0.1,0l0,0l0,0l0,0
					c0,0.1-0.1,0.1-0.1,0.1l0,0c0,0,0,0-0.1,0l0,0h0c0,0,0,0.1,0,0.1c0,0,0,0,0,0l0,0h0l0,0c0,0,0,0-0.1,0s0,0,0,0c0,0,0,0-0.1,0
					c0,0,0,0,0,0l-0.1,0.1h0.1L18.5,24l0,0c0,0,0,0,0,0.1c0,0,0,0.1,0,0.1l0,0c0,0-0.1,0.1,0,0.1c0,0-0.1,0.1-0.1,0.1l0,0
					c0,0-0.1,0-0.1,0.1c0,0,0,0.1,0,0.1c-0.1,0,0,0.1-0.1,0.1c-0.1,0-0.1,0.1-0.2,0.2c0,0.1-0.1,0.1-0.1,0.2c0,0-0.1,0,0,0.1
					l-0.1,0.1l0,0l0,0c0,0,0,0,0,0.1c0,0,0,0,0,0h0c0,0,0,0,0,0l0,0l0,0l0,0c0,0,0,0,0,0c0,0,0,0,0,0l0,0c0,0,0,0,0,0c0,0,0,0,0,0
					c0,0,0,0,0,0l0,0l0,0c0,0,0,0,0,0.1l0,0c0,0,0,0,0,0h0l0,0l0,0c0,0,0,0,0,0l0,0c0,0,0,0,0,0l0,0c0,0,0,0.1,0,0.1c0,0,0,0,0,0
					l0,0c-0.1,0.1,0,0,0,0.1l0,0c0,0.1,0,0.1,0,0.1h0c0,0.1,0,0,0.1,0s0,0,0,0c0,0,0,0.1,0,0.1c0,0,0,0,0.1,0c-0.1,0,0,0.1,0,0.1
					c0,0,0.1,0,0.1,0l0,0h0c0,0,0,0,0,0l0,0c0,0,0.1,0,0.1,0c0,0,0.1,0,0,0.1h0.1l0,0c0,0,0,0,0,0l0,0c0,0,0,0.1,0.1,0c0,0,0,0,0,0
					c0.1,0,0.2,0.1,0.2,0v0c0,0,0,0,0,0l0,0c0,0,0.1,0,0.1,0c0,0,0,0,0,0c0,0,0.1,0,0.1,0.1c0.1,0,0.1,0,0.2,0l0,0c0,0-0.1,0,0,0
					c0,0,0.1,0,0.1,0l0,0l0.1,0c0,0.1,0.1,0,0.1,0l0-0.1c0,0,0.1,0,0.1,0c0,0,0.1,0,0.1-0.1c0,0,0,0,0.1,0c0,0,0,0,0,0l0,0
					c0,0,0,0,0-0.1l0,0c0-0.1,0.1,0,0.1-0.1c0,0,0.1,0,0.1,0c0,0,0,0,0.1,0c0,0,0,0,0,0c0,0,0-0.1,0.1-0.1l0,0l0.1,0
					c0.1,0,0.1-0.1,0.2-0.1c0,0.1,0.1,0,0.1,0c0.1,0,0-0.1,0.1-0.1c0,0,0.1,0,0.1-0.1c0,0,0,0,0,0s0,0,0,0c0.1-0.1,0.1-0.1,0.2-0.1
					c0.1,0,0-0.1,0.1-0.1c0-0.1,0.1,0,0.1,0l0,0c0.1,0,0.1-0.1,0.2-0.2c0,0,0-0.1,0.1-0.1c0,0,0,0,0,0c0,0,0.1,0,0.1,0l0,0l0.1-0.1
					c0,0,0.1,0,0.1-0.1c0.1-0.1,0.2-0.1,0.2-0.3c0,0,0.1,0,0.1,0l0,0l0,0c0,0,0,0,0.1,0c0,0,0,0,0,0l0,0c0,0,0.1,0,0.1,0l0.1,0
					c0,0,0,0,0-0.1l0,0c0,0,0,0,0.1,0c0-0.1,0.1,0.1,0.1-0.1c0,0,0,0,0,0s0,0,0,0c0.1,0.1,0.1-0.1,0.2,0c0-0.1,0.1,0,0.1-0.1
					c0,0,0.1,0,0.1,0c0,0,0,0,0-0.1l0,0c0-0.1,0.1-0.1,0.1-0.1l0,0c0,0,0,0,0,0v0c0,0,0,0,0,0c0,0,0.1,0,0.2,0l0,0h0
					c0.1,0,0.2,0,0.2-0.1c0,0,0,0,0,0.1l0,0c0,0,0,0,0,0c0-0.1,0.1,0,0.2-0.1c0.1,0,0.1,0,0.1-0.1l0,0c0.1,0,0.1-0.1,0.1-0.1l0,0
					c0,0,0.1-0.1,0.2-0.1v0c0,0,0.1,0,0.1,0c0.1,0,0-0.1,0.1,0c0,0,0,0,0,0c0,0,0,0,0.1,0c0,0,0,0,0,0l0,0l0,0c0,0,0.1,0,0.1,0l0,0
					c0,0,0.1,0,0.1,0c0,0,0.1,0,0.1,0c0,0,0.1,0,0.1,0.1c0.1-0.1,0,0.1,0.1,0l0,0c0,0,0.1,0,0.1,0c0.1,0,0,0.1,0.1,0.1h0l0,0
					c0,0,0,0,0,0.1c0,0,0.1,0.1,0.1,0.1c0,0,0,0,0,0l0,0c0,0,0,0,0,0s0,0,0,0c-0.1,0,0.1,0.1,0,0.1c0,0,0.1,0.1,0,0.1l0.1,0
					c0,0,0,0,0,0.1l0,0c0,0,0,0,0,0s0,0,0.1,0c0,0,0,0,0,0c0,0,0,0,0.1,0c0,0,0,0,0,0c0.1,0,0,0.1,0.1,0.1l0,0l0,0l0,0.1
					c0,0,0,0,0,0c0,0,0,0.1,0,0.1c0,0,0.1,0,0.1,0h0c0,0,0,0,0,0s0,0,0,0l0,0h0v0h0c0,0.1,0.1,0.1,0.1,0.1c0,0,0,0,0,0
					c0,0,0,0.1,0.1,0c-0.1,0,0,0.1,0,0.1l0,0l0,0l0,0c0,0,0,0,0.1,0.1h0c0,0,0,0,0,0c0,0,0,0,0,0c0.1,0,0,0.1,0.1,0.1c0,0,0,0,0,0.1
					H26c0,0,0,0.1,0,0.1c0,0,0,0,0,0.1c0.1,0,0.1,0.1,0.1,0.1v0c0,0,0.1,0,0,0.1c0,0,0.1,0,0.1,0.1h0c0,0,0.1,0.1,0.1,0l0,0.1
					c0,0,0.1,0,0.1,0l0,0c0,0,0.1,0,0.1,0.1l0,0v0c0,0,0.1,0.1,0.1,0c0,0,0,0,0,0c0,0,0.1,0,0.1,0c0,0,0.1,0,0.1,0v0l0,0l0,0
					c0.1,0,0.1,0,0.2,0l0,0l0.1,0c0,0,0,0,0,0l0.1,0l0,0h0l0,0c0,0.1,0.1,0,0.2,0c0,0,0,0.1,0,0.1c0,0,0.1-0.1,0.1,0c0,0,0,0,0,0
					l0,0l0.1,0v0c0,0,0,0,0,0c0,0,0.1,0,0.1,0c0-0.1,0,0,0,0c0,0,0,0,0.1,0s0,0,0.1,0c0,0,0,0,0,0l0,0c0.1,0,0.1-0.1,0.1,0
					c0,0,0,0,0,0c0,0,0.1,0,0.1-0.1v0c0-0.1,0.1,0,0.1,0l0,0c0,0,0,0,0,0c0,0,0,0,0,0c0.1,0,0.2-0.1,0.2,0c0,0,0,0,0,0
					c0,0,0,0,0.1,0v0c0,0,0.1,0,0.1,0c0,0,0,0,0,0c0,0,0,0,0,0c0,0,0.1,0,0.1,0c0,0,0,0,0.1,0c0,0,0.1,0,0.1,0c0,0,0-0.1,0.1-0.1
					c0-0.1,0.1,0,0.1-0.1c0-0.1,0.1,0,0.1,0l0,0c0,0,0.1,0,0.1,0c0,0,0.1,0,0.1,0l0,0c0.1,0,0.1-0.1,0.1-0.2c0,0,0.1,0,0.1,0
					c0,0,0,0,0,0c0,0,0,0,0,0c0,0,0.1-0.1,0.1-0.1v0c0,0,0,0,0,0c0.1,0,0.1-0.1,0.1-0.1c0,0,0,0,0,0c0,0,0,0,0.1,0l0,0
					c0.1-0.1,0.1,0,0.2,0v0l0,0c0-0.1,0.1-0.1,0.1-0.1c0.1,0,0.1-0.1,0.2-0.1c0-0.1,0.1-0.2,0.1-0.2c0.1,0,0-0.1,0.1-0.1
					c0,0,0,0,0-0.1c0.1,0,0.1-0.1,0.2-0.2c0,0,0.1,0,0.1,0c0-0.1,0.1-0.1,0.2-0.1l0,0c0,0,0,0,0,0c0-0.1,0-0.1,0.1-0.1
					c0,0,0-0.1,0-0.1c0,0,0-0.1,0-0.1c-0.1,0,0-0.1,0-0.1c0-0.1,0.1-0.1,0.1-0.1c0.1,0,0.1,0,0.2,0c0,0.1,0.1-0.1,0.1,0
					c0,0,0.1,0,0.1,0c0,0,0,0,0.1,0c0,0,0,0,0,0c0,0,0,0,0.1-0.1l0,0c0,0,0.1-0.1,0.1-0.1c0,0,0.1-0.1,0.1,0c0,0,0.1-0.1,0.1-0.1
					c0-0.1,0.1-0.1,0.1-0.1c0.1-0.1,0-0.1,0-0.2c0,0,0,0,0-0.1c0,0,0-0.1,0-0.1c0,0,0,0,0,0c0-0.1,0.1-0.1,0.1-0.2l0.1,0
					c0,0,0,0,0-0.1l0,0C33.2,23.9,33.1,23.8,33.2,23.7C33.2,23.7,33.2,23.7,33.2,23.7 M19.1,26.9L19.1,26.9L19.1,26.9
					C19.1,26.9,19.1,26.9,19.1,26.9 M22.6,22.2C22.6,22.1,22.6,22.1,22.6,22.2C22.6,22.1,22.6,22.1,22.6,22.2 M26.4,27.1L26.4,27.1
					L26.4,27.1L26.4,27.1z M31.1,22.8L31.1,22.8C31.1,22.7,31.1,22.7,31.1,22.8C31.1,22.7,31.1,22.8,31.1,22.8"/>
				<path id="パス_2082" class="st5" d="M21.3,18.3C21.3,18.3,21.3,18.3,21.3,18.3L21.3,18.3L21.3,18.3z"/>
				<path id="パス_2083" class="st5" d="M28.5,27.3C28.5,27.3,28.5,27.3,28.5,27.3L28.5,27.3C28.6,27.3,28.6,27.3,28.5,27.3
					L28.5,27.3"/>
				<path id="パス_2084" class="st5" d="M29,27.3L29,27.3C29,27.3,29,27.3,29,27.3C29,27.3,29,27.3,29,27.3"/>
				<path id="パス_2085" class="st5" d="M46,23.8c0.1-0.1-0.1-0.1-0.1-0.2c0,0-0.1-0.1-0.1,0c-0.1-0.1-0.1,0-0.2,0v0
					c-0.1,0-0.2,0-0.4,0c0,0-0.1,0-0.1,0h-0.4c-0.1,0-0.2,0-0.2,0.1c-0.1-0.1-0.2,0-0.2,0c-0.1,0.1-0.2,0-0.2,0.1
					c-0.1,0-0.1,0-0.1-0.1c-0.1,0-0.1-0.1-0.1-0.1c0-0.1-0.1-0.1-0.1-0.1s0-0.1,0-0.1c0,0-0.1-0.1-0.1-0.1c0-0.1-0.1-0.2-0.1-0.3
					l-0.1-0.3c0,0,0.1-0.1,0-0.2c0-0.1,0-0.2,0-0.2c0-0.1,0-0.1,0-0.2c0.1,0,0-0.1,0-0.2c-0.1-0.1-0.2-0.2-0.2-0.4
					c0.1-0.1-0.1-0.2-0.1-0.3c0,0,0-0.1,0-0.1c0-0.1,0-0.1,0-0.2c0-0.1-0.1-0.3-0.1-0.4c-0.1-0.1-0.1-0.3-0.2-0.4
					c0-0.1-0.2-0.2-0.1-0.4c-0.1,0-0.2-0.1-0.1-0.2c0-0.1-0.1-0.1-0.2-0.2c-0.1-0.1-0.2-0.2-0.3-0.2c0,0,0,0-0.1,0
					c0-0.1-0.1,0-0.2-0.1c0,0.1-0.1,0-0.2,0c0,0.1-0.1,0.1-0.1,0.1l0,0c0,0.1-0.1,0.1-0.1,0.2c-0.1,0-0.1,0.1-0.2,0.2
					c0,0.1-0.1,0-0.1,0.1c0,0.2-0.2,0.1-0.2,0.3c-0.1,0,0,0.1,0,0.2c-0.1,0-0.1,0.2-0.2,0.2c0.1,0.1-0.1,0.1-0.1,0.2
					c0,0.1,0,0.2,0,0.2c-0.1,0,0,0.1,0,0.2c0,0,0,0,0,0c0,0.1,0,0.1,0,0.1c-0.1,0.4-0.1,0.8-0.1,1.2l0,0c-0.1,0.2-0.1,0.5-0.1,0.7
					l0,0c-0.1,0.1,0,0.2,0,0.3c0.2,0.1,0.1,0.3,0.2,0.5c-0.1,0,0,0.1,0,0.2c0.1,0.1,0,0.3,0.1,0.3c0,0.1,0.1,0.1,0.1,0.2
					c0.1,0.1,0.2,0.3,0.2,0.4l0,0c0.1,0.1,0.1,0.3,0.2,0.4c0.1,0,0.1,0.2,0.1,0.3c0.1,0.1,0.1,0.2,0.2,0.3c0,0.1,0,0.1,0.1,0.1
					c0,0,0,0,0,0.1c0.1,0.1,0.1,0.2,0.2,0.3c0,0,0,0.1,0,0.1c0,0,0,0,0,0c0,0.1,0.2,0.2,0.2,0.3c0.1,0,0.1,0.2,0.3,0.2
					c0.1,0.2,0.3,0.2,0.5,0.3c0.1,0,0.2,0.2,0.4,0.1c0.1,0.1,0.3,0,0.4,0.1c0-0.1,0.1-0.1,0.1-0.1c0,0.1,0.1,0,0.1,0
					c0,0,0.1,0,0.1,0c0.1-0.1,0.3,0,0.4-0.2c0.1,0,0.2-0.1,0.2-0.1c0.1,0,0.1-0.2,0.1-0.2c0.1,0,0.1-0.2,0.2-0.2
					c0-0.1,0.2-0.2,0.2-0.3c0.1,0,0-0.1,0.1-0.2c-0.1-0.1,0.1-0.2,0-0.2l0.1-0.1c0,0-0.1-0.1,0-0.1h0l0-0.2c0-0.1,0-0.2,0.1-0.3
					c0-0.1,0-0.2,0.1-0.3c0,0,0-0.1,0-0.1c0-0.1,0-0.2,0.1-0.3c-0.1-0.1,0.2-0.1,0.1-0.3c0.1,0,0.1-0.1,0.1-0.1l0-0.1
					c0,0,0.1,0,0.1-0.1c-0.1-0.1,0.2-0.1,0.1-0.2C46.1,24,46.1,23.9,46,23.8"/>
				<path id="パス_2086" class="st5" d="M51.7,22.5c0-0.2,0.1-0.3,0-0.5c-0.1-0.1,0-0.2-0.1-0.2c0-0.1-0.1-0.1,0-0.2
					c0.1-0.1-0.1-0.1,0-0.2c-0.1-0.1-0.1-0.2-0.1-0.3c0-0.1-0.1,0,0-0.1c-0.1-0.1-0.1-0.2-0.2-0.3c0-0.1,0-0.1-0.1-0.2
					c-0.1,0-0.2-0.1-0.3-0.1c-0.1-0.1-0.2,0-0.3-0.1c0,0-0.1-0.1-0.1,0c0-0.1-0.1-0.1-0.2-0.1c-0.1,0-0.1,0-0.1,0c0,0-0.1-0.1-0.2,0
					c0,0-0.1,0-0.2-0.1c-0.1,0-0.2-0.1-0.3-0.1c0-0.1-0.1,0-0.1,0l-0.2,0c0,0-0.1,0-0.1,0c-0.1-0.1-0.3,0-0.4,0.1c0,0,0,0.1-0.1,0.1
					v0c-0.1,0-0.1,0.1-0.2,0.1c0,0.1-0.2,0.2-0.1,0.3l-0.1,0l0.2,0.3c0,0,0.1,0,0.1,0.1c0,0.1,0.1,0.1,0.1,0.2
					c0.1,0.2,0.1,0.4,0.2,0.5c0,0,0.1,0,0.1,0c0,0,0,0,0,0l0,0c0.1,0.1,0.1,0.2,0.1,0.4c0.1,0.1,0.1,0.4,0.2,0.5
					c0.1,0.1,0.1,0.3,0.2,0.4c0,0.1,0.1,0.2,0.1,0.4c0.1,0,0.1,0.1,0.2,0.2c0.1,0,0.1,0.1,0.2,0c0.1,0.1,0.2,0,0.2,0
					c0.1,0,0.1-0.1,0.2,0c0.1,0,0.2-0.1,0.3-0.1c0-0.1,0.2-0.1,0.2-0.2c0.1-0.1,0.2-0.1,0.3-0.2c0-0.1,0.1-0.1,0.2-0.1
					c0.1-0.1,0.2-0.2,0.2-0.4C51.7,22.6,51.6,22.5,51.7,22.5"/>
				<path id="パス_2087" class="st5" d="M35.1,18.5c0,0.1,0,0.1,0.1,0.2c0,0,0,0,0,0c0,0.1,0.1,0.1,0.1,0.1c0,0.1,0.1,0.1,0.1,0.1
					c0.1,0,0.1,0.1,0.1,0.2c0,0,0,0,0,0.1c0.1,0,0,0.1,0.1,0.2c0.1,0,0.1,0.1,0.1,0.1c0,0.1,0.1,0,0.1,0.1c0,0,0.1,0,0,0
					c0,0,0,0,0.1,0c0,0.1,0.1,0.1,0.2,0.2c0,0.1,0.1,0.1,0.2,0.1c0,0,0,0.1,0.1,0c0,0.1,0.1,0.1,0.1,0.2c0,0.1,0.1,0.1,0.1,0.1
					c0,0,0.1,0,0.1,0c0,0.1,0.1,0,0.1,0.1c0.1,0,0.1,0,0.2,0c0,0,0,0.1,0.1,0.1c0.1,0,0.1,0,0.2,0c0,0,0.1,0,0.1,0c0,0,0.1,0,0.1,0
					c0,0,0.1,0,0.1,0c0,0,0.1,0,0.1,0c0,0,0,0,0.1,0c0.1,0,0.1,0,0.1-0.1c0,0,0,0,0.1,0c0,0,0,0,0.1,0c0-0.1,0.1,0,0.1-0.1
					c0,0,0,0,0,0c0,0,0.1-0.1,0.1-0.1c0-0.1,0-0.2,0-0.2c0.1-0.1,0.1-0.2,0.1-0.3c0,0,0-0.1,0-0.1c0,0,0,0,0,0c0,0,0-0.1,0-0.1
					c0,0,0,0,0-0.1c0,0,0-0.1,0-0.1c0,0,0,0,0,0c0,0,0,0,0,0c0,0,0,0,0-0.1c0-0.1,0-0.1,0-0.2c0,0,0-0.1-0.1-0.1c0-0.1,0-0.1,0-0.2
					c-0.1,0,0-0.1-0.1-0.2c0,0,0-0.1,0-0.1c0-0.1-0.1-0.1-0.2-0.2c0,0-0.1,0-0.1,0h0c0,0,0,0-0.1,0c0,0,0,0,0,0
					c-0.1,0-0.1-0.1-0.2-0.1c0,0-0.1,0-0.1-0.1c0,0,0,0-0.1,0l-0.2-0.2c0,0-0.1,0-0.1,0v0c0,0,0,0,0,0v0c-0.1,0-0.1,0-0.2,0
					c0,0-0.1,0-0.1,0c0,0-0.1,0-0.1,0c0,0-0.1,0-0.1-0.1c0,0-0.1,0-0.1,0c0,0,0,0-0.1-0.1c-0.1,0-0.1,0-0.2,0c0,0-0.1,0-0.1,0l0,0
					c0,0,0,0,0,0h-0.1c0,0-0.1,0-0.1,0c0,0,0,0,0,0c0,0-0.1,0-0.1,0.1c-0.1,0-0.1,0.1-0.1,0c-0.1,0.1-0.1,0-0.2,0.1
					c-0.1,0-0.1,0.1-0.1,0.1c0,0.1-0.1,0-0.1,0.1c0,0,0,0-0.1,0c0,0.1-0.1,0-0.1,0.1l0,0c0,0-0.1,0-0.1,0h0c0,0.1-0.1,0.1-0.1,0.2
					c0,0,0,0.1-0.1,0.1c0,0.1,0,0.2,0,0.2C35,18.5,35.1,18.5,35.1,18.5"/>
				<path id="パス_2088" class="st5" d="M39.5,25.9C39.5,25.9,39.5,25.9,39.5,25.9C39.5,25.8,39.5,25.8,39.5,25.9l0-0.1
					c0,0-0.1-0.1,0-0.2c0-0.1,0-0.1-0.1-0.1c0-0.1-0.1,0-0.1-0.1c0,0,0,0,0,0c0,0,0,0,0,0l-0.1,0c0,0-0.1,0-0.1,0c0,0,0,0,0,0l0,0
					l0,0h0c0,0-0.1,0-0.1,0l0,0c0,0-0.1,0-0.1,0c0,0,0,0,0,0c-0.1,0-0.1-0.1-0.1-0.1c0-0.1-0.1-0.1-0.1-0.2c0,0-0.1-0.1-0.1-0.1
					c-0.1,0,0-0.1-0.1-0.1c0-0.1-0.1,0-0.1-0.1c-0.1-0.1-0.2-0.1-0.2-0.2c-0.1,0-0.1-0.1-0.1-0.1c0,0-0.1,0-0.1-0.1c0,0-0.1,0-0.1,0
					s-0.1,0-0.1,0c0,0,0,0,0,0c0,0,0,0-0.1,0c-0.1,0-0.1-0.1-0.2,0c0,0-0.1-0.1-0.1,0c0,0-0.1,0-0.1,0c0,0,0,0,0-0.1c0,0,0,0,0,0
					c0-0.1,0.1,0,0.1-0.1c0,0,0.1-0.1,0.1-0.1c0,0,0.1-0.1,0.1-0.1c0-0.1,0.1-0.1,0.1-0.1c0,0,0,0,0,0c0-0.1,0.1-0.1,0.1-0.1
					c0.1-0.1,0.2-0.1,0.2-0.2c0,0,0-0.1,0.1-0.1c0.1-0.1,0.1-0.1,0.2-0.2c0.1,0,0.1-0.1,0.2-0.1c0-0.1,0.1-0.1,0.2-0.1
					c0.1-0.1,0.2-0.1,0.2-0.2c0,0,0.1,0,0.1-0.1c0.1,0,0-0.1,0.1-0.1c0,0,0,0,0,0c0,0,0-0.1,0.1-0.1c0-0.1,0-0.1,0.1-0.2
					c0,0,0-0.1,0-0.1c0,0,0,0,0,0c0,0,0-0.1,0-0.1c0,0,0-0.1,0-0.1c0,0,0,0,0-0.1c0-0.1,0-0.2-0.1-0.2c0,0,0,0,0,0
					c0,0-0.1-0.1-0.1-0.1c0-0.1-0.1-0.1-0.2-0.2c0,0,0,0-0.1,0l0,0c0,0,0-0.1-0.1-0.1c0-0.1-0.1-0.1-0.1-0.1c0,0,0,0-0.1,0
					c0,0-0.1,0-0.1,0c-0.1,0-0.1,0-0.2,0c0,0-0.1,0-0.1,0c0,0-0.1,0-0.1,0c0,0-0.1,0-0.1,0c0,0,0,0-0.1,0c0,0-0.1,0-0.1,0
					c0,0.1-0.1,0-0.1,0c0,0-0.1,0-0.1,0c0,0-0.1,0-0.1,0c0,0-0.1,0-0.1,0c-0.1,0-0.2,0-0.2,0v0c0,0,0,0-0.1,0c0,0-0.1-0.1-0.1,0
					c0,0,0,0,0,0c-0.1,0-0.1,0-0.1,0c-0.1,0-0.1,0-0.2,0c0,0-0.1,0-0.1,0c0,0,0,0-0.1,0c0,0-0.1,0-0.2,0c-0.1,0-0.1,0-0.2,0
					c0,0-0.1,0-0.2,0c0,0,0,0,0,0h0l0,0c0,0-0.1,0-0.1,0c0,0-0.1,0-0.1,0c0,0-0.1,0-0.1,0c0,0,0,0,0,0c-0.1,0-0.1,0-0.2,0
					c0,0,0,0-0.1,0c0,0-0.1,0-0.1,0s-0.3,0-0.3,0c0,0-0.1,0-0.1,0c0,0-0.1,0-0.1,0l0,0h-0.2c0,0,0,0,0,0h0l0,0c0,0,0,0,0,0
					s-0.1,0-0.1,0v0c0,0-0.1,0-0.1,0.1c-0.1,0-0.1,0.1-0.1,0.1c0,0,0,0.1-0.1,0c0,0-0.1,0-0.1,0.1c-0.1,0-0.1,0.1-0.1,0.1
					c0,0.1-0.1,0.1,0,0.1h0c-0.1,0,0,0.1,0,0.1c0,0,0,0.1,0.1,0.1c0.1,0.1,0.2,0.1,0.2,0.2c0.1,0,0,0.1,0.1,0.1c0,0,0,0,0,0.1
					c0,0,0.1,0.1,0.1,0.1c0,0.1,0.1,0.1,0.1,0.1c0.1,0,0.1,0.1,0.1,0.2c0.1,0,0,0.1,0.1,0.1c0,0,0.1,0,0.1,0.1
					c0.1,0,0.1,0.1,0.2,0.1c0,0,0.3-0.1,0.4,0c0,0,0.1,0,0.1,0c0,0,0,0,0.1,0s0.1,0,0.1,0c0.1,0,0.1,0,0.1,0c0,0,0.1,0,0.1,0
					c0,0,0,0,0,0c0.1,0,0.2,0,0.3,0c0,0,0,0,0.1,0c0,0,0,0,0,0c0,0,0.1,0,0.1,0c0,0,0,0,0,0c0.1,0,0.1,0,0.1,0c0,0,0.1,0,0.1,0
					c0,0,0.1,0,0.1,0c0,0,0.1,0,0.1,0c0.1,0,0.1,0.1,0.2,0.1s0.1,0.1,0.2,0.1c0,0,0,0,0,0c0,0,0.1,0,0.2,0c0.1,0,0,0.1,0.1,0.1
					l-0.1,0c0,0.1-0.1,0.1-0.1,0.1c0,0-0.1,0.1-0.1,0.1c0,0-0.1,0-0.1,0.1c0,0.1-0.1,0.1-0.1,0.1c0,0-0.1,0-0.1,0.1
					c-0.1,0,0,0.1-0.1,0c0,0.1-0.1,0.1-0.2,0.2c0,0,0,0-0.1,0c0,0.1-0.1,0-0.1,0.1c-0.1,0,0,0.1-0.1,0.1c0,0-0.1,0-0.1,0.1
					c-0.1,0,0,0.1-0.1,0.1c0,0,0,0-0.1,0.1l0,0c0,0,0,0,0,0c-0.1,0-0.1,0.1-0.1,0.1c0,0-0.1,0-0.1,0.1c-0.1,0,0,0.1-0.1,0.1
					c0,0,0,0,0,0.1c-0.1,0-0.1,0.1-0.1,0.1c0,0.1-0.1,0-0.1,0.1c0,0,0,0-0.1,0c0,0-0.1,0-0.1,0v0c0,0-0.1,0-0.1,0.1
					c0,0-0.1,0-0.1,0.1c0,0-0.1,0-0.1,0c0,0,0,0-0.1,0c-0.1,0-0.1,0.1-0.1,0c-0.1,0-0.1,0.1-0.1,0.1c0,0,0,0,0,0s0,0.1-0.1,0.1
					c0,0.1-0.1,0.1-0.1,0.1c0,0,0,0,0,0c0,0-0.1,0,0,0.1c0,0-0.1,0.1-0.1,0.1c-0.1,0,0,0.1-0.1,0.1c0,0,0,0.1-0.1,0.1
					c-0.1,0.1-0.1,0.1-0.1,0.2c0,0,0,0,0,0.1c0,0,0,0.1,0,0.1c0,0,0,0.1,0,0.1c0,0,0,0,0,0.1c0,0,0,0,0,0.1c0,0.1,0,0.2,0,0.3
					c0,0.1,0,0.1,0.1,0.2c0,0,0.1,0,0.1,0.1l0.1,0c0,0,0.1,0,0.1,0c0.1,0,0.2,0,0.4,0c0.1,0,0.1-0.1,0.2,0c0,0,0.1,0,0.1,0
					c0,0,0.1-0.1,0.1,0c0.1-0.1,0.2,0,0.2-0.1c0,0,0.1-0.1,0.1-0.1c0-0.1,0.1,0,0.2-0.1c0.1,0,0.1-0.1,0.1,0c0,0,0.1,0,0.2,0
					c0.1-0.1,0.1,0,0.2,0c0.1,0.1,0.1,0,0.2,0c0.1,0,0.1,0,0.2-0.1l0,0c0.1,0,0.1-0.1,0.1,0c0,0,0,0,0.1,0c0,0,0.1,0,0.1,0
					c0.1,0,0.2,0,0.2,0c0.1,0,0.1,0,0.2,0c0,0,0.1,0,0.1,0c0.1,0,0.1,0,0.2,0c0.1,0,0.1,0,0.2,0c0,0,0,0,0.1,0
					c0.1,0,0.1,0.1,0.2,0.1c0,0,0,0,0.1,0.1c0,0.1,0.1,0.1,0.2,0.2c0.1,0.1,0.2,0.2,0.3,0.2c0,0,0,0,0,0c0,0,0.1,0,0.1,0.1
					c0.1,0.1,0.1,0.1,0.2,0.1c0.1,0,0.1-0.1,0.1,0c0,0,0.1,0,0.1,0s0.1,0,0.1-0.1c0.1,0,0.1,0,0.1,0c0,0,0.1,0,0.1,0
					c0.1,0,0.1-0.1,0.2-0.1c0,0,0-0.1,0-0.1c0,0,0.1,0,0.1,0c0.1,0,0.1-0.1,0.1-0.1c0.1,0,0.1-0.1,0.1-0.1c0-0.1,0.1-0.1,0.1-0.1
					C39.6,26,39.6,25.9,39.5,25.9"/>
				<path id="パス_2089" class="st5" d="M5.4,24.2C5.6,24,5.3,24,5.3,23.7c-0.1-0.5,0.4-0.7,0.1-1.1c0.1-0.4,0.1-0.9-0.1-1.3
					c0-0.1,0.1-0.2,0-0.3c-0.2-0.1-0.2,0.4-0.3,0.3C4.9,21,4.7,21.6,4.6,21c-0.1,0-0.1,0.2-0.2,0.2C4.3,20.9,4,21,4,20.6
					c0-0.5-0.3-0.4-0.4-0.7c0-0.3-0.2-0.7,0-1c0-0.2,0-0.5-0.2-0.6c0-0.5-0.1-0.9-0.1-1.4C3,16.6,3,15.9,2.7,15.7
					c-0.1,0.3-0.3-0.1-0.4-0.2c-0.1-0.2-0.2,0-0.3,0.1c-0.1,0-0.1-0.2-0.2-0.2c0,0.1-0.2,0.2-0.3,0.2c0,0.1,0,0.4-0.2,0.3
					c-0.1,0.1-0.1,0.3-0.1,0.5C1,16.4,1,16.8,0.8,16.9c-0.1,0.5-0.4,0.5-0.5,1c-0.1,0.2,0.1,0.6-0.1,0.6c0,0.1-0.2,0.3-0.2,0.4
					c0.2,0.4-0.1,0.7,0.2,1.1c-0.2,0.4,0.1,0.9-0.2,1.2c0,0.2,0,0.4-0.1,0.6c0,0.2,0.2,0.1,0.2,0.2c0,0.4,0.2,0.5,0.3,0.8
					c0,0.5,0.1,1,0.3,1.5c0.4,0.3,0.1,1.2,0.5,1.2c0.3,0.1,0.2,0.6,0.4,0.7c0.2,0.2,0.1,0.7,0.4,0.6c0.3-0.7,0.2,0.5,0.6,0.5
					c0.1,0.1,0,0.3,0.1,0.4c0.1-0.2,0.3,0.1,0.4,0.1c0.1-0.3,0.3,0.2,0.5,0c0.3,0.6,0.4-0.5,0.7-0.1C4.8,27.4,5,27.1,5,26.8
					c0.3-0.3,0.4-0.7,0.3-1.1c0.2,0.1,0.3-0.3,0.4-0.5l-0.2-0.4C5.6,24.7,5.4,24.5,5.4,24.2"/>
				<path id="パス_2090" class="st5" d="M18.2,22.2L18.2,22.2c0-0.2-0.1-0.3-0.2-0.4c0,0,0,0,0.1-0.1c0-0.1-0.1-0.2-0.1-0.2
					c-0.1,0,0-0.1,0-0.1c-0.1-0.1,0-0.2-0.1-0.2c0-0.2-0.2-0.1-0.3-0.3c-0.1,0-0.1-0.1-0.2-0.1c-0.1,0-0.2-0.1-0.3-0.1
					c-0.1-0.1-0.2-0.1-0.3-0.2c-0.1,0-0.2-0.1-0.3-0.1c-0.1-0.1-0.4,0-0.5-0.1c-0.2,0-0.3-0.1-0.5-0.1v0c-0.1,0-0.2,0-0.3,0
					c0,0-0.1,0-0.1,0c-0.1,0.1-0.2,0-0.3,0c0,0-0.1,0-0.1,0c-0.1,0-0.2,0-0.3,0c-0.1,0-0.1-0.1-0.2-0.2c0-0.1,0-0.2,0-0.3
					c0-0.1-0.1-0.1-0.1-0.2c0-0.1,0-0.1,0-0.2s0-0.1,0-0.2c-0.1-0.1,0-0.3-0.1-0.4c0,0,0-0.1,0-0.1c-0.1-0.1-0.1-0.1,0-0.2
					c-0.2-0.1,0-0.3-0.1-0.3c-0.1-0.1,0-0.2,0-0.3c0.1-0.1-0.1-0.2-0.1-0.3c0,0,0-0.2,0.1-0.2c0,0,0,0,0,0c0-0.1,0.1-0.1,0.1-0.2
					c0.1-0.1,0.2,0,0.3,0c0.2,0,0.4,0,0.6,0c0.1-0.1,0.2-0.1,0.3-0.2c0-0.1,0.1-0.1,0.1-0.1c0.1,0,0-0.1,0.1-0.1
					c0-0.1,0.1-0.1,0.1-0.2c0,0,0,0,0-0.1l0,0c0,0,0-0.1,0-0.1c0,0-0.1-0.1,0-0.1c-0.1-0.2,0.1-0.3,0.1-0.4h0c0,0,0-0.1,0-0.1
					c0.1,0,0-0.2,0.2-0.2c0-0.1,0-0.2-0.1-0.3c0,0,0,0,0,0c0.1-0.1,0-0.1,0-0.2s0-0.1,0-0.2c-0.1-0.1,0-0.2-0.1-0.4
					c0-0.1-0.1-0.1-0.2-0.1c0-0.1-0.1-0.1-0.2-0.1C15.2,14,15,14,14.9,13.9l0,0c0-0.1,0-0.1-0.1-0.1c0-0.1-0.1-0.1-0.1-0.2
					c0,0,0-0.1,0-0.1c0-0.1-0.1-0.2-0.1-0.4c0,0,0-0.1,0-0.1c0,0-0.1-0.1-0.1-0.1c0,0.1-0.1,0-0.1,0C14.2,12.9,14,13,13.8,13
					c-0.1,0-0.1,0-0.1,0.1c-0.2,0.1-0.3-0.1-0.5,0c0,0-0.1,0-0.1-0.1c-0.1,0-0.2,0-0.2,0c-0.1,0-0.2,0-0.3,0
					c-0.1-0.1-0.2-0.1-0.2-0.2l-0.1,0c-0.1,0-0.2,0-0.3,0c-0.1,0-0.1-0.1-0.2-0.1c-0.1,0-0.2-0.2-0.3-0.2c0,0,0-0.1-0.1,0
					c-0.1-0.1-0.3-0.2-0.4-0.3c0,0-0.1-0.1-0.1-0.1c-0.1,0-0.2,0-0.2,0.1c0,0,0,0.1,0,0.2c0,0,0,0,0,0c0,0,0-0.1,0-0.1c0,0,0,0,0,0
					c0,0-0.1-0.1-0.1-0.1c-0.1,0-0.1-0.1-0.1-0.2c0,0,0,0,0,0l0-0.1c0-0.1,0-0.1,0-0.1l0,0c0-0.1-0.1-0.1-0.1-0.2l-0.1-0.1
					c-0.1-0.1-0.2-0.1-0.2-0.1c-0.1,0-0.1,0-0.2,0c-0.1,0-0.2,0-0.2,0c-0.1,0-0.1,0.2-0.1,0.2c0,0.1,0,0.3-0.1,0.3
					c-0.1,0.1,0,0.2,0,0.3c0,0.1,0,0.2,0,0.3c0,0,0,0.1,0,0.1c0,0,0,0,0.1,0c0,0.1,0.1,0.1,0,0.2h0c0,0,0.1,0.1,0,0.1l0,0
					c0,0,0,0.1,0,0.1c0,0.1,0.1,0.2,0.1,0.4c0,0,0,0.1,0,0.1c0,0.1-0.1,0.1-0.1,0.2c0,0.1-0.1,0.1-0.2,0.1c-0.1-0.1-0.2,0.1-0.3,0.1
					c-0.2,0.2-0.5,0.1-0.8,0.2l0,0l0,0c-0.2,0-0.3,0-0.5,0c-0.1,0-0.2,0-0.3,0.1c0,0.1-0.1,0.1-0.2,0.2c-0.1,0.1-0.2,0-0.2,0.1
					c-0.1,0-0.1,0.1-0.2,0.1c-0.1,0-0.2,0.1-0.3,0.2c0,0,0,0.1,0,0.1c-0.1,0-0.1,0.1-0.1,0.1C6.3,14.8,6.2,15,6,15
					c0,0.1-0.1,0.1-0.2,0.2c0,0,0,0.1,0,0.1c-0.1,0-0.2,0.1-0.2,0.1c-0.1,0,0,0.1-0.1,0.1c0.1,0,0.2,0,0.3,0
					c0.2,0.1,0.3,0.1,0.5,0.1c0.1,0.1,0.2,0,0.3,0c0.1,0,0.1,0,0.2-0.1c0.2,0,0.3-0.1,0.5-0.1c0.1,0,0.2,0.1,0.2,0
					c0.2,0.1,0.4-0.1,0.6,0c0,0.1,0,0.1,0.1,0.2c0.1,0.1,0.1,0.1,0.2,0.1C8.5,15.9,8.6,16,8.7,16c0.1,0,0.1,0.1,0.2,0
					c0,0,0.1,0.1,0.1,0c0,0,0.1,0,0.1,0.1c0.1,0,0.1,0.1,0.2,0.1c0.1,0,0.1,0,0.2,0c0.1,0.1,0.2,0,0.3,0.1c0,0.1,0.1,0,0.1,0.1
					c0.1,0,0.1,0.1,0.1,0c0,0,0.1,0,0.1,0.1c0.1-0.1,0.1,0.1,0.1,0c0,0,0.1,0.1,0.1,0.1c0.1,0,0,0.1,0.1,0.1c0,0,0,0,0,0
					c0,0,0,0,0,0l0,0l0.1,0c0,0,0.1,0.1,0,0.1h0c0,0.1,0,0.2,0.1,0.2l0,0c0,0,0,0.1,0.1,0.1c0,0.1,0,0.1,0,0.2c0,0,0,0.1,0,0.1
					c0,0.1,0.1,0.1,0,0.2c0,0,0,0.1,0.1,0.1c0.2,0.1,0.1,0.2,0.2,0.4c-0.1,0,0,0.1,0,0.1c0,0,0,0.1,0,0.1c0.1,0,0,0.2,0.1,0.2l0,0
					c0.1,0.1,0.1,0.2,0.1,0.3l0,0c0,0.1,0,0.1,0.1,0.2c0,0,0,0,0,0.1c0.1,0,0.1,0.1,0.1,0.2c0,0.1,0.1,0.2,0.1,0.3
					c-0.1,0.1,0,0.2,0,0.2c0,0.1,0,0.1,0.1,0.2l0,0c0.1,0.1,0,0.2,0.1,0.3h0c0,0.1,0.1,0.1,0,0.2c0.1,0.1,0,0.1,0,0.3
					c0,0.1,0,0.1,0,0.1c0,0-0.1,0.1,0,0.2c-0.1,0,0,0.1-0.1,0.1c-0.1,0.1-0.1,0.1-0.1,0.2c-0.1,0-0.1,0.1-0.1,0.1
					c0,0.1-0.1,0.1-0.1,0.1c-0.1,0,0,0.1-0.1,0.1c0,0.1-0.1,0.1-0.2,0.2c-0.1,0-0.2,0.1-0.2,0.1s0,0.1-0.1,0.1
					c-0.1,0-0.1,0.1-0.2,0.1c0,0,0,0,0,0.1c-0.1,0-0.1,0.1-0.2,0.1c0,0.1-0.1,0.1-0.2,0.1c0,0-0.1,0-0.1,0c0,0-0.2,0.1-0.2,0.2
					c0,0.1-0.1,0.1-0.1,0.1c0,0.1-0.2,0.1-0.2,0.2c0,0-0.1,0-0.1,0.1c-0.1,0,0,0.1-0.1,0.1c0,0-0.1,0-0.1,0.1
					c-0.1,0-0.1,0.1-0.1,0.1c-0.2,0.1-0.2,0.2-0.3,0.3c0,0,0,0,0,0c0,0,0,0,0,0L8.4,24v0c-0.1,0-0.1,0.1-0.1,0.1c0,0,0,0.1-0.1,0.1
					c0,0.1-0.1,0.1-0.2,0.2c-0.1,0-0.2,0.1-0.2,0.2c-0.1,0,0,0.1-0.1,0.1c0,0,0,0,0,0.1c0,0,0,0,0,0.1c0,0,0,0,0,0c0,0,0,0,0,0
					c0,0,0,0.1-0.1,0.1c0,0,0,0,0,0c0,0.2-0.1,0.3-0.3,0.4c0.1,0.1,0,0.2-0.1,0.3c-0.2,0.1,0,0.3,0,0.4c0.1,0,0.1,0.1,0.1,0.2
					c0.1,0.1,0,0.2,0,0.3c0.1,0.1,0.1,0.3,0.2,0.5c0.1,0,0.1,0.1,0.1,0.2c0.1,0.1,0,0.2,0.2,0.2c0,0,0,0.1,0.1,0.1
					c0.1,0.1,0.2,0.2,0.2,0.3c0.1,0.1,0.2,0.2,0.3,0.3h0.2c0,0,0.1,0.1,0.2,0c0,0,0,0,0,0c0,0.1,0.1,0.1,0.1,0.1c0.1,0,0.2,0,0.2,0
					c0,0.1,0.1,0,0.1,0.1c0,0,0,0,0,0l0.1,0.1c0,0.1,0.1,0.1,0.1,0.1c0.2,0.1,0.3-0.1,0.4-0.1c0-0.1,0.1,0,0.1-0.1
					c0.1-0.1,0.2,0,0.3,0.1c0,0.1,0.1,0,0.2,0.1c0.1,0,0.3,0.1,0.4,0.1c0.1,0,0.2,0.1,0.4,0c0.1,0,0.2,0,0.3,0.1
					c0.1,0.1,0.3,0.1,0.4,0.1c0.1,0.1,0.2,0.1,0.3,0.2c0.1,0.1,0.2,0.2,0.3,0.2c0.1,0,0.1,0.1,0.1,0.1c0.1,0.2,0.2,0.1,0.4,0.1
					c0.1,0,0.1,0.1,0.2,0.1c0.1,0,0.2,0,0.2,0.1c0,0,0.1,0,0.1,0c0,0,0,0,0,0c0.1-0.1,0.3-0.2,0.5-0.2c0.2,0,0.2-0.2,0.3-0.3
					c0,0,0,0,0,0c0-0.1,0.2-0.1,0.1-0.2c0.1-0.1,0.2-0.2,0.2-0.4h0c0,0,0,0,0,0c0-0.1,0-0.1,0.1-0.1c0,0,0.1-0.1,0-0.1l0,0v0
					c-0.1-0.1,0.1-0.1,0-0.1c0.1-0.1,0.1-0.2,0.1-0.4c0.1-0.1,0-0.4,0.1-0.5c-0.1-0.1,0-0.2-0.1-0.3c0-0.1,0-0.3,0-0.4c0,0,0,0,0,0
					c-0.1-0.1,0-0.3,0-0.4c0,0,0,0,0,0c0-0.1,0.1-0.1,0.1-0.2c0-0.1,0-0.2,0-0.2c0-0.1,0-0.1,0-0.2c-0.1-0.1,0-0.1,0-0.2
					c0-0.1,0-0.1,0-0.2c-0.1,0,0-0.1,0-0.2c0,0,0-0.1,0,0c0,0,0,0,0,0h0c0,0,0-0.1,0-0.2c0,0,0-0.1,0-0.1c0-0.1,0-0.2-0.1-0.4
					c0,0,0-0.1,0-0.1c0,0,0-0.1,0-0.1c0.1,0,0-0.1,0-0.1c0-0.1,0-0.2,0-0.3c0.1,0,0-0.1,0-0.2l0,0c0-0.1,0.1-0.1,0.1-0.1
					c0.1-0.1,0.3-0.2,0.3-0.3c0.1,0,0.1-0.1,0.1-0.1c0-0.1,0.2-0.2,0.3-0.3c0.1-0.1,0.2-0.1,0.1-0.2c0.1,0,0.2-0.1,0.2-0.1
					c0.1,0,0.2-0.1,0.4,0c0,0,0.1,0.1,0.1,0.1c0.2,0.1,0.1,0.3,0.2,0.4v0c0,0,0,0,0,0c0,0,0,0,0,0.1c0,0.1,0.1,0.1,0.1,0.1
					c0.1,0,0,0.1,0.1,0.1c0.1,0.1,0.1-0.1,0.2-0.1c0-0.2,0.2-0.1,0.3-0.1c0-0.1,0.2,0.2,0.1,0.1c0-0.1,0-0.1,0-0.2c0,0,0.1,0,0.1,0
					c0,0,0,0,0,0l0.1-0.1c0.1,0,0.1-0.1,0.1-0.1C18.2,22.3,18.2,22.2,18.2,22.2C18.2,22.2,18.2,22.2,18.2,22.2 M12.4,26
					c0,0.1,0,0.3-0.1,0.4c0,0.1-0.1,0.1-0.1,0.2c-0.1,0-0.1,0.1-0.1,0.1c0,0,0,0,0,0c0,0,0,0,0,0.1c-0.1,0-0.1,0.1-0.1,0.1
					c0,0.1-0.1,0.1-0.1,0.1c-0.1,0-0.1,0.1-0.2,0c-0.1,0-0.2,0-0.3,0c0,0-0.1-0.1-0.1,0c-0.1,0-0.1,0-0.1,0c-0.1,0.1-0.1,0-0.2,0
					c0,0,0,0,0,0c0,0.1-0.1,0-0.1,0l0,0l0,0c0,0,0,0-0.1,0l0,0c0,0-0.1-0.1-0.1-0.1c0-0.1,0.1-0.1,0-0.2c0.1-0.1,0-0.2,0.1-0.3
					c0,0,0,0,0,0c0,0,0-0.1,0-0.1l0,0c0-0.1,0-0.1,0.1-0.1c0,0,0-0.1,0-0.1c0.1,0,0.1-0.1,0.2-0.1c0-0.1,0.1,0,0.1-0.1
					c0.1,0,0-0.1,0.1-0.1c0.1,0,0-0.1,0.1-0.1c0-0.1,0.1-0.1,0.2-0.2c0,0,0-0.1,0.1-0.1c0,0,0-0.1,0.1-0.1c0,0,0-0.1,0-0.1
					c0.1,0,0.1-0.1,0.1-0.1c0,0,0,0,0,0c0,0,0,0,0,0c0.1,0,0-0.1,0.1,0l0,0c0.1,0.1,0.2,0.1,0.3,0.1l0,0c0,0,0,0,0,0c0,0,0,0,0,0.1
					l0,0c0,0,0,0,0,0.1c0.1,0,0,0.1,0.1,0.2c0,0,0,0.1,0,0.1c0,0.1,0,0.2,0,0.3C12.4,25.8,12.5,25.9,12.4,26"/>
				<path id="パス_2091" class="st5" d="M19.7,10.1c0,0.1,0.1,0,0.2,0.1c0-0.2,0.2,0,0.3-0.1c0,0.1,0.2,0,0.2,0.1c0,0,0,0,0,0
					c0,0.1,0.1,0,0.1,0l0,0c0,0,0.1,0,0.2,0c0.1-0.1,0.1,0.1,0.2,0.1c0,0,0,0.1,0,0.1c0.1,0-0.1,0.2,0.1,0.2c0.1,0.1-0.1,0.3,0,0.4
					c-0.1,0,0,0.1-0.1,0.2c0.1,0,0,0.1,0.1,0.2c-0.1,0-0.1,0.1,0,0.1l0.1,0.1c-0.1,0-0.1,0.1-0.1,0.2c0,0,0.1,0,0.1,0.1l0,0
					c0,0,0,0.1,0,0.1c-0.2,0.1,0,0.2,0,0.3c-0.2,0,0.1,0.2-0.1,0.2l0,0l-0.1,0.1l0,0l0,0c0.1,0.2-0.2,0.1-0.1,0.3
					c-0.1,0-0.1,0.1-0.1,0.1c0,0,0,0,0,0.1c0,0.1-0.1,0-0.1,0.1l0,0c0,0-0.1,0-0.1,0.1c-0.1-0.1-0.1,0.2-0.3,0.1
					c-0.1,0-0.1,0.1-0.2,0c-0.1,0-0.2,0.2-0.3,0.1c0,0-0.1,0-0.1,0c-0.1,0-0.1,0-0.2,0c0,0,0,0,0,0c-0.1,0-0.1,0.1-0.3,0.1
					s-0.1-0.3-0.3-0.2c0-0.1-0.1-0.1-0.2-0.1c-0.2,0-0.2-0.3-0.5-0.4c-0.1-0.1-0.1-0.2-0.2-0.3c0-0.1,0-0.1-0.1-0.1
					c0-0.1,0-0.2,0.1-0.2c-0.1-0.1,0-0.4-0.1-0.5c0.1,0,0.1-0.2,0.1-0.3c0-0.1,0-0.1,0-0.2c0,0,0,0,0,0c0,0,0-0.1,0-0.1l0,0
					c-0.1,0,0-0.1,0-0.1c0.1,0,0.2-0.1,0.2-0.1c0.1,0,0-0.1,0-0.2c0.1-0.1,0.3-0.2,0.4-0.3c0.1,0.1,0.1-0.1,0.2-0.1
					c0.1,0,0.3-0.1,0.3-0.2c0,0,0.1,0,0.1,0c0.1,0.1,0.1-0.1,0.1,0c0.1-0.1,0.1,0,0.2,0C19.6,10.2,19.6,10.1,19.7,10.1"/>
				<path id="パス_2092" class="st5" d="M16.8,12.2C16.9,12.2,16.9,12.3,16.8,12.2c0.1,0,0.2,0,0.3,0h0c0,0,0,0,0,0
					c0.1,0,0.1,0,0.1,0.1c0,0,0,0,0,0c0,0,0.1,0,0.1,0c0,0.1,0.1,0,0.1,0.1c0,0,0.1,0,0.1,0c0.1,0,0,0.1,0.1,0.1c0,0,0,0,0,0
					c0,0.1,0.1,0.1,0.1,0.1c0,0,0,0.1,0,0.1l0,0c0,0,0,0.1,0,0.1c-0.1,0.1,0,0.1,0,0.1c0.1,0.1,0.1,0.1,0.2,0.2c0,0.1,0,0.1,0,0.2
					c-0.1,0-0.1,0.1-0.1,0.1c0,0,0,0,0.1,0c0,0.1,0,0.1-0.1,0.2c0.1,0-0.1,0.1-0.1,0.1l0,0c0,0,0,0.1,0,0.1c0,0-0.1,0-0.1,0.1
					c0,0,0,0,0,0.1c-0.2,0,0,0.2-0.2,0.2c0,0,0,0,0,0c0,0,0,0,0,0c0,0-0.1,0-0.1,0.1c0,0,0,0,0,0c0,0-0.1,0-0.1,0.1c0,0-0.1,0-0.1,0
					c0,0,0,0,0,0c0,0-0.1,0.1-0.1,0.1c0,0-0.1,0-0.1,0c0,0-0.1,0-0.1,0l0,0c-0.1,0-0.2,0-0.1,0c0,0-0.1,0-0.1,0c0,0,0,0,0,0
					c-0.1,0.1-0.1-0.1-0.2,0c0,0,0-0.1-0.1,0c0,0,0,0.1-0.1,0l0,0l0,0c-0.1,0,0-0.1-0.1-0.1l0,0c0,0,0,0,0,0c-0.1,0-0.1,0-0.1-0.1
					l0,0c0,0,0,0,0-0.1c0,0,0,0,0,0c-0.1-0.1-0.2-0.1-0.2-0.1c-0.1,0-0.1-0.1-0.2,0c0,0,0,0-0.1,0c0,0,0.1,0,0.1-0.1s0,0,0,0l0,0
					c0,0,0,0-0.1,0c-0.1,0.1-0.2,0.1-0.2,0.2c0-0.1,0.2-0.2,0.2-0.3c-0.1,0-0.2,0.1-0.2,0.2l-0.1,0.1c0-0.1,0.1-0.1,0.1-0.2
					c0-0.1,0.2-0.1,0.1-0.2c-0.1,0,0-0.1,0-0.1s0.1-0.1,0.1-0.1c-0.1,0,0.1-0.1,0-0.1c0,0,0,0-0.1-0.1c0.1-0.1,0-0.1,0-0.1
					c-0.1,0-0.1,0-0.1,0c0-0.1,0.2-0.2,0.1-0.2l0,0c0.1-0.1,0-0.1,0.1-0.2c0-0.1-0.1-0.1,0-0.1c0-0.1,0.1-0.1,0.1-0.1
					c0.1-0.1,0.1-0.2,0.2-0.3c0,0,0,0,0.1-0.1c0.1,0,0,0,0.1-0.1c0.1-0.1,0.2-0.1,0.3-0.2c0.2,0,0.3-0.1,0.5-0.1c0.1,0,0.1,0,0.1,0
					c0,0,0,0,0.1,0c0,0.1,0,0.1,0.1,0.1C16.7,12.2,16.7,12.3,16.8,12.2L16.8,12.2z"/>
				<path id="パス_2093" class="st6" d="M54.5,24.8c0.2,0,0.4,0,0.6,0c0.1,0.1,0,0.2,0.1,0.2c0.2,0.2,0.5-0.2,0.6,0.1
					c-0.1,0.2,0.1,0.3,0.1,0.5c0.4,0,0,0.4,0.4,0.4c0.1,0.1,0.1,0.3,0.3,0.4c-0.2,0.1-0.1,0.3,0,0.5h0.1c0,0.1-0.2,0.1,0,0.2
					c-0.3,0.1-0.2,0.5-0.6,0.4c0,0.3-0.1,0.6-0.3,0.8c-0.5-0.2-0.4,0.6-0.9,0.3c-0.2,0.1-0.4,0.2-0.5,0.1l0,0c0,0.2-0.3,0.2-0.4,0.2
					c0-0.1-0.1-0.1-0.2-0.2c0,0-0.1,0-0.1,0c-0.1-0.2-0.3,0-0.5-0.1c0.1-0.1-0.1-0.3,0-0.4c-0.1-0.1-0.2-0.1-0.3-0.1l0,0
					c0-0.1-0.1-0.1-0.2-0.1c-0.2-0.3,0.4-0.3,0-0.5h-0.2c0.1-0.2-0.1-0.3-0.1-0.5h-0.1c0.1-0.2,0.3-0.3,0.1-0.5
					c-0.2-0.1,0-0.3-0.2-0.4c0.1,0,0.2-0.1,0.3-0.2c-0.1,0,0-0.1,0-0.2l0.1-0.1c0-0.1,0.2-0.3,0.2-0.5c0.4-0.4,0.8,0.1,0.9-0.5
					c0.2-0.1,0.2-0.3,0.5-0.2c0.1-0.2,0.3,0.1,0.4-0.2C54.3,24.5,54.5,24.6,54.5,24.8"/>
				<path id="パス_2094" class="st5" d="M64.1,10c0.1-0.1,0.2,0.1,0.3-0.1c0.2,0.2,0.4,0.5,0.6,0.8c0.1,0,0.3,0.1,0.2,0.2
					c0,0,0.1,0,0.1,0c-0.1,0.2-0.1,0.3-0.2,0.5c0,0,0.1,0,0.1,0c0,0.2-0.1,0.3-0.1,0.5H65c0.1,0.2-0.2,0.3,0,0.5
					c0.3,0.2,0,0.5,0.2,0.7c-0.1,0.1-0.3,0.2-0.3,0.4c-0.2,0-0.1,0.2-0.2,0.2c-0.1,0.2,0.1,0.5-0.1,0.6c0.1,0.1,0,0.3,0.2,0.3
					c0.3-0.2,0.4,0.2,0.5,0.2c0.3,0,0.5,0,0.8,0c0.2-0.3,0.5,0,0.7-0.1c0.3-0.1,0.5,0.3,0.8,0c0.2-0.1,0.6,0.1,0.7-0.1
					c0.1,0.1,0.2-0.1,0.3-0.1c0.3,0.1,0.6-0.3,0.9-0.1c0.1-0.1,0.2,0.1,0.3,0v0c0.5,0,1,0.2,1.4,0.5c-0.1,0.1,0.1,0.3,0,0.5
					c-0.2,0-0.1,0.1-0.2,0.2V16c-0.2,0,0,0.2-0.1,0.2c-0.1,0.1-0.2,0.2-0.4,0.2c0,0,0-0.1,0-0.1c-0.2,0.5-0.8,0.2-1,0.6
					c-0.3-0.2-0.5,0.3-0.8,0.1c-0.4,0.2-0.8,0.2-1.2,0.2c0,0.1,0,0.2-0.1,0.3c-0.1-0.1-0.4,0-0.3-0.3h-0.1c-0.1,0.1,0.1,0.3-0.1,0.5
					c-0.1-0.2-0.2,0.1-0.3,0c-0.3,0-0.4,0.2-0.7,0.1c-0.1,0.2-0.3,0.1-0.4,0.2l0,0l-0.4,0c0.1,0.2,0.1,0.2,0,0.3
					c-0.2-0.1-0.1,0.1-0.2,0.1c-0.1,0.1-0.3,0-0.3,0.2c0.1,0.1,0.1,0.2,0,0.3c0,0-0.1,0-0.1,0c-0.1,0-0.1,0-0.2,0.1
					c0.2,0.4-0.3,0.1-0.3,0.5c-0.2,0.2-0.1,0.5-0.3,0.6c0.3,0.2-0.3,0.4-0.1,0.6c0,0.2-0.2,0.6,0,0.8h0c0,0.3-0.2,0.5,0,0.7
					c-0.1,0.4,0,0.9,0,1.4c0.1,0.1-0.1,0.2,0.1,0.3c0,0.1-0.1,0.1-0.1,0.2c0.1,0.2,0.1,0.5,0.1,0.7c-0.2,0.2,0.1,0.5-0.1,0.7
					c-0.1,0.1-0.1,0.3,0,0.4c0,0.4,0,0.8-0.1,1.3c0.2,0.3-0.1,0.6,0,0.8c0,0.3-0.1,0.6-0.3,0.8c0.1,0.2-0.1,0.2-0.2,0.2
					c-0.3-0.1-0.5-0.2-0.8-0.4c0-0.3,0-0.6,0-0.8H62c0.2-0.1,0-0.3-0.1-0.4c0.1-0.8,0-1.6-0.1-2.4c0.1-0.3,0.1-0.6,0.1-0.9l-0.1-0.1
					c0.2-0.3-0.1-0.8,0.1-1.1c0,0,0-0.1-0.1,0c0.3-0.1-0.1-0.4,0.1-0.5c0-0.1-0.1-0.2,0-0.2l-0.1-0.1l0.1-0.5
					c-0.1-0.1,0-0.3-0.1-0.4c0.1-0.2,0-0.3,0.1-0.4c-0.1-0.1,0-0.3-0.1-0.4c0.2-0.2-0.1-0.4-0.1-0.5c-0.2-0.3-0.3,0.1-0.5-0.1
					c-0.2,0,0,0.1-0.1,0.2c-0.3-0.1-0.3,0.2-0.6,0c-0.1,0.1-0.5,0.1-0.4,0.4c-0.2,0-0.4,0.1-0.7,0.2l-0.1,0.1l0,0
					c-0.2,0.4-0.7,0-0.7,0.5c-0.3,0-0.6-0.1-0.9,0.2c-0.2,0.2-0.4-0.1-0.5,0c0,0,0-0.1-0.1-0.2c-0.2,0-0.1,0.3-0.2,0.4
					c-0.1,0-0.2,0.3-0.4,0c-0.2,0.2-0.3-0.2-0.5,0c-0.1,0-0.2-0.1-0.3,0.1c-0.1-0.1-0.2,0-0.3,0c0-0.1-0.1-0.2-0.2-0.3
					c-0.2,0.1-0.2-0.2-0.4-0.1c-0.1-0.1-0.2-0.4-0.5-0.2c0-0.1-0.2-0.1-0.1-0.2l0.1-0.1c-0.1-0.2-0.7-0.1-0.4-0.5
					c-0.4-0.1,0-0.5-0.4-0.5c0-0.2,0-0.4,0.1-0.6c-0.2-0.1,0.1-0.2,0-0.3c0.1,0,0.1,0,0.1-0.1c-0.1-0.1-0.1-0.2-0.1-0.3
					c0.3,0,0-0.2,0.3-0.3c0-0.2,0.2-0.2,0.2-0.4c0,0,0.1,0,0.1,0c0.1-0.2,0.3-0.3,0.4-0.5c0.1,0,0.1,0,0.2,0
					c0.1-0.1,0.2-0.2,0.3-0.1c0.3-0.2,0.4-0.5,0.8-0.5c0.1-0.5,0.6-0.2,0.8-0.5c0.5,0.3,0.4-0.9,1-0.3c0.2-0.3,0.6,0.1,0.7-0.2
					c0.5,0,0.9-0.2,1.3-0.2c0-0.3,0.4,0,0.5-0.2c0.1,0,0.3,0,0.3-0.2c0.1-0.1,0.2,0.1,0.3,0.2c0.1-0.2,0.4-0.1,0.5-0.4
					c-0.2-0.2,0.3-0.4,0.1-0.6c0-0.1,0.1-0.2,0.1-0.3c0.1-0.2-0.1-0.4,0.1-0.6c-0.1-0.3-0.2-0.5,0-0.8c-0.2-0.3,0.1-0.7,0.1-1.1
					c0.1-0.2,0.3-0.3,0.2-0.5c0.2,0,0.1-0.3,0.2-0.4l0.2-0.3c0.3,0.1,0-0.2,0.2-0.1l0.3-0.3c0.1,0,0.3-0.1,0.4,0
					C63.6,9.8,64,10,64.1,10"/>
				<path id="パス_2095" class="st5" d="M72,26.6C72.1,26.6,72.1,26.5,72,26.6c0.1-0.1,0.1-0.2,0.1-0.2c0,0,0,0,0-0.1
					c0.1,0,0.1-0.1,0.1-0.1c0,0,0,0,0-0.1c0,0,0,0,0,0c0,0,0,0,0,0c0,0,0,0,0,0c0,0,0.1,0,0.1-0.1c0,0,0-0.1,0.1-0.1c0,0,0,0,0-0.1
					c0,0,0-0.1,0-0.1c0,0,0,0,0,0c0,0,0-0.1,0,0c0,0,0-0.1,0-0.1l0,0c0,0,0-0.1,0-0.1c0,0,0-0.1,0-0.1c0,0,0,0,0,0l0,0c0,0,0,0,0,0
					c0,0,0-0.1,0-0.1c0,0,0,0,0,0l0,0c0,0,0,0,0,0c0,0,0-0.1,0-0.1c0,0,0,0,0-0.1c0,0,0,0,0,0c0,0,0,0,0-0.1c0,0,0,0,0-0.1
					c0,0,0,0,0,0l0-0.1c0,0.1,0,0-0.1,0c0,0,0,0,0,0c0,0,0,0-0.1,0c0,0,0,0,0,0c0,0,0,0,0,0c0,0,0,0,0,0c0,0,0,0,0,0c0,0,0,0,0,0
					c0,0,0,0,0,0c0,0,0,0,0,0s0,0,0,0l0,0l0,0c0,0,0,0,0,0v0c0,0,0,0,0,0c0,0.1-0.1,0-0.1,0.1c0,0,0,0-0.1,0.1c0,0,0,0,0,0.1
					c0,0,0,0.1,0,0.1c0,0,0,0.1,0,0.1v0c0,0,0,0.1,0,0.1c0,0,0,0.1,0,0.1v0c0,0,0,0,0,0s0,0,0,0c0,0,0,0.1,0,0.1c0,0.1,0,0.1,0,0.2
					c0,0,0,0,0,0v0c0,0,0,0,0,0.1c0,0.1,0,0.1-0.1,0.1c0,0,0,0,0,0c0,0,0,0,0,0c0,0,0,0.1,0,0.1"/>
				<path id="パス_2096" class="st5" d="M72.7,25.1c0,0,0.1,0,0.1,0c0.1,0,0.1,0,0.2,0.1c0,0,0,0.1,0.1,0c0,0.1,0.1,0,0.2,0.1
					c0,0.1,0.1,0.1,0.1,0.2c0,0,0,0,0.1,0l0,0.1c0.1,0,0,0,0.1,0c0,0,0,0.1,0,0.1c0.1,0.1,0,0.2,0.1,0.4c0,0.1,0,0.2,0,0.4
					c0.1,0.1-0.1,0.1,0,0.2c0,0.2-0.1,0.4-0.2,0.6c0,0.1,0,0.1-0.1,0.2c-0.1,0.1-0.1,0.2-0.1,0.3c-0.1,0.1-0.1,0.1-0.1,0.1
					c0,0.1-0.1,0.1-0.2,0.2c0,0,0-0.1-0.1-0.1l0,0c0,0,0,0,0,0c0,0,0,0,0,0c-0.1,0-0.2,0-0.2,0c-0.2,0-0.3-0.2-0.4-0.4
					c-0.1-0.1,0-0.2-0.2-0.3c0,0,0-0.1,0-0.1c0.1,0.1,0.2,0.2,0.4,0.2c0.1-0.1,0.2,0,0.2-0.1c0,0,0-0.1,0-0.1c0,0,0,0,0-0.1
					c0,0,0,0,0,0c0-0.2,0-0.3,0-0.5c0,0,0,0,0-0.1c0,0,0,0,0,0c-0.1-0.1,0.1-0.1-0.1-0.2c0.1-0.1-0.1-0.1-0.1-0.2
					c-0.1,0,0.1-0.1-0.1-0.1c0,0,0-0.1-0.1-0.1c0,0,0,0-0.1,0l-0.1,0.1c0-0.1-0.1,0-0.1-0.1c0,0,0,0.1-0.1,0.1c0,0,0.1,0,0.1,0.1
					c0,0.1,0,0.2,0,0.3c0,0,0,0,0,0.1c-0.1,0.1-0.1,0.2-0.2,0.3c0,0.1-0.1,0.1-0.1,0.1c0,0.1-0.1,0.2-0.2,0.2c0,0,0,0-0.1,0.1
					c-0.1,0,0,0.1-0.2,0.1v0.1c-0.3,0.4-0.6,0.8-0.9,1.2c0.2-0.4,0.6-0.9,0.9-1.3c0,0,0,0,0,0c0-0.1,0.1-0.1,0.1-0.1v0
					c0,0,0,0-0.1,0l0,0c-0.1,0.1-0.1,0.2-0.2,0.3c-0.2,0.3-0.4,0.6-0.6,0.9c-0.1,0.2-0.3,0.3-0.5,0.5l-0.1,0v0
					c0.2-0.2,0.4-0.5,0.5-0.8h0l0.1-0.1c0,0,0,0,0,0c0,0,0,0,0-0.1l0,0c0,0,0,0,0,0l0,0c0-0.1,0.1-0.1,0.1-0.2v0l0,0
					c0,0,0.1-0.1,0.1-0.1c0,0,0,0,0,0h0v0h0c0,0,0-0.1,0-0.1l0,0c0,0,0.1-0.1,0-0.1c0.1-0.1,0.1-0.2,0.2-0.2c0,0,0,0,0-0.1h0
					c0-0.1,0.1-0.2,0.1-0.3c0.1-0.1,0.1-0.2,0.2-0.3c0,0,0-0.1,0-0.1c0-0.1,0.1-0.2,0.2-0.3c0-0.1,0.1-0.2,0.1-0.2
					c-0.1-0.1-0.1,0.1-0.1,0c-0.1,0-0.1,0.1-0.2,0.1c-0.1,0.1-0.1,0-0.2,0c0-0.1-0.1,0-0.1-0.1c-0.1,0-0.2-0.1-0.3-0.1
					c0,0,0-0.1,0-0.1c0-0.1,0-0.2,0.1-0.2c0.1,0,0-0.1,0.1-0.1c0-0.1,0.1,0,0.2-0.1c0,0,0.1,0,0.1,0c0,0,0.1,0,0.1-0.1
					c0,0,0.1,0,0.1,0c0,0,0,0,0.1,0c0,0,0.1,0,0.1,0l0,0c0-0.1,0.2,0,0.2-0.1c0.1,0.1,0.1-0.1,0.2,0c0,0,0,0,0,0c0,0,0.1,0,0.2,0
					c0,0,0.1,0,0.2,0C72.6,25.1,72.6,25.1,72.7,25.1C72.6,25.2,72.7,25.1,72.7,25.1"/>
				<path id="パス_2097" class="st5" d="M70.5,28.3c0,0,0-0.1,0.1-0.1L70.5,28.3z"/>
				<path id="パス_2098" class="st5" d="M70.4,28.5c0,0,0-0.1,0.1-0.1L70.4,28.5z"/>
				<path id="パス_2099" class="st5" d="M71.6,19.7c0.1-0.1,0.1,0.1,0.2,0c0.1,0.1,0.3,0.1,0.4,0.2c0.1,0,0,0.2,0.1,0.2l0,0.1
					c0,0,0.1,0,0.1,0.1c-0.1,0,0,0.1,0,0.1l0.1,0.1c-0.1,0,0,0.1,0,0.2l0.1,0.1c-0.1,0,0,0.1,0,0.1c-0.1,0-0.1,0.1,0,0.1
					c0.1,0,0,0.1,0,0.2l0,0c0,0-0.1,0.1,0,0.1c0,0-0.1,0.1,0,0.1c0,0,0,0,0,0l-0.1,0c0,0,0,0.1,0,0.1c-0.2,0-0.1,0.2-0.2,0.3l0,0
					c-0.1,0.1-0.2,0-0.2,0.2c0,0-0.1-0.1-0.2,0c-0.1,0-0.3,0-0.4-0.1c-0.2-0.1-0.3-0.3-0.5-0.3c0-0.1-0.1-0.1-0.2-0.2
					c0-0.1-0.1-0.1-0.1-0.2c-0.1,0,0-0.1-0.1-0.2c0.1-0.1-0.1-0.2,0-0.3c-0.2-0.1,0-0.2-0.1-0.3c0.1-0.1,0.1-0.1,0.1-0.2
					c0.1,0,0-0.1,0-0.1c0-0.1,0.1-0.1,0.1-0.2c0.1,0,0-0.1,0.1-0.1c-0.1,0,0-0.1,0-0.1c0,0,0.1,0,0.1,0c0.1-0.1,0.2,0,0.3-0.2
					c0,0,0.1,0,0.1-0.1v0c0.1,0.1,0.2-0.1,0.4,0L71.6,19.7z"/>
				<path id="パス_2100" class="st5" d="M72.2,23.1c-0.1,0.2-0.4,0.2-0.5,0.4c-0.3,0.1-0.4,0.6-0.8,0.3c0-0.1-0.2-0.1-0.1-0.2
					c0-0.1,0.1-0.2,0.1-0.2c0.2,0,0.3-0.3,0.5-0.4c0.8-0.8,1.5-1.7,2.2-2.6c0.1,0,0.1-0.2,0.2-0.2c0.1-0.1,0-0.1,0.1-0.2
					c0-0.1,0-0.1,0.1-0.2c0,0,0-0.1,0-0.1l0,0l0.1-0.1c-0.1-0.1,0.1-0.1,0-0.2c0-0.1,0.2-0.1,0.1-0.2l-0.1-0.1c0,0,0-0.1,0-0.1l0,0
					c0.1-0.1,0-0.2,0.1-0.2c-0.1,0,0-0.1,0-0.1c0.2,0,0.2-0.2,0.3-0.2c0-0.1,0.2,0,0.2,0c0,0,0.1,0,0.1,0l0,0c0,0,0,0,0.1,0l0,0
					c0,0.1,0.2,0,0.2,0.2c0.1-0.2,0.1,0.1,0.2,0c0,0.2,0.3,0.1,0.2,0.2c0.1,0.1,0.1,0.1,0.2,0.2c-0.1,0.1,0,0.3,0,0.4l0.1,0
					c0,0,0,0.1,0,0.1c0,0,0.1,0,0,0.1s-0.1,0-0.1,0.1s0,0.1,0,0.2c-0.1,0,0,0.1,0,0.1c-0.1,0.1-0.2,0.2-0.4,0.3
					c-0.1-0.1-0.1,0-0.2,0c-0.1,0.1-0.1,0-0.2,0c0-0.1-0.1,0-0.1,0c0,0,0,0,0,0c-0.1-0.1-0.1,0-0.2,0l-0.2,0.1
					c-0.1,0.1-0.2,0.1-0.3,0.2c-0.2,0.2-0.3,0.3-0.5,0.5v0c0,0.1-0.2,0.1-0.2,0.2c-0.1,0.1-0.2,0.2-0.3,0.3c0,0.1-0.2,0.1-0.2,0.3
					c-0.3,0.3-0.5,0.5-0.7,0.8c0,0,0.1,0,0.1,0c0.1,0,0.2-0.1,0.3-0.1"/>
				<path id="パス_2101" class="st5" d="M73.4,23.6c0-0.1-0.1,0-0.2,0c0,0,0,0,0-0.1c0,0-0.1,0-0.1,0c-0.1,0-0.2,0-0.4,0
					c0,0-0.1,0-0.1,0c-0.1-0.1-0.2-0.1-0.3-0.1c0,0-0.1,0-0.1,0c0-0.1,0.1-0.1,0.1-0.1c0.1,0,0.1-0.1,0.1-0.1c0.1,0,0.1-0.1,0.1,0
					c0-0.1,0.1,0,0.1,0c0.1,0.1,0.1-0.1,0.2-0.1c0,0,0,0,0,0c0,0,0.1,0,0.1,0s0,0,0.1,0c0.1,0,0.1,0,0.2,0c0.1,0,0.1,0,0.1,0
					c0.1,0,0.1-0.1,0.2-0.1c0,0,0.1,0,0.1,0c0,0,0,0,0,0c0.1,0,0.1-0.1,0.1-0.1c0,0,0,0,0,0c0,0,0,0,0,0c0.1,0.1,0.1-0.1,0.2-0.1v0
					c0,0,0-0.1,0.1-0.1c0,0,0-0.1,0-0.1c0,0,0,0,0,0c0.1-0.1,0.1-0.2,0.1-0.2c0,0,0,0,0-0.1c0,0,0,0,0-0.1l0,0c0,0,0,0,0,0
					c0-0.1-0.1-0.2-0.1-0.3c0,0,0-0.2-0.1-0.2c0-0.1,0,0-0.1,0l0,0c0-0.1-0.2-0.1-0.2-0.2c-0.1,0-0.1-0.1-0.1,0c-0.1,0-0.1,0-0.2,0
					c-0.1,0,0,0.1-0.1,0.1c0,0.1-0.1,0-0.1,0.1c0-0.1-0.1,0-0.1,0c0,0,0,0,0,0c0,0-0.1,0.1-0.1,0c0,0.1-0.1,0-0.1,0
					c0,0.1-0.1,0-0.1,0c-0.1,0,0-0.1-0.1-0.1c0.1-0.1,0-0.2-0.1-0.3c0-0.1-0.1,0-0.1-0.1c-0.1,0-0.2-0.1-0.3-0.2
					c-0.2,0-0.4-0.1-0.5,0.1c0,0.1,0,0.1,0,0.2c0,0,0,0.1,0,0.1s0,0,0,0.1c0,0.1,0.1,0.2,0,0.2c0,0-0.1,0-0.1,0c-0.1,0-0.1,0-0.1,0
					c0,0-0.1,0-0.1,0c-0.1,0.1-0.1,0-0.2,0c-0.1,0-0.1,0.1-0.2,0c0,0-0.1,0-0.1,0l0,0c0,0,0,0,0,0c0,0-0.1,0-0.2,0c0,0-0.1,0-0.1,0
					l0,0l-0.2,0.1c0,0.1-0.1,0-0.1,0.1c0,0-0.1,0-0.1,0c0,0,0,0.1,0,0.1c-0.1,0,0,0.1-0.1,0.2c0,0,0,0.1,0,0.1c0,0,0,0.1,0,0.1
					c0.1,0,0,0.1,0.1,0.1c0.1,0,0.1,0.1,0.2,0.2c0,0,0,0,0,0.1c0,0,0,0,0.1,0c0,0,0,0,0,0.1c0,0,0.1,0.1,0.1,0.1c0,0,0,0,0,0
					c0,0,0,0,0.1,0c0,0,0.1,0.1,0.1,0.1c0-0.1,0.1,0,0.1,0l0,0.1c0-0.1,0.1,0,0.1,0c0,0.1,0.2,0,0.2,0.1v0c0,0,0,0,0,0
					c0.1,0,0.1,0.1,0.1,0.2c0,0-0.1,0-0.2,0c0-0.1-0.1-0.1-0.1-0.1c-0.1,0.1-0.1-0.1-0.2,0c0,0-0.1,0-0.2,0c-0.1,0-0.1,0.1-0.2,0.1
					c0,0-0.1,0-0.1,0.1c-0.1,0.1,0,0.2,0,0.3c0,0,0,0,0,0c0,0.1,0,0.1,0,0.2c0,0,0.1,0.1,0.1,0.1c0,0,0,0,0.1,0c0,0.1,0.1,0,0.1,0.1
					c0,0,0,0,0.1,0c0,0,0.1,0,0.1,0.1c0,0,0.1,0.1,0.1,0.1c0,0-0.1,0.1-0.1,0.1c0,0.1,0,0.1,0,0.2l-0.1,0.2c0,0,0,0,0,0
					c0,0,0,0.1,0,0.1c0,0.2-0.1,0.3-0.2,0.4c0,0,0,0.1-0.1,0.1c0,0.2-0.2,0.3-0.2,0.4c0,0-0.1,0.1-0.1,0.2c0,0.1-0.1,0.1-0.1,0.2
					c-0.1,0.1-0.2,0.3-0.3,0.4c0,0.1-0.1,0.1-0.1,0.2c-0.3,0.3-0.7,0.6-1,0.8c-0.2,0.1-0.4,0.2-0.6,0.1c0,0,0.1,0,0.1,0.1
					c0.2,0,0.3,0,0.5-0.1c0,0,0,0,0.1,0l0,0c0.1-0.1,0.2-0.1,0.3-0.1c0.2-0.1,0.4-0.3,0.6-0.4c0.1,0,0.1-0.1,0.2-0.2
					c0.1-0.1,0.2-0.3,0.3-0.4c0.1-0.1,0.2-0.3,0.3-0.4c0.1-0.2,0.3-0.3,0.4-0.5c0-0.1,0.1-0.1,0.1-0.1c0.1,0,0.1-0.1,0.1-0.1
					c0-0.1,0.1-0.1,0.1-0.2l0,0l0-0.1c0,0,0,0,0-0.1c0,0,0,0,0-0.1c0,0,0,0,0,0c0,0,0,0,0,0s0,0,0,0c0,0,0,0,0,0c0,0,0,0,0,0
					s0,0,0,0c0,0,0,0,0,0c0.1-0.2,0.2-0.4,0.3-0.5c0,0,0.1,0,0.1-0.1c0.1,0.1,0.1,0,0.2,0c0.1,0,0.2-0.1,0.3,0c0,0,0.1,0,0.1,0
					c0.1-0.1,0.1,0,0.2-0.1c0,0,0.1-0.1,0.1-0.1c0.1-0.2,0.3-0.3,0.5-0.4C73.4,23.7,73.4,23.7,73.4,23.6"/>
				<path id="パス_2102" class="st5" d="M77.1,27.8c-0.1,0-0.1-0.1-0.2-0.1c-0.3-0.2-0.6-0.4-0.8-0.6C76,27.1,76,27,75.9,27
					c-0.2-0.1-0.4-0.3-0.5-0.4c0,0-0.1-0.1-0.1-0.1c-0.2-0.1-0.4-0.3-0.5-0.4c-0.1-0.1-0.1-0.1-0.2-0.2c-0.1-0.1-0.2-0.2-0.3-0.3
					c0,0-0.1-0.1-0.1-0.1c-0.1-0.1-0.3-0.3-0.3-0.5c0,0,0,0,0,0c0,0,0,0,0,0s0,0,0,0s0,0,0,0s0,0,0,0c0,0,0,0,0,0c0,0,0,0,0,0
					s0,0,0,0c0,0,0,0,0,0l0,0l0,0c-0.1-0.1-0.1-0.2-0.2-0.2v0c-0.1-0.1-0.2-0.1-0.2-0.1c-0.1,0-0.1-0.1-0.2,0c0,0.1,0,0.2,0.1,0.3
					c0,0.1,0.1,0.2,0.1,0.2c0,0,0,0,0,0c0,0,0,0,0,0.1s0,0,0.1,0.1s0,0.1,0.1,0.1l0,0c0.2,0.3,0.4,0.6,0.6,0.8v0l0.5,0.5h0
					c0.3,0.3,0.6,0.4,0.9,0.7c0.1,0,0.2,0.1,0.3,0.2c0.2,0.1,0.3,0.2,0.4,0.3c0.1,0,0.1,0.1,0.2,0.1c0.1,0.1,0.2,0.1,0.3,0.2
					c0,0,0.1,0.1,0.1,0.1c0,0,0,0,0,0c0.2,0.1,0.3,0.1,0.5,0.2C77.4,28.1,77.2,27.9,77.1,27.8"/>
				<path id="パス_2103" class="st5" d="M70.3,23.1L70.3,23.1c0-0.1,0-0.2,0-0.3c0-0.2-0.1-0.4-0.1-0.6c-0.1-0.6-0.3-1.1-0.6-1.6
					c-0.1-0.1-0.2-0.3-0.2-0.4c-0.1-0.1-0.2-0.2-0.3-0.3c-0.2-0.1-0.3-0.2-0.5-0.2c0,0-0.1,0-0.1-0.1c-0.1,0-0.2,0-0.2,0
					c0,0-0.1,0-0.1-0.1c0,0,0,0-0.1,0c0,0-0.1-0.1-0.1-0.1c0-0.1-0.1-0.1-0.1-0.1c0-0.1-0.1-0.1-0.1-0.1c0,0-0.1-0.1-0.1-0.1
					c0,0,0,0,0-0.1c0-0.1-0.1-0.1-0.2-0.1c0,0,0,0-0.1-0.1c-0.1,0-0.1,0-0.2,0c-0.1,0-0.3,0-0.4,0c-0.2,0.2-0.4,0.3-0.5,0.6
					c0,0.1-0.1,0.1-0.1,0.2c-0.1,0.1,0,0.2-0.1,0.2c0,0.1,0,0.2,0,0.3c0,0.1,0,0.1,0,0.2c0,0.1,0,0.2,0,0.2c0.1,0.1,0,0.1,0.1,0.2
					c0.1,0.1,0,0.2,0.1,0.3c0.1,0.1,0.1,0.3,0.2,0.4c0.1,0.1,0.2,0.3,0.2,0.5c0,0.1,0,0.1,0,0.2c0,0.1,0.1,0.2,0,0.4
					c0.1,0.4,0.1,0.7,0.1,1.1l0,0c0,0.3,0,0.6,0,0.9c0,0.2,0,0.4-0.1,0.6c-0.1,0.3-0.1,0.5,0.1,0.8c0.2,0.2,0.2,0.4,0.3,0.6
					c0,0.1,0.2,0.2,0.2,0.3l0.1,0.1c0.1,0,0.1,0,0.2,0c0,0,0-0.1,0.1,0c0.2,0.1,0.1-0.1,0.2-0.2c0,0,0.1,0,0.1,0s0.1,0,0.1-0.1
					c0-0.2,0-0.3,0.1-0.5c0.1-0.1,0-0.2,0.1-0.2c0,0,0,0,0-0.1c0-0.1,0-0.3,0-0.4c0.1-0.1,0-0.2,0.1-0.2l0,0c0,0,0-0.1,0-0.1
					c0.1,0,0.1,0.1,0.2,0.1c0.1,0.1,0.3,0,0.4,0.2c0,0.1,0.1,0.2,0.1,0.3c0.1,0.2,0.1,0.4,0.3,0.6c0,0,0.1,0.1,0.1,0.1
					c0,0,0,0,0.1-0.1c0.1-0.1,0.2-0.1,0.3-0.2c0-0.1,0.1-0.3,0-0.4c0.1-0.2,0.1-0.4,0.1-0.7c0.1-0.3,0-0.6,0.1-0.8
					c0-0.1,0-0.2,0-0.4c0,0,0-0.1,0-0.1C70.3,23.7,70.2,23.4,70.3,23.1 M69.3,23.9C69.3,23.9,69.3,23.9,69.3,23.9
					c-0.1,0-0.1-0.1-0.1-0.1C69.2,23.8,69.2,23.9,69.3,23.9c-0.1,0-0.1,0.1-0.1,0.1c0,0.1-0.1,0-0.2,0.1c0,0,0,0.1,0,0.1
					c-0.1,0-0.1,0.2-0.1,0.3c0,0.1,0,0.1,0,0.2c-0.1,0-0.2,0-0.3,0.1c-0.2-0.1-0.1-0.3-0.1-0.4c0-0.1,0-0.2,0-0.3c0-0.2,0-0.3,0-0.5
					l0.1-0.1c0.1,0,0.1,0,0.2,0c0.1-0.1,0.3-0.2,0.3-0.3c0-0.1,0.1-0.2,0.1-0.2c0-0.1-0.1-0.1-0.1-0.2c0,0-0.1,0-0.1,0
					c-0.1-0.1-0.1-0.2-0.2-0.3c-0.1,0-0.3,0-0.4,0c0,0,0-0.1-0.1-0.1c0-0.1,0-0.2,0-0.3c0-0.1-0.1-0.2-0.1-0.3c0,0,0-0.1,0-0.1
					c0-0.1,0-0.1-0.1-0.2c0-0.1,0-0.1,0-0.2c0-0.1-0.1-0.2,0-0.3c0-0.1,0-0.1,0-0.1c0-0.1,0-0.1,0-0.2c0,0,0.1,0,0.1-0.1
					c0.1,0,0.2,0,0.2,0c0,0,0,0,0.1,0c0,0,0.1,0,0.1,0c0.3,0.3,0.5,0.7,0.6,1.1c0.2,0.6,0.2,1.2,0.1,1.8
					C69.4,23.6,69.3,23.7,69.3,23.9"/>
				<path id="パス_2104" class="st5" d="M70.2,25.1c0,0.3-0.1,0.6-0.2,0.8c0,0,0,0,0,0l0,0l0,0c-0.1,0.3-0.2,0.6-0.2,0.9
					c0,0.1-0.1,0.1-0.1,0.2c0,0,0,0.1,0,0.1c-0.1,0,0,0.2-0.1,0.2c-0.1,0.1-0.1,0.2-0.2,0.3c0,0.1-0.1,0.2-0.1,0.3c0,0,0,0,0,0
					c-0.1,0.1-0.2,0.3-0.3,0.4c-0.2,0.2-0.4,0.3-0.7,0.3c-0.1,0-0.2,0-0.2-0.1c-0.1,0-0.2-0.1-0.4-0.1c-0.1-0.1-0.1-0.1-0.1-0.2
					c0-0.1-0.1-0.1-0.2-0.1c-0.1-0.2-0.4-0.3-0.3-0.6c0,0,0.1,0.1,0.1,0.1c0.1,0.2,0.3,0.3,0.6,0.3c0,0.1,0.1,0,0.1,0
					c0.2,0,0.4-0.2,0.6-0.3c0.2-0.1,0.2-0.3,0.3-0.5c0.1-0.2,0.1-0.4,0.1-0.5c0.1,0,0-0.1,0-0.2c0-0.2,0-0.4,0.1-0.6
					c0-0.3,0-0.5,0-0.8"/>
				<path id="パス_2105" class="st5" d="M24.4,11.6h0.5v0.1h-0.5V11.6z M25.3,11.2v-0.1h0.9v-0.3H24v1.7h0.4v-0.1h1.5
					c0,0.1,0,0.3-0.1,0.4c0,0.1-0.1,0.1-0.2,0.1c-0.1,0-0.2,0-0.2,0c0.1,0,0.2-0.1,0.2-0.1c0-0.1-0.1-0.3-0.2-0.4l-0.3,0.1
					c0.1,0.1,0.1,0.3,0.2,0.4c0,0,0.1,0,0.1,0c0.1,0.1,0.1,0.3,0.1,0.4c0,0,0.1,0,0.1,0c0.2,0,0.4-0.1,0.5-0.2
					c0.1-0.3,0.2-0.7,0.2-1h-1V12H26v-0.3h-0.7v-0.1H26v-0.3L25.3,11.2z M24.4,12h0.5v0.1h-0.5V12z M24.4,11.1h0.5v0.1h-0.5V11.1z
					 M24.3,12.7L24.3,12.7l-0.4-0.1c-0.1,0.2-0.2,0.5-0.3,0.7c0.1,0,0.3,0.1,0.4,0.2C24.1,13.2,24.2,12.9,24.3,12.7
					c0,0.2,0,0.4,0.1,0.6c0.1,0,0.3-0.1,0.4-0.1c0-0.2-0.1-0.4-0.1-0.6L24.3,12.7z M24.7,12.6c0.1,0.2,0.1,0.3,0.1,0.5
					c0.1,0,0.3-0.1,0.4-0.1c0-0.2-0.1-0.3-0.2-0.5L24.7,12.6z"/>
				<path id="パス_2106" class="st5" d="M27.6,11.4c0,0.3-0.1,0.7-0.2,1c0,0.1-0.1,0.2-0.2,0.2s-0.2-0.2-0.2-0.4
					C27.1,11.8,27.3,11.5,27.6,11.4 M28.3,13.3c0.3-0.1,0.6-0.3,0.8-0.6c0.1-0.2,0.2-0.5,0.2-0.7c0-0.3-0.1-0.6-0.3-0.8
					c-0.2-0.2-0.5-0.4-0.9-0.4c-0.8,0-1.4,0.6-1.4,1.3c0,0.4,0.2,0.8,0.6,0.9c0.2,0,0.4-0.4,0.5-0.6c0.2-0.4,0.3-0.8,0.3-1.3
					c0.4,0,0.7,0.3,0.7,0.7c0,0,0,0,0,0c0,0.5-0.4,0.8-0.8,0.9C28.1,13,28.2,13.1,28.3,13.3"/>
				<rect id="長方形_646" x="29.5" y="11.8" class="st5" width="2.6" height="0.5"/>
				<path id="パス_2107" class="st5" d="M33.8,12.2h-0.2V12h0.2V12.2z M34.4,11.8c0.1,0.1,0.3,0.2,0.4,0.3
					c0.1-0.1,0.2-0.2,0.3-0.3c-0.1-0.1-0.2-0.1-0.4-0.2c0.1-0.1,0.1-0.1,0.2-0.2c0.1,0,0.1,0,0.1,0s0,0,0,0L34.7,11
					c-0.1,0.1-0.1,0.2-0.2,0.3c0,0-0.1-0.1-0.1-0.1c0.1-0.1,0.1-0.1,0.2-0.2c0,0,0,0,0,0c0,0,0.1,0,0.1,0c0,0,0,0,0,0l-0.3-0.2
					c-0.1,0.1-0.1,0.2-0.2,0.2c-0.1-0.1-0.1-0.1-0.2-0.2l-0.3,0.1c0.1,0.3,0.3,0.5,0.5,0.7h-0.8c0.2-0.2,0.3-0.4,0.4-0.6l-0.1-0.1
					h-1v0.3h0.1l-0.2,0.2c0.1,0.1,0.2,0.1,0.3,0.2c-0.1,0.1-0.3,0.2-0.4,0.2c0.1,0.1,0.2,0.2,0.3,0.3c0.2-0.1,0.3-0.2,0.5-0.3V12
					h0.2v0.2h-0.6v0.4h0.5C33,12.8,32.8,13,32.4,13c0.1,0.1,0.2,0.2,0.2,0.3c0.4-0.1,0.8-0.4,0.9-0.8h0.2V13c0,0.1,0,0.2,0.1,0.2
					c0.1,0.1,0.2,0.1,0.3,0.1h0.4c0.3,0,0.4-0.1,0.5-0.5c-0.1-0.1-0.3-0.1-0.4-0.2c0,0.1,0,0.2-0.1,0.3c0,0-0.1,0-0.1,0h-0.2
					c-0.1,0-0.1,0-0.1-0.1v-0.3h0.5v-0.4h-0.5V12h0.2L34.4,11.8z M33.1,11.2c0,0.1-0.1,0.1-0.1,0.2c-0.1-0.1-0.2-0.1-0.2-0.2H33.1z"
					/>
				<path id="パス_2108" class="st5" d="M37.1,12.1h0.2v-0.5h0.4c0,0,0.1,0,0.1,0c0,0,0,0-0.1,0.1v0.9h-0.4v-0.2h-0.3
					c-0.1,0.2-0.2,0.4-0.3,0.5c0.3,0,0.7,0,0.9,0c0.1,0,0.2,0,0.3,0c-0.1,0.1-0.1,0.3-0.2,0.4h-1.4c-0.2,0-0.5-0.1-0.6-0.3
					c0,0-0.1,0.1-0.3,0.2c0,0,0,0.1-0.1,0.1c0,0,0,0,0,0L35.2,13c0.2-0.1,0.3-0.1,0.3-0.2v-0.5h-0.3v-0.4H36v0.9
					c0,0.3,0.3,0.3,0.5,0.3c-0.1-0.1-0.2-0.1-0.3-0.2c0.2,0,0.3-0.2,0.4-0.3h-0.6v-0.9l0.4,0c0,0,0,0,0,0s0,0-0.1,0.1v0.4h0.3v-0.6
					H36v-0.4h0.4c-0.1-0.1-0.2-0.2-0.2-0.3l0.3-0.2c0.1,0.1,0.2,0.2,0.3,0.4c0,0-0.1,0.1-0.1,0.1H37c0.1-0.1,0.2-0.3,0.2-0.5
					l0.4,0.2c0,0,0,0,0,0c0,0,0,0-0.1,0c0,0.1-0.1,0.2-0.1,0.2h0.4v0.4h-0.7L37.1,12.1z M35.5,10.8c0.2,0.1,0.3,0.3,0.4,0.4
					c-0.1,0.1-0.2,0.2-0.3,0.3c-0.1-0.1-0.3-0.3-0.4-0.4L35.5,10.8z"/>
				<path id="パス_2109" class="st5" d="M38.6,12.2h-0.1v-0.1h0.1V12.2z M38.9,12.5h0.4v-1.1h-0.4v-0.1h0.4V11h-0.4v-0.1
					c0,0,0.1,0,0.1-0.1s0,0,0,0l-0.3,0V11h-0.5v0.3h0.5v0.1h-0.4v1.1h0.4v0.1h-0.5V13h0.5v0.4h0.3V13h0.3l0.1,0.4c0,0,0,0,0,0
					s0,0,0-0.1c0.4-0.1,0.6-0.2,0.8-0.3c0,0.1,0.1,0.2,0.1,0.3c0.1-0.1,0.3-0.1,0.4-0.1c-0.1-0.4-0.2-0.7-0.4-1.1l-0.4,0.2
					c0.1,0.1,0.1,0.3,0.2,0.4c-0.1,0-0.2,0.1-0.4,0.1c0.1-0.3,0.2-0.6,0.2-0.8h0.6v-0.4h-1.3V12h0.3c-0.1,0.3-0.1,0.6-0.2,0.9
					c0,0,0,0-0.1,0v-0.3h-0.4L38.9,12.5z M38.9,11.7H39v0.1h-0.1V11.7z M39,12.2h-0.1v-0.1H39V12.2z M38.5,11.7h0.1v0.1h-0.1V11.7z
					 M39.4,11.2h1.2v-0.4h-1.2V11.2z"/>
				<path id="パス_2110" class="st5" d="M43.1,11.3h-1.7v-0.4h1.7V11.3z M42.9,11.5L42.9,11.5c0.1,0,0.2,0,0.2,0l0.3,0.2
					c0,0.1-0.2,0.3-0.2,0.4c-0.3,0.6-0.7,1.1-1.4,1.3c-0.1-0.1-0.2-0.3-0.3-0.4c0.5-0.2,1-0.5,1.2-1.1h-1.7v-0.4L42.9,11.5z"/>
				<path id="パス_2111" class="st5" d="M45.4,13.3h-0.5V12c-0.3,0.2-0.5,0.3-0.8,0.4c-0.1-0.2-0.2-0.3-0.3-0.4
					c0.4-0.1,0.8-0.3,1.1-0.5c0.3-0.2,0.6-0.5,0.9-0.8l0.4,0.3c0,0,0,0,0,0c0,0,0,0-0.1,0c0,0,0,0-0.1,0c-0.2,0.2-0.4,0.4-0.6,0.6
					L45.4,13.3z"/>
				<path id="パス_2112" class="st5" d="M48.3,11.2c0.1,0,0.1,0,0.1,0l0.3,0.2c-0.1,0.1-0.1,0.2-0.2,0.3c-0.1,0.5-0.4,0.9-0.8,1.2
					c-0.2,0.2-0.5,0.4-0.7,0.5c-0.1-0.1-0.2-0.3-0.3-0.4c0.3-0.1,0.6-0.3,0.9-0.6c0.2-0.2,0.4-0.5,0.5-0.9h-1.7v-0.4L48.3,11.2z
					 M48.3,10.6c0.1,0.1,0.2,0.2,0.3,0.3c-0.1,0.1-0.1,0.1-0.3,0.2c-0.1-0.1-0.2-0.2-0.3-0.3L48.3,10.6z M48.8,10.6
					c0.1,0.1,0.2,0.2,0.3,0.3c-0.1,0.1-0.2,0.1-0.2,0.2c-0.1-0.1-0.2-0.2-0.3-0.3L48.8,10.6z"/>
				<path id="パス_2113" class="st5" d="M49.8,10.7c0.2,0.1,0.5,0.2,0.7,0.3c-0.1,0.1-0.2,0.3-0.3,0.4c-0.2-0.2-0.5-0.3-0.7-0.4
					L49.8,10.7z M49.5,11.3c0.2,0.1,0.5,0.2,0.7,0.4c-0.1,0.1-0.2,0.2-0.3,0.4c-0.2-0.2-0.4-0.3-0.6-0.4L49.5,11.3z M49.4,12.9
					c0.8-0.3,1.5-0.8,2-1.5c0.1,0.1,0.2,0.3,0.3,0.4c-0.3,0.4-0.6,0.7-0.9,0.9c-0.3,0.2-0.7,0.4-1,0.6c0,0,0,0.1,0,0.1c0,0,0,0,0,0
					L49.4,12.9z"/>
				<path id="パス_2114" class="st5" d="M52.1,13.1v-0.4h1.3v-0.3h-1.2v-0.4h1.2v-0.3h-1.2v-0.4h1.6v1.8h-0.4v-0.1L52.1,13.1z"/>
				<rect id="長方形_647" x="54.3" y="11.8" class="st5" width="2.5" height="0.5"/>
				<path id="パス_2115" class="st4" d="M42.1,15.5C42,15.5,42,15.5,42.1,15.5c0-0.2,0.1-0.3,0.2-0.5c0,0,0.1,0.1,0.1,0
					c0,0.1,0,0.2,0,0.2C42.3,15.5,42.2,15.5,42.1,15.5"/>
				<path id="パス_2116" class="st4" d="M43,15.2c-0.1,0-0.2,0.1-0.2,0c0-0.1,0.2-0.1,0.3-0.2c0,0.1,0.2,0.1,0.1,0.2
					c0,0,0,0.1-0.1,0.1S43,15.2,43,15.2"/>
			</g>
		</g>
	</g>
</g>
</svg>
