<svg xmlns="http://www.w3.org/2000/svg" xmlns:xlink="http://www.w3.org/1999/xlink" width="280" height="70" viewBox="0 0 280 70">
  <defs>
    <clipPath id="clip-path">
      <rect id="長方形_648" data-name="長方形 648" width="85.604" height="40.085" fill="none"/>
    </clipPath>
  </defs>
  <g id="グループ_1227" data-name="グループ 1227" transform="translate(-45 -327)">
    <g id="長方形_492" data-name="長方形 492" transform="translate(45 327)" fill="#fff" stroke="#e0e0e0" stroke-linejoin="round" stroke-width="1">
      <rect width="280" height="70" rx="8" stroke="none"/>
      <rect x="0.5" y="0.5" width="279" height="69" rx="7.5" fill="none"/>
    </g>
    <text id="公式ホームページはこちら" transform="translate(185 386)" font-size="14" font-family="YuGo-Bold, YuGothic" font-weight="700"><tspan x="-83.65" y="0">公式ホームページはこちら</tspan></text>
    <g id="グループ_1222" data-name="グループ 1222" transform="translate(142 333.5)">
      <g id="グループ_1066" data-name="グループ 1066" clip-path="url(#clip-path)">
        <path id="パス_2073" data-name="パス 2073" d="M306.962,55.394c-.207.27-.1.889-.62.848l-.228-1.468c.579-.27.579.412.848.619" transform="translate(-266.437 -47.621)" fill="#89ba40"/>
        <path id="パス_2074" data-name="パス 2074" d="M316.9,68.632a.692.692,0,0,1-1.055.229l.207-.848c.372-.062,1.054.062.848.62" transform="translate(-274.906 -59.184)" fill="#89ba40"/>
        <path id="パス_2075" data-name="パス 2075" d="M584.912.868c-.145.827-1.1.786-1.675,1.034a17.891,17.891,0,0,0-4.4,3.99c-1.2-.578-1.055.952-1.882,1.262-.166.723-.786,1.3-.848,2.088-.993.579-.931,1.365-1.676,2.109-.31.1-.413-.27-.62-.434-.848-1.985,2.4-1.469,1.262-3.351a5.558,5.558,0,0,0,1.675-2.088c-.434-.206.041-.579.207-.847.827.1.827-.829,1.26-1.262l-.206-.207c.351-.371-.745-1.261.206-1.468,1.51-.724,1.2,2.626,2.73.848.621-1.324,2.937-3.888,3.971-1.675" transform="translate(-499.309 0)" fill="#89ba40"/>
        <path id="パス_2076" data-name="パス 2076" d="M524.171,85.976c-.062.889-1.468.62-1.054,1.675-2.192.579-2.626,2.833-3.97,4.178.041.269-.165.682.207.848-.1.268-.434.207-.641.207,0-.207.061-.518-.207-.621h-.414c0-.207-.062-.537.207-.641l-.207-.207c2.3-1.468,1.159-6.493,5.025-5.231Z" transform="translate(-450.933 -74.832)" fill="#89ba40"/>
        <path id="パス_2077" data-name="パス 2077" d="M574.847,119.228c.145,1.013-.992.683-1.469,1.054l-.207-.206c.311-.372,1.1-1.2,1.675-.848" transform="translate(-498.88 -103.701)" fill="#89ba40"/>
        <rect id="長方形_645" data-name="長方形 645" width="0.414" height="0.414" transform="translate(72.617 17.43)" fill="#89ba40"/>
        <path id="パス_2078" data-name="パス 2078" d="M554.33,144.212c.062.206-.1.31-.207.412h-.414v-.412Z" transform="translate(-481.94 -125.52)" fill="#89ba40"/>
        <path id="パス_2079" data-name="パス 2079" d="M256.534,259.924c-.269.475-.269,1.1-.848,1.467.269-.785-.683-1.943.848-1.467" transform="translate(-222.502 -226.137)" fill="#89ba40"/>
        <path id="パス_2080" data-name="パス 2080" d="M279.634,48.172c3.308,3.308,6.409,7.65,10.917,9.016,1.1,1.116,2.461.268,3.763.206.166,1.469,2.213.745,3.144.641.993-.641,1.054-1.778,1.9-2.316-.165-.351.206-.578.413-.827h.414c-.1,2.089-2.3,4.715.641,6.079.31.725.145,1.614,1.034,2.089.848-.207,1.158-1.716,2.315-1.261-.889.787-1.944,2.316-3.349,2.316-.848.517-.538,1.158-1.468,1.468l-.642-.62-.619.62.207.207c-.166.785-1.055,0-1.469.414-1.2-.787-1.984.641-2.936,1.054-1.53,1.675-3.1,3.577-2.936,5.666-.372.166-.166.579-.207.827.248.435-.475,1.014-.207,1.7-2.523-1.944-5.769-2.108-8.395-3.784a5.015,5.015,0,0,0-4.819,1.261c-.475,2.419-1.571-1.055-2.523-.207-.372-.371-.992-.165-1.468-.207a2.421,2.421,0,0,0-1.261,1.676,2.905,2.905,0,0,0,2.523,1.676l.206-.207c.786.827,1.882,1.943,3.143,2.089-.206,2.15-3.288.062-4.2,1.882-.517.578.372,1.468-.827,1.468-.269.682-1.055,1.159-1.675.641-1.116-1.634,1.3-3.887-.434-5.252a9.131,9.131,0,0,1-1.882-1.468l.414-2.73c1.22-1.407,2.833-1.448,3.371-3.35,0-1.2-2.42-1.572-.641-2.729,1.737-.042,2.936,1.84,4.839.847.558-.517,1.137-1.054,1.034-1.882l-.206-.206c.164-.91-.889-2.047-.207-3.164a3.193,3.193,0,0,0,1.261-2.088L278.6,59.5c.248-.1.207-.414.207-.641l-.207-.207c.1-.1.248-.207.207-.413-.207-1.1,1.3-2.357.206-3.557.042-.206-.1-.33-.206-.434.041-.785-.89-1.675-.848-2.708l-.413-.435c.165-.827-.311-1.572.207-2.5l.641.414c.723-.373.248-1.159,1.241-.848" transform="translate(-234.084 -41.866)" fill="#89ba40"/>
        <path id="パス_2081" data-name="パス 2081" d="M153.035,142.071c.069-.057-.069-.049,0-.093a.267.267,0,0,0-.037-.033c-.008-.029-.049-.057-.024-.093-.016-.033-.028,0-.049-.02.033-.025,0-.073-.033-.073l.025-.037-.061-.032.016-.012c-.037-.041,0-.1-.073-.11.016,0,.033-.025.016-.037-.089.012-.016-.081-.089-.089.02-.045-.016-.1-.045-.138.008-.024.024-.081-.02-.09.008-.061-.053-.093-.081-.146-.069.041-.029-.086-.089-.02-.012-.065-.094,0-.11-.057a.175.175,0,0,1-.122-.037.262.262,0,0,0-.163-.032c0,.012.008.025-.008.032-.02-.024-.049.025-.085.012-.033-.029-.057.028-.081.045l-.016-.029-.041.029-.016-.02c-.057.041-.1-.053-.146,0-.077.033-.138-.049-.2.02-.032-.037-.077.057-.1,0-.036.02-.061.069-.11.081-.024,0-.057.012-.073-.024-.028,0-.069,0-.057.037-.065-.033-.1.02-.146.037l-.008-.029c-.049.033-.146,0-.163.061l.036,0c-.049.057-.11-.016-.167.037,0,.065-.069.077-.118.11l.024.024c-.016.016-.053,0-.073.028l.02.016c.016.049-.041.045-.065.065l.029.045-.09.036c.012.073-.089.02-.065.1-.057.045-.13.024-.175.081-.029-.061-.065.029-.118,0v.012c-.008.008-.029.016-.037.008l.008-.02c-.02,0-.057.029-.073,0l-.016.012c-.065.024-.1.016-.159.045.106.089-.045,0-.037.065-.024-.012-.065.016-.1.024-.025.057-.106.033-.13.093l-.016-.037c-.053,0-.016.069-.057.09-.053-.045-.085.053-.13,0v.012a.032.032,0,0,1-.037.024c-.036-.02-.041.02-.069.037l-.02-.024c-.02.012-.028.049-.057.036,0,0-.012-.008-.008-.012l-.045.012-.016-.028h-.2c-.053-.069-.081.033-.138-.02,0-.077-.069-.029-.106-.024-.016-.008,0-.02.008-.029-.016-.037-.037.012-.049,0-.037-.053-.094-.02-.142-.037v-.008l-.041-.008,0,0-.073-.016c.012,0,.008-.016.008-.02-.025-.045-.041.02-.073,0-.012,0,0-.02-.008-.037h-.029c-.033-.045-.081-.057-.122-.085l0-.008c.008-.016-.012-.024-.02-.037-.061-.036-.1-.118-.175-.138-.077-.118-.224-.045-.329-.118l.029-.045-.081-.008c-.008-.016-.016-.053.008-.065l-.045-.008.008,0c-.057-.02.037-.069-.02-.1,0-.016,0-.033.012-.045l-.02-.02.029-.029-.029-.037.049-.029c0-.033-.037-.016-.049-.033.024-.02.016-.041.008-.073.061-.045-.061-.085-.008-.138h-.008c0-.012.008-.045-.02-.049l.029-.016a.693.693,0,0,0-.118-.126l.008,0c-.028-.078-.093,0-.118-.069-.033.081-.1-.024-.146.008l.008.008-.081-.008c0-.012.008-.02.016-.029l-.053.016v-.036c-.02,0-.008.02-.02.028s-.041,0-.053-.008l.008-.02-.053-.025c-.077.037-.159-.081-.22-.118a.172.172,0,0,1-.045-.085l-.077-.029c.029-.032-.02-.045-.037-.061-.024,0,.016.033-.016.029-.008-.086-.11-.037-.11-.122a.317.317,0,0,0-.163-.036c0-.016.029-.033,0-.045-.02,0-.069-.016-.085.02-.045,0-.1.037-.118-.02l-.029.028a.379.379,0,0,0-.118-.065c-.033-.033-.122-.053-.073-.1-.012,0-.02.012-.028.02l-.037-.029c-.041.016-.041-.028-.081,0-.012-.041-.089,0-.057-.057-.089-.008-.2-.049-.281-.053-.053.024-.126-.053-.183.008-.012,0-.029-.045-.045-.008l0-.045c-.057,0-.012.081-.073.081-.008-.012-.033-.016-.025-.037a.136.136,0,0,0-.081.045c-.033.024-.065.012-.1.012,0,.077-.085.008-.11.061l-.012-.037c-.045.069-.122-.016-.2.02-.061-.069-.1.041-.163.028-.016-.053.041.008.053-.041-.016-.016-.037-.008-.057-.008-.02-.045-.09-.012-.1.028l-.012-.037c-.053.012-.11-.02-.146,0-.053-.045-.126.016-.171.037,0-.012.008-.016.016-.02l-.016-.016a.642.642,0,0,0-.094.065c-.045.032-.122-.008-.155.073-.032-.024.029-.041.016-.049l-.008,0a.482.482,0,0,0-.171.045.042.042,0,0,0-.073.025c-.077-.037-.126.057-.187.057-.053-.024-.1.081-.154,0l-.016.029c-.029-.041-.061.02-.081-.008-.073-.008-.11.09-.175.11l.024.032c-.057-.016-.094.02-.142.049,0,.081-.1.1-.11.163-.041.028-.089.089-.15.057-.049.02-.037.089-.089.081-.081-.065-.069.061-.138.057-.037-.045-.1.016-.134.045.053.065-.061.024-.065.089l.024.02a.109.109,0,0,1-.037.028c0-.032-.037-.02-.053-.036-.049.081-.118-.025-.167.053,0,0,.008.008,0,.016-.037-.033-.069.02-.114.012-.053.029-.016.061-.037.1-.02,0-.041.037-.061.02.008,0,.008-.016.008-.02-.065,0-.049.106-.13.094l.029.045c-.037.028-.077-.024-.11.012l.057.024c-.029.029-.069.033-.085.065-.012,0-.008-.016-.008-.02-.053,0-.094.049-.146.02.029.073-.073.008-.089.057-.028.016-.089.041-.085-.02-.024-.016-.049.028-.073.008.1-.041-.057-.122.065-.163l-.024-.012a.6.6,0,0,1,.126-.179c.016-.008,0-.053.029-.041a.466.466,0,0,1,.008-.081c.069-.049-.045-.081.037-.134-.053-.02.016-.089-.053-.11.045-.02.041-.093.037-.13h0c.033-.045-.041-.106.012-.126.029-.053.016-.114.081-.138l-.008-.008a.565.565,0,0,0,.053-.167l-.024-.02.016-.016c-.012-.041-.016-.094.016-.118a.08.08,0,0,0,0-.085c.02,0,.037-.008.033-.037.049-.037.045-.126.122-.11l-.045-.024.069-.045-.033-.012a.071.071,0,0,1,.053-.024c0-.049.069-.029.081-.073h-.028a.824.824,0,0,1,.146-.146c.012,0,.033.028.041,0l-.029,0c.024-.016.053-.041.081-.061.02-.041,0-.065.037-.1-.045-.049.037-.093.029-.138a.184.184,0,0,1,.126-.118c-.008-.016-.037-.02-.028-.045.065-.045.073-.134.122-.2-.041-.041.033-.081.008-.126s.053-.073,0-.13c.053-.029-.02-.081.045-.106l-.024-.029c.053,0,.061-.061.11-.065,0-.016.008-.037-.012-.037l.012-.016c.008,0,.02,0,.025.008l.049-.045-.028-.012a.1.1,0,0,1,.1-.028.39.39,0,0,1,.179-.09l-.024-.02c.041,0,.069-.053.09-.069s-.016-.041.02-.037.061-.02.061-.037l-.033-.012c.033-.024.089,0,.1-.053-.008,0-.012,0-.016-.008.016-.025.049-.065.073-.029.008-.061.089-.1.073-.167.069-.033,0-.122.081-.138-.012-.041.057-.077.045-.118l.118-.1-.016-.012.037-.024c.02-.1.146-.191.138-.293.065-.037-.024-.085.037-.122-.049.033-.016-.061-.073-.045.016-.02.033-.049.016-.073-.049.073-.037-.041-.089-.02l.016-.033c-.02,0-.032-.028-.061-.02.012-.077-.053.024-.077-.02a.019.019,0,0,1,0-.033c-.012-.024-.041-.008-.061-.012l-.008-.053c-.016.008-.037.008-.049.029-.012-.016-.029-.049-.061-.037-.02-.012-.016-.033-.029-.049-.012.065-.053-.016-.085.012l-.008-.049c-.029-.037-.045.037-.065-.008,0-.008,0-.012,0-.016l-.037,0,.008-.008c.008-.012-.008-.02-.012-.029-.02-.012-.024.016-.037.012a.042.042,0,0,0-.053-.037c.016-.049-.065-.028-.037-.073-.02,0-.041,0-.045.024-.016-.029-.065-.016-.057-.061-.016.024-.045.016-.065.028-.029-.033-.077-.033-.09-.073-.02,0-.041,0-.045.025-.016-.037-.069-.012-.093-.016-.029-.037-.061.008-.089.016l-.012-.029a.09.09,0,0,1-.106.02c-.041.094-.126-.032-.159.065-.024.008-.065.045-.081,0-.033.049-.077.049-.118.1-.041,0-.077.061-.118.02l.016.037c-.02.041-.049-.016-.073.008,0,.016,0,.041.02.045-.041.029-.1.024-.122.073-.02.016-.029.073.008.077-.012.024-.041.057-.069.037-.041.024.02.024.008.053-.045.02,0,.045-.02.073-.016,0-.024-.02-.037-.028-.008.008-.024.016-.024.028s-.037.061.008.065c-.016.02-.049.081-.081.037v.024c-.02.016-.037.057-.077.049a.139.139,0,0,1-.142.053c.024.061.053-.016.1.029l-.1.045c0,.028.037.037.037.065,0,.008-.016.008-.024.008l.024.049-.22.2c.061.045-.081.053,0,.093-.037.033-.049-.028-.081.025l.02.02c-.024.024-.037.053-.073.053.024,0,.012.036,0,.049-.057,0-.012.073-.081.069.033.037-.033.049-.037.077l.008.008-.045.008c.029.041-.02.069-.012.11-.024.012-.065.041-.037.073-.028.037-.037.041-.024.081a.05.05,0,0,1-.037-.016c0,.028-.053.065-.012.1-.012.008-.024.028-.045.02.016.016-.033.053.016.057l-.053.033c-.008.016.016.02.016.037l-.037.02c.02.057-.041.037-.045.073.008,0,.016,0,.02.008-.012.032-.053.016-.065.012.016.049-.045.049-.057.069l.037.02c-.033.028-.085.024-.106.065.012.041.037.012.053.016v.012c-.016.016-.028.041-.053.037v-.028s-.008,0-.012.008c-.012.081-.138.159-.175.22l.028.008a.532.532,0,0,1-.081.086l.016.016c-.032.041-.024.065-.069.073a.056.056,0,0,0,.024.057l-.024.024c0,.029-.037.012-.049,0l.012.037-.041.008c.012.008.012.02.02.036-.012.025-.025,0-.045,0-.008.037-.049.089-.008.106l-.02.02c.029.012.02.049,0,.065l.029.024-.045.036.037.02-.02.02c-.008,0-.024.008-.028,0,.008.016-.02.053.02.073-.012.049-.061.016-.073.037.008.016.016.037.037.041-.024.037-.057-.02-.081-.012v.029c.118.012-.065.053-.012.11h-.037c-.016.041.029.016.02.053h-.037c.028.049,0,.069-.029.11.016.065-.077.016-.065.085.012.033-.02.081-.029.126l.037-.016c0,.036-.037.02-.061.053,0,.033.016.057-.008.094.024.045-.037.041-.057.061s.024.024.037.037l-.016.012c.012.029-.02.118.033.1a.1.1,0,0,0-.024.081c-.061-.012-.02.073-.081.061l.008,0c-.049.016-.012.122-.093.11-.033.024-.037.073-.016.09-.029,0-.029.061-.065.028l-.016.028.033.008c-.037.065-.126.081-.163.138l.02.016-.037.053c-.106.012,0,.118-.065.151a.021.021,0,0,0,.016.037l-.053.1h.016v.049h.012c-.037.053.049.077-.02.126.045,0,0,.065.053.057-.033.016-.024.049-.045.069.008.016.029.02.045.029-.024.012-.041.061-.073.045l-.016.037.037.02-.029.016c0,.069-.057.077-.073.138l.029.012c-.029.012-.041.049-.081.045l.045.044h-.045c0,.049-.028.073,0,.118-.041,0,0,.049-.045.049l.016.033-.045,0,.016.016c0,.036-.041.016-.053.045s.037.033.045.049c-.029,0-.037.024-.053.045.008,0,.02,0,.024.008l-.053.057h.053l-.061.061.037.02c-.045-.008-.024.045-.049.061-.008.033-.025.093.012.11l-.037.037c.025.045-.077.093,0,.114-.041.008-.053.053-.057.089l.028.016c-.028.008-.065.033-.057.073a.243.243,0,0,0-.029.11c-.065-.016-.028.061-.061.085-.085.037-.053.15-.159.175.045.114-.11.081-.106.179.029.033-.053.028-.02.065l-.057.065.029.016-.025.02a.055.055,0,0,0-.012.089l-.045,0c0,.012.008.016.016.024l-.033.036.033.02-.037.028c0,.02.024.028.028.045a.11.11,0,0,1-.037.029l.02.024a.012.012,0,0,1,0,.02c-.012.02-.012.029.008.045l-.028.028.037.029c-.041.012-.008.037-.028.061l.037.008c-.02.012-.02.033-.033.049h.024l.008.045.012-.016c.008,0,.02,0,.024.008l-.024.029c0,.028.028.008.037.024l-.008.029a.129.129,0,0,1,.033.11c.008.032.02.044.049.044l-.012.012c-.061.057.045.049-.008.106l.037.012c-.045.065.045.065.049.118h-.041c-.016.053.045.016.065.037s-.02.016-.029.028a.647.647,0,0,1,.049.09c.02,0,.032-.037.053-.016-.073.041.045.053-.016.1.024.02.057,0,.073,0l-.02.04.037,0s-.008.045.02.036l.008.041c.029-.041.057.024.089,0-.02.041.053.033.02.069h.081l-.008.02c.008.008.016.02.029.016l.008.041c.037-.008.045.061.081.016.012,0,.037.02.028.045.093-.037.163.1.236.008l0,.037c.02,0,.029-.041.045-.016l-.02.02a.118.118,0,0,0,.085.008c-.012,0,0-.02,0-.029.012.024.1-.012.077.053.057-.033.11.008.163,0l-.008.008c0,.045-.061.008-.045.024a.277.277,0,0,0,.118-.008l-.008.037.09-.008c-.024.057.057.029.089.037l-.037-.053c.02.012.057-.02.065.024.028-.008.081-.012.073-.061.024.016.049-.024.057.016.008,0,.024,0,.028-.008l-.012-.012c0-.029.033-.036.049-.053l.008.02c.025-.065.13.012.134-.065.045.008.057-.037.1-.008.024-.012.049-.045.073-.036-.008.012-.02.016-.016.033.037-.008.049-.057.09-.061l.012.029.073-.049c.077.012.106-.1.183-.089.029.093.065-.045.11-.037.061-.028.012-.065.053-.093.008-.029.114-.033.057-.089.02-.028.033.029.045.008s-.008-.028-.012-.045a1.082,1.082,0,0,1,.183-.147c.1.037.02-.1.122-.073,0-.057.073-.008.1-.045l-.037-.02c.1-.016.138-.138.211-.2.008-.045.037-.126.1-.093-.008-.037.033-.012.045-.029.028-.045.065-.008.093-.028l-.028-.033.146-.073c.012-.045.093-.02.073-.077.061-.106.191-.15.163-.264.033.024.053-.02.085-.016l-.02-.02.008-.008a.036.036,0,0,1,.057.02l.037-.04a.2.2,0,0,0,.13-.037l.053.02c.016-.016.037-.033.037-.053l.029.016c-.024-.045.041-.037.065-.037.037-.073.146.057.126-.057.012-.008.016.008.028,0s0-.029.008-.037c.069.053.11-.077.163-.02.012-.065.11-.016.1-.089a.277.277,0,0,1,.11-.049c-.033-.012,0-.045.012-.061l.037.036c.037-.053.1-.065.146-.11l.016.024a.04.04,0,0,1,.037-.016v-.036c.02-.008.02.016.028.024.041-.045.106-.012.154-.033l-.029-.037.008,0a.456.456,0,0,0,.224-.069c.02.016-.008.033,0,.053l.016-.016c.016,0,.024.012.037.016.016-.089.13-.033.167-.11.057.016.061-.02.1-.053l.008.033c.057.02.057-.065.11-.069l.028.033a.289.289,0,0,1,.183-.081v.012c.045.016.086-.033.118.016.065.024.049-.073.11-.045-.012.008-.012.02-.016.028.02,0,.037.049.053.008,0,0,.016,0,.02.008l-.016.016.036.037c.033-.008.077.029.106,0l-.008.037c.033.045.057-.02.094,0,.028.036.065-.008.1.028.012.029.1.033.073.086.061-.061.041.085.138.024l-.025.049a.908.908,0,0,1,.106.008c.11.008,0,.105.085.134l-.008,0,.033.024c-.024.033.041.049-.008.081a.245.245,0,0,0,.1.094c0,.016-.008.024-.016.036l.037-.02s.012,0,.008.012,0,.036.016.036c-.061.049.057.057-.016.1a.1.1,0,0,1,.045.1l.065.012c0,.017.008.049.028.053l-.041.016s.008.016.02.012.037-.028.057-.012c0,.012-.02.02-.02.036.016.037.036,0,.057.02,0,.012-.02.02-.012.037.073.02,0,.142.094.126l-.02.049.037.008-.029.053c.008.016.029.02.041.028-.024.012-.008.057-.012.073.02.012.057.012.057.045h-.045c-.012.033.024.024.037.036s0,.033-.012.041l.037.037.008,0v.041h.036c.008.057.073.089.11.11-.008.024-.036.008-.045.024.024.029.028.057.073.049-.061.041.037.086.012.118l.037.016-.02.012.016.016c.037,0,.037.049.086.053l-.008,0s-.008,0-.012,0c-.008.012-.029.016-.024.037.1-.008.02.114.1.11-.045.033.024.049.008.085h.057c.012.033.036.057.036.089.016.02.016.037.037.065.053-.029.1.065.13.093l0,.008c.02.016.073.033.049.073.049.02.118.016.138.065l.008,0c.045.012.057.122.118.049l.016.053c.045-.045.053.049.1.036l-.016.012c.029.049.093.037.138.061l-.041.012,0,.008c.045.008.093.057.134.008.008,0-.016.037.012.037.033-.049.057-.008.089.008.02,0,.073.037.094-.008v.037l.037-.016.008.033c.061.024.118-.02.163-.033l-.025.037.081.008a.021.021,0,0,0-.008.016l.089.008v0h.045l-.008.008c.032.122.122,0,.183.029.02.024,0,.053.036.061.037.032.094-.061.126-.008.02-.008.036-.036.049-.045l.008.008.053-.037,0,.008c.012.02-.012.02-.02.028.025.016.073,0,.1,0-.012-.053.033,0,.045-.037.033.02.049-.029.073-.045s.033.033.053.008c0-.036.032-.008.049-.008l.008-.045c.061.049.089-.093.146-.012.032-.012-.008-.029.016-.045a.112.112,0,0,0,.114-.053v.037c.037-.053.053.012.081,0l-.02-.025a.1.1,0,0,0,.048.011.009.009,0,0,1,.011,0c.077-.006.157-.068.209.026.045-.012-.016-.033.008-.049a.049.049,0,0,0,.061,0v.037c.032.036.069,0,.1-.02.02.016-.02.032.012.045.037-.008.045-.016.037-.045.033.008.081-.016.089.02a.322.322,0,0,1,.057-.049c.049.029.061-.02.106-.024,0-.045.049-.057.086-.065,0-.082.081-.044.126-.065.045-.065.086.024.13.016l-.008.02c.041-.016.085.045.11-.008.049.044.057-.049.106-.029l-.033-.045c.1,0,.073-.122.134-.175a.063.063,0,0,0,.073-.037c-.016-.016-.012-.029.008-.045,0,0,.016,0,.02.008.024-.024.053-.089.093-.065l0-.008c0-.012.012-.02.02-.029.077.024.065-.073.138-.053,0-.008,0-.016-.008-.02.033-.025.037.016.069,0l-.016-.029c.057-.069.138-.02.211-.045v-.037l.037.02c.037-.065.118-.061.138-.13.081-.033.106-.081.179-.146a1.58,1.58,0,0,0,.1-.236c.1.029.041-.13.146-.1.045-.02-.036-.049.02-.065.114-.008.126-.126.228-.183a.1.1,0,0,0,.093-.016c.037-.078.13-.057.191-.1l-.02-.02c.008-.024.033-.008.044-.024-.016-.053.049-.081.078-.11-.029-.041,0-.073-.012-.118.033-.045-.024-.1.037-.138-.053-.029.037-.053-.008-.081.024-.069.118-.061.13-.13a.286.286,0,0,0,.163-.036c.041.073.106-.065.13.016.032-.028.105.02.126-.016a.036.036,0,0,1,.057.02.234.234,0,0,0,.053-.057l.029.02a.239.239,0,0,1,.134-.057c.037,0,.061-.1.094-.029.041-.037.077-.1.13-.081,0-.073.118-.069.081-.147.081-.053,0-.122.037-.183,0-.028.049-.037.008-.057.016-.041,0-.081.036-.118a.021.021,0,0,1-.016-.008c0-.061.085-.11.053-.163l.073-.036c-.02-.041.037-.037.045-.065l-.008-.008c.11-.053.036-.163.118-.211-.041-.016.016-.045-.024-.065m-14.111,3.249h-.008v-.029c.012,0,.008.02.008.029m3.485-4.741a.035.035,0,0,1,.029-.028c.008.02-.02.02-.029.028m3.888,4.953h-.024l.024-.021Zm4.624-4.356h-.012c0-.008.012-.012.02-.012s0,.012-.008.012" transform="translate(-119.841 -118.413)" fill="#1a1311"/>
        <path id="パス_2082" data-name="パス 2082" d="M164.03,141.248c0-.008-.016-.008-.02-.008l0,.024Z" transform="translate(-142.752 -122.933)" fill="#1a1311"/>
        <path id="パス_2083" data-name="パス 2083" d="M220.2,210.5a.019.019,0,0,0,0,.013l.029,0a.03.03,0,0,0-.014-.018H220.2" transform="translate(-191.659 -183.219)" fill="#1a1311"/>
        <path id="パス_2084" data-name="パス 2084" d="M223.839,210.611h.012a.021.021,0,0,0,.008-.016c-.008-.02-.037.012-.02.016" transform="translate(-194.821 -183.293)" fill="#1a1311"/>
        <path id="パス_2085" data-name="パス 2085" d="M317.83,152.85c.065-.107-.1-.083-.084-.161-.018-.018-.06-.108-.1-.042-.06-.09-.1.036-.161-.036v.012a2.137,2.137,0,0,1-.364.03c-.018.024-.054.048-.072,0h-.441c-.06.024-.155,0-.173.077-.065-.077-.179.018-.238-.029-.06.059-.2-.006-.245.125-.077.03-.054-.048-.083-.072-.054.006-.072-.066-.107-.054-.006-.066-.066-.084-.1-.12s-.048-.107.012-.131a.216.216,0,0,0-.119-.1c-.006-.1-.12-.185-.054-.292l-.054-.31a.144.144,0,0,0,.036-.161.488.488,0,0,0,0-.227c.018-.054-.036-.137-.036-.215.078-.03,0-.1.024-.161a.687.687,0,0,1-.191-.382c.054-.083-.054-.185-.077-.262.048-.047,0-.1-.03-.149-.048-.059.042-.131-.036-.179-.006-.143-.113-.257-.072-.4-.059-.131-.1-.263-.173-.388-.03-.1-.167-.227-.119-.388-.065-.03-.161-.072-.131-.167-.024-.113-.149-.072-.167-.173-.071-.072-.155-.2-.268-.161-.018.018-.048.006-.066.012-.024-.089-.143-.006-.185-.078-.018.083-.107.018-.161.03-.042.054-.125.054-.137.131l-.042-.03c-.03.06-.1.107-.119.167-.114-.036-.1.131-.161.155-.012.077-.114-.036-.107.06.042.167-.179.137-.161.292-.077.006-.03.12-.042.161-.1.03-.131.161-.2.238.071.137-.071.143-.125.221-.012.078-.024.161-.036.215-.1.018-.042.1-.018.155.012.03-.024.03-.048.03-.036.054-.012.084,0,.137-.108.376-.054.805-.125,1.2l-.042.042a4.811,4.811,0,0,0-.143.722l.042.018c-.137.078.03.221.024.334.191.1.108.334.161.483-.071.048-.006.149-.012.226.083.1.012.257.143.334-.03.1.09.143.06.227a1.325,1.325,0,0,1,.227.447l-.012.024c.149.107.089.316.2.447.1.036.06.185.119.268a.454.454,0,0,1,.167.281c-.036.065.024.107.078.119.012.03-.018.036-.012.066.119.084.1.25.227.31a.061.061,0,0,0,.03.1c.048.143.191.178.227.334.149-.012.131.179.268.173.125.155.3.167.465.28.137-.042.221.155.352.054.119.071.262.006.364.1.03-.054.1-.065.149-.09.047.059.083-.012.119-.042.042.048.071,0,.119,0,.119-.119.316-.018.429-.173.113.047.173-.072.239-.137.113-.006.054-.167.149-.215.137.024.078-.173.215-.161.03-.113.233-.155.227-.3.078-.047,0-.113.072-.161-.09-.09.131-.161,0-.227l.09-.065c-.036-.03-.077-.072-.048-.12h.024l.024-.214c.048-.078-.018-.191.054-.281a.381.381,0,0,1,.107-.286.135.135,0,0,0,.006-.149c.018-.107,0-.238.107-.292-.066-.137.185-.131.107-.268.083.012.054-.1.131-.1l.024-.149c.03-.018.084-.024.06-.078-.077-.1.161-.113.066-.214a.24.24,0,0,0-.042-.257" transform="translate(-271.801 -129.056)" fill="#1a1311"/>
        <path id="パス_2086" data-name="パス 2086" d="M376.728,156.121c-.03-.167.113-.316.047-.483-.083-.059.03-.179-.054-.25.048-.078-.054-.143-.024-.215.053-.119-.108-.125-.042-.244-.1-.066-.1-.167-.107-.292,0-.059-.1-.048-.042-.119-.143-.06-.066-.244-.161-.31a.2.2,0,0,0-.09-.173c-.089-.012-.173-.1-.256-.072-.053-.1-.185-.036-.28-.054-.036-.024-.054-.06-.107-.042-.042-.077-.125-.066-.161-.143-.06.023-.06-.042-.119-.03-.042.042-.125-.071-.161.03-.036-.042-.125-.048-.167-.072-.137.03-.2-.054-.3-.066-.03-.071-.1.048-.125-.024l-.227.012c-.03-.006-.125-.036-.143.024-.1-.065-.274.018-.382.054-.006.036-.03.1-.089.072v.036a.366.366,0,0,0-.179.113c.03.107-.155.167-.054.262l-.065.042.179.322c.048.006.1.024.089.083.006.089.1.113.072.215.143.167.077.37.185.549a.055.055,0,0,1,.1.03l-.042.024c.108.1.06.25.12.364.149.131.065.364.244.471.072.137.066.328.173.429a1.014,1.014,0,0,0,.119.358c.1.024.107.143.161.215.09-.03.143.1.233.03.071.065.173,0,.25.024.06-.012.125-.066.179-.012a.61.61,0,0,1,.268-.078c.03-.107.227-.083.238-.221.1-.066.179-.131.268-.185.024-.089.149-.131.245-.149.059-.137.167-.227.215-.364.006-.06-.072-.119,0-.161" transform="translate(-325.033 -133.657)" fill="#1a1311"/>
        <path id="パス_2087" data-name="パス 2087" d="M270.121,135.531a.285.285,0,0,0,.1.183c-.019.046.038.019.043.043.038.054.1.057.14.094.035.054.137.051.126.14.057.048.07.116.121.169.046-.011.022.043.048.057.108.038-.008.14.062.2.065.022.065.108.137.116.008.075.1.038.11.115.008.024.056-.005.048.035.022.019.022.048.054.048.03.078.113.121.159.194.032.1.129.092.191.145.024.005.027.051.062.043,0,.089.108.065.108.151.024.059.1.078.145.116.043-.008.056.04.091.043.019.057.07.008.1.054.083-.008.129.038.218.019.024.022.037.051.067.054a.273.273,0,0,1,.159.04c.024,0,.054,0,.065.019a.2.2,0,0,1,.1-.005c.049-.027.078.032.126.011.019.032.065.013.086.032a.058.058,0,0,0,.067-.013c.054.005.078-.027.113-.054.022.038.038-.01.056-.019.038.005.048-.03.083-.025.019-.062.1-.019.121-.078.013-.019.03.016.038-.011a.362.362,0,0,0,.107-.129c.032-.086-.046-.161.008-.237a.526.526,0,0,0,.054-.336c-.008-.048.043-.1-.024-.124-.011-.016,0-.035.005-.048-.024-.035-.016-.07-.024-.1a.087.087,0,0,1-.011-.073c-.032-.043.024-.086,0-.126a.022.022,0,0,1,.03-.019c.03-.024-.011-.046-.005-.073.03-.057.008-.145.022-.193-.022-.035-.019-.089-.059-.1a.3.3,0,0,0-.019-.188c-.081-.019-.022-.11-.054-.156.032-.043-.016-.089-.024-.135-.027-.1-.135-.126-.164-.234a.087.087,0,0,1-.083-.048l.005,0a.076.076,0,0,0-.062-.04c-.013.005-.024-.011-.024-.019-.065-.005-.089-.059-.151-.059-.027-.024-.075-.032-.089-.075a.1.1,0,0,0-.081-.046l-.151-.169c-.04.008-.059-.024-.086-.038v.005c-.011,0-.016.019-.024.005v-.011a.564.564,0,0,1-.17-.024c-.019-.024-.067-.008-.083-.035-.048.011-.086-.035-.132-.019-.04-.035-.094-.03-.134-.057-.008-.043-.073,0-.083-.04-.043,0-.048-.048-.092-.057a.412.412,0,0,0-.153.008c-.027-.038-.059.038-.073-.008l-.016.008s-.005-.005-.005-.008h-.129a.173.173,0,0,0-.132-.011c-.005-.019-.032-.005-.048-.011-.019.024-.081.013-.1.054-.054-.038-.065.054-.11.019-.067.054-.137.032-.188.1-.067-.032-.067.073-.121.07-.024.051-.083.024-.1.086-.03.011-.043.038-.078.043,0,.054-.078.013-.062.073l-.005-.005c-.024.016-.065.019-.067.046l-.03,0c-.04.059-.054.143-.121.18-.027.024-.024.07-.059.078a.391.391,0,0,0,.016.247c-.032.038.03.075.038.116" transform="translate(-235.049 -117.002)" fill="#1a1311"/>
        <path id="パス_2088" data-name="パス 2088" d="M263.773,165.4c-.022-.019,0-.035.011-.048-.008-.022-.024-.016-.04-.03l.016-.029a.222.222,0,0,1-.049-.151c-.038-.051-.04-.11-.089-.14-.008-.073-.1-.046-.116-.091a.02.02,0,0,1-.024.008c-.005,0-.005-.008-.005-.013l-.062-.011c-.027-.024-.089-.011-.113-.027-.008,0-.027-.011-.027.008l-.024-.008v0h-.03c-.027,0-.054.041-.073.016l-.035-.006a.145.145,0,0,1-.121.014c-.013-.027-.016.016-.038,0-.067,0-.073-.067-.107-.111-.03-.078-.094-.118-.129-.188-.048-.03-.051-.089-.073-.14-.081,0-.024-.1-.089-.118-.016-.062-.1-.024-.11-.091-.073-.067-.18-.094-.248-.175-.054-.01-.086-.051-.14-.056-.038-.032-.1-.035-.132-.072-.043.032-.062-.032-.1-.024s-.081-.048-.121-.005a.037.037,0,0,1-.038-.013c-.046.019-.035-.038-.078-.024-.091.03-.1-.078-.188-.04-.035,0-.057-.064-.086-.013-.013-.035-.059-.022-.083-.04a.075.075,0,0,1-.035-.081c0-.037.043-.005.049-.04,0-.078.116-.046.118-.129.048-.005.075-.059.091-.1.048-.016.067-.1.121-.108.013-.059.078-.092.11-.14.008-.011.027,0,.035-.011a.4.4,0,0,1,.129-.129,2.9,2.9,0,0,0,.229-.18c.043,0,.043-.086.1-.062.056-.059.124-.121.18-.186.075.005.1-.1.177-.1a.594.594,0,0,1,.161-.132c.059-.089.175-.075.226-.159.024-.029.089,0,.089-.053.073.037.038-.07.1-.059.022,0,.027-.024.024-.043.019-.03.013-.092.062-.086.024-.057.027-.124.054-.18-.027-.043.048-.051.032-.092-.008.005-.027.019-.032,0-.005-.035-.016-.065.013-.091-.043-.027.005-.07.011-.1a.042.042,0,0,1-.011-.054c-.035-.073-.032-.17-.073-.237.027-.016-.008-.022-.005-.038-.024-.048-.081-.064-.121-.1-.022-.108-.143-.105-.2-.194-.038.008-.046-.032-.07-.04l-.008.011c-.043,0-.016-.073-.067-.059-.024-.057-.1-.054-.132-.105-.038,0-.046-.035-.086-.021-.011-.04-.073,0-.083-.038-.083.019-.129-.03-.2-.035a.154.154,0,0,1-.145,0c-.024.03-.062-.013-.075.005-.016-.019-.059,0-.078-.019-.035-.011-.038.038-.073.024-.032-.037-.078,0-.121-.019-.019.054-.059-.04-.078.019a.174.174,0,0,0-.145-.011.223.223,0,0,1-.1.011c-.013-.005-.056.014-.062-.013-.075-.011-.153-.022-.229-.03v-.011c-.024-.016-.038.032-.054-.005-.03,0-.057-.065-.092-.014-.008-.008-.016-.013-.019-.024-.054.005-.094-.027-.132-.03a1.233,1.233,0,0,1-.172-.024c-.032.03-.059-.011-.089-.019-.043.024-.048-.043-.091-.019-.048-.043-.148-.008-.194-.04a.894.894,0,0,1-.18-.038c-.038-.037-.143-.024-.2-.019-.005-.005-.013-.008-.011-.016h-.032v0c-.032,0-.067,0-.083-.022a.362.362,0,0,1-.134.016c-.038-.038-.1-.011-.145-.016-.011-.008-.03,0-.03-.018-.073-.019-.145.016-.213-.008-.021-.006-.035.048-.054.008-.03-.005-.083-.005-.092-.008s-.254.049-.259.025c-.022-.005-.057-.011-.059.019-.032-.043-.1.005-.148-.024l-.011-.013h-.2c-.008-.011-.032,0-.032-.019h-.016v0c-.011.005-.019.013-.032.011s-.059.01-.089-.006v-.008c-.043.027-.1.022-.134.067-.059-.016-.057.065-.11.062-.04-.04-.035.072-.094.043-.01.035-.067.016-.067.07-.051.021-.059.083-.081.129.033.059-.054.07-.024.126h-.016c-.054.006-.016.081-.032.108-.032.043.035.092.051.124.059.083.177.1.2.21.073-.021.038.073.089.081,0,.024.043.021.027.053a.164.164,0,0,0,.094.067c-.027.083.073.073.086.143.065.027.067.11.116.159.059-.03,0,.086.073.078.019.03.075.016.083.062.094.005.134.107.247.083.048.035.345-.052.383.007.048-.027.078.008.121.011.035-.016.048.027.078.032s.062.016.081-.008c.051.024.073-.024.126,0,.03-.045.078.008.108,0,.005-.008.019,0,.03,0,.073.04.172,0,.261.019.021.038.043-.019.067.008.014,0,.035.011.038-.008a.129.129,0,0,0,.121,0s.008.005.005.008c.051-.013.081.048.121.005.046.043.086-.021.132.019.03-.024.1-.008.121-.032.027-.005.059-.043.073-.03.086-.016.116.078.188.1s.118.059.183.054c.008-.008.021-.006.03-.006.046.03.113,0,.161.024.086-.019.038.092.067.126l-.054.006c-.016.054-.078.062-.1.11-.038.019-.07.073-.121.083,0,.048-.062.038-.086.051-.016.083-.091.086-.126.15-.035.037-.1.024-.116.083-.054-.027-.046.059-.1.038-.04.07-.148.086-.17.175-.03,0-.019.038-.054.024,0,.059-.073.014-.073.067-.067-.013-.032.064-.091.059-.019.04-.078.038-.089.078-.067,0-.027.086-.1.067,0,.043-.032.048-.059.067l-.008-.011c-.027-.008-.03.019-.046.03-.051.019-.067.061-.116.088a.188.188,0,0,0-.086.067c-.054-.011-.043.057-.078.068.011.046-.038.024-.043.059-.067.005-.078.1-.145.091-.005.051-.083-.005-.078.057-.032-.008-.04.016-.062.022-.03.038-.078.019-.118.043v.008c-.038,0-.07.043-.091.07-.04-.005-.062.043-.086.067-.024-.016-.056.014-.078.024-.038-.024-.048.045-.067.005-.059-.032-.067.054-.108.048a.369.369,0,0,0-.126.116c-.005.013-.008.04-.032.029s-.016.07-.065.057c-.022.07-.1.064-.14.116a.036.036,0,0,1-.024.04c.005.043-.056.048-.048.1a.208.208,0,0,0-.1.11c-.067-.019-.021.089-.1.078-.03.013-.048.064-.081.054a.352.352,0,0,0-.108.207c0,.024.022.049,0,.067a.666.666,0,0,1-.024.142c.03.049-.043.1.011.145-.038,0-.022.043-.04.062.03.027-.04.049-.008.083-.048.1.04.186,0,.285a.623.623,0,0,0,.083.188.443.443,0,0,1,.127.078l.145.005c.022-.021.051.019.067-.016a1.9,1.9,0,0,0,.35-.038c.078.029.094-.127.169-.043.038-.024.062-.011.1-.035.04.032.051-.054.108-.024.054-.059.156-.024.212-.083a.314.314,0,0,1,.137-.067c.038-.064.121-.016.159-.086.057.027.07-.054.116-.03.035-.048.11-.011.161-.024.056-.051.11.019.177-.005.067.065.1-.04.175-.019.065-.035.145-.016.213-.054l.016-.013c.059.024.062-.076.121-.041.008.027.038-.022.051.016a.193.193,0,0,0,.1-.016.906.906,0,0,1,.242.01.211.211,0,0,1,.161,0c.035-.032.07.025.105-.01a1.137,1.137,0,0,1,.156.048c.073.011.134.022.207.03.011.029.048.016.073.019.083.019.118.094.186.142.016.024.021.048.054.057.04.083.113.118.172.188a.693.693,0,0,0,.282.239c.005.022.046-.008.043.025a.37.37,0,0,0,.121.062.251.251,0,0,0,.194.078c.059.035.059-.064.121-.035.019-.046.078-.008.108-.043s.072-.027.1-.054c.059.005.089-.029.145-.024.027-.041.081,0,.113-.032.075,0,.113-.067.183-.089.016-.032.016-.075.03-.11a.142.142,0,0,1,.091-.04c.054-.032.083-.1.135-.135.07.005.089-.092.137-.086.008-.073.089-.054.121-.113-.035-.051-.046-.121-.1-.153" transform="translate(-224.271 -139.488)" fill="#1a1311"/>
        <path id="パス_2089" data-name="パス 2089" d="M5.43,127.2c.2-.243-.156-.222-.107-.507-.132-.536.362-.659.137-1.132a1.946,1.946,0,0,0-.09-1.343c.013-.116.094-.194.042-.333-.182-.054-.157.383-.338.345-.2-.281-.38.335-.459-.258-.11-.049-.092.21-.2.177-.1-.263-.369-.206-.435-.572,0-.458-.323-.377-.369-.745.012-.329-.156-.7-.036-.992.021-.2-.007-.522-.187-.626a12.545,12.545,0,0,0-.117-1.388c-.309-.28-.222-.931-.544-1.16-.144.332-.262-.108-.4-.233-.109-.18-.221.033-.326.082-.1-.018-.127-.226-.2-.231a.284.284,0,0,1-.339.2c0,.147-.037.365-.177.255-.133.069-.1.293-.115.459-.146.185-.126.591-.329.671-.085.454-.4.453-.461.952-.054.187.126.634-.139.576-.043.121-.2.259-.153.416.221.375-.057.711.164,1.086-.15.366.1.949-.162,1.235A.717.717,0,0,1,0,124.7c.036.175.16.107.219.229-.025.38.2.525.339.75a9.23,9.23,0,0,0,.264,1.48c.377.254.086,1.18.534,1.162.277.138.186.626.424.7.169.17.114.686.354.65.322-.654.235.537.593.466.067.1.008.325.13.389.131-.151.27.09.41.069.147-.316.342.161.543,0,.339.619.36-.463.717-.141a.694.694,0,0,0,.465-.658,1.342,1.342,0,0,0,.315-1.11c.237.079.272-.3.354-.511l-.213-.392c.178-.109-.035-.371-.017-.586" transform="translate(0 -102.95)" fill="#1a1311"/>
        <path id="パス_2090" data-name="パス 2090" d="M55.2,97.225l.027-.027a2.916,2.916,0,0,0-.206-.409c.049.022.049-.036.058-.063.009-.107-.08-.156-.107-.25-.058,0-.018-.08-.031-.12-.054-.072.013-.183-.063-.232-.027-.179-.223-.129-.259-.3a.444.444,0,0,1-.161-.143c-.121.013-.183-.116-.312-.112-.08-.085-.214-.08-.29-.17-.1,0-.192-.089-.312-.08-.147-.085-.357-.022-.5-.121-.174,0-.3-.134-.482-.129l0-.022a1.2,1.2,0,0,0-.3-.04c-.049-.022-.089.014-.129-.031-.1.072-.2.027-.33.04-.022.045-.071.013-.112.022a.538.538,0,0,1-.3-.022c-.094-.018-.089-.143-.17-.152-.036-.085.036-.183,0-.268-.009-.08-.112-.129-.08-.214,0-.062.027-.111.009-.161s0-.1.009-.161c-.062-.129-.009-.272-.1-.388-.04-.04.04-.054.018-.089a.2.2,0,0,1-.04-.205c-.178-.062.018-.254-.147-.321-.058-.111,0-.219-.031-.33.058-.125-.121-.165-.1-.281.049-.049.022-.174.112-.161,0-.013,0-.027-.009-.031.049-.054.134-.085.111-.178.076-.072.2.009.272-.04a.925.925,0,0,0,.571-.04c.107-.054.165-.134.268-.183,0-.071.1-.054.094-.121.08-.009.049-.116.129-.147.018-.072.116-.072.111-.152-.036-.031.049-.04.009-.071l.04-.018a.148.148,0,0,0-.04-.12c.049-.045-.067-.08.009-.112-.054-.178.089-.263.094-.424h.018c.018-.036.049-.08.04-.121.085-.022.049-.152.161-.169a.3.3,0,0,0-.062-.259c.009,0,.036,0,.04-.022.058-.054-.018-.134,0-.2s-.031-.143.009-.192c-.089-.1-.04-.237-.054-.357-.018-.067-.1-.08-.16-.094-.049-.071-.129-.062-.187-.107-.138-.116-.366-.053-.5-.232l-.018.018a.13.13,0,0,0-.089-.111c.04-.089-.058-.121-.071-.2.018-.04,0-.1.049-.12a1.137,1.137,0,0,1-.063-.361c.04-.031,0-.1-.04-.134a.915.915,0,0,0-.116-.08c-.049.054-.089-.04-.143-.009a1.835,1.835,0,0,1-.58.112c-.053.027-.071.045-.125.067-.161.129-.277-.085-.46-.036-.027-.045-.058-.022-.08-.071-.063-.049-.178,0-.232-.022a.326.326,0,0,1-.258,0c-.054-.063-.152-.067-.161-.17l-.143-.009a.268.268,0,0,1-.29-.04c-.072-.036-.147-.094-.223-.143-.107-.018-.161-.183-.281-.152,0-.04-.04-.058-.076-.049a2.236,2.236,0,0,0-.442-.259c-.049,0-.08-.076-.134-.071-.058.04-.178.009-.219.089.022.049-.04.116-.009.183a.043.043,0,0,1-.04.018c-.049-.027,0-.08-.013-.107a.033.033,0,0,0-.027.009.188.188,0,0,1-.062-.111c-.107-.013-.076-.143-.129-.21.027-.013.031,0,.049-.022l-.049-.058c.013-.054-.027-.085.018-.134l-.049-.026c0-.072-.094-.112-.1-.183l-.129-.1c-.076-.053-.17-.085-.241-.129-.072,0-.129.023-.178-.044-.062-.018-.17-.049-.174.044-.08.049-.076.17-.1.241a.377.377,0,0,1-.12.339c-.071.094,0,.2-.018.3a.3.3,0,0,0,.049.263c-.031.013-.027.058-.04.089.022.036.018.031.058.04-.049.067.063.094.022.17h.009c0,.036.058.071.018.112l.045.022a.082.082,0,0,0,.018.089c-.031.138.111.232.089.379-.013.027-.027.08-.009.1.018.085-.089.089-.1.152.036.1-.116.089-.16.147-.147-.089-.174.116-.312.1-.223.156-.509.058-.763.17l-.013-.018-.018.018a1.314,1.314,0,0,0-.459,0c-.085.04-.187.049-.254.12-.036.08-.129.116-.2.161-.071.062-.183.031-.241.12a.941.941,0,0,0-.187.1c-.12.009-.165.143-.281.161-.013.022-.031.054-.013.08-.058-.027-.067.058-.121.058-.138.08-.227.219-.379.294-.04.094-.138.125-.192.2-.018.036,0,.058-.04.076-.1-.04-.152.054-.223.085-.062-.013-.049.062-.076.08a.932.932,0,0,0,.3.04,1.55,1.55,0,0,0,.5.076c.085.08.187-.023.281.044.076-.031.138-.031.214-.062.174.009.294-.147.468-.089a.289.289,0,0,0,.245.04c.2.076.433-.08.611.049a.868.868,0,0,1,.058.192.511.511,0,0,0,.2.107c.1.062.219.1.321.165.067,0,.12.067.183.049.04,0,.062.058.1.049.018.031.062.031.062.072.085,0,.094.085.17.107.085-.031.125.049.21.022.08.058.223-.022.29.071-.013.094.116.045.1.138.067-.027.071.089.143.049.031.031.08.027.1.063.076-.076.058.085.129.04.027.031.062.058.071.1.071,0,.049.107.121.134,0-.009-.009-.027.009-.031a.055.055,0,0,1,.049.031l-.04.018.085.009c0,.049.054.071.04.125h.027c.04.076.018.152.08.21l-.031.04a.3.3,0,0,0,.062.107.346.346,0,0,1-.009.165c.022.022-.009.076.031.1-.049.067.063.125,0,.192.031.022.045.058.08.067.152.071.107.237.2.361-.067.022.036.058-.022.085.04.027.013.063,0,.089.1.049.04.174.129.232l-.027.017c.094.076.054.192.1.281l.022-.009a.235.235,0,0,0,.1.192c.022.027-.018.049.022.067.08.045.067.125.147.183-.031.121.085.188.054.308-.076.067.018.174-.045.245.022.063,0,.125.054.161l.018-.013c.058.107.018.174.062.29h.018c.031.067.116.12.04.2.058.107,0,.147-.018.263.049.058-.022.054,0,.121a.143.143,0,0,0-.04.161c-.062.027-.018.116-.089.13a1.087,1.087,0,0,0-.134.223c-.058-.036-.085.058-.129.071-.009.076-.1.076-.129.129-.071-.031-.049.121-.112.058-.027.076-.129.1-.17.174-.089,0-.161.089-.25.111s-.018.1-.071.148c-.062.017-.08.116-.161.089a.051.051,0,0,1-.022.054c-.094,0-.143.062-.21.1-.027.067-.116.072-.152.134-.036.036-.12-.008-.12.049-.049.049-.2.08-.187.2-.022.053-.08.062-.125.089-.049.089-.161.08-.187.161-.009.044-.107.04-.089.1-.054-.009-.036.1-.112.063a.157.157,0,0,0-.1.08c-.08,0-.076.071-.129.111-.165.076-.178.246-.344.312,0,.009,0,.022,0,.027-.009.027-.027,0-.045.009l-.147.134v.027c-.062,0-.071.063-.094.1-.013.022,0,.089-.058.08-.049.072-.129.08-.178.17-.107.009-.161.129-.232.192-.071,0-.018.125-.1.138.022.044-.045.049-.018.085-.015.013-.015.043-.021.061a.035.035,0,0,0-.015.012.037.037,0,0,1-.018-.007.321.321,0,0,0-.052.12.076.076,0,0,1-.029,0,.562.562,0,0,1-.289.373c.075.1-.037.178-.057.269-.168.088-.01.255-.028.382.085.021.091.12.08.167.065.087-.013.19.046.278.114.144.081.331.23.454.1.006.054.144.136.185.059.065.039.25.175.193.039.023.047.056.066.092a.883.883,0,0,1,.2.342c.148.051.182.221.276.33l.18,0a.177.177,0,0,0,.182.036.152.152,0,0,0-.01.012c0,.071.1.058.112.13.08,0,.174.031.25.031-.013.062.058.018.071.067,0,.009.009.022-.009.031l.058.054c-.031.112.1.08.129.147.156.085.3-.076.415-.147.009-.054.08-.022.107-.071.1-.085.2.049.281.071.04.076.138.049.192.116.138-.018.285.072.424.072.12,0,.241.076.37.022a2.946,2.946,0,0,1,.33.08.764.764,0,0,0,.419.138,2.366,2.366,0,0,1,.263.223.519.519,0,0,0,.3.232c.063.013.085.076.107.129.058.174.237.058.361.08.08-.022.1.107.17.072.062.045.161.049.223.116.022,0,.071.013.08-.026.013,0,.027,0,.031.009a1.411,1.411,0,0,1,.491-.232c.17-.009.161-.192.281-.272-.031-.027.027-.027.009-.049.018-.1.17-.134.143-.25a.8.8,0,0,0,.192-.353h.018c-.013-.031.022-.036.031-.031-.018-.072.027-.1.058-.147-.022-.049.067-.058.049-.121l.031.009V103.2c-.067-.058.058-.08.049-.138.138-.062.062-.232.094-.362.143-.125-.009-.388.107-.544-.089-.058,0-.193-.067-.259a.752.752,0,0,0-.013-.433c.04.018.022-.031.04-.049-.058-.134,0-.272-.027-.41,0-.009.013-.018.027-.014-.009-.089.067-.12.094-.192.013-.054-.013-.152.031-.156,0-.08-.049-.143-.022-.241-.058-.058.013-.147-.031-.214.031-.071-.044-.1-.04-.152-.085-.036,0-.138-.049-.2-.027-.009-.009-.058-.049-.031-.009-.009-.022-.018-.013-.031h.045c-.049-.045-.031-.129-.045-.179.049-.035.022-.089.045-.142-.045-.112-.045-.232-.085-.353-.049,0-.009-.054-.04-.067.013-.049-.036-.094.022-.125.094-.009-.031-.058.031-.1-.014-.089.031-.219.027-.3.143,0-.009-.107.04-.17l.022.009c-.013-.089.085-.071.129-.107.125-.085.286-.151.33-.312.058,0,.08-.085.143-.1.027-.138.2-.228.3-.308.076-.067.152-.12.143-.241a1.692,1.692,0,0,1,.232-.089c.125.013.25-.138.37-.04.031.036.111.058.138.107.152.089.085.321.245.4l0,.009c-.009,0-.022,0-.027-.009-.009.031.018.036.031.054-.009.062.071.072.08.121.067-.013.049.071.107.076.089.094.112-.071.192-.076,0-.165.2-.063.281-.125.018-.094.165.153.13.086a.382.382,0,0,1,.027-.17c.036.009.062-.018.089.018,0,0,.009-.009,0-.018l.147-.119c.076-.018.085-.1.134-.138.013-.045.045-.116.089-.121,0-.009,0-.018-.009-.022m-5.8,3.78a1.29,1.29,0,0,1-.1.419c.027.112-.089.12-.1.219-.067-.009-.067.08-.112.094-.009-.018-.022,0-.031.009-.031.013-.009.036-.009.058-.08-.022-.067.1-.138.08-.018.067-.08.067-.134.085-.076-.036-.1.071-.169.035a1.4,1.4,0,0,0-.281.045c-.027-.009-.1-.053-.1.009-.053-.013-.1.045-.143,0-.058.076-.134-.009-.2.018-.009-.014-.009-.031-.022-.04-.031.076-.054-.049-.089.014l-.04-.04-.009.009c-.036,0-.027-.036-.058-.049l-.013.017a.2.2,0,0,1-.107-.111c0-.072.058-.094.018-.17.072-.071-.009-.25.121-.281,0,0,.009.013.018.009.031-.036.013-.081.031-.121l.022.009c.031-.058.031-.138.107-.147-.045-.045.04-.058.013-.111.08,0,.1-.13.178-.13.013-.062.094-.027.1-.089.116.013,0-.138.111-.094.058-.027.018-.143.1-.112a.318.318,0,0,1,.17-.178c.022-.045.036-.138.094-.12.018-.031.018-.13.076-.08.049-.027.031-.08.045-.121.067,0,.08-.071.12-.071a.03.03,0,0,0,.009-.049c.058.031.036-.071.1-.049l.031-.04a.372.372,0,0,0,.29.08l.04.04c.009-.009.018-.018.031-.013-.009.04.04.045.022.08l.027.04c-.031,0-.031.04-.018.053.094.031-.018.116.067.152,0,.04-.022.1.022.121a.6.6,0,0,0,.031.281c-.1.04-.027.2-.12.241" transform="translate(-36.98 -75.039)" fill="#1a1311"/>
        <path id="パス_2091" data-name="パス 2091" d="M138.67,77.673c.037.088.126.041.181.092.045-.162.181.012.27-.055.047.073.169,0,.181.108-.008.01-.022.018-.016.037.03.1.085-.031.126.036l.018-.018c.037.023.118-.022.163.018.136-.1.112.1.2.145-.032.028-.014.073-.018.11.144.035-.063.185.108.181.069.126-.14.325.037.433-.067.047-.022.14-.055.2.128.023.01.114.073.181-.077,0-.059.1-.037.144l.073.091a.252.252,0,0,0-.145.218c.016.03.071.044.053.089l-.018.018c.022.037-.041.085-.018.144-.152.077,0,.191,0,.291-.152.041.051.159-.089.236l.018.016-.055.055.037.037.018-.018c.13.181-.167.149-.092.307-.053.006-.093.051-.144.073,0,.018,0,.045.018.055-.041.053-.132.026-.144.108l.018.018c-.006.049-.059.049-.092.073-.108-.087-.144.157-.27.09-.059,0-.122.067-.181.018-.11.022-.209.177-.327.073-.026.022-.071.016-.108.016a.627.627,0,0,1-.218-.016.036.036,0,0,0-.018-.037c-.122-.033-.118.13-.252.071s-.1-.3-.325-.216c.008-.11-.118-.055-.165-.11-.23-.041-.24-.317-.451-.362a.923.923,0,0,0-.236-.307c-.022-.051-.018-.132-.089-.144.008-.081-.029-.181.053-.236-.081-.144.01-.354-.089-.506.122-.047.071-.2.108-.291a.388.388,0,0,1-.037-.163.035.035,0,0,0,.037-.018.083.083,0,0,1,0-.108l.037-.037c-.055-.049.022-.089.018-.144.081-.041.163-.055.181-.144.067-.033.022-.11.037-.165a.981.981,0,0,0,.362-.307c.1.051.112-.081.2-.108a.358.358,0,0,0,.325-.181c.045,0,.089.041.126,0,.055.063.073-.081.144-.036.051-.14.14,0,.236-.018.085.136.14-.022.236-.037" transform="translate(-118.948 -67.598)" fill="#1a1311"/>
        <path id="パス_2092" data-name="パス 2092" d="M116.806,93.981c.03-.011.052.02.077.029.068.02.164-.05.2-.017h.026c0,.01-.014.026,0,.031.084,0,.094-.016.105.067-.011.016-.013.034.011.031a.112.112,0,0,0,.089-.024c0,.063.13.033.073.123a.1.1,0,0,1,.092,0c.073.023-.016.123.092.112-.027.008-.024.03-.032.042,0,.066.138.068.109.145a.351.351,0,0,1,.047.124l-.036.022c.02.02.007.078.049.092-.084.05.03.072-.039.117a2.308,2.308,0,0,1,.152.213.244.244,0,0,0,0,.177c-.052.031-.087.081-.078.117.019.008.023.028.056.02-.022.055,0,.112-.063.169.053.032-.066.1-.054.148l-.018.011a.113.113,0,0,1-.014.116.082.082,0,0,0-.068.065c.038,0,.026.035.01.061-.176.04-.029.171-.212.185-.009.011,0,.015,0,.02-.034.011-.008.026-.019.043a.12.12,0,0,0-.08.065.058.058,0,0,0-.045.013c-.008.018-.073.049-.094.065a.153.153,0,0,0-.118,0c-.014.012-.04.018-.041.033.009.031-.065.065-.1.1-.028-.03-.1,0-.134-.016a.1.1,0,0,0-.075.023l-.019.043c-.067.02-.168.023-.134-.048a.079.079,0,0,0-.113-.007c-.1.073-.112-.064-.226-.013,0-.037-.031-.062-.091-.029-.02.016-.04.054-.071.045l-.008-.01-.018.011c-.072-.021-.02-.122-.131-.111l-.018-.02c.009-.005.022-.011.024-.021-.078.008-.079-.042-.111-.069l-.035.022a.049.049,0,0,1-.007-.073c-.054-.053-.165-.054-.209-.108-.088.011-.12-.1-.226-.013-.019,0-.038.02-.058.012.025-.018.063-.033.076-.054s-.02-.01-.035-.01l-.018.012c0-.024-.033,0-.052,0a2.853,2.853,0,0,0-.247.175c.034-.1.2-.168.207-.258a1.4,1.4,0,0,0-.238.154l-.054.065a.46.46,0,0,1,.133-.15c.047-.072.16-.135.147-.214-.059-.019-.047-.074-.034-.123s.075-.065.088-.108c-.1-.028.064-.086-.022-.124-.045,0-.049-.022-.055-.051.067-.055.032-.079.032-.127-.065.036-.077-.015-.122-.017.019-.071.186-.176.135-.226l-.043-.02c.143-.059-.019-.1.076-.169.007-.058-.107-.061-.017-.135-.034-.05.128-.09.062-.138.111-.074.116-.17.206-.257a.091.091,0,0,0,.051-.054c.055-.022.008-.026.059-.061.072-.076.2-.121.267-.207.185.02.339-.144.51-.1.068.013.085-.045.123.027.018,0,.039.006.058-.013-.007.087.021.061.086.061.053-.061.062.027.122-.014Z" transform="translate(-99.979 -81.732)" fill="#1a1311"/>
        <path id="パス_2093" data-name="パス 2093" d="M404.172,188.742a1.328,1.328,0,0,0,.584-.044c.066.1-.022.166.121.243.2.165.474-.165.573.132-.143.176.088.331.132.5.429-.044-.011.407.408.407.088.121.066.331.253.374-.2.132-.066.3,0,.452h.077c.011.077-.165.132-.044.209-.3.11-.209.5-.616.408a1.406,1.406,0,0,1-.33.826c-.54-.22-.385.562-.9.286a.564.564,0,0,1-.54.088l-.044-.044c-.044.187-.253.209-.407.242-.011-.077-.11-.132-.165-.2-.044,0-.1-.011-.121.033-.121-.176-.33,0-.452-.077.143-.143-.143-.253-.044-.374-.055-.1-.154-.077-.253-.077l.044-.044a.2.2,0,0,0-.242-.121c-.165-.264.418-.264.033-.452h-.165c.088-.209-.143-.286-.121-.462h-.121c.055-.187.264-.264.121-.5-.176-.066.011-.3-.165-.363.11-.022.165-.132.253-.209-.077-.033-.033-.11-.044-.165l.077-.077c.011-.1.165-.319.165-.5.352-.363.8.066.87-.54.187-.077.231-.319.451-.165.11-.242.33.132.374-.165.1.11.242.22.242.375" transform="translate(-349.705 -163.952)" fill="#ffba00"/>
        <path id="パス_2094" data-name="パス 2094" d="M424.126,76.438c.1-.129.2.128.293-.06a2.381,2.381,0,0,1,.568.835c.085.034.266.064.2.224.016.049.075.043.1.045a4.526,4.526,0,0,1-.2.49c.007.049.065.043.1.045.028.185-.1.283-.067.469l-.067,0c.065.2-.194.345.035.542.261.151-.049.509.248.7-.131.089-.331.2-.312.377-.171-.039-.126.166-.2.239-.088.178.144.5-.1.611.051.109-.008.289.163.338.251-.168.375.186.526.244.271-.013.522-.017.754-.022.182-.3.482.009.69-.075.276-.1.543.283.8.019.228-.1.572.121.728-.072.1.122.245-.063.293-.05.319.144.586-.274.905-.129.1-.062.232.149.329-.019l0,.038a2.077,2.077,0,0,1,1.416.519c-.143.136.109.267.01.474-.162-.038-.095.13-.193.172l0,.067c-.213.016,0,.164-.121.244-.09.062-.207.238-.376.161,0-.038.015-.086-.032-.108-.164.482-.795.223-1.041.623-.315-.221-.461.281-.848.133a2.385,2.385,0,0,1-1.159.182c.049.138.038.166-.056.286-.088-.14-.374-.032-.312-.269l-.067,0c-.086.149.057.341-.143.455-.116-.161-.2.143-.317-.019-.253.033-.407.188-.665.144-.058.161-.267.1-.371.229l.036.041-.368.017c.065.2.065.185-.008.278-.158-.1-.123.128-.153.136-.11.071-.321.039-.332.231a.218.218,0,0,1-.127.349c-.138.04-.1.031-.221.12.159.415-.308.146-.345.452-.2.162-.1.477-.3.629.265.248-.32.357-.1.573-.014.241-.2.615-.049.827l-.038,0c-.005.251-.206.538-.043.721-.062.392.05.93-.044,1.378.122.065-.063.247.087.324.033.1-.074.111-.117.176a3.2,3.2,0,0,1,.1.73c-.232.179.107.469-.081.718a.555.555,0,0,0-.024.395c-.04.354-.012.848-.077,1.3.177.262-.149.551-.009.791a1.264,1.264,0,0,1-.318.823c.068.158-.115.157-.225.208a3.629,3.629,0,0,1-.754-.418,7.727,7.727,0,0,1,.012-.839l-.067,0c.152-.117.038-.316-.051-.438a8.989,8.989,0,0,0-.147-2.392,1.893,1.893,0,0,0,.092-.892l-.072-.082c.184-.336-.108-.769.067-1.115-.018-.021-.026-.05-.065-.042.288-.138-.1-.363.138-.532-.005-.068-.126-.152-.026-.214l-.063-.081.068-.5c-.146-.144.025-.259-.121-.4.087-.159.006-.26.053-.4-.054-.071.007-.27-.123-.364.165-.174-.122-.384-.141-.549-.167-.28-.307.136-.536-.071-.167.048.02.146-.09.216-.339-.136-.292.184-.637-.02-.143.127-.461.117-.351.384-.249-.034-.394.14-.657.173l-.081.063-.027-.03c-.152.445-.673-.04-.686.5-.318,0-.64-.106-.878.16-.174.173-.393-.052-.539-.032-.046-.041.047-.132-.057-.177-.174.009-.054.267-.206.383-.086-.015-.219.267-.37.046-.184.163-.3-.2-.464.011-.1.013-.209-.061-.255.062-.1-.122-.185.028-.29.012,0-.145-.105-.18-.206-.263-.152.126-.21-.2-.352-.088-.121-.075-.249-.353-.46-.211-.033-.089-.151-.057-.135-.153l.081-.073c-.141-.22-.67-.088-.444-.489-.371-.09.037-.452-.369-.457a1.309,1.309,0,0,1,.145-.647c-.245-.1.07-.208-.019-.32a.267.267,0,0,0,.149-.068c-.131-.066-.065-.2-.127-.3.28,0,.032-.22.269-.3-.019-.175.217-.248.243-.352.048.012.117-.022.142.047.052-.229.259-.3.359-.519a.329.329,0,0,0,.172.039c.131-.1.178-.231.333-.086.3-.194.419-.544.823-.53.077-.488.608-.157.83-.491.534.264.409-.873.954-.3.21-.286.585.055.735-.178.48.038.912-.245,1.344-.209.026-.278.367-.016.486-.222.143.028.308.009.3-.166.112-.09.175.146.28.161.135-.166.442-.138.458-.407-.171-.213.312-.387.142-.6-.021-.136.071-.227.125-.321.082-.236-.051-.447.115-.64-.09-.266-.228-.544-.029-.8-.162-.348.121-.726.144-1.111.146-.184.326-.289.244-.526.184-.008.123-.273.206-.383l.2-.316c.274.1-.035-.224.22-.132l.306-.271c.106.006.3-.059.433.026.038-.316.374-.132.475-.039" transform="translate(-360.049 -66.41)" fill="#1a1311"/>
        <path id="パス_2095" data-name="パス 2095" d="M554.5,192.573a.276.276,0,0,0,.091-.077c.046-.015-.006-.117.039-.121a.079.079,0,0,1,.048-.059c.053-.023.063-.114.12-.12,0-.035.021-.031.012-.069.014.016.012-.01.022-.018.029.012.024-.047.05-.028,0-.006,0-.016-.005-.019.023-.047.07-.017.075-.081.036-.006.036-.059.07-.086-.015-.046.045-.025.041-.068.031-.005.019-.058.039-.077,0-.02.026-.028.009-.046.017-.013.02-.055.049-.049,0-.042.009-.064.007-.1l.021.022c.011-.034.046-.054.019-.1.02-.018,0-.058.021-.071,0-.005,0-.012,0-.014l.015-.017c0-.013,0-.029-.006-.039.045-.034-.009-.077-.005-.123.008-.011.024-.013.023-.032h0c0-.008-.016-.01-.012-.023.031-.024,0-.056-.008-.079.022-.023-.013-.043,0-.065-.027.012,0-.021-.021-.027.007-.032-.036-.039-.018-.063a.136.136,0,0,1-.03-.077c-.017.021-.028-.012-.043-.011l-.007-.054c-.031.053-.023-.029-.055-.02.007-.033-.023-.027-.037-.047-.02,0-.041-.025-.062,0a.027.027,0,0,0-.016-.009c-.01.034-.032-.021-.046.015,0,0,.012,0,.028,0-.007.019-.026,0-.031.03-.019,0-.033-.015-.048-.027-.012.006-.029,0-.039.019,0-.009-.014,0-.019-.009s-.011.011-.019.021l-.017-.024-.008.011c0-.009-.011,0-.016,0v.015a.058.058,0,0,1-.049.02c.013.064-.055.018-.06.069-.02,0-.044.026-.056.05-.018,0-.011.035-.022.052-.032.02-.027.059-.047.093,0,.019.006.062-.008.07v.016c.015.021-.01.062.012.088-.021.031-.005.064-.008.1l0-.006c.012,0,.019.016.028.023s-.009.009-.015.012c0,.034.006.055.008.083-.035.063.017.122-.03.187,0,0,0-.006-.008,0v.015c.015.036-.028.041-.035.068a.2.2,0,0,1-.052.144c0,.008,0,.013.008.019,0,.028-.025.027-.036.043,0,.042-.037.052-.039.092" transform="translate(-482.459 -165.986)" fill="#1a1311"/>
        <path id="パス_2096" data-name="パス 2096" d="M543.448,193.732a.1.1,0,0,0,.114.006c.059.031.143.031.181.087.034,0,.025.053.063.024.03.066.129.038.171.076.008.1.135.067.127.172a.074.074,0,0,0,.07.032l.006.1c.057-.038.031.04.081.035-.024.037,0,.069.005.106.054.126-.013.243.072.358-.045.106.02.245-.039.355.054.07-.079.124-.011.2a4.179,4.179,0,0,1-.179.576.879.879,0,0,0-.06.189,1.786,1.786,0,0,0-.131.252c-.072.052-.061.1-.122.147a.352.352,0,0,1-.177.183c-.035-.012,0-.069-.058-.052l-.012.01c.008.011.027.014.021.029-.031.011-.03-.02-.04-.03-.06-.024-.155.035-.206-.04-.215-.032-.31-.223-.385-.378-.084-.089-.047-.211-.175-.251,0-.034-.035-.061-.036-.1.149.062.219.215.406.194.056-.063.186,0,.226-.111,0-.034.011-.09.046-.075,0-.02.041-.036.014-.058-.009.01-.029.014-.024.027a2.116,2.116,0,0,0,.025-.459.045.045,0,0,1-.007-.077c-.105-.055.054-.126-.062-.178.06-.082-.1-.106-.051-.185-.132-.02.051-.118-.068-.127-.047-.01-.027-.115-.1-.075,0-.039-.048-.028-.07-.042l-.056.066c.007-.082-.1-.029-.121-.076-.034.011-.025.055-.057.074.043.026.1,0,.1.075a.946.946,0,0,1-.045.265c-.026.016-.047.044-.026.068-.075.111-.141.232-.227.342.005.057-.054.066-.078.1a1.128,1.128,0,0,1-.18.25c.02.04-.039.042-.057.066-.087-.028-.041.142-.152.136l0,.067a15.51,15.51,0,0,1-.944,1.248c.247-.393.647-.854.906-1.307.017.006.029-.009.043-.018-.044-.059.058-.087.06-.13l0-.031c-.04-.023-.049.033-.077.045l.01.011a2.071,2.071,0,0,0-.181.267,7.666,7.666,0,0,1-.629.87c-.112.21-.32.3-.466.486l-.052.036,0-.049c.213-.23.359-.509.55-.758l-.041,0,.069-.091c0-.018-.01.03.006.039.026-.017.047-.044.026-.068l.011.011c.009-.015.04-.021.033-.047l-.03-.009a.744.744,0,0,1,.124-.186v-.01l.029.022c.019-.033.068-.066.067-.112-.007-.021-.028,0-.042.006h.011l0,.038h-.011c-.006-.031.021-.071.039-.1l.017.04c.016-.027.076-.06.027-.094.065-.068.077-.193.178-.211-.025,0-.042-.036-.02-.05l.031,0a1.84,1.84,0,0,1,.128-.253c.094-.1.119-.237.218-.325,0-.031,0-.062.035-.075a1.142,1.142,0,0,1,.173-.309c.046-.08.07-.158.115-.225-.064-.052-.067.05-.135.023-.055.041-.108.1-.182.085-.064.055-.136,0-.211.037.023-.068-.093-.028-.12-.084a.626.626,0,0,1-.252-.119.187.187,0,0,1-.034-.148c.046-.075.008-.151.073-.217.052-.036.032-.119.111-.1.035-.083.138.021.16-.078.041-.034.111.042.1-.04.046-.031.14-.015.141-.09.045-.008.112.035.127-.042.044.005.041-.036.085-.031.015-.02.066,0,.085-.034l.01.008c.045-.051.172-.037.182-.114.074.061.139-.061.22-.018.012-.015.04-.026.044-.044.039.04.115-.022.155.016a.153.153,0,0,1,.157-.019c.022-.045.064.008.073-.006.008.047.045,0,.075,0" transform="translate(-470.732 -168.607)" fill="#1a1311"/>
        <path id="パス_2097" data-name="パス 2097" d="M544.078,217.476a.2.2,0,0,1,.078-.111Z" transform="translate(-473.557 -189.191)" fill="#1a1311"/>
        <path id="パス_2098" data-name="パス 2098" d="M543.034,218.852a.3.3,0,0,1,.079-.119Z" transform="translate(-472.648 -190.382)" fill="#1a1311"/>
        <path id="パス_2099" data-name="パス 2099" d="M543.991,151.529c.077-.063.057.09.153.038.1.124.283.138.383.249.054.042.01.192.134.192l-.038.115c.025.033.077.01.1.058-.057.033.025.058.019.1l.077.057c-.071.029-.023.1-.038.153l.076.057c-.1.038.015.086.019.134-.08.01-.057.1-.019.134.092.038.035.115.019.172l-.038.038c.038.029-.071.086.019.115-.019.042-.052.081-.038.134.01.01.019.023.038.019l-.076.038a.1.1,0,0,1,0,.115c-.186,0-.106.243-.23.287l-.019-.019c-.057.1-.182.038-.23.153-.048-.015-.109-.111-.153-.019a1.334,1.334,0,0,1-.383-.058c-.163-.124-.282-.293-.46-.345-.029-.14-.148-.105-.211-.211-.014-.067-.071-.121-.077-.191-.081-.029-.023-.121-.1-.153.115-.077-.057-.191,0-.287-.157-.054.025-.226-.134-.287.058-.063.125-.1.1-.172.057-.035-.023-.058-.019-.1.006-.073.092-.111.077-.191.057,0,.019-.058.057-.077-.052-.044.015-.092.019-.134.035-.015.054.019.077.038.076-.092.216-.044.287-.153a.137.137,0,0,0,.115-.057v-.019c.134.071.23-.053.364-.038Z" transform="translate(-472.431 -131.787)" fill="#1a1311"/>
        <path id="パス_2100" data-name="パス 2100" d="M547.23,146.942c-.134.176-.412.176-.517.383-.278.077-.422.55-.786.345-.048-.086-.22-.125-.115-.23-.048-.115.086-.159.1-.249.191-.019.287-.3.46-.364a21.772,21.772,0,0,0,2.184-2.644c.082-.034.073-.172.153-.192.082-.057,0-.115.077-.172.01-.057-.023-.143.057-.153.034-.015.015-.054.019-.076l-.019-.019.057-.077c-.071-.082.14-.121.038-.211,0-.1.163-.144.058-.249l-.1-.1c.035-.019.016-.063.02-.1l-.02-.019c.106-.067-.048-.173.077-.23-.057-.038.029-.067,0-.115.153-.01.169-.226.345-.172.048-.121.169-.015.249-.038.025,0,.063-.015.077.019l.019-.019c.01.023.038.019.058.019l.019-.019c.019.144.2.029.211.173.115-.153.092.134.23.038.025.167.259.058.23.23a.493.493,0,0,1,.153.23c-.061.119.044.268-.019.364l.058.038c-.033.019-.014.061-.019.1.019.023.054.042.038.077s-.067.013-.057.057.015.125-.019.172c-.057.038.029.067,0,.115a1.449,1.449,0,0,1-.364.326c-.057-.063-.115.042-.172-.019-.071.052-.125-.025-.192.038-.029-.077-.076-.006-.115,0,.006.019-.009.029-.019.038-.052-.092-.138.013-.192-.019l-.23.1c-.052.128-.234.138-.326.211-.191.157-.306.3-.479.46v.038c-.029.067-.153.077-.153.172-.119.086-.172.215-.306.268.048.134-.182.144-.172.287a10.46,10.46,0,0,0-.728.824c.029.042.057-.038.1-.038a.64.64,0,0,0,.287-.134" transform="translate(-475.037 -123.809)" fill="#1a1311"/>
        <path id="パス_2101" data-name="パス 2101" d="M532.246,164.168c-.019-.117-.1.022-.171-.009a.1.1,0,0,1-.02-.058c-.026.024-.078-.009-.095.039a1.1,1.1,0,0,1-.362.019c-.041.028-.089-.014-.124,0a.769.769,0,0,0-.325-.086c-.031-.01-.064.033-.086-.01,0-.059.059-.1.1-.143.057.008.093-.052.124-.086.057.012.079-.067.143-.038.026-.064.079.006.115-.028.073.1.109-.067.181-.057.006,0,.012.009.01.019.026-.016.076-.006.1-.009s.043-.006.057.009c.067-.028.1.022.153-.047.053-.012.086.022.134.019.107.014.141-.1.239-.106.045.017.081-.045.134-.038.01,0,.024.009.019.019.055-.019.073-.069.133-.076,0-.014.019-.036,0-.048a.049.049,0,0,1,.048-.019c.131.05.076-.124.181-.115V163.3c.04-.033.029-.112.106-.1-.012-.038.022-.07.009-.1.009-.011.04-.011.028-.038.055-.06.051-.16.076-.239,0-.031-.033-.027-.038-.058a.461.461,0,0,0,.048-.057l-.029-.029c0-.009,0-.024.01-.028-.01-.1-.1-.158-.1-.258-.043-.048.014-.172-.086-.163-.007-.059-.048.012-.067-.038l.009-.009c-.026-.115-.172-.084-.219-.191-.056.045-.1-.05-.144.019-.057-.031-.114.022-.171-.009-.055,0-.038.1-.095.067-.01.05-.07.017-.087.067-.042-.064-.09.017-.143-.019,0,0-.012.01-.009.019-.023.017-.067.05-.086.019-.043.055-.053-.047-.105,0-.031.084-.1,0-.143.039-.119.008,0-.079-.076-.124.055-.134-.045-.217-.115-.3,0-.055-.086-.043-.086-.105a.727.727,0,0,1-.277-.162c-.174-.024-.382-.057-.477.124.007.057-.017.126.019.171-.012.029.008.079,0,.105s.039.028.029.058c-.01.064.061.157,0,.219-.022-.017-.074,0-.067-.048-.051,0-.084.04-.134.038-.025.023-.07-.009-.087.028-.064.05-.124-.038-.171.019-.079-.031-.116.067-.191.02-.01.041-.058,0-.067.038l.009.009c0,.01,0,.015-.009.02-.045-.015-.1.028-.152,0-.017.04-.074.038-.106.038l-.009-.009-.152.1c0,.057-.079.037-.067.1-.039.012-.067.045-.115.038.008.039-.026.058-.038.087-.108,0-.022.134-.115.152.048.033-.009.086,0,.115-.045.038.006.083-.009.133.062-.015.037.057.057.086.067.038.1.14.162.182.014.014.045.038.019.056.026.01.044.038.076.029a.106.106,0,0,0,.039.057.356.356,0,0,1,.095.1c.015,0,.029.022.039,0,.021.008.045.041.067.019.045.026.062.065.115.077.021-.055.054,0,.086-.029l.048.057c.036-.05.083.017.123-.019.04.078.158.047.22.067v-.009c.016-.008.025-.027.047-.02.1.031.06.137.1.2-.045.045-.115.031-.172.048-.033-.057-.09-.05-.143-.057-.074.057-.138-.05-.219,0-.05,0-.106-.007-.153,0-.07-.031-.079.079-.153.067-.011.021-.064.045-.057.076-.086.072-.036.168-.028.258-.009.012-.022.038-.009.048-.031.057.012.107.038.153a.321.321,0,0,1,.106.134c.045-.017.043.026.076.039,0,.056.107.041.115.114.026,0,.042.045.067.02.028.038.093.038.1.076.029.019.057.081.105.076.014.017-.1.059-.114.076,0,.062-.048.114-.028.171l-.1.21c.012,0,.009.02.009.029a.172.172,0,0,1-.048.128.836.836,0,0,1-.2.429.64.64,0,0,1-.053.092c-.048.153-.169.277-.219.43a.727.727,0,0,0-.1.153c-.033.07-.093.138-.124.2-.107.146-.216.294-.325.439a1.256,1.256,0,0,0-.133.172,5.075,5.075,0,0,1-1.032.84c-.224.07-.351.175-.592.115.014.043.064.034.1.057a2.745,2.745,0,0,0,.5-.076c.031-.014.05.028.076,0l.009.009a1.232,1.232,0,0,1,.334-.105,3.833,3.833,0,0,0,.572-.42c.084-.033.132-.148.21-.191.107-.138.244-.274.344-.42a2.184,2.184,0,0,0,.315-.41c.11-.193.28-.344.373-.535.019-.05.078-.083.076-.143a.206.206,0,0,0,.095-.143,2.111,2.111,0,0,0,.132-.189h0l.02-.058c.007-.02.018-.031.025-.052a.233.233,0,0,0,.01-.059.107.107,0,0,1,0-.034c0-.011.015-.018.021-.028s0-.012,0-.016a.121.121,0,0,1,.014-.031c.009-.011.026-.009.035-.019s0-.009,0-.013a.234.234,0,0,0,.015-.026,1.32,1.32,0,0,1,.292-.506c.036-.009.069-.045.095-.057.055.059.121-.026.182-.039.088.006.174-.056.277-.047a.131.131,0,0,1,.1-.029c.057-.056.146-.042.21-.085.031-.017.053-.072.1-.076a1.389,1.389,0,0,1,.505-.41.116.116,0,0,0,.067-.134" transform="translate(-458.814 -140.563)" fill="#1a1311"/>
        <path id="パス_2102" data-name="パス 2102" d="M567.74,190.922c-.064-.03-.115-.09-.182-.114-.272-.2-.555-.4-.811-.62-.073.011-.1-.076-.171-.087-.168-.15-.373-.252-.544-.41-.045-.036-.071-.1-.134-.1a5.326,5.326,0,0,1-.525-.439.958.958,0,0,0-.182-.162c-.059-.115-.212-.182-.267-.306-.019-.04-.083-.078-.086-.134a1.671,1.671,0,0,1-.35-.482.034.034,0,0,1-.013-.02s.007,0,.006-.007,0,0-.014-.011-.013-.005-.019-.009-.007-.017-.015-.027a.122.122,0,0,1-.012-.026c0-.01-.016-.019-.02-.03s.007-.028.009-.041c-.017-.011-.031-.012-.044-.027l-.014-.017-.011-.018c-.069-.057-.1-.175-.171-.23v-.019c-.083-.076-.157-.078-.248-.142-.067,0-.118-.084-.182-.039.028.105.031.232.115.306a1.246,1.246,0,0,1,.123.237.222.222,0,0,0,.016.02c.02.021.029.045.047.068s.036.042.053.065.037.073.059.108l.007.008a5.4,5.4,0,0,0,.62.811v.029l.535.524h.019c.261.258.606.432.9.678.126.026.216.134.334.182.152.107.3.2.448.3.074.034.141.105.21.134a2.7,2.7,0,0,1,.3.191c.047.019.09.081.143.057.007.017.026.008.038.01a2.165,2.165,0,0,0,.487.182c-.164-.11-.283-.273-.448-.383" transform="translate(-490.67 -163.099)" fill="#1a1311"/>
        <path id="パス_2103" data-name="パス 2103" d="M514.437,150.526l-.021-.036a.611.611,0,0,1,.009-.221c-.039-.2-.072-.394-.1-.6a5.842,5.842,0,0,0-.57-1.578c-.078-.125-.152-.26-.236-.37a1.713,1.713,0,0,0-.328-.328c-.155-.057-.283-.2-.462-.179-.021-.042-.075-.012-.09-.057a.511.511,0,0,1-.238-.033c-.036-.027-.087-.024-.116-.054-.027-.006-.048-.036-.075-.018a.175.175,0,0,0-.125-.084c0-.077-.1-.066-.122-.14.009-.083-.1-.06-.1-.14-.036-.012-.06-.069-.1-.054a.1.1,0,0,1-.036-.054.159.159,0,0,0-.158-.08.266.266,0,0,1-.057-.075c-.054.021-.1-.015-.152-.012a.9.9,0,0,0-.435.012c-.164.2-.424.322-.471.585-.006.069-.107.107-.069.188-.075.066.03.164-.051.227a1.832,1.832,0,0,1-.015.289,1.384,1.384,0,0,0,.015.2c-.015.092.039.155.027.248.057.057.024.149.072.209.09.063.018.2.114.266.113.1.1.263.191.376a1.312,1.312,0,0,1,.221.46c.03.059.006.143.045.2-.009.125.081.233.048.37a8,8,0,0,1,.086,1.074l.015.027a6.7,6.7,0,0,1-.012.85,2.336,2.336,0,0,1-.075.62.893.893,0,0,0,.075.779c.152.17.176.406.322.582.024.143.182.206.221.343l.146.06c.06-.024.1.042.155.048.024-.012.039-.051.069-.048.155.077.14-.149.221-.215.048-.012.086.021.125.048s.054-.048.075-.075c.024-.167.039-.3.069-.462.078-.066,0-.17.066-.242-.03-.021.009-.039.009-.06,0-.14.042-.263.045-.4.054-.06,0-.17.069-.221l.045.033c0-.036-.006-.084.027-.1.074,0,.137.069.209.1.107.078.278.033.37.161.015.119.072.224.1.34.113.194.119.441.265.618.03.036.063.1.123.11.042,0,.048-.045.086-.054.081-.1.221-.143.289-.25-.012-.146.066-.283.015-.421a4.4,4.4,0,0,0,.119-.665c.078-.289-.021-.561.054-.847-.027-.122.009-.236-.012-.355-.012-.03.033-.051,0-.075.024-.271,0-.534.018-.817m-.943.812c0,.011-.011.017-.02.025-.045-.028-.059-.084-.087-.126-.034.022.008.05.017.075a.17.17,0,0,1-.02.171c-.039.053-.123.017-.151.073a.282.282,0,0,1,0,.129c-.112.045-.075.193-.089.288.014.064.025.148-.031.187-.078.034-.179.045-.26.084-.173-.05-.067-.277-.1-.408.042-.1-.014-.2.011-.3a2.031,2.031,0,0,1,.014-.484l.056-.053a.3.3,0,0,0,.162-.022c.092-.148.285-.168.347-.341,0-.061.077-.158.1-.216.031-.1-.126-.1-.07-.2-.017-.034-.064-.017-.092-.036-.112-.056-.112-.185-.185-.271-.081-.048-.287.015-.365-.041,0-.039-.048-.067-.064-.106-.014-.1-.036-.2-.042-.31a.925.925,0,0,1-.064-.277c-.045-.028-.017-.075-.025-.112-.031-.056-.017-.134-.07-.182.034-.064-.025-.129.008-.2.031-.115-.059-.215-.019-.333.014-.056-.048-.087-.025-.14-.034-.067.006-.134-.014-.2.022-.039.087-.017.106-.064.081.012.162-.025.229,0,.025-.008.05-.025.076-.011.031.031.078.023.112.045a2.54,2.54,0,0,1,.554,1.062,4,4,0,0,1,.062,1.792c.036.171-.067.324-.067.492" transform="translate(-444.177 -127.417)" fill="#1a1311"/>
        <path id="パス_2104" data-name="パス 2104" d="M521.348,193.67c-.05.26-.094.6-.17.844.007.01.019.022.011.039l-.021.015.014.021c-.1.276-.159.6-.228.87,0,.076-.072.09-.083.152.029.02.005.052.006.076-.061.031-.023.177-.082.246a1.634,1.634,0,0,1-.2.317,1.254,1.254,0,0,0-.093.317c-.018,0-.025-.014-.032-.024-.109.12-.191.3-.314.428a.743.743,0,0,1-.651.274.651.651,0,0,1-.223-.079c-.113.018-.25-.076-.382-.105a.41.41,0,0,1-.105-.224c-.03-.084-.1-.1-.182-.106-.078-.219-.364-.3-.3-.556.043-.007.051.075.076.089a.712.712,0,0,0,.568.287c.032.052.079-.01.124.022a.913.913,0,0,0,.554-.346c.182-.1.16-.34.3-.467a1.791,1.791,0,0,0,.1-.54c.067-.045-.02-.116.047-.161a4.874,4.874,0,0,1,.068-.581c.033-.251-.019-.524.016-.8" transform="translate(-451.122 -168.567)" fill="#1a1311"/>
        <path id="パス_2105" data-name="パス 2105" d="M183.037,84.075h.483v.115h-.483Zm.9-.316V83.65h.874v-.328h-2.184v1.73h.411v-.086h1.486a1.665,1.665,0,0,1-.058.382c-.034.112-.08.146-.152.146a2.122,2.122,0,0,1-.236-.026,1.416,1.416,0,0,1,.244-.083,1.887,1.887,0,0,0-.172-.4l-.322.1a1.917,1.917,0,0,1,.158.428c.012,0,.072-.032.083-.037a1.627,1.627,0,0,1,.112.4c.034,0,.072.009.118.009a.5.5,0,0,0,.46-.21,2.439,2.439,0,0,0,.187-1.032h-1.009v-.135h.672V84.19h-.672v-.115h.672v-.316Zm-.9.747h.483v.135h-.483Zm0-.856h.483v.109h-.483Zm-.089,1.523v0l-.376-.095a1.9,1.9,0,0,1-.29.652,1.783,1.783,0,0,1,.4.152,2.546,2.546,0,0,0,.253-.652,3.418,3.418,0,0,1,.066.523,3.506,3.506,0,0,1,.42-.066,3.215,3.215,0,0,0-.124-.575Zm.443-.037a1.987,1.987,0,0,1,.132.514,1.936,1.936,0,0,1,.382-.083,2.326,2.326,0,0,0-.172-.514Z" transform="translate(-158.655 -72.522)" fill="#1a1311"/>
        <path id="パス_2106" data-name="パス 2106" d="M206.464,84.309a2.54,2.54,0,0,1-.219.988c-.034.078-.089.2-.158.2s-.187-.161-.187-.382a1.018,1.018,0,0,1,.563-.81m.638,1.919a1.468,1.468,0,0,0,.759-.595,1.309,1.309,0,0,0,.2-.71,1.023,1.023,0,0,0-.3-.764,1.177,1.177,0,0,0-.873-.351,1.411,1.411,0,0,0-1.411,1.339.908.908,0,0,0,.641.911c.227,0,.428-.382.511-.557a3.783,3.783,0,0,0,.316-1.279.679.679,0,0,1,.664.7.923.923,0,0,1-.807.9,1.781,1.781,0,0,1,.3.4" transform="translate(-178.845 -72.946)" fill="#1a1311"/>
        <rect id="長方形_646" data-name="長方形 646" width="2.595" height="0.483" transform="translate(29.522 11.828)" fill="#1a1311"/>
        <path id="パス_2107" data-name="パス 2107" d="M250.585,84.168h-.2v-.21h.2Zm.586-.405a1.53,1.53,0,0,0,.434.313,1.682,1.682,0,0,1,.267-.348,1.837,1.837,0,0,1-.359-.2,1.724,1.724,0,0,0,.2-.224c.055,0,.089-.006.089-.034s-.014-.032-.029-.043l-.3-.213a2.094,2.094,0,0,1-.233.3.7.7,0,0,1-.083-.083,2.278,2.278,0,0,0,.184-.224.366.366,0,0,0,.046,0c.017,0,.063,0,.063-.043,0-.023-.014-.032-.029-.04l-.3-.2a1.636,1.636,0,0,1-.172.224c-.052-.066-.095-.121-.167-.23l-.328.132a3.064,3.064,0,0,0,.491.715h-.833a1.928,1.928,0,0,0,.382-.6l-.095-.112h-1.046v.345h.124l-.207.2a2.562,2.562,0,0,1,.253.227,1.227,1.227,0,0,1-.445.241,1.264,1.264,0,0,1,.29.29,2.4,2.4,0,0,0,.48-.333v.132H250v.21h-.555v.376h.5a.8.8,0,0,1-.713.5,2.085,2.085,0,0,1,.236.336,1.07,1.07,0,0,0,.876-.839h.244v.491a.294.294,0,0,0,.066.216.373.373,0,0,0,.267.092h.434c.316,0,.374-.118.486-.471a2.3,2.3,0,0,1-.368-.2,1.011,1.011,0,0,1-.08.253.154.154,0,0,1-.115.049h-.17c-.109,0-.115-.014-.115-.115v-.313h.543v-.376h-.543v-.21h.181Zm-1.276-.557a.394.394,0,0,1-.095.158c-.069-.063-.158-.129-.2-.158Z" transform="translate(-216.793 -72.001)" fill="#1a1311"/>
        <path id="パス_2108" data-name="パス 2108" d="M273.528,84h.236v-.489h.4c.017,0,.06,0,.06.046,0,.026-.014.034-.06.057v.914h-.4v-.17H273.5a.935.935,0,0,1-.339.494c.264,0,.652-.006.911-.026a1.5,1.5,0,0,0,.287-.046,1.318,1.318,0,0,0-.158.425h-1.411a.8.8,0,0,1-.644-.264c-.031.026-.106.078-.273.192-.006.032-.009.072-.055.072a.046.046,0,0,1-.04-.034l-.175-.351c.161-.072.336-.149.336-.233v-.52h-.267v-.385h.69v.894c0,.261.29.27.506.273a.527.527,0,0,0-.262-.178.686.686,0,0,0,.448-.313h-.58v-.865l.417.017c.017,0,.034,0,.034.034s-.011.034-.055.066V84h.253v-.6h-.739v-.353h.405a2.235,2.235,0,0,0-.241-.259l.322-.221a1.951,1.951,0,0,1,.348.371c-.043.037-.066.055-.135.109h.282a1.577,1.577,0,0,0,.227-.477l.422.155a.041.041,0,0,1,.032.04c0,.043-.04.04-.086.037a1.8,1.8,0,0,1-.129.244h.419V83.4h-.724Zm-1.609-1.379a2.661,2.661,0,0,1,.445.428,2.359,2.359,0,0,0-.313.27,3.448,3.448,0,0,0-.425-.405Z" transform="translate(-236.402 -71.866)" fill="#1a1311"/>
        <path id="パス_2109" data-name="パス 2109" d="M294.646,84.288h-.1v-.127h.1Zm.313.3h.414v-1.08h-.414v-.115h.443V83.07h-.443v-.121c.049-.032.055-.034.055-.057s-.017-.032-.029-.032l-.342-.026v.236h-.483v.322h.483v.115h-.434v1.08h.434V84.7h-.483v.348h.483v.411h.316V85.05h.33l.144.394c.006.017.02.043.043.043s.037-.029.046-.092c.362-.109.65-.21.839-.279.034.118.057.2.083.3a1.879,1.879,0,0,1,.408-.149,5,5,0,0,0-.391-1.06l-.374.152c.06.138.115.267.167.42-.135.046-.241.072-.391.109.092-.27.19-.566.247-.819h.647v-.385h-1.342v.385h.259a7.9,7.9,0,0,1-.221.908.327.327,0,0,1-.052.009V84.7h-.443Zm-.014-.8h.106v.126h-.106Zm.106.5h-.106v-.127h.106Zm-.509-.5h.1v.126h-.1Zm.937-.514h1.172v-.359h-1.172Z" transform="translate(-256.032 -72.097)" fill="#1a1311"/>
        <path id="パス_2110" data-name="パス 2110" d="M318.922,84.224h-1.667V83.81h1.667Zm-.169.256h.04a.848.848,0,0,0,.207-.026l.276.2c-.032.06-.172.339-.2.4a2.409,2.409,0,0,1-1.353,1.287,1.712,1.712,0,0,0-.31-.371,1.83,1.83,0,0,0,1.2-1.066H316.89v-.42Z" transform="translate(-275.816 -72.947)" fill="#1a1311"/>
        <path id="パス_2111" data-name="パス 2111" d="M339.215,85.105h-.494V83.8a5.215,5.215,0,0,1-.8.408,1.377,1.377,0,0,0-.345-.411,3.976,3.976,0,0,0,1.106-.529,4.387,4.387,0,0,0,.851-.787l.4.31a.055.055,0,0,1,.026.043c0,.026-.026.04-.055.04a.181.181,0,0,1-.058-.009,5.4,5.4,0,0,1-.635.589Z" transform="translate(-293.824 -71.788)" fill="#1a1311"/>
        <path id="パス_2112" data-name="パス 2112" d="M360.459,82.475a.22.22,0,0,0,.144-.046l.29.2a1.629,1.629,0,0,0-.167.342,2.842,2.842,0,0,1-.764,1.25,3.585,3.585,0,0,1-.736.486,3.68,3.68,0,0,0-.322-.382,2.432,2.432,0,0,0,.885-.572,1.964,1.964,0,0,0,.466-.868H358.6v-.414Zm-.032-.563a1.819,1.819,0,0,1,.276.285c-.095.06-.118.075-.253.172a2.569,2.569,0,0,0-.27-.3Zm.5-.009a1.742,1.742,0,0,1,.253.316c-.081.052-.19.127-.239.161a1.791,1.791,0,0,0-.253-.325Z" transform="translate(-312.122 -71.287)" fill="#1a1311"/>
        <path id="パス_2113" data-name="パス 2113" d="M380.368,82.634a4.463,4.463,0,0,1,.721.339c-.06.069-.233.313-.273.373a2.927,2.927,0,0,0-.7-.359Zm-.287.632a3.072,3.072,0,0,1,.675.394,3.6,3.6,0,0,0-.282.382,2.462,2.462,0,0,0-.649-.391Zm-.095,1.552a4.179,4.179,0,0,0,2.023-1.523,1.427,1.427,0,0,0,.3.388,4.567,4.567,0,0,1-.931.939,4.676,4.676,0,0,1-1.049.589c0,.026-.012.072-.049.072-.02,0-.029-.014-.043-.04Z" transform="translate(-330.594 -71.923)" fill="#1a1311"/>
        <path id="パス_2114" data-name="パス 2114" d="M401.69,90.088v-.371h1.284v-.29h-1.21v-.379h1.21v-.273h-1.247V88.4h1.65v1.776h-.4v-.086Z" transform="translate(-349.625 -76.94)" fill="#1a1311"/>
        <rect id="長方形_647" data-name="長方形 647" width="2.497" height="0.486" transform="translate(54.267 11.823)" fill="#1a1311"/>
        <path id="パス_2115" data-name="パス 2115" d="M324.2,116.618c-.039-.007-.082-.052-.053-.078a1.252,1.252,0,0,0,.242-.375c.027.031.056.055.1.037a.624.624,0,0,1,.016.236.257.257,0,0,1-.307.18" transform="translate(-282.122 -101.109)" fill="#89ba40"/>
        <path id="パス_2116" data-name="パス 2116" d="M330.319,115.708c-.081-.014-.215.061-.22-.025-.007-.13.214-.111.29-.227.045.056.182.054.115.179-.023.041-.048.086-.085.1s-.063-.021-.1-.027" transform="translate(-287.313 -100.491)" fill="#89ba40"/>
      </g>
    </g>
  </g>
</svg>
