<svg xmlns="http://www.w3.org/2000/svg" xmlns:xlink="http://www.w3.org/1999/xlink" width="55.893" height="120" viewBox="0 0 55.893 120"><defs><style>.a,.c{fill:none;}.b{clip-path:url(#a);}.c{stroke:#000;stroke-miterlimit:10;}</style><clipPath id="a"><rect class="a" width="55.893" height="120"/></clipPath></defs><g transform="translate(0 0)"><g class="b" transform="translate(0 0)"><path d="M13.173,12.029c2.1-.61,3.042-1.9,3.042-3.65,0-2.153-1.1-3.463-2.785-3.463-1.8,0-2.621.865-3.3,3.58l-.21.748c-1.052,4.118-2.527,5.148-5.006,5.148C1.989,14.393,0,12.286,0,8.449,0,5.267,1.475,3.067,4.33,2.225l.7,2.011A4.11,4.11,0,0,0,1.662,8.4c0,2.69,1.263,3.907,3.017,3.907,1.779,0,2.646-.678,3.488-3.86l.21-.68c1.006-3.744,2.409-4.89,4.96-4.89,2.387,0,4.539,1.872,4.539,5.452a5.538,5.538,0,0,1-4.094,5.733Z" transform="translate(0 1.027)"/><path d="M12.4,27.1c2.527-.585,3.79-2.036,3.79-4.188,0-2.925-2.5-5.078-7.253-5.078-4.726,0-7.253,2.177-7.253,5.078,0,2.292,1.147,3.767,3.86,4.375L4.89,29.23C1.473,28.246,0,26.048,0,22.889c0-4.141,3.252-7.208,8.914-7.208,5.686,0,8.962,3.09,8.962,7.208a6.053,6.053,0,0,1-4.938,6.223Z" transform="translate(0 7.24)"/><path d="M17.468,36.3c0,4.072-1.662,5.92-4.515,5.92A4.275,4.275,0,0,1,8.6,38.569L.224,42.686V40.44l8.05-3.79V32.485H.224V30.5H17.468Zm-7.6-3.814v3.556c0,2.878,1.123,4.094,3.065,4.094,1.871,0,2.9-1.076,2.9-3.954v-3.7Z" transform="translate(0.103 14.081)"/><path d="M8.962,57.97C3.3,57.97,0,54.975,0,50.858c0-4.141,3.252-7.114,8.915-7.114,5.686,0,8.96,3.018,8.96,7.114,0,4.141-3.229,7.111-8.914,7.111M8.939,45.9c-4.751,0-7.253,2.036-7.253,4.961,0,2.947,2.5,4.96,7.253,4.96,4.773,0,7.253-2.013,7.253-4.96,0-2.925-2.481-4.961-7.253-4.961" transform="translate(0 20.198)"/><path d="M1.956,61.38V69.92H.224V59.344H17.468V61.38Z" transform="translate(0.103 27.401)"/><path d="M1.956,74.116v8.539H.224V72.08H17.468v2.036Z" transform="translate(0.103 33.282)"/><path class="c" d="M17.44,0V118.288l29.894-28.63" transform="translate(8.053 -0.001)"/></g></g></svg>