<svg xmlns="http://www.w3.org/2000/svg" width="441.614" height="127.893" viewBox="0 0 441.614 127.893"><g transform="translate(-526.762 -47.358)"><path d="M286.083.405V5.83h3.336V8.158h-3.336v8.473H276.89V8.158h-4.249V19.991h16.25v2.424H270.1V8.158h-3.335V5.83H270.1V.622h2.544V5.83h4.249V.405h2.52V5.83h4.152V.405ZM279.41,14.327h4.152V8.159H279.41Z" transform="translate(260 47)"/><path d="M291.376,20.783c3.12-.7,5.593-2.376,5.232-6.912a17.8,17.8,0,0,1-5.424,2.856l-1.129-2.352A13.872,13.872,0,0,0,296.7,10.8h-4.681V1.174h18.865V10.8H306.4a14.561,14.561,0,0,0,6.673,3.552l-1.1,2.352a17.84,17.84,0,0,1-5.449-2.736v9.024h-2.568V13.3H305.7a17.412,17.412,0,0,1-2.376-2.5h-3.744a10.127,10.127,0,0,1-2.3,2.52l1.849.1c-.1,4.416-.84,7.536-6.073,9.576Zm3.1-15.769h5.784v-1.8h-5.784Zm0,3.816h5.784V6.91h-5.784Zm8.089-3.816h5.952v-1.8h-5.952Zm0,3.816h5.952V6.91h-5.952Z" transform="translate(260 47)"/><path d="M334.114,5.3c-.912-.048-1.655-.1-2.3-.1a7.578,7.578,0,0,0-2.544.288c-3.408,1.056-7.873,4.752-7.873,8.665,0,3,2.376,3.792,4.7,4.224a29.749,29.749,0,0,0,5.953.36l-.48,2.88c-4.849-.144-12.961-.408-12.961-7.3,0-4.609,4.32-7.657,6.433-8.953-2.544.168-8.689.6-10.921.864l-.193-2.9c1.752-.023,8.329-.407,9.7-.48,3.671-.167,6.288-.215,10.44-.288Zm-4.92,2.712a22.353,22.353,0,0,1,2.664,4.536l-1.824,1.1a19.8,19.8,0,0,0-2.544-4.608Zm3.456-1.536a21.168,21.168,0,0,1,2.688,4.512l-1.824,1.08a20.2,20.2,0,0,0-2.568-4.584Z" transform="translate(260 47)"/><path d="M350.338.622a15.339,15.339,0,0,1-1.368,3.816h3.24A21.737,21.737,0,0,0,353.578.67l2.593.312a36.234,36.234,0,0,1-1.345,3.456h4.009V6.5h-4.273V9.646h3.792v1.968h-3.792v3.121h3.792V16.7h-3.792v3.528h4.657v2.233H346.233V8.782a9.756,9.756,0,0,1-1.223,1.2l-.792-1.345V20.087H337.4V1.989h6.817V7.246A13.273,13.273,0,0,0,347.746.358Zm-8.353,3.6h-2.353V17.807h2.353ZM352.354,6.5h-3.792V9.646h3.792Zm0,5.112h-3.792v3.12h3.792Zm0,5.089h-3.792v3.528h3.792Z" transform="translate(260 47)"/><rect width="22.442" height="2.568" transform="translate(620.707 57.126)"/><path d="M396,19.056c2.545-.241,7.9-1.1,7.9-7.537,0-2.665-1.1-6.625-6.48-6.889-.744,10.681-3.937,15.121-7.249,15.121-2.784,0-4.561-3.192-4.561-6.888,0-6.745,4.992-10.777,11.161-10.777,7.465,0,9.961,4.993,9.961,9.5,0,9.073-8.136,9.888-9.841,10.056Zm-7.8-6.121c0,1.392.5,3.936,2.063,3.936.913,0,1.584-.816,2.161-1.872,1.632-2.976,2.088-6.648,2.377-10.249a7.887,7.887,0,0,0-6.6,8.185" transform="translate(260 47)"/><path d="M412.2,15.839a18.677,18.677,0,0,1-2.111,7.249l-2.064-1.825a14.519,14.519,0,0,0,1.776-5.808ZM429.431,3.478h-8.4v1.7h7.417v1.9h-7.417v1.7h7.417v1.849h-7.417v1.7h9.026c-.073,3.864-.456,7.992-1.177,9.384a2.247,2.247,0,0,1-2.136,1.272h-3.7l-.624-2.64,3.48.12a.879.879,0,0,0,.913-.72,29.862,29.862,0,0,0,.647-5.3H409.917V1.294h19.514Zm-17.138,1.7h6.456v-1.7h-6.456Zm0,3.6h6.456v-1.7h-6.456Zm0,3.553h6.456v-1.7h-6.456Zm3.432,3.912a22.959,22.959,0,0,1,.673,5.688l-2.569.193a23.688,23.688,0,0,0-.456-5.881Zm4.081-.336a21.263,21.263,0,0,1,1.416,4.848l-2.473.528a23.227,23.227,0,0,0-1.224-5.136Zm4.488-.384a16.639,16.639,0,0,1,1.368,3.288l-2.328.648a19.991,19.991,0,0,0-1.393-3.6Z" transform="translate(260 47)"/><path d="M452.645,23.015a27.663,27.663,0,0,1-9.721-4.416,25.517,25.517,0,0,1-9.936,4.416l-1.2-2.544a22.236,22.236,0,0,0,9.073-3.6,22.547,22.547,0,0,1-5.977-10.633h-3.24V3.766h9.889V.358h2.616V3.766h9.961V6.238H450.7A23.418,23.418,0,0,1,444.893,16.9a23.63,23.63,0,0,0,9.1,3.5ZM437.524,6.238a20.074,20.074,0,0,0,5.328,9.049,19.378,19.378,0,0,0,5.137-9.049Z" transform="translate(260 47)"/><path d="M457.438,10.63a19.462,19.462,0,0,1-1.992,2.328l-1.319-2.808A20.438,20.438,0,0,0,459.478.5l2.569.312a28.767,28.767,0,0,1-2.064,5.521V22.967h-2.545ZM467.447.453V8.9a35.461,35.461,0,0,0,7.633-4.321l1.728,2.257a45.427,45.427,0,0,1-9.361,4.68v7.633c0,.648,0,.888.937.888h5.136c.648,0,.792-.216.888-.48a32.022,32.022,0,0,0,.216-3.745l2.52.673c-.024,1.032-.144,4.1-.648,4.9a2.3,2.3,0,0,1-2.328,1.152H467.3c-.7,0-2.423,0-2.423-2.208V.453Z" transform="translate(260 47)"/><path d="M282.1,38.288c-1.081,5.256-2.953,14.761-2.953,31.538,0,15.482,1.513,23.33,2.3,27l-9.577,1.152c-.648-3.529-2.088-11.953-2.088-28.083a180.807,180.807,0,0,1,2.592-32.33Zm24.122.072h8.857l.432,11.665h13.249v8.928h-12.6l.359,15.914a52.5,52.5,0,0,1,13.9,9.865l-5.977,8.424a38.367,38.367,0,0,0-8.5-7.776v1.584c0,10.369-10.369,11.017-14.473,11.017-11.378,0-16.13-6.7-16.13-13.249,0-7.489,6.193-13.25,16.13-13.25a23.859,23.859,0,0,1,5.616.649l-.36-13.178H286.783V50.025h19.73Zm1.008,42.267a13.207,13.207,0,0,0-5.76-1.224c-3.6,0-7.849,1.368-7.849,5.473,0,3.744,3.6,5.184,7.2,5.184,6.409,0,6.409-4.176,6.409-5.832Zm12.673-49.108a63.828,63.828,0,0,1,5.4,14.4l-5.617,2.016a56.793,56.793,0,0,0-4.968-14.4Zm10.657-.288A62.319,62.319,0,0,1,335.892,45.7l-5.545,2.088a59.734,59.734,0,0,0-4.969-14.545Z" transform="translate(260 47)"/><path d="M371.9,38.576c-3.385,7.7-8.425,21.314-10.009,25.85,2.737-2.016,4.9-3.1,8.5-3.1,11.594,0,11.594,10.873,11.594,16.345v4.753c0,3.816,1.224,6.12,4.752,6.12,2.232,0,5.545-.648,7.705-7.92a50.392,50.392,0,0,0,2.088-14.69l9.289,2.593c-.576,10.152-2.3,29.522-19.946,29.522-11.377,0-13.322-8.137-13.322-15.337V79.908c0-5.9,0-9.5-4.536-9.5-5.328,0-9.432,5.328-11.161,10.513a142.55,142.55,0,0,0-4.679,17.209l-9.938-3.168c4.608-15.265,9.289-30.6,14.617-45.652.721-2.016,3.6-10.081,4.393-13.393Z" transform="translate(260 47)"/><path d="M463.726,51.969V59.6c-7.057,5.4-7.849,6.048-14.617,11.593a11.278,11.278,0,0,1,3.24-.576c6.481,0,6.481,5.76,6.481,9.361v2.592c0,5.04.36,6.192,9.936,6.192,3.169,0,6.481-.36,8.641-.576l.288,9.433c-2.664.144-5.472.288-10.368.288-8.066,0-17.354,0-17.354-10.873V83c0-2.592,0-5.04-3.312-5.04a12.606,12.606,0,0,0-7.777,3.6c-3.961,3.528-11.017,11.305-15.769,16.489l-6.41-7.416c1.081-1.009,11.162-10.369,13.97-12.962,12.745-11.808,15.049-13.753,19.01-17.065l-28.083.576V52.113Zm.792-3.456c-8.568-2.3-17.642-4.176-34.131-4.464l.936-8.137A158.955,158.955,0,0,1,465.886,39.8Z" transform="translate(260 47)"/><path d="M501.235,40.664A142.13,142.13,0,0,0,499.363,62.7c0,7.488.36,22.754,6.913,22.754,4.105,0,7.633-7.921,9.864-14.4l7.777,4.609C520.1,86.532,514.341,96.4,505.772,96.4c-13.393,0-15.914-19.73-15.914-35.067,0-7.705.721-15.626,1.3-21.6Zm38.884,48.964c.36-9.217.936-31.611-12.53-42.7l7.633-5.256c10.729,9.937,15.338,19.658,15.338,47.452Z" transform="translate(260 47)"/><path d="M565.386,62.193H593.18V80.411h-5.185v7.273a45.943,45.943,0,0,0,6.986-3.817l1.08,7.633a104.369,104.369,0,0,1-15.77,7.993V80.411h-3.744c-.793,11.953-4.392,16.921-9.793,21.314l-5.112-7.2a16.857,16.857,0,0,0,7.488-14.113h-3.744Zm9.505-28.442h8.5v4.608H593.9V45.7h-2.665a43.065,43.065,0,0,1-1.44,5.472h4.752v7.417h-31.61V51.176h5.4A51.2,51.2,0,0,0,567.4,45.7h-2.664V38.359h10.153Zm-1.584,40.611h11.881V68.1H573.307ZM574.746,45.7c.145.864,1.153,4.68,1.3,5.472h6.337c.361-1.368.937-4.608,1.08-5.472Zm46.445,34.707V91.284c0,1.224.072,1.8.864,1.8,1.439,0,1.656,0,1.872-.72.144-.432.359-5.328.359-6.553l7.129,1.657c-.36,10.153-1.3,13.753-5.616,13.753h-7.417c-2.088,0-4.824-.864-4.824-4.609v-16.2h-3.672c-.793,13.033-6.049,17.5-13.1,21.242l-4.681-7.2c6.625-2.736,9.793-5.832,10.369-14.041h-4.248V62.193h29.738V80.411Zm-11.953-46.66h8.5v4.608h11.016V45.7H626.16c-.577,2.448-.865,3.6-1.441,5.472h5.761v7.417H596.636V51.176h5.4c-.144-1.008-.648-3.888-1.008-5.472H597.5V38.359h11.738Zm-2.88,40.611h13.465V68.1H606.358ZM608.806,45.7c.72,3.744.792,4.1,1.008,5.472H616.8c.5-2.016.864-4.176,1.08-5.472Z" transform="translate(260 47)"/><path d="M654.876,80.195c-.432,4.968-1.512,15.193-5.833,21.6l-7.417-6.265c3.889-6.408,4.681-13.825,4.969-16.777ZM706.72,43.9H682.31v4.32h21.17V54.2H682.31v4.392h21.17v6.121H682.31v4.464h26.066c0,3.168-.647,18.506-2.807,25.778-.865,2.881-3.241,6.409-7.274,6.409H686.414l-1.8-8.785,10.224.288a2.357,2.357,0,0,0,2.3-1.584c1.368-3.1,1.8-13.609,1.8-14.9H647.171V36.2H706.72Zm-50.692,4.32h17.857V43.9H656.028Zm0,10.369h17.857V54.2H656.028Zm0,10.585h17.857V64.714H656.028ZM665.6,81.131c1.8,7.129,1.656,16.058,1.656,17.57l-8.5.5c.145-1.728.288-3.529.288-6.193a66.748,66.748,0,0,0-1.008-11.881Zm12.025-.864a77.454,77.454,0,0,1,3.744,15.049L673.381,96.9c-1.08-9.793-2.3-13.394-3.168-15.986Zm13.177-1.224a56.1,56.1,0,0,1,3.6,9.577l-7.561,1.8a45.154,45.154,0,0,0-3.673-10.3Z" transform="translate(260 47)"/><path d="M277.778,111.777h-3.727v11.992h-2.088V111.777h-3.709v-1.783h9.524Z" transform="translate(260 47)"/><path d="M287.408,123.768h-2.089v-5.8c0-1.422-.485-2.61-1.89-2.61a2.206,2.206,0,0,0-2.125,2.34v6.068h-2.088v-14.44H281.3V115.2h.037a3.379,3.379,0,0,1,2.844-1.566c1.494,0,3.223,1.008,3.223,4.141Z" transform="translate(260 47)"/><path d="M297.29,123.372a7.765,7.765,0,0,1-3.152.594c-2.988,0-4.717-2-4.717-5.024,0-2.953,1.657-5.311,4.465-5.311,2.791,0,3.907,2.322,3.907,4.771a6.267,6.267,0,0,1-.053.882h-6.3a2.818,2.818,0,0,0,3.007,3.079,6.2,6.2,0,0,0,2.5-.468Zm-1.477-5.582c.019-1.188-.468-2.665-2.07-2.665-1.531,0-2.179,1.513-2.287,2.665Z" transform="translate(260 47)"/><path d="M312.392,118.727c0,3.709-2.413,5.24-4.645,5.24-2.574,0-4.537-1.891-4.537-5.1,0-3.349,2.052-5.239,4.681-5.239,2.719,0,4.5,2.052,4.5,5.095m-4.573-3.529c-1.782,0-2.467,1.909-2.467,3.619,0,1.945.918,3.583,2.448,3.583,1.513,0,2.45-1.638,2.45-3.619,0-1.638-.685-3.583-2.431-3.583" transform="translate(260 47)"/><path d="M322.652,123.768h-2.089v-5.816c0-1.4-.468-2.592-1.89-2.592a2.235,2.235,0,0,0-2.125,2.43v5.978H314.46v-7.13c0-1.1-.037-1.945-.073-2.791h1.82l.107,1.476h.055a3.4,3.4,0,0,1,3.007-1.692c1.547,0,3.276,1.008,3.276,4.069Z" transform="translate(260 47)"/><rect width="2.088" height="14.44" transform="translate(585.278 156.328)"/><path d="M337.88,113.847l-2.4,6.878c-1.169,3.259-2,5.1-3.186,6.248a5.259,5.259,0,0,1-2.305,1.278l-.54-1.764a4.7,4.7,0,0,0,2.935-3.061.979.979,0,0,0-.109-.432l-3.4-9.147h2.286l1.8,5.582c.2.648.4,1.4.54,1.98h.054c.144-.576.342-1.314.522-1.98l1.6-5.582Z" transform="translate(260 47)"/><path d="M351.578,123.768h-2.089v-5.8c0-1.422-.485-2.61-1.89-2.61a2.206,2.206,0,0,0-2.125,2.34v6.068h-2.088v-14.44h2.088V115.2h.037a3.379,3.379,0,0,1,2.844-1.566c1.494,0,3.223,1.008,3.223,4.141Z" transform="translate(260 47)"/><path d="M362.755,118.727c0,3.709-2.412,5.24-4.644,5.24-2.575,0-4.538-1.891-4.538-5.1,0-3.349,2.052-5.239,4.681-5.239,2.719,0,4.5,2.052,4.5,5.095m-4.573-3.529c-1.782,0-2.467,1.909-2.467,3.619,0,1.945.919,3.583,2.449,3.583,1.513,0,2.449-1.638,2.449-3.619,0-1.638-.684-3.583-2.431-3.583" transform="translate(260 47)"/><path d="M369.811,115.684a3.1,3.1,0,0,0-.612-.054c-1.4,0-2.287,1.152-2.287,2.881v5.257h-2.088v-6.9c0-1.152-.019-2.106-.073-3.024h1.819l.072,1.818h.072a2.852,2.852,0,0,1,2.575-2.034,2.451,2.451,0,0,1,.522.053Z" transform="translate(260 47)"/><path d="M376.363,115.72a3.622,3.622,0,0,0-1.891-.558c-.936,0-1.44.54-1.44,1.206,0,.684.45,1.026,1.656,1.549,1.639.666,2.5,1.566,2.5,3.006,0,1.909-1.458,3.043-3.709,3.043a5.5,5.5,0,0,1-2.7-.666l.469-1.548a4.822,4.822,0,0,0,2.268.666c1.116,0,1.657-.54,1.657-1.3s-.415-1.171-1.6-1.675c-1.765-.7-2.538-1.692-2.538-2.845,0-1.656,1.35-2.971,3.438-2.971a4.922,4.922,0,0,1,2.359.577Z" transform="translate(260 47)"/><path d="M386.48,123.372a7.76,7.76,0,0,1-3.151.594c-2.989,0-4.718-2-4.718-5.024,0-2.953,1.658-5.311,4.466-5.311,2.791,0,3.907,2.322,3.907,4.771a6.253,6.253,0,0,1-.054.882h-6.3a2.819,2.819,0,0,0,3.007,3.079,6.2,6.2,0,0,0,2.5-.468ZM385,117.79c.018-1.188-.469-2.665-2.071-2.665-1.531,0-2.179,1.513-2.286,2.665Z" transform="translate(260 47)"/><path d="M399.709,123.462a6.427,6.427,0,0,1-2.557.5c-2.862,0-4.735-1.962-4.735-5.059a4.943,4.943,0,0,1,5.132-5.276,5.331,5.331,0,0,1,2.215.45l-.414,1.6a3.891,3.891,0,0,0-1.784-.4c-1.944,0-3.024,1.584-3.024,3.529,0,2.178,1.278,3.475,3.007,3.475a4.534,4.534,0,0,0,1.872-.4Z" transform="translate(260 47)"/><path d="M409.645,120.923c0,1.116.054,2.053.09,2.845H407.9l-.108-1.441h-.054a3.454,3.454,0,0,1-2.989,1.639c-1.71,0-3.206-1.062-3.206-4.231v-5.906h2.089v5.564c0,1.71.487,2.844,1.855,2.844a2.124,2.124,0,0,0,2.07-2.25v-6.14h2.089Z" transform="translate(260 47)"/><rect width="2.088" height="14.44" transform="translate(672.325 156.328)"/><path d="M417.491,112.047l2.07-.648v2.449h2.359v1.566h-2.359v5.023c0,1.225.378,1.819,1.261,1.819a3.038,3.038,0,0,0,.918-.126l.072,1.6a4.61,4.61,0,0,1-1.621.234,2.574,2.574,0,0,1-1.962-.756,3.739,3.739,0,0,1-.738-2.664v-5.132h-1.4v-1.566h1.4Z" transform="translate(260 47)"/><path d="M431.785,120.923c0,1.116.054,2.053.09,2.845h-1.837l-.107-1.441h-.055a3.453,3.453,0,0,1-2.988,1.639c-1.711,0-3.206-1.062-3.206-4.231v-5.906h2.089v5.564c0,1.71.486,2.844,1.855,2.844a2.124,2.124,0,0,0,2.07-2.25v-6.14h2.089Z" transform="translate(260 47)"/><path d="M439.451,115.684a3.1,3.1,0,0,0-.612-.054c-1.4,0-2.286,1.152-2.286,2.881v5.257h-2.089v-6.9c0-1.152-.018-2.106-.073-3.024h1.82l.071,1.818h.072a2.852,2.852,0,0,1,2.576-2.034,2.442,2.442,0,0,1,.521.053Z" transform="translate(260 47)"/><path d="M448.326,123.372a7.765,7.765,0,0,1-3.152.594c-2.988,0-4.717-2-4.717-5.024,0-2.953,1.657-5.311,4.465-5.311,2.791,0,3.907,2.322,3.907,4.771a6.267,6.267,0,0,1-.053.882h-6.3a2.818,2.818,0,0,0,3.007,3.079,6.2,6.2,0,0,0,2.5-.468Zm-1.477-5.582c.019-1.188-.468-2.665-2.07-2.665-1.531,0-2.179,1.513-2.287,2.665Z" transform="translate(260 47)"/><path d="M455.921,112.317a1.216,1.216,0,1,1,1.223-1.207,1.173,1.173,0,0,1-1.223,1.207m1.044,11.451h-2.089v-9.939h2.089Z" transform="translate(260 47)"/><path d="M467.839,123.768H465.75v-5.816c0-1.4-.468-2.592-1.89-2.592a2.234,2.234,0,0,0-2.125,2.43v5.978h-2.088v-7.13c0-1.1-.037-1.945-.073-2.791h1.819l.108,1.476h.054a3.4,3.4,0,0,1,3.007-1.692c1.548,0,3.277,1.008,3.277,4.069Z" transform="translate(260 47)"/><path d="M474.91,112.047l2.071-.648v2.449h2.359v1.566h-2.359v5.023c0,1.225.378,1.819,1.26,1.819a3.038,3.038,0,0,0,.918-.126l.072,1.6a4.6,4.6,0,0,1-1.62.234,2.578,2.578,0,0,1-1.963-.756,3.744,3.744,0,0,1-.738-2.664v-5.132h-1.4v-1.566h1.4Z" transform="translate(260 47)"/><path d="M489.33,123.768h-2.089v-5.8c0-1.422-.485-2.61-1.89-2.61a2.206,2.206,0,0,0-2.125,2.34v6.068h-2.088v-14.44h2.088V115.2h.037a3.379,3.379,0,0,1,2.844-1.566c1.494,0,3.223,1.008,3.223,4.141Z" transform="translate(260 47)"/><path d="M499.212,123.372a7.765,7.765,0,0,1-3.152.594c-2.988,0-4.717-2-4.717-5.024,0-2.953,1.657-5.311,4.465-5.311,2.791,0,3.907,2.322,3.907,4.771a6.267,6.267,0,0,1-.053.882h-6.3a2.818,2.818,0,0,0,3.007,3.079,6.2,6.2,0,0,0,2.5-.468Zm-1.477-5.582c.019-1.188-.468-2.665-2.07-2.665-1.531,0-2.179,1.513-2.287,2.665Z" transform="translate(260 47)"/><path d="M518.563,113.847l-3.007,9.921h-1.89l-1.279-4.393a30.671,30.671,0,0,1-.738-3.169H511.6a23.669,23.669,0,0,1-.774,3.187l-1.351,4.375h-1.89l-2.845-9.921H506.9l1.1,4.753c.234,1.063.468,2.125.648,3.169h.036c.2-1.026.5-2.124.792-3.151l1.369-4.771h1.71l1.3,4.663c.306,1.153.576,2.215.774,3.259h.054c.162-1.026.4-2.088.666-3.241l1.153-4.681Z" transform="translate(260 47)"/><path d="M528.713,118.727c0,3.709-2.412,5.24-4.644,5.24-2.575,0-4.538-1.891-4.538-5.1,0-3.349,2.052-5.239,4.681-5.239,2.719,0,4.5,2.052,4.5,5.095M524.14,115.2c-1.782,0-2.467,1.909-2.467,3.619,0,1.945.919,3.583,2.449,3.583,1.513,0,2.449-1.638,2.449-3.619,0-1.638-.684-3.583-2.431-3.583" transform="translate(260 47)"/><path d="M535.769,115.684a3.1,3.1,0,0,0-.612-.054c-1.4,0-2.287,1.152-2.287,2.881v5.257h-2.088v-6.9c0-1.152-.019-2.106-.073-3.024h1.819l.072,1.818h.072a2.852,2.852,0,0,1,2.575-2.034,2.451,2.451,0,0,1,.522.053Z" transform="translate(260 47)"/><rect width="2.089" height="14.44" transform="translate(797.387 156.328)"/><path d="M550.422,121.121c0,.9.036,1.963.072,2.647h-1.836l-.108-1.549H548.5a3.3,3.3,0,0,1-3.007,1.747c-2.251,0-3.962-2-3.962-5.06,0-3.367,1.927-5.275,4.142-5.275a2.913,2.913,0,0,1,2.629,1.332h.036v-5.636h2.088Zm-2.088-3.259a2.316,2.316,0,0,0-2.2-2.575c-1.6,0-2.485,1.585-2.485,3.547,0,1.945.865,3.439,2.449,3.439a2.367,2.367,0,0,0,2.233-2.574Z" transform="translate(260 47)"/><path d="M563.093,116.386a3.465,3.465,0,0,1,2.755,3.439,3.609,3.609,0,0,1-1.189,2.773c-.918.882-2.43,1.3-4.7,1.3a22.287,22.287,0,0,1-2.736-.162V110.174a17.18,17.18,0,0,1,3.222-.288c4.2,0,4.916,2.053,4.916,3.439a3.224,3.224,0,0,1-2.269,3.007Zm-2.521-.648c1.657,0,2.7-.918,2.7-2.2,0-1.656-1.333-2.07-2.628-2.07a6.563,6.563,0,0,0-1.351.108v4.159Zm-1.278,6.482a7.78,7.78,0,0,0,1.261.072c1.674,0,3.114-.7,3.114-2.521s-1.566-2.484-3.169-2.484h-1.206Z" transform="translate(260 47)"/><path d="M574.9,121.41a13.481,13.481,0,0,0,.145,2.359h-1.891l-.144-1.153h-.054a3.36,3.36,0,0,1-2.773,1.351,2.8,2.8,0,0,1-2.917-2.9c0-2.467,2.143-3.691,5.545-3.691,0-.739,0-2.215-2-2.215a4.571,4.571,0,0,0-2.413.684l-.431-1.386a6.19,6.19,0,0,1,3.205-.828c2.917,0,3.726,1.926,3.726,4.033Zm-2.034-2.629c-1.639,0-3.529.306-3.529,2.071a1.415,1.415,0,0,0,1.459,1.584,2.025,2.025,0,0,0,2.07-2.016Z" transform="translate(260 47)"/><path d="M585.719,123.768h-2.088v-5.816c0-1.4-.469-2.592-1.891-2.592a2.235,2.235,0,0,0-2.125,2.43v5.978h-2.088v-7.13c0-1.1-.036-1.945-.072-2.791h1.819l.107,1.476h.055a3.4,3.4,0,0,1,3.007-1.692c1.547,0,3.276,1.008,3.276,4.069Z" transform="translate(260 47)"/><path d="M595.6,123.372a7.765,7.765,0,0,1-3.152.594c-2.988,0-4.717-2-4.717-5.024,0-2.953,1.657-5.311,4.465-5.311,2.791,0,3.907,2.322,3.907,4.771a6.418,6.418,0,0,1-.053.882h-6.3a2.82,2.82,0,0,0,3.008,3.079,6.191,6.191,0,0,0,2.5-.468Zm-1.477-5.582c.018-1.188-.469-2.665-2.071-2.665-1.531,0-2.178,1.513-2.286,2.665Z" transform="translate(260 47)"/><path d="M599.165,112.317a1.216,1.216,0,1,1,1.223-1.207,1.173,1.173,0,0,1-1.223,1.207m1.044,11.451H598.12v-9.939h2.089Z" transform="translate(260 47)"/><path d="M615.114,123.768h-2.088v-5.8c0-1.422-.486-2.61-1.891-2.61a2.206,2.206,0,0,0-2.125,2.34v6.068h-2.088v-14.44h2.088V115.2h.037a3.379,3.379,0,0,1,2.844-1.566c1.494,0,3.223,1.008,3.223,4.141Z" transform="translate(260 47)"/><path d="M626.292,118.727c0,3.709-2.412,5.24-4.645,5.24-2.574,0-4.537-1.891-4.537-5.1,0-3.349,2.052-5.239,4.681-5.239,2.719,0,4.5,2.052,4.5,5.095m-4.573-3.529c-1.782,0-2.467,1.909-2.467,3.619,0,1.945.918,3.583,2.449,3.583,1.512,0,2.449-1.638,2.449-3.619,0-1.638-.684-3.583-2.431-3.583" transform="translate(260 47)"/><path d="M633.348,115.684a3.109,3.109,0,0,0-.612-.054c-1.405,0-2.287,1.152-2.287,2.881v5.257H628.36v-6.9c0-1.152-.018-2.106-.072-3.024h1.819l.072,1.818h.071a2.853,2.853,0,0,1,2.576-2.034,2.452,2.452,0,0,1,.522.053Z" transform="translate(260 47)"/><path d="M639.9,115.72a3.622,3.622,0,0,0-1.891-.558c-.935,0-1.44.54-1.44,1.206,0,.684.45,1.026,1.657,1.549,1.638.666,2.5,1.566,2.5,3.006,0,1.909-1.458,3.043-3.709,3.043a5.488,5.488,0,0,1-2.7-.666l.468-1.548a4.825,4.825,0,0,0,2.268.666c1.116,0,1.657-.54,1.657-1.3s-.415-1.171-1.6-1.675c-1.764-.7-2.538-1.692-2.538-2.845,0-1.656,1.35-2.971,3.438-2.971a4.926,4.926,0,0,1,2.36.577Z" transform="translate(260 47)"/><path d="M650.017,123.372a7.765,7.765,0,0,1-3.152.594c-2.988,0-4.717-2-4.717-5.024,0-2.953,1.657-5.311,4.465-5.311,2.791,0,3.907,2.322,3.907,4.771a6.418,6.418,0,0,1-.053.882h-6.3a2.82,2.82,0,0,0,3.008,3.079,6.191,6.191,0,0,0,2.5-.468Zm-1.477-5.582c.018-1.188-.469-2.665-2.071-2.665-1.531,0-2.178,1.513-2.286,2.665Z" transform="translate(260 47)"/><path d="M661.555,115.684a3.127,3.127,0,0,0-.613-.054c-1.405,0-2.287,1.152-2.287,2.881v5.257h-2.089v-6.9c0-1.152-.018-2.106-.072-3.024h1.819l.072,1.818h.071a2.853,2.853,0,0,1,2.576-2.034,2.468,2.468,0,0,1,.523.053Z" transform="translate(260 47)"/><path d="M670.122,121.41a13.481,13.481,0,0,0,.145,2.359h-1.891l-.144-1.153h-.054a3.36,3.36,0,0,1-2.773,1.351,2.8,2.8,0,0,1-2.917-2.9c0-2.467,2.143-3.691,5.545-3.691,0-.739,0-2.215-2-2.215a4.571,4.571,0,0,0-2.413.684l-.431-1.386a6.19,6.19,0,0,1,3.205-.828c2.917,0,3.726,1.926,3.726,4.033Zm-2.034-2.629c-1.639,0-3.529.306-3.529,2.071a1.415,1.415,0,0,0,1.459,1.584,2.025,2.025,0,0,0,2.07-2.016Z" transform="translate(260 47)"/><path d="M679.429,123.462a6.44,6.44,0,0,1-2.557.5c-2.864,0-4.736-1.962-4.736-5.059a4.943,4.943,0,0,1,5.132-5.276,5.326,5.326,0,0,1,2.214.45l-.414,1.6a3.884,3.884,0,0,0-1.782-.4c-1.945,0-3.026,1.584-3.026,3.529,0,2.178,1.279,3.475,3.008,3.475a4.543,4.543,0,0,0,1.873-.4Z" transform="translate(260 47)"/><path d="M682.343,112.317a1.216,1.216,0,1,1,1.223-1.207,1.173,1.173,0,0,1-1.223,1.207m1.044,11.451H681.3v-9.939h2.089Z" transform="translate(260 47)"/><path d="M694.26,123.768h-2.088v-5.816c0-1.4-.469-2.592-1.891-2.592a2.235,2.235,0,0,0-2.125,2.43v5.978h-2.088v-7.13c0-1.1-.037-1.945-.072-2.791h1.819l.107,1.476h.055a3.4,3.4,0,0,1,3.007-1.692c1.547,0,3.276,1.008,3.276,4.069Z" transform="translate(260 47)"/><path d="M705.169,113.847c-.055.7-.091,1.53-.091,2.863v5.653c0,1.981-.162,5.636-4.861,5.636a6.445,6.445,0,0,1-3.133-.72l.469-1.621a5.4,5.4,0,0,0,2.682.7c1.62,0,2.773-.9,2.773-3.151v-.955h-.037a3.11,3.11,0,0,1-2.754,1.459c-2.341,0-3.944-2.071-3.944-4.844,0-3.367,2.035-5.239,4.2-5.239a2.878,2.878,0,0,1,2.718,1.548h.036l.091-1.332Zm-2.179,3.835a2.224,2.224,0,0,0-2.143-2.395c-1.44,0-2.449,1.369-2.449,3.493,0,1.945.883,3.331,2.431,3.331a2.237,2.237,0,0,0,2.161-2.484Z" transform="translate(260 47)"/></g></svg>