<svg xmlns="http://www.w3.org/2000/svg" width="102.626" height="130.27" viewBox="0 0 102.626 130.27"><g transform="translate(-260 -47)"><path d="M14.456,42.477c-.4.527-.2,1.739-1.213,1.659L12.8,41.265c1.132-.527,1.132.807,1.659,1.212" transform="translate(260 47)" fill="#8cc456"/><path d="M17.327,45.753a1.354,1.354,0,0,1-2.063.447l.4-1.659c.727-.122,2.062.121,1.658,1.212" transform="translate(260 47)" fill="#8cc456"/><path d="M102.626,28.97c-.283,1.617-2.144,1.537-3.275,2.022C96.276,33.174,93,35.6,90.736,38.8c-2.346-1.131-2.064,1.862-3.68,2.469-.325,1.415-1.539,2.546-1.659,4.084-1.942,1.133-1.821,2.67-3.278,4.126-.605.2-.808-.528-1.213-.849-1.658-3.883,4.693-2.873,2.469-6.554,1.131-1.009,2.748-2.466,3.275-4.084-.848-.4.081-1.133.406-1.657,1.616.2,1.616-1.62,2.464-2.469l-.4-.4c.687-.727-1.456-2.465.4-2.87,2.955-1.416,2.347,5.136,5.34,1.659,1.213-2.59,5.744-7.6,7.766-3.276" transform="translate(260 47)" fill="#8cc456"/><path d="M78.439,49.07c-.12,1.739-2.872,1.214-2.062,3.275-4.288,1.134-5.137,5.543-7.766,8.172.08.526-.323,1.334.406,1.659-.2.523-.85.405-1.254.405,0-.405.12-1.013-.4-1.216h-.81c0-.405-.121-1.051.4-1.254l-.4-.4c4.49-2.87,2.266-12.7,9.829-10.231Z" transform="translate(260 47)" fill="#8cc456"/><path d="M83.779,57.644c.282,1.982-1.941,1.336-2.872,2.062l-.4-.4c.606-.728,2.144-2.345,3.277-1.659" transform="translate(260 47)" fill="#8cc456"/><rect width="0.81" height="0.81" transform="translate(337.226 108.365)" fill="#8cc456"/><path d="M76.782,63.834c.121.4-.2.606-.4.807h-.81v-.807Z" transform="translate(260 47)" fill="#8cc456"/><path d="M1.756,93.358C1.23,94.287,1.23,95.5.1,96.228c.526-1.536-1.335-3.8,1.658-2.87" transform="translate(260 47)" fill="#8cc456"/><path d="M24.285,39.607c6.47,6.471,12.536,14.963,21.353,17.634,2.144,2.183,4.813.525,7.36.4.325,2.873,4.329,1.457,6.15,1.254,1.941-1.254,2.062-3.477,3.721-4.531-.324-.686.4-1.131.808-1.616h.81c-.2,4.085-4.491,9.222,1.254,11.89.605,1.418.283,3.157,2.021,4.085,1.659-.4,2.265-3.355,4.529-2.467-1.739,1.539-3.8,4.531-6.55,4.531-1.659,1.011-1.053,2.265-2.872,2.871l-1.256-1.212L60.4,73.661l.4.4c-.325,1.536-2.064,0-2.874.81-2.345-1.538-3.881,1.254-5.743,2.062-2.992,3.275-6.067,7-5.742,11.082-.728.325-.325,1.131-.406,1.617.486.85-.927,1.983-.4,3.317-4.934-3.8-11.283-4.124-16.419-7.4a9.808,9.808,0,0,0-9.425,2.467c-.929,4.732-3.074-2.064-4.934-.4-.728-.727-1.941-.323-2.872-.406a4.734,4.734,0,0,0-2.466,3.278c1.05,1.739,2.79,3.478,4.934,3.277l.4-.4c1.536,1.617,3.681,3.8,6.148,4.085-.4,4.205-6.431.121-8.211,3.681-1.011,1.131.728,2.871-1.617,2.871-.526,1.333-2.063,2.266-3.277,1.253-2.183-3.2,2.549-7.6-.85-10.273-1.212-.93-2.871-1.739-3.68-2.871l.809-5.339c2.386-2.752,5.541-2.832,6.593-6.553,0-2.344-4.732-3.074-1.253-5.337,3.4-.082,5.742,3.6,9.464,1.657,1.091-1.011,2.224-2.062,2.022-3.68l-.4-.4c.322-1.781-1.739-4-.405-6.19a6.246,6.246,0,0,0,2.467-4.083l-.405-.406c.486-.2.405-.81.405-1.253l-.405-.406c.2-.2.486-.4.405-.808-.405-2.143,2.548-4.61.4-6.958.082-.4-.2-.645-.4-.848.081-1.536-1.74-3.275-1.658-5.3l-.809-.851c.323-1.618-.607-3.074.405-4.893l1.254.81c1.414-.73.486-2.266,2.427-1.659" transform="translate(260 47)" fill="#8cc456"/><path d="M41.725,75.761a2.6,2.6,0,0,0,1.142-.086c.129.194-.043.323.236.475.388.321.927-.324,1.121.257-.28.345.172.646.259.97.84-.086-.022.8.8.8.171.238.128.647.5.733-.388.258-.129.581,0,.883h.15c.021.151-.322.258-.086.409-.582.216-.409.97-1.206.8a2.749,2.749,0,0,1-.646,1.615c-1.056-.431-.754,1.1-1.766.56a1.1,1.1,0,0,1-1.056.172l-.086-.086c-.086.366-.5.409-.8.474-.021-.152-.216-.259-.323-.388-.086,0-.194-.021-.237.065-.237-.345-.646,0-.883-.151.28-.28-.28-.5-.087-.733-.107-.193-.3-.15-.495-.15l.086-.086a.385.385,0,0,0-.473-.237c-.324-.517.818-.517.064-.883h-.323c.172-.409-.279-.56-.237-.9h-.237c.108-.366.517-.517.237-.969-.345-.13.022-.582-.323-.711.216-.044.323-.258.5-.41-.15-.064-.064-.215-.086-.323l.151-.151c.022-.193.323-.624.323-.968.69-.712,1.573.129,1.7-1.056.366-.151.452-.624.883-.324.215-.473.646.259.732-.322.194.216.474.43.474.732" transform="translate(260 47)" fill="#fbc600"/><path d="M17.488,57.609c-.077-.014-.161-.1-.1-.152a2.456,2.456,0,0,0,.474-.733c.053.06.11.108.2.072a1.225,1.225,0,0,1,.033.461.5.5,0,0,1-.6.352" transform="translate(260 47)" fill="#8cc456"/><path d="M19.309,57.036c-.159-.027-.421.119-.431-.048-.014-.253.42-.217.567-.444.087.11.356.1.224.35-.044.08-.093.168-.167.2-.052.019-.124-.042-.193-.054" transform="translate(260 47)" fill="#8cc456"/><path d="M51.949,50.644c.137-.114-.138-.1-.009-.187a.6.6,0,0,0-.072-.065c-.017-.056-.1-.113-.049-.186-.033-.065-.057,0-.1-.041.064-.048,0-.145-.065-.145l.048-.074-.121-.064.032-.024c-.073-.082-.008-.2-.146-.219.033-.009.065-.049.033-.074-.179.025-.033-.162-.179-.178.041-.089-.032-.194-.089-.275.016-.049.049-.163-.041-.179.017-.122-.1-.186-.162-.292-.138.081-.056-.17-.178-.04-.024-.13-.186-.009-.219-.114-.1.024-.178-.041-.243-.073a.522.522,0,0,0-.325-.065c0,.025.017.049-.016.065-.04-.048-.1.049-.17.025-.065-.057-.114.056-.162.088l-.033-.056-.081.056-.032-.04c-.114.081-.2-.1-.292,0-.154.065-.276-.1-.4.04-.065-.072-.154.114-.195,0-.073.041-.122.139-.219.163-.049-.008-.114.024-.146-.049-.057,0-.138,0-.113.073-.13-.065-.195.04-.292.073L47.9,48.73c-.1.065-.292-.008-.325.122l.073.008c-.1.113-.219-.032-.332.073,0,.13-.138.154-.235.219l.048.049c-.032.032-.1.008-.146.056l.041.033c.032.1-.081.089-.13.129l.057.09-.179.072c.025.147-.178.041-.129.2-.114.09-.26.049-.349.162-.056-.121-.13.057-.235,0v.025c-.016.016-.057.032-.073.016L46,49.946c-.04.009-.113.057-.145,0l-.033.025c-.13.049-.195.032-.316.089.21.178-.09-.008-.073.13-.049-.025-.13.032-.195.048-.049.114-.21.065-.259.187l-.033-.073c-.1.008-.032.138-.113.178-.106-.089-.171.106-.259,0v.025a.064.064,0,0,1-.074.048c-.073-.04-.081.041-.138.073l-.04-.048c-.041.024-.057.1-.114.072-.008-.007-.024-.016-.016-.024L44.1,50.7l-.032-.056h-.39c-.1-.138-.161.065-.275-.041,0-.154-.138-.057-.211-.048-.033-.017,0-.041.016-.057-.032-.073-.073.024-.1,0-.073-.106-.187-.041-.284-.073v-.016l-.081-.017.008-.007-.146-.033c.025-.008.017-.032.017-.041-.049-.089-.082.041-.146.009-.025-.009-.009-.041-.017-.074H42.4c-.064-.089-.161-.113-.243-.17l.008-.016c.016-.032-.024-.049-.04-.073-.122-.073-.195-.235-.349-.276-.154-.235-.446-.089-.656-.235l.056-.089-.162-.016c-.016-.033-.032-.1.016-.13l-.089-.016.016-.008c-.113-.041.073-.138-.04-.195,0-.032-.008-.065.024-.089l-.04-.04.056-.057-.056-.073.1-.057c0-.065-.073-.032-.1-.065.048-.04.032-.081.016-.146.121-.089-.121-.17-.016-.275h-.017c.009-.025.017-.089-.04-.1l.057-.032a1.42,1.42,0,0,0-.236-.252l.016-.007c-.056-.155-.186,0-.235-.138-.065.162-.194-.049-.292.016l.017.016-.162-.016c-.009-.025.016-.041.032-.057l-.1.032v-.072c-.041-.009-.017.04-.041.056-.032-.008-.081.008-.105-.016l.016-.04-.1-.049c-.154.072-.316-.162-.438-.235a.342.342,0,0,1-.09-.171l-.154-.056c.057-.065-.04-.09-.073-.122-.048.008.033.065-.032.057-.016-.171-.219-.073-.219-.243a.633.633,0,0,0-.324-.073c.008-.033.057-.065,0-.09-.041.009-.138-.032-.17.041-.089.008-.195.073-.235-.041l-.058.057a.722.722,0,0,0-.234-.129c-.065-.065-.244-.106-.146-.2-.025,0-.041.024-.057.04l-.073-.057c-.081.033-.081-.056-.162,0-.025-.081-.178-.008-.114-.113-.178-.016-.4-.1-.559-.1-.106.048-.251-.106-.365.016-.024-.008-.057-.089-.09-.016l-.008-.089c-.113.007-.023.162-.145.162-.017-.025-.065-.033-.049-.073a.269.269,0,0,0-.162.089c-.065.048-.13.024-.2.024,0,.154-.17.016-.218.122l-.025-.073c-.089.138-.243-.033-.4.04-.122-.137-.195.081-.325.057-.032-.105.082.016.106-.081-.033-.033-.073-.016-.114-.016-.04-.089-.178-.025-.194.056l-.025-.073c-.1.025-.219-.04-.292,0-.1-.089-.251.033-.34.073-.008-.024.016-.032.032-.04l-.032-.033a1.339,1.339,0,0,0-.187.13c-.089.065-.243-.016-.308.146-.065-.048.057-.081.033-.1l-.017.008a.971.971,0,0,0-.34.089.084.084,0,0,0-.146.049c-.154-.073-.251.114-.373.114-.1-.049-.2.161-.308,0l-.032.056c-.057-.081-.122.041-.163-.016-.146-.016-.218.178-.348.219l.048.065c-.113-.033-.186.04-.284.1-.008.162-.2.194-.218.325-.082.056-.179.178-.3.113-.1.04-.073.178-.179.162-.162-.13-.138.122-.275.113-.073-.089-.2.033-.268.09.105.129-.122.049-.13.178l.049.041a.223.223,0,0,1-.073.056c.008-.064-.073-.041-.1-.072-.1.161-.235-.049-.333.1,0,.008.016.016.009.032-.073-.065-.138.041-.228.024-.1.057-.032.122-.072.195-.041.008-.082.073-.122.04.016-.007.016-.032.016-.04-.13-.008-.1.211-.259.187l.057.089c-.074.056-.155-.049-.22.024l.114.049c-.057.057-.138.065-.17.13-.025-.009-.016-.033-.016-.041-.106,0-.187.1-.293.041.057.146-.146.016-.178.113-.056.033-.178.081-.17-.041-.049-.032-.1.057-.146.016.194-.081-.114-.243.13-.324l-.049-.024a1.191,1.191,0,0,1,.252-.357c.032-.016-.009-.1.056-.081a.831.831,0,0,1,.017-.162c.137-.1-.09-.162.072-.268-.1-.04.033-.178-.1-.218.089-.041.081-.187.073-.26h-.008c.065-.089-.082-.211.024-.251.057-.1.032-.227.162-.276l-.016-.016a1.12,1.12,0,0,0,.1-.332l-.048-.041.032-.032c-.024-.082-.032-.187.033-.236a.162.162,0,0,0,.008-.17c.04-.008.073-.016.065-.073.1-.073.088-.251.243-.219l-.089-.048.138-.09-.066-.024a.143.143,0,0,1,.106-.048c-.008-.1.138-.058.162-.147h-.056a1.635,1.635,0,0,1,.291-.291c.024.008.065.056.082,0l-.058-.008c.049-.033.106-.081.163-.122.04-.081,0-.13.073-.2-.09-.1.073-.186.056-.275a.37.37,0,0,1,.252-.236c-.017-.032-.073-.04-.057-.089.13-.089.146-.268.243-.389-.081-.081.065-.162.017-.251-.049-.114.1-.146,0-.26.1-.057-.041-.162.089-.211l-.049-.056c.105-.008.122-.122.219-.13,0-.032.016-.073-.024-.073l.024-.033c.016,0,.041,0,.049.017l.1-.089-.057-.025a.2.2,0,0,1,.2-.056A.781.781,0,0,1,31,42.4l-.048-.041c.081,0,.138-.1.178-.137s-.032-.082.041-.073c.048,0,.121-.041.121-.073l-.065-.024c.065-.049.179-.009.195-.106-.016.008-.024-.008-.032-.016.032-.049.1-.13.146-.057.016-.122.178-.195.146-.333.137-.064-.008-.243.162-.275-.025-.081.114-.154.089-.235l.235-.195-.032-.024.073-.049c.04-.194.291-.381.276-.584.129-.072-.049-.17.072-.243-.1.065-.032-.122-.146-.089.033-.04.066-.1.033-.146-.1.146-.073-.081-.179-.04l.033-.065c-.041-.008-.065-.057-.121-.041.023-.154-.106.049-.155-.04a.038.038,0,0,1,0-.065c-.024-.049-.081-.017-.121-.024l-.017-.106c-.032.016-.073.016-.1.057-.024-.032-.057-.1-.121-.073-.041-.024-.033-.065-.057-.1-.025.13-.105-.032-.171.025l-.016-.1c-.056-.072-.089.073-.13-.016-.008-.015,0-.024.008-.032l-.073-.008.017-.016c.016-.025-.017-.041-.025-.057-.04-.024-.048.032-.073.024a.083.083,0,0,0-.1-.073c.033-.1-.129-.057-.073-.146-.04,0-.081,0-.089.049-.032-.057-.13-.033-.114-.121-.032.048-.089.032-.129.056-.057-.065-.154-.065-.179-.146-.04,0-.08,0-.089.049-.032-.073-.138-.024-.186-.033-.057-.073-.122.017-.179.033l-.024-.057a.182.182,0,0,1-.211.041c-.081.186-.251-.065-.316.129-.048.016-.13.089-.162,0-.065.1-.154.1-.235.195-.081,0-.154.121-.236.04l.033.073c-.04.082-.1-.032-.146.016,0,.033,0,.082.041.09-.082.057-.2.048-.244.146-.04.032-.056.146.017.154-.024.048-.082.113-.138.073-.081.048.041.048.016.105-.089.041-.008.089-.04.146-.033,0-.049-.04-.074-.057-.016.017-.048.033-.048.057.008.041-.073.122.016.13-.032.04-.1.162-.162.073V40.1c-.04.033-.073.114-.154.1a.277.277,0,0,1-.284.1c.048.122.106-.032.195.057l-.2.089c-.008.057.073.073.073.13-.008.016-.033.016-.049.016l.049.1-.438.4c.122.089-.162.1,0,.186-.073.065-.1-.057-.162.049l.04.04c-.048.049-.072.106-.145.106.048.008.024.072,0,.1-.114,0-.025.146-.162.138.064.073-.065.1-.074.154l.017.016-.09.016c.057.081-.04.138-.024.219-.049.024-.129.081-.073.146-.056.073-.073.081-.048.162a.1.1,0,0,1-.073-.032c-.008.057-.106.129-.025.195-.024.016-.048.056-.089.04.032.032-.065.1.032.113l-.1.065c-.016.033.032.041.032.073l-.072.041c.04.113-.082.073-.09.146.016,0,.033,0,.041.016-.025.065-.1.033-.13.024.032.1-.089.1-.113.138l.072.041c-.065.056-.169.048-.21.129.024.081.072.025.1.033v.024c-.033.033-.057.081-.1.073v-.056a.04.04,0,0,0-.025.016c-.024.162-.275.316-.348.437l.056.017a1.075,1.075,0,0,1-.162.17l.033.032c-.065.082-.049.13-.138.146a.112.112,0,0,0,.048.114l-.048.049c-.008.056-.073.024-.1,0l.024.072-.081.017c.024.016.024.04.04.073-.024.048-.048.008-.089.008-.016.072-.1.178-.016.21l-.04.041c.056.024.04.1,0,.13l.056.049-.089.072.073.041-.04.04c-.017,0-.049.017-.057-.008.016.033-.041.106.04.146-.024.1-.121.033-.146.074.017.032.033.072.074.081-.049.072-.114-.041-.162-.025v.057c.234.024-.131.1-.025.219h-.073c-.033.081.056.032.04.1H24.6c.057.1.009.138-.056.219.032.13-.154.033-.13.17.024.065-.041.163-.057.252l.073-.032c.008.072-.073.04-.122.1,0,.065.033.113-.015.186.048.089-.073.081-.114.122-.032.065.049.048.073.073l-.032.024c.024.057-.041.235.064.2a.194.194,0,0,0-.049.162c-.121-.025-.04.146-.162.121l.017.009c-.1.032-.025.243-.187.219-.064.048-.073.145-.032.178-.057.008-.057.121-.13.057l-.033.056.066.017c-.073.13-.252.161-.325.275l.041.033-.073.105c-.211.025-.008.235-.13.3a.043.043,0,0,0,.032.073l-.1.195h.033v.1h.024c-.073.1.1.154-.041.251.089,0,0,.13.106.114-.065.032-.049.1-.089.137.016.033.056.041.089.058-.049.024-.082.121-.146.089l-.033.073.073.04-.056.033c0,.137-.114.154-.147.275l.057.024c-.057.025-.081.1-.162.09l.089.089h-.089c0,.1-.057.146,0,.235-.081,0-.008.1-.089.1l.032.065-.089.008.033.033c.008.073-.082.032-.106.089-.04.057.073.065.09.1-.058.007-.073.048-.106.088.016,0,.04,0,.048.016l-.105.114h.105l-.121.122.073.04c-.089-.016-.049.089-.1.122-.016.065-.049.186.024.219l-.073.073c.049.089-.154.186,0,.227-.081.016-.106.1-.113.178l.056.032c-.056.017-.129.065-.113.147a.474.474,0,0,0-.057.219c-.129-.033-.056.121-.121.17-.171.073-.106.3-.317.348.09.227-.219.162-.21.357.056.065-.106.057-.041.13l-.113.13.056.032-.049.041a.11.11,0,0,0-.024.178l-.089.008c-.008.024.016.032.033.049l-.065.072.065.041-.073.057c0,.041.048.057.056.089a.218.218,0,0,1-.073.057l.041.049a.023.023,0,0,1,0,.04c-.024.041-.024.057.016.089l-.057.057.073.057c-.081.024-.016.073-.056.121l.073.017c-.041.024-.041.065-.065.1h.048l.017.089.024-.032c.016,0,.04,0,.049.016l-.049.057c0,.056.056.016.073.048l-.017.057a.257.257,0,0,1,.066.219c.016.065.04.089.1.089l-.025.024c-.121.114.089.1-.016.211l.073.024c-.089.13.089.13.1.236H21.73c-.032.1.089.032.13.073.016.048-.041.032-.057.056a1.28,1.28,0,0,1,.1.179c.04,0,.065-.073.105-.033-.146.082.089.106-.032.195.048.04.113.008.146,0l-.041.081.073-.008c.008.008-.016.089.041.073l.015.081c.058-.081.114.049.179,0-.041.081.106.065.041.138h.162l-.016.041c.016.016.032.04.056.032l.017.081c.073-.016.088.122.162.032.024.008.073.041.056.09.187-.074.325.194.471.016l.008.073c.041.008.057-.081.089-.033l-.041.041a.238.238,0,0,0,.17.016c-.023-.008-.008-.041-.008-.057.025.049.195-.024.154.1.114-.064.22.017.325.009l-.016.016c.008.089-.122.016-.089.049a.55.55,0,0,0,.235-.017l-.016.073.178-.016c-.049.114.113.057.178.073l-.073-.1c.041.024.114-.041.13.048.057-.016.162-.024.146-.121.049.032.1-.049.113.032.017,0,.049.008.057-.016l-.024-.025c0-.056.065-.072.1-.1l.016.041c.049-.13.26.024.268-.13.089.016.113-.073.2-.016.048-.025.1-.089.145-.073-.016.024-.04.032-.032.065.073-.017.1-.114.179-.122l.024.057.145-.1c.155.024.211-.195.366-.179.057.186.13-.089.219-.073.121-.056.024-.13.1-.186.016-.057.227-.065.113-.179.041-.056.065.057.09.016.008-.032-.017-.056-.025-.089a2.216,2.216,0,0,1,.365-.292c.2.074.041-.2.244-.146-.008-.113.145-.016.194-.089l-.073-.04c.194-.033.276-.276.422-.4.016-.089.073-.251.2-.186-.017-.073.064-.024.089-.057.056-.089.129-.016.186-.057l-.057-.064.292-.146c.024-.089.186-.041.146-.154.122-.211.381-.3.324-.527.065.048.1-.041.171-.033l-.041-.04.016-.016a.072.072,0,0,1,.114.04l.073-.081a.411.411,0,0,0,.259-.073l.106.041c.032-.033.072-.066.072-.106l.057.033c-.048-.09.081-.073.13-.073.073-.146.292.113.251-.114.025-.016.033.016.057.008.009-.024-.008-.057.017-.073.138.1.218-.154.324-.04.024-.13.219-.033.2-.179a.548.548,0,0,1,.218-.1c-.064-.024-.008-.089.025-.122l.072.073c.073-.1.2-.129.293-.218l.032.048a.079.079,0,0,1,.073-.032v-.073c.041-.016.041.032.057.048.081-.089.211-.024.308-.064l-.057-.074.017-.008a.915.915,0,0,0,.445-.137c.041.032-.016.064,0,.1l.033-.032c.032-.009.049.024.072.032.033-.178.26-.065.333-.219.113.032.121-.041.194-.106l.017.065c.113.041.113-.129.219-.137l.056.065a.58.58,0,0,1,.366-.163v.025c.089.032.17-.065.235.032.129.049.1-.146.218-.089-.024.016-.024.04-.032.057.04-.009.073.1.1.016.009,0,.033,0,.041.016l-.032.033.072.073c.065-.017.155.056.211.007l-.016.074c.065.089.113-.041.187-.009.056.073.129-.016.194.057.024.057.195.065.146.171.121-.122.081.17.276.048l-.049.1a1.872,1.872,0,0,1,.211.016c.219.016,0,.21.17.267l-.016.008.065.049c-.049.065.081.1-.016.162a.486.486,0,0,0,.2.187c.008.032-.016.048-.032.072l.073-.04c.008.008.025.008.016.024-.032.025,0,.073.032.073-.121.1.114.114-.032.195a.2.2,0,0,1,.089.2l.13.024c-.008.033.016.1.056.1l-.081.033c.008.008.017.032.041.024.033-.032.073-.057.114-.024-.009.024-.041.04-.041.073.032.072.073,0,.113.04-.007.025-.04.041-.024.073.146.041-.008.284.187.252l-.041.1.073.016-.057.1c.017.033.057.041.081.057-.048.025-.016.114-.024.146.041.025.114.025.114.09h-.09c-.024.064.049.048.074.072s-.009.065-.025.081l.073.074.016-.008v.08h.073c.016.114.146.179.219.219-.016.049-.073.016-.089.049.049.057.057.113.146.1-.122.081.073.171.025.235l.073.033-.041.024.032.033c.073-.009.073.1.171.1l-.017.008c-.008.008-.016,0-.024-.008-.016.025-.057.033-.049.073.195-.016.041.227.195.219-.089.065.048.1.016.17h.114c.024.065.072.113.072.178.033.041.033.073.074.13.1-.057.2.13.259.187l-.008.016c.041.032.146.065.1.146.1.041.235.032.276.129l.016-.007c.09.024.114.243.235.1l.033.106c.089-.09.1.1.2.072l-.032.025c.057.1.186.073.275.121l-.081.025.009.016c.089.016.186.113.267.016.016.008-.032.073.024.073.065-.1.114-.016.179.017.04-.009.146.072.186-.017v.073l.073-.033.017.065c.121.049.235-.04.324-.065l-.049.074.162.016a.042.042,0,0,0-.016.032l.179.017V58.2H40.4l-.017.016c.066.243.244,0,.365.056.041.049,0,.1.073.122.073.065.187-.122.252-.017.04-.016.073-.072.1-.089l.016.017.106-.073.007.016c.025.04-.023.04-.04.057.049.032.146-.009.2,0-.024-.1.065,0,.089-.073.065.04.1-.057.146-.089.041-.016.065.065.106.016.007-.073.064-.016.1-.016l.016-.09c.122.1.178-.186.292-.023.065-.025-.017-.058.032-.09a.222.222,0,0,0,.227-.105v.073c.074-.106.106.024.163-.008l-.041-.049a.207.207,0,0,0,.1.022c.006-.006.014-.005.023,0,.154-.011.313-.136.416.051.089-.024-.032-.065.016-.1.033.024.09.04.122.008v.073c.065.073.138,0,.2-.041.04.033-.041.065.024.089.073-.016.089-.032.073-.089.065.016.162-.032.178.041a.663.663,0,0,1,.113-.1c.1.057.122-.04.211-.048,0-.09.1-.114.171-.13,0-.163.162-.089.251-.13.09-.13.17.049.259.033l-.016.04c.081-.032.171.09.219-.016.1.089.114-.1.211-.057l-.065-.089c.2-.008.146-.244.268-.349a.126.126,0,0,0,.146-.073c-.033-.032-.025-.057.016-.089.008,0,.033,0,.041.016.048-.048.1-.178.186-.129l-.008-.016c0-.025.024-.041.04-.057.155.048.13-.146.276-.106,0-.016.008-.032-.016-.04.064-.049.073.032.138,0l-.033-.057c.114-.138.276-.041.422-.089v-.073l.073.04c.073-.129.235-.122.276-.259.162-.065.21-.162.356-.292a3.1,3.1,0,0,0,.2-.47c.195.056.081-.26.292-.2.089-.04-.073-.1.04-.13.227-.016.252-.251.454-.365a.192.192,0,0,0,.187-.032c.073-.154.259-.113.381-.2l-.041-.04c.016-.049.065-.016.09-.049-.033-.1.1-.162.154-.219-.057-.081,0-.146-.025-.235.065-.089-.048-.195.073-.276-.1-.057.074-.1-.016-.162.049-.138.235-.121.259-.259a.575.575,0,0,0,.325-.073c.081.145.211-.13.259.032.065-.056.211.041.251-.032a.072.072,0,0,1,.114.041.493.493,0,0,0,.106-.114l.056.04a.475.475,0,0,1,.268-.113c.073.008.121-.195.186-.057.081-.073.155-.195.26-.162.008-.146.236-.138.162-.292.162-.106.008-.243.074-.365-.009-.056.1-.073.015-.113.032-.081,0-.162.073-.235a.039.039,0,0,1-.032-.017c.008-.122.17-.219.1-.324l.146-.073c-.04-.081.073-.073.089-.13l-.016-.016c.219-.106.073-.324.235-.422-.081-.032.033-.089-.048-.129M23.814,57.122H23.8v-.057c.024,0,.016.041.016.057m6.948-9.454a.069.069,0,0,1,.058-.056c.015.04-.041.04-.058.056m7.752,9.876h-.049l.049-.041Zm9.218-8.684h-.024c0-.016.024-.024.041-.024,0,.016-.008.024-.017.024" transform="translate(260 47)"/><path d="M28.193,39.99c-.009-.016-.033-.016-.041-.016l.008.048Z" transform="translate(260 47)"/><path d="M42.681,57.874a.042.042,0,0,0-.007.027l.057.008a.059.059,0,0,0-.028-.035h-.022" transform="translate(260 47)"/><path d="M43.622,57.941h.024a.042.042,0,0,0,.016-.032c-.016-.041-.073.024-.04.032" transform="translate(260 47)"/><path d="M20.511,75.237c.13-.214-.19-.167-.167-.321-.035-.036-.119-.215-.2-.084-.119-.178-.2.072-.321-.07v.023a4.232,4.232,0,0,1-.725.059c-.036.048-.107.1-.143,0h-.88c-.119.048-.309,0-.345.155-.131-.155-.357.035-.476-.06-.119.119-.4-.011-.488.251-.154.059-.106-.1-.166-.144-.107.012-.143-.13-.214-.107-.012-.131-.13-.166-.2-.238-.048-.083-.095-.213.024-.261a.431.431,0,0,0-.238-.191c-.011-.2-.238-.368-.107-.582l-.107-.619a.285.285,0,0,0,.071-.32.958.958,0,0,0,0-.452c.036-.108-.071-.274-.071-.428.155-.06,0-.2.048-.321a1.376,1.376,0,0,1-.381-.762c.107-.166-.107-.368-.154-.523.1-.095,0-.2-.06-.3-.095-.119.083-.262-.072-.357-.011-.286-.225-.511-.142-.8-.119-.263-.2-.524-.345-.773-.059-.2-.333-.452-.238-.773-.13-.06-.321-.143-.262-.333-.047-.227-.3-.143-.332-.346-.143-.143-.309-.392-.536-.321-.035.036-.095.013-.13.025-.047-.179-.285-.012-.369-.156-.036.167-.214.036-.321.06-.083.107-.249.107-.273.262l-.084-.06c-.059.119-.19.214-.237.333-.227-.071-.191.262-.322.31-.023.153-.226-.072-.214.118.084.334-.356.274-.321.583-.154.012-.059.238-.083.321-.19.06-.261.321-.392.476.142.274-.143.285-.25.44-.024.154-.048.321-.071.428-.2.035-.083.2-.036.309.024.059-.047.059-.1.059-.072.107-.024.167,0,.274-.214.749-.108,1.606-.25,2.4l-.083.083a9.594,9.594,0,0,0-.285,1.439l.083.035c-.274.155.059.441.047.667.38.2.215.666.321.963-.142.1-.012.3-.023.452.166.19.023.512.285.666-.059.19.178.286.119.452a2.631,2.631,0,0,1,.452.892l-.024.047c.3.214.179.631.392.892.2.072.119.369.238.535a.908.908,0,0,1,.333.559c-.071.131.048.214.155.238.024.059-.036.072-.024.131.238.166.19.5.452.618-.048.059-.024.179.059.191.095.285.381.356.452.666.3-.024.262.357.535.344.25.309.607.333.928.559.273-.083.44.309.7.107.237.143.522.012.725.19.059-.107.2-.13.3-.178.095.118.166-.024.238-.083.083.1.142,0,.238,0,.237-.238.63-.036.856-.345.226.095.345-.143.475-.273.227-.012.107-.333.3-.428.273.047.154-.345.428-.322.059-.225.464-.309.452-.594.155-.1,0-.227.143-.321-.179-.179.262-.321,0-.453l.178-.13c-.072-.06-.154-.142-.1-.238h.048l.048-.428c.095-.154-.036-.381.107-.559a.757.757,0,0,1,.214-.57.274.274,0,0,0,.012-.3c.035-.214,0-.475.214-.583-.131-.273.368-.261.214-.535.166.024.107-.19.262-.19l.047-.3c.06-.036.167-.047.119-.155-.154-.19.321-.226.131-.428a.48.48,0,0,0-.083-.511" transform="translate(260 47)"/><path d="M31.808,72.585c-.059-.333.226-.63.095-.964-.167-.118.059-.356-.107-.5.1-.154-.107-.285-.047-.428.106-.237-.215-.25-.084-.487-.2-.131-.19-.333-.214-.583,0-.119-.19-.1-.083-.238-.286-.119-.131-.487-.321-.618a.4.4,0,0,0-.178-.345c-.179-.024-.346-.2-.512-.143-.107-.2-.369-.071-.559-.106-.071-.048-.107-.12-.214-.084-.083-.154-.25-.13-.321-.285-.119.047-.119-.084-.238-.06-.083.083-.25-.142-.321.06-.071-.084-.25-.1-.333-.143-.274.059-.392-.107-.607-.131-.058-.143-.189.1-.249-.047l-.452.023c-.059-.012-.25-.07-.285.048-.19-.131-.547.036-.762.107-.011.072-.059.19-.178.143v.071a.736.736,0,0,0-.357.226c.06.214-.309.333-.107.523l-.13.083.356.642c.1.012.2.048.179.167.012.178.19.226.143.428.285.333.154.738.368,1.1a.109.109,0,0,1,.19.059l-.083.047c.214.191.119.5.238.725.3.262.131.726.488.94.142.274.131.654.344.856a2.035,2.035,0,0,0,.239.714c.189.048.214.285.32.427.179-.058.286.191.464.061.143.13.345,0,.5.047.119-.024.251-.131.357-.024a1.221,1.221,0,0,1,.536-.155c.059-.214.451-.166.475-.439.19-.132.357-.262.535-.369.048-.178.3-.262.488-.3.118-.273.333-.452.428-.725.012-.119-.143-.237,0-.321" transform="translate(260 47)"/><path d="M10.44,48.127a.566.566,0,0,0,.2.365c-.038.091.074.037.085.085.075.108.193.113.279.188.07.107.274.1.252.279.113.1.14.23.241.338.091-.022.043.085.1.112.215.076-.016.279.123.408.129.043.129.214.273.23.017.15.2.075.221.231.016.048.112-.011.1.07.043.037.043.1.107.1.059.155.225.241.317.386.064.193.257.182.38.289.048.011.054.1.123.086.005.178.215.129.215.3.048.118.193.155.289.23.086-.016.113.081.183.086.037.113.139.016.193.107.166-.016.257.075.434.037.048.043.075.1.134.108a.551.551,0,0,1,.316.08c.049,0,.108,0,.129.038a.408.408,0,0,1,.193-.011c.1-.053.155.065.252.022.038.064.129.026.172.064a.116.116,0,0,0,.134-.027c.107.011.156-.054.225-.107.043.075.075-.021.112-.038.075.011.1-.059.167-.048.037-.123.192-.038.241-.155.027-.038.059.032.075-.022a.715.715,0,0,0,.214-.257c.065-.172-.09-.322.017-.472a1.052,1.052,0,0,0,.107-.67c-.016-.1.085-.2-.048-.247-.022-.032,0-.069.01-.1-.048-.069-.032-.139-.048-.2a.173.173,0,0,1-.021-.145c-.065-.086.048-.171,0-.252a.043.043,0,0,1,.059-.037c.058-.049-.022-.092-.011-.145.059-.113.016-.29.043-.386-.043-.07-.038-.177-.118-.2a.6.6,0,0,0-.038-.375c-.16-.038-.042-.22-.107-.311.065-.086-.032-.177-.048-.268-.054-.209-.268-.252-.327-.467a.174.174,0,0,1-.167-.1l.011-.006a.153.153,0,0,0-.123-.08c-.027.011-.048-.021-.048-.037-.129-.011-.177-.118-.3-.118-.053-.049-.15-.065-.177-.151a.2.2,0,0,0-.16-.091l-.3-.337c-.081.016-.119-.049-.172-.075v.01c-.022,0-.032.038-.048.011v-.021a1.133,1.133,0,0,1-.339-.049c-.037-.048-.133-.016-.165-.069-.1.021-.172-.07-.263-.038-.081-.07-.188-.059-.268-.113-.017-.085-.145.006-.166-.08-.086,0-.1-.1-.183-.113a.829.829,0,0,0-.305.016c-.054-.075-.118.075-.145-.016l-.032.016c-.006,0-.011-.01-.011-.016h-.257a.344.344,0,0,0-.263-.021c-.011-.038-.064-.011-.1-.021-.037.048-.16.026-.192.107-.108-.075-.13.107-.221.037-.134.107-.273.064-.374.193-.135-.064-.135.145-.242.14-.048.1-.166.048-.2.171-.059.022-.085.075-.155.086,0,.107-.155.027-.124.145l-.01-.011c-.049.032-.129.037-.134.091l-.059.006c-.081.118-.108.284-.242.359-.053.048-.048.139-.117.155a.781.781,0,0,0,.032.493c-.065.076.059.151.075.231" transform="translate(260 47)"/><path d="M19.271,62.855c-.043-.038,0-.07.021-.1-.016-.044-.048-.033-.08-.059l.032-.059a.445.445,0,0,1-.1-.3c-.075-.1-.08-.22-.177-.278-.016-.145-.2-.091-.23-.182a.041.041,0,0,1-.048.016c-.011,0-.011-.016-.011-.027l-.124-.022c-.053-.048-.177-.021-.225-.053-.016.005-.053-.022-.053.016l-.049-.016V61.8h-.059c-.053.005-.107.081-.144.032l-.07-.011a.285.285,0,0,1-.241.027c-.027-.053-.032.033-.075,0-.134,0-.145-.134-.214-.22-.06-.155-.188-.235-.258-.375-.1-.059-.1-.177-.145-.279-.161.005-.048-.2-.176-.236-.033-.123-.194-.048-.221-.182-.144-.134-.359-.187-.493-.349-.107-.021-.171-.1-.279-.112-.075-.064-.193-.07-.262-.145-.086.064-.124-.064-.2-.048-.1.027-.161-.1-.241-.011a.074.074,0,0,1-.076-.027c-.091.038-.069-.075-.154-.048-.183.059-.194-.156-.376-.08-.069-.006-.113-.129-.172-.027-.027-.07-.118-.043-.166-.08a.149.149,0,0,1-.07-.161c-.005-.075.086-.011.1-.081.006-.155.231-.091.236-.257.1-.011.15-.118.182-.193.1-.032.134-.193.241-.215.028-.118.156-.182.22-.278.016-.022.054,0,.07-.022a.779.779,0,0,1,.257-.257,5.734,5.734,0,0,0,.456-.359c.085-.006.085-.172.193-.124.112-.118.247-.241.359-.37.15.011.209-.209.354-.209a1.168,1.168,0,0,1,.322-.262c.118-.178.348-.15.45-.317.048-.058.177.006.177-.107.145.075.075-.14.193-.118.043,0,.054-.048.048-.086.038-.059.027-.182.124-.171.048-.113.053-.247.107-.359-.054-.086.1-.1.064-.183-.016.011-.054.038-.064,0-.011-.07-.032-.128.027-.182-.086-.054.01-.139.021-.2a.082.082,0,0,1-.021-.107c-.07-.145-.065-.338-.145-.472.053-.032-.016-.043-.011-.075-.048-.1-.161-.128-.241-.193-.043-.214-.285-.209-.391-.386-.075.016-.092-.064-.14-.08l-.016.021c-.086,0-.032-.145-.134-.118-.048-.113-.2-.107-.263-.209-.075.006-.091-.07-.171-.043-.022-.081-.145.006-.166-.075-.166.038-.258-.059-.408-.07a.3.3,0,0,1-.289,0c-.049.059-.124-.027-.15.011-.033-.038-.119,0-.156-.038-.07-.021-.075.076-.145.048-.064-.074-.155-.005-.241-.037-.038.108-.118-.08-.155.037a.352.352,0,0,0-.29-.021c-.07.038-.134.016-.2.021-.027-.01-.113.028-.123-.026-.15-.022-.306-.043-.456-.059v-.021c-.048-.032-.075.064-.107-.011-.059,0-.113-.129-.182-.027a.109.109,0,0,1-.038-.048c-.107.011-.188-.054-.263-.059a2.381,2.381,0,0,1-.343-.049c-.064.059-.118-.021-.177-.037-.086.048-.1-.086-.182-.038-.1-.085-.3-.016-.386-.08a1.885,1.885,0,0,1-.359-.075c-.075-.075-.284-.048-.4-.037-.011-.011-.027-.017-.022-.033h-.064v-.005c-.065,0-.134,0-.167-.043a.714.714,0,0,1-.267.032c-.075-.075-.193-.021-.29-.032-.021-.016-.059,0-.059-.037-.145-.038-.289.032-.424-.016-.042-.011-.069.1-.107.016-.059-.011-.166-.011-.182-.016-.037.005-.506.1-.517.049-.043-.011-.112-.022-.117.038-.065-.086-.2.01-.3-.049l-.021-.026H8.573c-.017-.022-.065,0-.065-.038H8.476V52.6c-.021.011-.038.027-.064.022-.017-.032-.118.021-.177-.011V52.6c-.086.053-.2.043-.269.134-.118-.032-.112.129-.219.123-.081-.08-.07.145-.188.086-.021.07-.134.032-.134.14-.1.042-.118.166-.161.256.065.119-.107.14-.048.253H7.183c-.107.011-.032.16-.064.214-.064.086.07.183.1.247.118.166.354.2.4.418.145-.043.075.145.177.161.005.048.086.043.053.107a.326.326,0,0,0,.188.134c-.053.166.145.145.172.284.129.054.134.22.23.316.118-.059,0,.172.145.156.038.059.15.032.167.124.187.01.268.214.492.166.1.069.689-.1.764.014.1-.053.155.016.242.022.069-.032.1.054.155.065s.123.032.161-.017c.1.049.144-.048.251,0,.059-.091.156.017.215.006.011-.017.038-.006.059-.006.145.081.343,0,.52.038.043.075.086-.038.134.016.027-.005.07.021.075-.016a.257.257,0,0,0,.241,0c.006.005.017.011.011.016.1-.027.161.1.241.011.092.085.172-.043.263.037.059-.048.193-.016.241-.064.054-.011.118-.086.146-.059.171-.033.23.155.375.193.134.016.235.117.364.107.016-.016.043-.011.059-.011.091.059.225,0,.322.048.171-.037.075.183.134.253l-.107.01c-.032.108-.156.123-.193.22-.075.038-.14.145-.242.166-.005.1-.123.075-.171.1-.032.166-.183.172-.252.3-.07.076-.2.049-.231.166-.108-.053-.091.119-.2.075-.08.14-.294.172-.338.349-.059,0-.037.075-.107.048.006.118-.145.027-.145.135-.133-.027-.064.128-.182.117-.037.081-.155.075-.177.156-.134-.005-.053.171-.209.134,0,.086-.064.1-.117.134l-.016-.021c-.054-.017-.06.037-.092.058-.1.038-.134.124-.231.177a.372.372,0,0,0-.171.134c-.107-.021-.086.113-.156.135.022.091-.074.048-.085.117-.135.011-.155.193-.29.183-.01.1-.166-.011-.155.112-.065-.016-.081.033-.124.043-.059.075-.155.037-.236.086v.016c-.075.005-.139.086-.182.139-.08-.01-.123.086-.171.134-.048-.032-.113.027-.156.048-.075-.048-.1.092-.134.012-.118-.065-.134.107-.214.1a.722.722,0,0,0-.252.231c-.011.026-.016.08-.064.058-.076,0-.033.14-.129.113-.043.139-.2.129-.278.23a.075.075,0,0,1-.049.081c.01.086-.113.1-.1.193a.414.414,0,0,0-.193.22c-.134-.038-.043.177-.193.155-.059.027-.1.129-.16.107a.7.7,0,0,0-.215.413c0,.049.043.1,0,.135a1.333,1.333,0,0,1-.049.283c.059.1-.085.2.022.29-.075.006-.043.086-.08.123.058.054-.081.1-.017.167-.1.193.081.37.006.568a1.222,1.222,0,0,0,.166.375.879.879,0,0,1,.252.156l.29.01c.042-.043.1.038.134-.031a3.812,3.812,0,0,0,.7-.076c.156.059.188-.252.338-.085.075-.049.123-.022.2-.07.08.064.1-.108.214-.048.107-.118.311-.049.424-.167a.631.631,0,0,1,.273-.134c.076-.128.241-.032.317-.171.112.053.139-.108.23-.059.07-.1.22-.022.322-.049.112-.1.22.038.354-.011.134.13.2-.08.348-.037.129-.07.289-.032.424-.107l.032-.027c.118.049.123-.15.241-.08.016.053.075-.043.1.032a.378.378,0,0,0,.193-.032,1.8,1.8,0,0,1,.482.021.418.418,0,0,1,.322,0c.07-.064.14.049.21-.021a2.351,2.351,0,0,1,.31.1c.145.022.269.043.413.059.022.059.1.033.145.038.166.037.236.188.37.284.032.048.043.1.107.112.08.167.226.237.343.376a1.385,1.385,0,0,0,.563.477c.011.043.091-.016.086.048a.735.735,0,0,0,.241.124.5.5,0,0,0,.386.155c.118.07.118-.129.242-.069.037-.092.155-.017.214-.086.065-.049.145-.054.209-.108.118.011.177-.059.289-.048.054-.08.162,0,.226-.064.15-.006.225-.135.364-.177.032-.065.032-.15.059-.22a.286.286,0,0,1,.183-.081c.107-.064.166-.209.268-.268.139.011.177-.182.273-.171.016-.145.177-.107.242-.226-.07-.1-.092-.241-.2-.305" transform="translate(260 47)"/><path d="M20.732,28.274c.4-.484-.311-.442-.213-1.01-.264-1.069.721-1.314.272-2.258a3.876,3.876,0,0,0-.178-2.677c.026-.233.187-.386.083-.665-.363-.107-.314.764-.672.688-.391-.56-.758.668-.915-.514-.219-.1-.183.419-.4.353-.2-.524-.735-.41-.866-1.14.005-.914-.644-.751-.735-1.485.024-.656-.311-1.388-.073-1.978.043-.4-.014-1.04-.372-1.247a24.96,24.96,0,0,0-.233-2.768c-.615-.559-.443-1.855-1.084-2.313-.288.663-.523-.214-.806-.465-.217-.358-.44.067-.65.163-.189-.036-.252-.451-.4-.461a.564.564,0,0,1-.676.4c0,.292-.075.728-.353.509-.265.138-.2.585-.23.915-.292.37-.252,1.179-.657,1.337-.17.906-.8.9-.919,1.9-.108.374.252,1.266-.277,1.149-.086.241-.392.517-.3.83.441.748-.113,1.417.327,2.165-.3.73.2,1.893-.323,2.462a1.433,1.433,0,0,1-.177,1.133c.072.348.318.213.436.457-.049.756.4,1.046.675,1.494-.087,1.055.457,1.951.527,2.951.75.506.17,2.354,1.064,2.317.552.274.371,1.247.845,1.4.337.34.226,1.367.7,1.3.642-1.3.468,1.07,1.183.929.133.208.016.649.26.776.261-.3.538.18.818.137.293-.63.682.322,1.083,0,.677,1.233.719-.923,1.429-.28a1.386,1.386,0,0,0,.926-1.313,2.676,2.676,0,0,0,.627-2.213c.474.157.543-.6.706-1.019l-.425-.782c.356-.217-.071-.74-.033-1.169" transform="translate(260 47)"/><path d="M46.238,24.165l.054-.053a5.874,5.874,0,0,0-.41-.816c.1.044.1-.071.115-.125.018-.213-.16-.311-.213-.5-.116-.009-.036-.16-.063-.24-.107-.142.027-.365-.124-.463-.054-.356-.445-.258-.516-.6a.889.889,0,0,1-.32-.284c-.24.026-.365-.231-.623-.223-.16-.169-.427-.16-.578-.338-.205-.009-.383-.178-.623-.16-.294-.169-.712-.044-1-.24-.347.009-.605-.267-.961-.258l-.009-.044a2.408,2.408,0,0,0-.6-.081c-.1-.044-.178.027-.258-.062-.2.143-.4.054-.658.08-.045.089-.142.027-.222.045a1.07,1.07,0,0,1-.6-.045c-.187-.036-.178-.285-.339-.3-.071-.169.072-.365,0-.534-.017-.16-.222-.258-.16-.427.009-.125.054-.222.018-.32-.062-.125-.009-.2.018-.32-.124-.259-.018-.543-.2-.774-.079-.081.081-.107.036-.178a.4.4,0,0,1-.08-.409c-.356-.125.036-.508-.294-.641-.115-.222,0-.436-.062-.658.115-.25-.24-.33-.205-.561.1-.1.045-.346.223-.32-.009-.026.009-.053-.018-.062.1-.107.267-.169.223-.356.151-.142.391.018.542-.08a1.846,1.846,0,0,0,1.139-.08c.214-.107.329-.267.534-.365-.009-.142.2-.107.186-.24.16-.018.1-.231.259-.294.035-.142.23-.142.221-.3-.071-.062.1-.08.019-.142l.08-.036a.3.3,0,0,0-.08-.24c.1-.089-.134-.16.017-.223-.107-.355.178-.524.187-.844h.036c.035-.072.1-.161.08-.241.169-.044.1-.3.32-.338a.6.6,0,0,0-.125-.516c.018,0,.071,0,.08-.044.116-.107-.035-.267.01-.4s-.063-.284.017-.382c-.178-.2-.08-.472-.107-.712-.035-.133-.2-.16-.32-.187-.1-.142-.258-.124-.373-.213-.276-.231-.73-.107-1.006-.463l-.035.036a.259.259,0,0,0-.178-.222c.08-.178-.116-.24-.142-.392.035-.08-.009-.2.1-.24a2.273,2.273,0,0,1-.125-.72c.081-.063-.008-.2-.079-.267a1.733,1.733,0,0,0-.232-.161c-.1.107-.177-.08-.284-.017a3.67,3.67,0,0,1-1.157.222c-.106.053-.142.089-.249.134-.32.257-.551-.17-.916-.072-.053-.089-.116-.044-.16-.142-.125-.1-.356-.009-.463-.044a.649.649,0,0,1-.515,0c-.107-.125-.3-.134-.321-.339l-.285-.017a.534.534,0,0,1-.578-.08c-.142-.072-.293-.187-.445-.285-.213-.035-.32-.365-.56-.3.009-.08-.08-.116-.151-.1a4.384,4.384,0,0,0-.881-.516c-.1-.009-.16-.151-.267-.142-.115.079-.356.017-.435.178.044.1-.08.231-.019.364a.084.084,0,0,1-.079.036c-.1-.054,0-.16-.027-.214a.066.066,0,0,0-.054.018.377.377,0,0,1-.124-.222c-.214-.027-.151-.285-.258-.419.053-.026.062.009.1-.044l-.1-.116c.026-.106-.054-.169.036-.267l-.1-.053c.008-.142-.187-.222-.2-.364l-.258-.2c-.151-.107-.338-.169-.48-.258-.143-.009-.258.044-.356-.089-.125-.036-.338-.1-.347.089-.16.1-.151.338-.2.48a.754.754,0,0,1-.24.676c-.142.187.009.392-.035.6a.594.594,0,0,0,.1.525c-.063.027-.054.116-.08.178.044.071.035.062.115.08-.1.133.124.187.044.338h.018c.009.071.116.142.036.223l.089.044a.164.164,0,0,0,.035.178c-.062.276.223.462.178.756-.026.053-.053.16-.017.2.035.169-.178.178-.2.3.071.2-.232.178-.32.294-.294-.178-.347.231-.623.2-.445.311-1.015.116-1.521.338L26.24,7.72l-.035.035a2.662,2.662,0,0,0-.917,0c-.169.08-.373.1-.507.24-.071.161-.258.231-.4.321-.142.124-.365.062-.48.24a1.834,1.834,0,0,0-.374.2c-.241.018-.329.285-.56.321-.028.044-.063.106-.028.16-.115-.054-.133.115-.239.115-.276.16-.454.436-.757.588-.08.186-.275.249-.383.4-.034.071.009.115-.079.151-.205-.08-.3.107-.445.169-.124-.026-.1.125-.151.16a1.837,1.837,0,0,0,.6.08,3.09,3.09,0,0,0,1,.152c.169.16.374-.045.561.088.151-.062.276-.062.427-.124.347.018.587-.294.934-.178a.573.573,0,0,0,.489.08c.4.151.863-.16,1.218.1a1.665,1.665,0,0,1,.116.382,1.033,1.033,0,0,0,.4.214c.2.125.435.2.64.329.133,0,.24.133.365.1.08.009.124.115.2.1.035.062.124.062.124.142.169.009.187.169.338.213.169-.062.249.1.418.045.16.116.445-.045.578.142-.026.187.231.089.2.276.134-.053.142.178.285.1.062.062.16.053.195.125.152-.152.116.169.258.079.054.063.125.116.143.2.142,0,.1.214.24.267.008-.017-.018-.053.018-.062a.111.111,0,0,1,.1.062l-.081.036.169.017c0,.1.107.143.08.25h.054c.08.151.036.3.16.418l-.063.08a.606.606,0,0,0,.125.213.693.693,0,0,1-.017.329c.044.045-.019.152.062.2-.1.133.124.249,0,.382.062.045.089.116.16.134.3.142.213.472.4.721-.133.044.071.115-.044.169.08.053.026.124,0,.177.2.1.08.347.258.464l-.054.034c.187.152.107.383.2.561l.045-.018a.467.467,0,0,0,.195.383c.045.053-.035.1.045.133.16.089.133.249.293.365-.062.24.169.373.107.614-.151.133.036.346-.089.489.044.125.009.249.107.32l.035-.026c.116.213.036.347.125.578h.035c.063.133.232.24.081.4.115.213-.009.294-.036.525.1.115-.045.107,0,.24a.285.285,0,0,0-.08.321c-.125.053-.036.231-.178.258a2.153,2.153,0,0,0-.267.444c-.115-.071-.169.116-.258.142-.018.152-.2.152-.258.259-.142-.062-.1.24-.222.115-.054.151-.258.2-.338.347-.178.009-.32.178-.5.222-.16.045-.035.2-.142.294-.124.035-.16.231-.32.178a.1.1,0,0,1-.045.107c-.186,0-.284.124-.417.2-.054.134-.232.143-.3.267-.071.071-.24-.017-.24.1-.1.1-.4.16-.374.4-.044.107-.16.125-.249.179-.1.177-.32.159-.373.32-.018.088-.214.08-.178.195-.107-.018-.072.2-.223.124a.317.317,0,0,0-.2.161c-.161-.009-.152.142-.258.222-.33.151-.356.49-.685.623,0,.017-.009.044.008.053-.017.054-.053.009-.088.018l-.294.267v.053c-.125-.008-.142.125-.186.2-.028.044-.01.178-.117.16-.1.142-.258.16-.355.338-.214.018-.321.258-.463.383-.142.008-.036.249-.2.275.045.089-.088.1-.035.169-.031.026-.029.087-.041.122a.064.064,0,0,0-.029.025.068.068,0,0,1-.037-.013.643.643,0,0,0-.1.238.165.165,0,0,1-.057.007,1.12,1.12,0,0,1-.577.745c.149.195-.075.354-.115.536-.333.174-.019.508-.056.762.17.041.182.24.16.333.131.173-.027.379.092.554.229.288.162.659.459.906.191.013.109.288.27.368.117.129.077.5.349.384.077.045.094.112.132.185a1.763,1.763,0,0,1,.4.683c.3.1.364.439.551.658l.359-.007a.353.353,0,0,0,.364.072c-.006.009-.014.015-.02.025.009.142.2.116.223.258.16,0,.347.062.5.062-.027.125.116.035.142.134,0,.017.018.044-.018.062l.116.107c-.062.222.2.159.258.293.311.169.6-.151.827-.293.018-.107.16-.044.214-.142.2-.17.391.1.561.142.079.151.275.1.382.231.276-.036.569.142.845.142.24-.008.48.151.738.044a6.1,6.1,0,0,1,.658.161,1.517,1.517,0,0,0,.836.275,4.869,4.869,0,0,1,.526.445,1.032,1.032,0,0,0,.6.463c.125.027.169.151.214.258.116.346.472.115.721.159.159-.044.2.215.338.143.124.089.32.1.444.231.045,0,.143.027.16-.052.027.008.054-.01.063.017a2.8,2.8,0,0,1,.978-.462c.338-.018.32-.383.561-.543-.063-.054.053-.054.018-.1.035-.206.337-.268.284-.5a1.6,1.6,0,0,0,.383-.7h.035c-.027-.062.045-.071.063-.062-.036-.143.053-.195.115-.293-.044-.1.134-.117.1-.241l.062.018v-.062c-.133-.116.116-.161.1-.276.276-.124.124-.463.187-.721.284-.249-.018-.773.213-1.084-.177-.116.009-.384-.134-.517a1.484,1.484,0,0,0-.026-.863c.081.036.045-.062.081-.1-.116-.268.008-.543-.055-.819,0-.018.028-.036.055-.027-.019-.177.133-.24.186-.382.027-.107-.027-.3.062-.311-.008-.161-.1-.285-.044-.481-.116-.115.026-.293-.062-.427.062-.142-.089-.2-.081-.3-.168-.071-.008-.275-.1-.391-.054-.017-.019-.115-.1-.062-.018-.018-.045-.035-.027-.062h.089c-.1-.089-.062-.258-.089-.356.1-.071.045-.178.089-.284-.089-.223-.089-.463-.169-.7-.1,0-.018-.106-.08-.133.026-.1-.071-.187.044-.249.187-.017-.062-.116.063-.2-.027-.177.062-.435.053-.6.285-.009-.018-.214.08-.338l.045.017c-.027-.178.169-.142.258-.213.249-.169.569-.3.658-.623.115-.009.16-.169.284-.2.053-.277.392-.454.6-.614.151-.134.3-.241.284-.481A3.519,3.519,0,0,1,42.2,24.1c.249.027.5-.275.738-.08.062.071.222.116.276.214.3.178.169.64.489.8l-.009.018c-.018,0-.044,0-.053-.018-.018.062.035.072.062.107-.017.125.142.143.16.241.134-.027.1.142.214.151.178.186.222-.143.382-.151,0-.33.392-.125.561-.25.035-.187.329.305.259.172a.744.744,0,0,1,.053-.338c.071.017.124-.036.178.036,0-.009.017-.019.009-.036l.293-.236c.151-.036.169-.2.267-.276.026-.089.089-.231.178-.24,0-.018.009-.036-.018-.045M34.673,31.7a2.54,2.54,0,0,1-.205.837c.054.222-.177.239-.195.435-.134-.018-.134.16-.222.187-.018-.035-.045,0-.063.018-.062.027-.018.071-.018.115-.159-.044-.133.2-.275.161-.036.133-.161.133-.267.169-.152-.071-.205.142-.338.07a2.8,2.8,0,0,0-.561.09c-.053-.018-.195-.107-.195.018-.107-.027-.2.089-.285,0-.116.151-.267-.018-.4.035-.018-.027-.018-.062-.045-.08-.062.151-.107-.1-.178.027l-.08-.08-.018.017c-.071.009-.053-.071-.115-.1l-.027.035a.4.4,0,0,1-.214-.223c.01-.142.116-.186.036-.337.143-.143-.018-.5.24-.56.009.008.018.026.036.017.062-.071.026-.16.062-.24l.045.018c.062-.116.062-.276.213-.294-.089-.089.08-.116.027-.222.16,0,.2-.258.356-.258.027-.125.187-.054.2-.178.231.027-.009-.275.223-.187.115-.053.035-.285.195-.222a.641.641,0,0,1,.338-.357c.045-.088.072-.274.187-.239.036-.063.036-.259.151-.161.1-.053.063-.16.09-.239.133,0,.159-.143.239-.143a.059.059,0,0,0,.018-.1c.116.062.072-.142.2-.1l.062-.08a.745.745,0,0,0,.578.161l.08.079c.018-.018.036-.035.063-.027-.018.081.08.09.044.161l.054.08c-.062,0-.062.08-.036.106.187.063-.035.232.133.3.009.08-.044.195.045.24a1.2,1.2,0,0,0,.063.561c-.205.08-.054.391-.241.48" transform="translate(260 47)"/><path d="M49.227.018c.073.175.252.081.361.182.089-.324.361.025.539-.109.094.146.337,0,.361.215-.016.02-.045.037-.032.073.06.19.17-.061.251.073l.037-.037c.072.045.235-.044.324.037.272-.2.223.207.4.288-.065.057-.028.146-.036.219.287.069-.126.369.215.361.137.251-.28.648.072.863-.133.093-.044.28-.109.4.255.045.02.227.146.361-.154.008-.118.207-.073.288l.146.182a.5.5,0,0,0-.288.434c.033.061.142.089.106.178l-.037.037c.044.073-.081.17-.036.288-.3.154-.009.381,0,.58-.3.08.1.316-.179.47l.037.032-.11.11.073.073.037-.037c.259.361-.333.3-.183.612-.1.012-.186.1-.288.146,0,.037-.008.089.036.11-.08.105-.263.052-.287.214l.037.037c-.013.1-.118.1-.183.146-.215-.174-.288.312-.539.178-.118.009-.244.134-.361.037-.219.044-.417.353-.653.146-.052.044-.142.032-.215.032A1.268,1.268,0,0,1,48.36,7.2a.07.07,0,0,0-.036-.073c-.244-.065-.236.259-.5.142-.287-.106-.206-.6-.648-.43.016-.219-.235-.11-.328-.219-.459-.081-.479-.632-.9-.722a1.85,1.85,0,0,0-.471-.612c-.044-.1-.036-.263-.178-.287.016-.163-.057-.361.105-.471-.162-.288.021-.705-.178-1.009.243-.093.142-.389.215-.58a.77.77,0,0,1-.073-.324.07.07,0,0,0,.073-.037.165.165,0,0,1,0-.215l.073-.073c-.11-.1.045-.178.036-.287.162-.081.325-.11.361-.288.134-.065.044-.219.073-.328A1.969,1.969,0,0,0,46.7.776c.19.1.223-.162.4-.214A.714.714,0,0,0,47.747.2c.09-.007.179.082.252,0,.109.126.146-.162.288-.072.1-.28.279-.008.47-.037.17.272.28-.044.47-.073" transform="translate(260 47)"/><path d="M43.455,4.353c.061-.023.1.039.154.058.136.041.326-.1.4-.033l.051,0c-.009.021-.028.052,0,.061.168,0,.189-.031.21.135-.022.031-.026.068.022.062a.222.222,0,0,0,.177-.048c.007.124.26.065.146.245a.19.19,0,0,1,.182-.006c.147.047-.032.245.184.224-.054.016-.047.059-.064.084.009.131.275.135.218.288a.724.724,0,0,1,.094.248l-.073.043c.04.04.014.156.1.184-.167.1.06.144-.077.232a4.55,4.55,0,0,1,.3.424.493.493,0,0,0-.007.354c-.1.06-.175.161-.156.232.039.016.046.056.112.04-.044.11,0,.223-.127.336.106.065-.131.208-.108.3l-.035.022a.224.224,0,0,1-.028.23.164.164,0,0,0-.134.13c.075,0,.052.07.02.123-.35.079-.057.34-.422.369-.017.021,0,.03.007.04-.069.023-.016.052-.039.086a.238.238,0,0,0-.159.128.115.115,0,0,0-.091.026c-.016.035-.145.1-.187.129a.306.306,0,0,0-.235.008c-.028.023-.079.035-.081.066.019.061-.128.13-.191.193-.056-.06-.194-.008-.266-.032a.208.208,0,0,0-.151.046l-.038.085c-.135.04-.336.046-.267-.1a.156.156,0,0,0-.224-.012c-.2.146-.224-.129-.45-.027-.007-.073-.061-.123-.183-.057-.039.032-.078.107-.141.088l-.016-.019-.036.021c-.143-.042-.039-.243-.26-.221l-.035-.04c.018-.011.043-.022.047-.043-.156.016-.158-.082-.221-.138l-.071.043a.1.1,0,0,1-.013-.145c-.107-.105-.329-.108-.418-.216-.174.022-.239-.2-.449-.026-.037,0-.076.04-.116.024.05-.036.127-.065.153-.107,0-.027-.041-.021-.069-.02l-.036.023c0-.047-.067.007-.1,0a5.523,5.523,0,0,0-.493.349c.068-.2.39-.335.413-.515a2.81,2.81,0,0,0-.474.307l-.109.129a.935.935,0,0,1,.265-.3c.1-.143.319-.269.294-.426-.117-.037-.093-.147-.069-.246.044-.08.15-.13.176-.215-.2-.055.127-.171-.043-.247-.09,0-.1-.044-.109-.1.132-.109.063-.158.063-.253-.129.072-.154-.029-.244-.033.038-.14.372-.351.269-.451l-.086-.04c.284-.118-.038-.2.152-.337.014-.116-.213-.122-.033-.27-.068-.1.256-.179.124-.275.222-.147.233-.34.412-.512a.178.178,0,0,0,.1-.108c.109-.045.016-.051.119-.122.144-.151.389-.241.532-.412.368.039.675-.287,1.016-.2.136.026.169-.089.246.054.037-.007.079.012.116-.027-.014.173.043.123.172.123.106-.123.123.053.243-.029Z" transform="translate(260 47)"/><path d="M30.405,81.156c.208-.257.408.255.584-.119A4.717,4.717,0,0,1,32.121,82.7c.17.068.531.128.4.447.032.1.149.086.206.089a8.664,8.664,0,0,1-.4.976c.014.1.13.085.207.09.055.369-.207.565-.133.935l-.134-.009c.13.393-.387.69.07,1.082.521.3-.1,1.014.494,1.4-.261.176-.659.4-.622.752-.342-.079-.251.331-.4.476-.174.355.288,1-.206,1.219.1.218-.016.576.325.674.5-.336.747.371,1.048.486.54-.026,1.041-.035,1.5-.045.362-.594.961.019,1.374-.149.551-.2,1.083.564,1.595.037.455-.2,1.14.241,1.451-.144.2.242.489-.125.584-.1.637.288,1.168-.546,1.805-.257.2-.124.463.3.656-.038l-.005.076a4.146,4.146,0,0,1,2.825,1.034c-.286.272.218.533.02.944-.322-.076-.188.259-.386.343l-.008.134c-.425.033,0,.327-.24.486-.181.124-.414.476-.751.321.005-.077.03-.172-.064-.216-.327.962-1.585.444-2.075,1.242-.628-.441-.919.561-1.69.265a4.737,4.737,0,0,1-2.311.362c.1.276.077.332-.111.571-.176-.28-.746-.064-.622-.537l-.134-.009c-.171.3.113.681-.285.907-.231-.322-.4.284-.633-.038-.5.067-.811.375-1.325.287-.115.32-.532.2-.739.457l.072.08-.733.033c.131.393.129.37-.017.554-.315-.192-.246.255-.3.27-.221.141-.64.078-.663.461a.435.435,0,0,1-.253.7c-.274.08-.2.061-.44.239.315.827-.614.29-.689.9-.4.322-.191.951-.6,1.253.529.494-.638.713-.2,1.143-.029.479-.4,1.227-.1,1.648l-.077,0c-.01.5-.41,1.072-.086,1.438-.123.781.1,1.853-.086,2.746.242.129-.126.492.173.645.065.2-.148.222-.233.352a6.41,6.41,0,0,1,.2,1.455c-.464.357.213.936-.163,1.433a1.108,1.108,0,0,0-.047.786c-.08.707-.023,1.692-.154,2.588.354.521-.3,1.1-.017,1.577a2.518,2.518,0,0,1-.634,1.639c.135.316-.23.314-.448.416a7.231,7.231,0,0,1-1.5-.833,15.492,15.492,0,0,1,.023-1.673l-.134-.007c.3-.232.076-.631-.1-.872a17.944,17.944,0,0,0-.293-4.77,3.784,3.784,0,0,0,.184-1.778l-.145-.163c.367-.671-.216-1.533.133-2.223-.036-.041-.052-.1-.13-.085.574-.274-.207-.724.275-1.061-.01-.135-.251-.3-.052-.426l-.124-.162.136-.992c-.29-.287.05-.517-.24-.8.172-.316.011-.518.1-.8-.107-.142.013-.538-.246-.727.329-.346-.242-.765-.281-1.094-.331-.558-.612.272-1.069-.141-.332.1.041.291-.179.432-.676-.271-.583.366-1.27-.041-.285.252-.919.234-.7.766-.5-.068-.787.281-1.31.345l-.161.126-.055-.061c-.3.886-1.342-.08-1.367,1-.635,0-1.277-.212-1.75.318-.348.345-.783-.1-1.074-.064-.091-.082.093-.264-.114-.353-.347.017-.109.532-.41.764-.172-.029-.437.532-.738.091-.365.325-.591-.4-.924.022-.195.026-.416-.122-.508.123-.2-.242-.369.056-.578.023,0-.288-.21-.358-.412-.525-.3.252-.419-.39-.7-.176-.241-.149-.5-.7-.918-.42-.066-.178-.3-.114-.27-.305l.163-.144c-.282-.44-1.337-.176-.885-.977-.74-.179.073-.9-.734-.909a2.594,2.594,0,0,1,.288-1.291c-.488-.2.14-.415-.038-.638a.528.528,0,0,0,.3-.136c-.262-.131-.13-.392-.253-.592.558,0,.064-.438.536-.6-.037-.348.434-.494.484-.7.1.025.234-.044.283.094.105-.456.517-.6.717-1.035a.647.647,0,0,0,.341.078c.262-.2.354-.459.664-.172.6-.387.835-1.085,1.641-1.056.154-.973,1.212-.313,1.656-.979,1.065.525.815-1.74,1.9-.6.419-.571,1.167.108,1.465-.355.957.076,1.818-.488,2.68-.417.052-.555.733-.033.969-.443.285.056.614.018.6-.33.222-.179.347.291.557.322.27-.33.883-.275.915-.811-.341-.425.623-.771.283-1.195-.042-.272.142-.454.249-.64.163-.471-.1-.89.231-1.275-.181-.53-.455-1.085-.059-1.6-.324-.693.24-1.448.286-2.215.292-.367.651-.577.486-1.048.367-.017.245-.544.412-.765l.4-.63c.546.206-.069-.447.439-.262l.61-.541c.211.013.6-.118.863.052.076-.631.747-.263.947-.078" transform="translate(260 47)"/><path d="M43.123,125.548a.558.558,0,0,0,.18-.153c.093-.029-.012-.234.077-.241a.161.161,0,0,1,.1-.118c.107-.045.126-.226.239-.24-.009-.069.041-.061.023-.136.029.032.025-.021.044-.035.058.023.048-.1.1-.056,0-.014.005-.033-.01-.039.045-.1.139-.034.148-.161.073-.012.072-.117.14-.171-.029-.092.09-.05.082-.136.061-.011.038-.117.077-.154-.009-.04.052-.055.02-.093.033-.025.04-.108.1-.1-.01-.084.017-.128.013-.207l.041.043c.023-.067.091-.107.038-.19.04-.035-.005-.116.042-.141,0-.011,0-.024-.01-.028l.029-.035c0-.026,0-.059-.011-.078.09-.068-.018-.154-.011-.245.016-.021.049-.025.045-.064H44.6c-.01-.014-.033-.02-.025-.045.062-.047,0-.111-.016-.157.043-.046-.026-.085-.006-.129-.054.023,0-.042-.041-.054.013-.065-.072-.078-.037-.127a.277.277,0,0,1-.061-.153c-.033.042-.055-.024-.086-.021l-.013-.108c-.062.106-.046-.058-.11-.04.014-.065-.046-.054-.074-.094-.041-.01-.082-.051-.125,0a.049.049,0,0,0-.032-.019c-.02.068-.064-.042-.092.03-.006-.007.023,0,.055.006-.014.037-.052.008-.061.058-.037,0-.066-.029-.1-.053-.024.013-.058,0-.077.039-.01-.018-.027-.006-.038-.018-.023.013-.022.023-.038.043l-.034-.047-.015.023c-.005-.019-.021-.007-.032-.009l0,.029a.115.115,0,0,1-.1.04c.026.128-.109.036-.119.137a.185.185,0,0,0-.112.1c-.037.008-.022.07-.042.1-.065.041-.056.119-.094.186,0,.037.011.123-.016.138v.032c.031.042-.02.123.024.175-.041.061-.011.128-.016.188l.007-.011c.025,0,.039.031.056.046-.006.014-.018.018-.03.024.005.068.011.109.015.164-.07.126.035.244-.059.373,0,0-.009-.013-.018-.009l0,.029c.03.071-.057.081-.071.135a.383.383,0,0,1-.1.286c0,.016.008.027.017.039,0,.055-.05.054-.073.085,0,.084-.074.1-.077.184" transform="translate(260 47)"/><path d="M44.477,122.632a.2.2,0,0,0,.227.013c.118.063.284.062.361.173.067-.006.049.106.125.048.059.131.256.076.34.152.017.2.27.133.253.342a.148.148,0,0,0,.141.064l.011.191c.115-.076.063.08.163.069-.049.075,0,.139.01.212.108.251-.027.485.143.714-.089.211.04.489-.077.708.108.139-.158.248-.023.4a8.326,8.326,0,0,1-.357,1.149,1.764,1.764,0,0,0-.12.377,3.635,3.635,0,0,0-.261.5c-.144.1-.122.2-.243.294a.7.7,0,0,1-.352.364c-.071-.024,0-.138-.117-.1l-.023.019c.016.022.054.029.041.058-.062.023-.059-.038-.08-.06-.119-.048-.308.07-.411-.079-.429-.065-.618-.444-.767-.755-.168-.177-.093-.42-.349-.5-.008-.067-.071-.122-.073-.193.3.124.437.428.81.387.112-.126.372-.01.45-.221-.007-.067.021-.178.091-.148.008-.041.082-.073.029-.117-.018.02-.057.028-.047.054a4.23,4.23,0,0,0,.05-.915.088.088,0,0,1-.013-.154c-.211-.109.107-.25-.125-.355.12-.163-.193-.211-.1-.37-.263-.04.1-.234-.135-.253-.093-.02-.054-.229-.2-.149-.007-.077-.1-.057-.139-.085l-.113.132c.015-.163-.207-.057-.241-.151-.067.021-.05.11-.113.147.086.051.2,0,.2.15a1.879,1.879,0,0,1-.09.528c-.052.033-.093.087-.052.135-.15.222-.28.461-.453.682.01.113-.107.133-.155.2a2.257,2.257,0,0,1-.36.5c.04.079-.077.083-.112.132-.175-.055-.083.283-.3.271l-.007.133a30.623,30.623,0,0,1-1.883,2.488c.493-.783,1.291-1.7,1.806-2.6.033.012.057-.018.085-.037-.087-.117.116-.173.12-.26l0-.061c-.081-.045-.1.067-.155.089l.021.021a4.08,4.08,0,0,0-.362.534,15.163,15.163,0,0,1-1.254,1.734c-.222.418-.637.6-.929.968l-.1.071.006-.1c.424-.458.714-1.016,1.1-1.512l-.082,0,.137-.181c0-.036-.02.06.013.077.051-.033.093-.087.051-.135l.022.021c.018-.03.079-.042.065-.093l-.059-.019a1.454,1.454,0,0,1,.247-.371v-.021l.059.045c.037-.064.135-.131.134-.223-.014-.042-.055,0-.084.011h.022l0,.077h-.022c-.013-.062.041-.141.078-.206l.034.079c.031-.055.151-.12.055-.186.129-.137.154-.386.356-.421-.05-.008-.085-.071-.039-.1l.061,0a3.556,3.556,0,0,1,.255-.5c.188-.194.236-.474.434-.647,0-.061.007-.123.07-.15a2.27,2.27,0,0,1,.344-.617c.092-.158.139-.314.229-.447-.127-.105-.132.1-.268.046-.11.081-.217.2-.364.169-.128.111-.271-.009-.42.075.047-.136-.185-.057-.24-.167a1.259,1.259,0,0,1-.5-.238.371.371,0,0,1-.066-.3c.091-.148.016-.3.145-.432.1-.071.063-.238.222-.2.07-.166.274.041.319-.157.081-.067.222.084.209-.08.092-.062.279-.031.282-.18.089-.015.223.069.253-.083.089.01.082-.073.17-.062.03-.04.133.007.17-.068l.021.017c.089-.1.342-.073.362-.226.148.121.278-.123.439-.037.024-.03.081-.053.088-.088.079.081.23-.043.309.032a.309.309,0,0,1,.312-.039c.044-.09.127.017.145-.012.017.093.089,0,.149.008" transform="translate(260 47)"/><path d="M40.1,128.933a.413.413,0,0,1,.156-.222Z" transform="translate(260 47)"/><path d="M39.832,129.3a.594.594,0,0,1,.157-.237Z" transform="translate(260 47)"/><path d="M42.174,111.9c.153-.126.115.18.306.076.19.249.565.275.763.5.107.084.02.382.268.382l-.077.229c.05.065.153.019.191.115-.114.065.05.114.039.191l.152.114c-.141.057-.046.2-.076.306l.153.114c-.192.077.03.172.038.268-.161.019-.115.191-.038.267.183.076.068.229.038.344l-.077.076c.077.057-.141.172.039.229-.039.085-.1.161-.077.268.02.018.038.045.077.038l-.153.076a.2.2,0,0,1,0,.23c-.371,0-.21.484-.458.572l-.039-.038c-.114.191-.363.077-.458.306-.1-.031-.218-.222-.305-.039a2.641,2.641,0,0,1-.764-.114c-.325-.248-.562-.585-.917-.687-.057-.28-.294-.21-.42-.421-.027-.134-.141-.24-.153-.382-.16-.057-.045-.24-.191-.305.229-.153-.114-.382,0-.573-.313-.107.05-.451-.267-.573.115-.126.248-.191.19-.343.115-.07-.045-.115-.037-.192.011-.145.183-.221.152-.382.115.008.039-.114.115-.153-.1-.087.031-.182.038-.267.069-.031.107.039.153.076.152-.183.432-.087.573-.305a.273.273,0,0,0,.229-.114v-.039c.267.141.458-.107.726-.076Z" transform="translate(260 47)"/><path d="M43.434,118.659c-.267.352-.821.352-1.031.764-.554.153-.841,1.1-1.566.688-.1-.172-.439-.249-.229-.459-.1-.229.172-.317.191-.5.382-.039.573-.6.916-.726a43.333,43.333,0,0,0,4.354-5.271c.164-.069.145-.343.306-.382.164-.114-.007-.229.153-.343.019-.115-.046-.287.114-.306.069-.031.031-.107.039-.153l-.039-.038.115-.153c-.141-.164.279-.24.076-.42,0-.2.325-.287.115-.5l-.191-.191c.069-.038.03-.126.038-.19l-.038-.039c.21-.133-.1-.343.153-.458-.115-.077.057-.134,0-.229.305-.019.336-.451.687-.344.1-.241.336-.03.5-.077.049.009.126-.03.152.039l.039-.039c.019.047.076.039.114.039l.039-.039c.037.287.393.058.42.345.228-.306.183.267.458.076.05.332.515.114.459.458a1,1,0,0,1,.305.458c-.122.237.088.535-.038.726l.115.077c-.066.038-.027.122-.039.191.039.045.107.084.076.152s-.133.027-.114.115c-.008.065.031.248-.038.344-.115.076.057.133,0,.229a2.907,2.907,0,0,1-.726.649c-.114-.126-.23.084-.344-.038-.141.1-.248-.049-.382.077-.057-.153-.152-.012-.229,0,.011.037-.019.056-.038.076-.1-.184-.275.027-.382-.039l-.458.192c-.1.255-.466.275-.65.419-.382.314-.611.593-.955.918v.076c-.057.134-.3.153-.3.343-.237.173-.344.428-.611.535.095.268-.363.287-.344.573a21.01,21.01,0,0,0-1.451,1.642c.057.084.114-.076.191-.076a1.289,1.289,0,0,0,.573-.267" transform="translate(260 47)"/><path d="M45.9,119.6c-.037-.232-.2.043-.342-.019a.206.206,0,0,1-.039-.114c-.053.047-.156-.019-.189.077a2.194,2.194,0,0,1-.723.037c-.081.057-.176-.028-.248,0a1.527,1.527,0,0,0-.647-.17c-.062-.021-.128.065-.171-.021,0-.118.118-.209.19-.285.114.015.186-.1.247-.171.115.024.158-.133.286-.077.052-.127.157.011.229-.056.146.2.217-.133.36-.115.011.009.024.019.021.037.05-.031.152-.013.19-.018s.086-.013.113.018c.134-.055.209.044.3-.093.106-.025.171.043.267.038.214.027.281-.2.477-.211.09.034.161-.09.266-.075.019-.009.047.019.038.038.109-.038.146-.137.266-.152.009-.029.038-.072,0-.1a.1.1,0,0,1,.1-.038c.261.1.152-.247.36-.228v-.038c.081-.066.058-.223.211-.19-.025-.077.042-.138.018-.191.019-.022.081-.022.057-.075.11-.12.1-.319.152-.477,0-.062-.066-.052-.075-.114a.983.983,0,0,0,.1-.113l-.058-.058c0-.019,0-.047.019-.056-.019-.192-.19-.316-.19-.514-.086-.1.028-.344-.171-.325-.014-.119-.095.024-.133-.075l.019-.019c-.053-.229-.344-.167-.437-.381-.111.09-.2-.1-.287.038-.113-.063-.228.043-.342-.019-.109.009-.077.2-.19.133-.02.1-.138.034-.172.133-.085-.127-.18.034-.286-.037-.009.009-.024.019-.018.037-.047.034-.133.1-.171.038-.086.11-.1-.094-.21,0-.062.167-.19,0-.286.077-.238.015-.009-.158-.152-.248.109-.267-.089-.433-.228-.589.009-.111-.171-.086-.171-.21a1.444,1.444,0,0,1-.551-.323c-.348-.049-.763-.115-.952.247.013.113-.034.252.037.342-.024.058.015.158,0,.21s.077.056.058.115c-.02.128.123.313,0,.437-.043-.034-.148-.006-.133-.1-.1,0-.167.081-.266.077-.049.047-.139-.018-.173.057-.128.1-.247-.075-.342.037-.157-.062-.232.133-.381.04-.018.08-.114-.006-.133.075l.019.018c.005.021-.009.031-.019.04-.09-.031-.2.056-.3,0-.034.08-.148.075-.21.075l-.019-.019c-.1.062-.2.13-.3.19,0,.114-.157.073-.133.191-.077.024-.134.09-.229.075.015.077-.052.114-.075.173-.216.009-.043.266-.229.3.1.065-.019.171,0,.229-.09.075.013.165-.019.266.125-.03.075.113.115.171.133.075.193.28.323.362.028.028.09.075.037.112.053.021.087.078.152.059a.213.213,0,0,0,.077.115.693.693,0,0,1,.19.208c.03,0,.058.043.077,0,.043.015.09.081.133.037.09.053.124.129.229.154.041-.11.109.01.171-.058l.1.115c.071-.1.165.033.246-.038.081.156.315.093.439.133v-.018c.032-.015.051-.053.094-.04.2.062.12.272.192.4-.09.09-.229.062-.344.1-.066-.114-.18-.1-.285-.114-.148.114-.276-.1-.437,0-.1.006-.211-.013-.3,0-.139-.062-.158.157-.306.133-.023.043-.128.09-.115.152-.171.143-.071.334-.056.514-.019.024-.043.077-.019.1-.062.114.024.214.075.3a.642.642,0,0,1,.21.266c.09-.033.086.053.152.077.01.113.214.081.229.228.053,0,.085.09.134.039.056.075.185.075.208.152.058.037.114.162.21.152.028.034-.2.117-.228.151.01.124-.095.227-.056.342l-.192.418c.025.01.019.039.019.058a.34.34,0,0,1-.095.255,1.665,1.665,0,0,1-.407.855,1.331,1.331,0,0,1-.1.183c-.1.306-.338.552-.438.858a1.422,1.422,0,0,0-.191.3c-.066.14-.186.276-.248.4-.214.291-.432.585-.647.874a2.481,2.481,0,0,0-.265.343,10.1,10.1,0,0,1-2.057,1.674c-.447.139-.7.35-1.18.23.028.087.128.068.19.115a5.534,5.534,0,0,0,.991-.152c.062-.028.1.056.152,0l.018.019a2.471,2.471,0,0,1,.667-.211,7.666,7.666,0,0,0,1.141-.837c.167-.065.262-.294.418-.38.214-.276.486-.547.685-.838a4.292,4.292,0,0,0,.629-.818c.219-.384.557-.685.743-1.066.038-.1.156-.165.152-.285a.412.412,0,0,0,.19-.285,4.532,4.532,0,0,0,.263-.377v0c.014-.037.027-.077.041-.116s.035-.061.05-.1a.417.417,0,0,0,.021-.117.2.2,0,0,1,.008-.068c.009-.023.03-.037.041-.055s0-.025,0-.032a.247.247,0,0,1,.029-.062c.017-.021.051-.018.069-.037s0-.018,0-.025a.526.526,0,0,0,.03-.053,2.636,2.636,0,0,1,.582-1.009c.072-.018.138-.089.19-.113.108.118.242-.053.362-.077.175.011.347-.113.552-.094a.261.261,0,0,1,.208-.059c.115-.112.291-.084.419-.17.061-.034.1-.143.191-.152a2.754,2.754,0,0,1,1.008-.819.231.231,0,0,0,.133-.266" transform="translate(260 47)"/><path d="M53.157,128.011c-.128-.06-.229-.18-.363-.227-.541-.4-1.106-.8-1.617-1.237-.146.023-.208-.152-.341-.172-.334-.3-.744-.5-1.085-.818-.09-.072-.143-.19-.267-.209a10.622,10.622,0,0,1-1.047-.876,1.928,1.928,0,0,0-.362-.323c-.118-.229-.422-.362-.533-.61-.038-.081-.165-.156-.171-.267a3.328,3.328,0,0,1-.7-.96.068.068,0,0,1-.025-.039s.014-.006.012-.014-.007-.01-.027-.021-.027-.011-.038-.019c.006-.031-.014-.033-.03-.053a.193.193,0,0,1-.023-.052c-.01-.02-.034-.039-.04-.061s.013-.054.018-.082c-.033-.023-.062-.024-.088-.054-.009-.01-.021-.023-.029-.034l-.022-.036c-.136-.114-.2-.35-.341-.458v-.038c-.165-.152-.314-.156-.494-.283-.133,0-.235-.167-.363-.078.057.211.063.462.23.61a2.582,2.582,0,0,1,.245.474c.01.013.02.026.032.039a1.4,1.4,0,0,1,.093.135c.035.043.073.084.106.13.044.061.074.145.117.214l.015.016a10.667,10.667,0,0,0,1.237,1.618v.058l1.065,1.046h.038c.52.513,1.208.861,1.79,1.351.252.052.432.266.666.362.3.214.593.4.893.589.149.067.282.21.42.266a5.409,5.409,0,0,1,.59.381c.094.038.18.161.286.115.013.033.052.015.075.018a4.274,4.274,0,0,0,.97.362c-.326-.219-.564-.543-.893-.763" transform="translate(260 47)"/><path d="M39.581,118.612l-.042-.071a1.2,1.2,0,0,1,.018-.44c-.078-.393-.143-.785-.19-1.19a11.617,11.617,0,0,0-1.137-3.146c-.154-.25-.3-.518-.469-.738a3.433,3.433,0,0,0-.654-.654c-.31-.113-.566-.393-.923-.357-.041-.083-.148-.024-.178-.113a1.023,1.023,0,0,1-.476-.066c-.071-.053-.172-.047-.232-.107-.053-.012-.1-.071-.149-.035a.347.347,0,0,0-.249-.167c0-.155-.209-.131-.244-.279.017-.167-.2-.119-.2-.28-.071-.024-.119-.137-.2-.107a.184.184,0,0,1-.071-.107.32.32,0,0,0-.316-.161.531.531,0,0,1-.113-.148c-.106.041-.2-.03-.3-.024a1.789,1.789,0,0,0-.868.024c-.327.392-.845.642-.94,1.165-.012.137-.214.214-.137.375-.149.131.06.327-.1.452a3.529,3.529,0,0,1-.03.577,2.873,2.873,0,0,0,.03.392c-.03.185.077.31.054.5.113.112.047.3.142.416.179.125.036.4.226.529.226.209.2.524.381.749a2.621,2.621,0,0,1,.44.917c.059.118.012.285.09.4-.019.25.16.464.095.738a16.1,16.1,0,0,1,.172,2.141l.029.054a13.109,13.109,0,0,1-.023,1.695,4.676,4.676,0,0,1-.149,1.237,1.778,1.778,0,0,0,.149,1.552c.3.339.351.809.642,1.16.048.286.363.41.44.684l.292.119c.119-.047.2.084.309.1.048-.023.078-.1.137-.1.309.155.28-.3.44-.428.1-.024.172.042.25.1.1.03.107-.1.149-.148.047-.334.077-.6.137-.922.154-.131,0-.34.131-.482-.06-.042.017-.078.017-.119,0-.28.084-.524.09-.8.107-.119-.006-.339.136-.44l.09.065c0-.072-.012-.167.053-.2.148,0,.274.137.417.2.214.155.553.065.737.321.03.238.143.446.19.678.227.387.238.88.53,1.231.059.071.124.209.244.22.083.006.1-.089.172-.107.16-.2.44-.285.577-.5-.024-.292.131-.565.03-.839a8.745,8.745,0,0,0,.238-1.326c.154-.577-.042-1.119.107-1.69-.054-.243.018-.47-.024-.707-.024-.06.065-.1,0-.149.047-.541.006-1.064.036-1.63m-1.88,1.62c-.005.022-.022.034-.039.05-.089-.056-.117-.167-.173-.251-.067.045.017.1.034.15.027.107.055.252-.04.341-.078.106-.245.033-.3.145a.566.566,0,0,1,.005.256c-.223.09-.15.385-.178.575.028.128.05.295-.062.373-.156.067-.356.09-.518.168-.346-.1-.134-.552-.195-.814.083-.19-.028-.4.022-.592a4.1,4.1,0,0,1,.027-.964l.113-.106a.6.6,0,0,0,.323-.044c.184-.3.568-.335.691-.681,0-.123.153-.314.2-.431.061-.189-.251-.2-.14-.39-.033-.067-.128-.034-.184-.072-.223-.112-.223-.369-.368-.541-.162-.1-.571.03-.727-.082.005-.078-.095-.134-.129-.212-.028-.19-.072-.407-.083-.618a1.858,1.858,0,0,1-.128-.552c-.09-.056-.034-.151-.051-.224-.061-.111-.033-.267-.139-.362.067-.128-.05-.257.017-.39.061-.229-.117-.429-.039-.664.028-.111-.1-.172-.05-.278-.068-.134.011-.268-.028-.4.044-.078.172-.033.211-.128.162.023.324-.05.458,0,.049-.016.1-.05.151-.022.061.061.155.045.222.089a5.059,5.059,0,0,1,1.1,2.119,7.961,7.961,0,0,1,.123,3.573c.072.34-.134.646-.134.981" transform="translate(260 47)"/><path d="M39.514,122.588a17.039,17.039,0,0,1-.338,1.683c.014.021.038.044.022.077l-.041.03.028.041c-.2.549-.316,1.2-.455,1.735.009.152-.143.18-.165.3.057.04.009.1.012.153-.122.062-.046.353-.163.489a3.253,3.253,0,0,1-.405.633,2.512,2.512,0,0,0-.185.632c-.036,0-.049-.027-.063-.048-.218.239-.381.59-.626.853a1.483,1.483,0,0,1-1.3.546,1.328,1.328,0,0,1-.445-.157c-.225.036-.5-.152-.76-.21a.816.816,0,0,1-.21-.447c-.06-.168-.209-.2-.363-.212-.155-.437-.727-.6-.6-1.109.085-.014.1.15.151.177a1.423,1.423,0,0,0,1.133.573c.064.1.158-.02.247.044a1.824,1.824,0,0,0,1.1-.69c.362-.205.318-.677.6-.93a3.577,3.577,0,0,0,.194-1.077c.134-.089-.041-.23.093-.32a9.457,9.457,0,0,1,.137-1.159c.065-.5-.038-1.045.031-1.589" transform="translate(260 47)"/><path d="M57.9,5.518h.964v.27H57.9Zm1.8-1.492V3.808h1.744V3.154H57.078V6.609h.82V6.436h2.967a3.356,3.356,0,0,1-.114.764c-.069.224-.161.292-.305.292a4.249,4.249,0,0,1-.47-.051,2.747,2.747,0,0,1,.488-.167,3.789,3.789,0,0,0-.345-.8l-.643.195a3.8,3.8,0,0,1,.316.855c.023-.006.144-.063.166-.075a3.263,3.263,0,0,1,.224.8c.069.006.144.017.236.017a1,1,0,0,0,.918-.419,4.882,4.882,0,0,0,.373-2.06H59.695v-.27h1.343V4.887H59.695v-.23h1.343V4.026Zm-1.8.631h.964v.23H57.9Zm0-.849h.964v.218H57.9ZM57.72,6.85V6.844l-.752-.189a3.757,3.757,0,0,1-.579,1.3,3.6,3.6,0,0,1,.8.3,5.086,5.086,0,0,0,.5-1.3A6.785,6.785,0,0,1,57.829,8a7.064,7.064,0,0,1,.838-.132,6.409,6.409,0,0,0-.247-1.148Zm.884-.075A3.988,3.988,0,0,1,58.868,7.8a3.889,3.889,0,0,1,.763-.166,4.655,4.655,0,0,0-.344-1.027Z" transform="translate(260 47)"/><path d="M58.564,9.96a5.083,5.083,0,0,1-.436,1.975c-.069.155-.178.407-.316.407-.12,0-.373-.321-.373-.763A2.034,2.034,0,0,1,58.564,9.96m1.274,3.834a2.927,2.927,0,0,0,1.515-1.188,2.606,2.606,0,0,0,.408-1.417,2.043,2.043,0,0,0-.6-1.527,2.35,2.35,0,0,0-1.744-.7A2.818,2.818,0,0,0,56.6,11.636a1.813,1.813,0,0,0,1.28,1.819c.453,0,.855-.763,1.021-1.113a7.542,7.542,0,0,0,.631-2.554,1.355,1.355,0,0,1,1.326,1.406,1.844,1.844,0,0,1-1.613,1.8,3.54,3.54,0,0,1,.6.8" transform="translate(260 47)"/><rect width="5.182" height="0.964" transform="translate(316.567 62.195)"/><path d="M59.356,20.406h-.4v-.419h.4Zm1.171-.81a3.052,3.052,0,0,0,.866.626,3.408,3.408,0,0,1,.534-.694,3.654,3.654,0,0,1-.717-.4,3.44,3.44,0,0,0,.4-.447c.109,0,.178-.012.178-.069,0-.04-.029-.063-.057-.086l-.609-.425a4.145,4.145,0,0,1-.465.591,1.417,1.417,0,0,1-.166-.166,4.681,4.681,0,0,0,.367-.448.693.693,0,0,0,.092.006c.034,0,.126,0,.126-.086,0-.046-.029-.063-.057-.08l-.592-.391a3.185,3.185,0,0,1-.344.448c-.1-.132-.189-.241-.333-.459l-.654.264a6.151,6.151,0,0,0,.982,1.429H58.409a3.837,3.837,0,0,0,.763-1.194l-.189-.224H56.894v.689h.247l-.413.39a5.2,5.2,0,0,1,.505.454,2.448,2.448,0,0,1-.89.482,2.51,2.51,0,0,1,.58.579,4.742,4.742,0,0,0,.958-.665v.264h.3v.419H57.072v.751h1a1.6,1.6,0,0,1-1.424,1.005,4.135,4.135,0,0,1,.471.671,2.135,2.135,0,0,0,1.75-1.676h.488v.982a.59.59,0,0,0,.132.43.745.745,0,0,0,.534.184h.867c.631,0,.746-.235.969-.941a4.676,4.676,0,0,1-.734-.4,2.016,2.016,0,0,1-.161.505.309.309,0,0,1-.23.1H60.4c-.218,0-.229-.029-.229-.23v-.626H61.25v-.751H60.166v-.419h.361Zm-2.548-1.113a.788.788,0,0,1-.189.316c-.138-.127-.316-.259-.391-.316Z" transform="translate(260 47)"/><path d="M60.274,26.076h.471V25.1h.792c.034,0,.12,0,.12.092,0,.052-.028.069-.12.115v1.825h-.792v-.339h-.523a1.863,1.863,0,0,1-.677.987c.528,0,1.3-.011,1.819-.051a2.973,2.973,0,0,0,.574-.092,2.613,2.613,0,0,0-.315.849H58.805a1.588,1.588,0,0,1-1.286-.528c-.063.052-.212.155-.545.385-.012.063-.017.143-.109.143a.091.091,0,0,1-.08-.069l-.35-.7c.321-.143.671-.3.671-.465V26.213h-.534v-.769H57.95v1.785c0,.523.58.54,1.01.546a1.054,1.054,0,0,0-.522-.356,1.375,1.375,0,0,0,.9-.626H58.174V25.066l.832.034c.034,0,.068,0,.068.069,0,.052-.023.069-.108.132v.775h.5V24.882H57.995v-.706h.81a4.492,4.492,0,0,0-.482-.516l.643-.442a3.933,3.933,0,0,1,.694.74c-.086.075-.132.109-.27.218h.563a3.169,3.169,0,0,0,.453-.953l.844.31a.083.083,0,0,1,.063.081c0,.086-.081.08-.172.074a3.637,3.637,0,0,1-.259.488h.838v.706H60.274ZM57.06,23.321a5.348,5.348,0,0,1,.89.855,4.686,4.686,0,0,0-.626.54,6.787,6.787,0,0,0-.849-.809Z" transform="translate(260 47)"/><path d="M58.311,31.929H58.1v-.252h.212Zm-.183.6h.826V30.368h-.826v-.229h.884V29.5h-.884v-.241c.1-.063.109-.069.109-.115s-.035-.063-.057-.063l-.684-.052V29.5h-.964v.643H57.5v.229H56.63v2.158H57.5v.23h-.964v.694H57.5v.821h.632V33.45h.66l.287.786c.011.035.04.087.086.087.069,0,.074-.058.092-.184.723-.218,1.3-.419,1.675-.557.069.235.115.408.167.608a3.755,3.755,0,0,1,.815-.3,9.979,9.979,0,0,0-.781-2.118l-.746.3c.121.276.23.534.333.838-.27.092-.482.144-.78.218.183-.539.378-1.13.493-1.635H61.72V30.73H59.04V31.5h.517a15.928,15.928,0,0,1-.442,1.813.615.615,0,0,1-.1.017v-.573h-.884ZM58.1,30.937h.212v.252H58.1Zm-.6.992h-.207v-.252H57.5Zm-.206-.992H57.5v.252H57.3Zm1.871-1.028h2.342v-.717H59.167Z" transform="translate(260 47)"/><path d="M60.963,35.786H57.634v-.827h3.329Zm-.339.511h.081a1.67,1.67,0,0,0,.413-.052l.551.4c-.063.121-.344.678-.4.792A4.811,4.811,0,0,1,58.564,40a3.426,3.426,0,0,0-.62-.74,3.654,3.654,0,0,0,2.4-2.129H56.9V36.3Z" transform="translate(260 47)"/><path d="M59.787,45.657H58.8V43.046a10.309,10.309,0,0,1-1.589.815,2.752,2.752,0,0,0-.689-.821,7.936,7.936,0,0,0,2.21-1.056,8.725,8.725,0,0,0,1.7-1.572l.8.619a.109.109,0,0,1,.052.086c0,.052-.052.081-.109.081a.362.362,0,0,1-.115-.017,10.845,10.845,0,0,1-1.268,1.176Z" transform="translate(260 47)"/><path d="M60.619,47.086a.438.438,0,0,0,.287-.092l.579.408a3.224,3.224,0,0,0-.332.683,5.676,5.676,0,0,1-1.527,2.5,7.148,7.148,0,0,1-1.469.97,7.263,7.263,0,0,0-.643-.763,4.877,4.877,0,0,0,1.768-1.142,3.926,3.926,0,0,0,.929-1.733h-3.3v-.827Zm-.063-1.125a3.647,3.647,0,0,1,.551.568c-.19.121-.236.15-.5.345a5.058,5.058,0,0,0-.54-.591Zm1-.017a3.447,3.447,0,0,1,.5.631c-.161.1-.379.253-.476.322a3.6,3.6,0,0,0-.505-.649Z" transform="translate(260 47)"/><path d="M57.978,51.988a8.842,8.842,0,0,1,1.441.677c-.121.138-.465.625-.545.746a5.815,5.815,0,0,0-1.4-.718ZM57.4,53.25a6.153,6.153,0,0,1,1.349.786,7.118,7.118,0,0,0-.562.764,4.93,4.93,0,0,0-1.3-.781Zm-.189,3.1a8.34,8.34,0,0,0,4.04-3.042,2.842,2.842,0,0,0,.591.775,9.13,9.13,0,0,1-1.859,1.877,9.342,9.342,0,0,1-2.1,1.176c-.006.052-.023.144-.1.144-.04,0-.058-.029-.086-.081Z" transform="translate(260 47)"/><path d="M58.076,61.37v-.729h2.542v-.614h-2.41v-.735h2.41V58.73H58.133v-.74h3.3v3.563h-.815V61.37Z" transform="translate(260 47)"/><path d="M59.649,62.444c.086.006.126.006.126.063s-.046.08-.115.109V67.4H58.6V62.421Z" transform="translate(260 47)"/></g></svg>