<svg xmlns="http://www.w3.org/2000/svg" width="91.372" height="128.973" viewBox="0 0 91.372 128.973"><g transform="translate(-380.994 -47.649)"><path d="M130.169,105.622v4.156h-4.874V110.9h4.874v5.915a39.308,39.308,0,0,1-4.836,1.5l-.162.04.386,1.156.141-.038c1.757-.487,3.81-1.2,4.471-1.439v2.447h1.2V105.622h-1.2Z" transform="translate(260 47)" fill="#231815"/><path d="M138.971,115.745l-.028.542-.093,1.606c-.154,1.183-.249,1.183-.866,1.183H135.2c-.452,0-.452-.11-.452-.309V112.33c3.829-2.187,3.915-2.239,5.12-3.235l.1-.086-.7-1.1-.136.121a25.749,25.749,0,0,1-4.394,2.992v-5.4H133.53v13.431c0,1.189,1.026,1.189,1.412,1.189h3.249c1.327,0,1.639-.317,1.856-1.884,0-.006.084-1.1.084-1.1l.086-1.135-.118-.039Z" transform="translate(260 47)" fill="#231815"/><path d="M155.966,109.552l-.156,0h-8.188l-.029.46c-.041.663-.1,1.569-.252,3.138h-1.464v1.056h1.35a31.239,31.239,0,0,1-.8,4.693l-.044.16,1.122.216.044-.125a8.135,8.135,0,0,0,.277-1.078l0-.013h6.638c-.144.818-.3,1.28-.977,1.268l-2.252-.035.28,1.186h2.033c1.681,0,1.892-1.157,2.061-2.419h.976v-1.1h-.844c.091-.932.111-1.5.14-2.749h1.086v-1.056H155.9c.006-.29.064-3.6.064-3.6m-4.991,4.657a27.476,27.476,0,0,1-.359,2.749h-2.589c.2-1.251.286-1.9.386-2.749Zm.288-3.582c-.021.278-.179,2.286-.2,2.526H148.54c.106-1.193.154-1.933.185-2.526Zm3.561,0c-.005.247-.051,2.284-.057,2.526h-2.616c.015-.247.071-1.15.071-1.15l.062-.982c0-.007.008-.148.008-.148l.015-.246Zm-.1,3.582c-.014.812-.043,1.707-.129,2.749h-2.84c.03-.289.262-2.512.286-2.749Z" transform="translate(260 47)" fill="#231815"/><path d="M149.73,105.93l.042-.147-1.17-.341-.043.147a10.578,10.578,0,0,1-2.917,4.307l-.129.114.887.8.1-.1a14.323,14.323,0,0,0,2.172-2.6h8.291v-1.136h-7.645a5.612,5.612,0,0,0,.409-1.046" transform="translate(260 47)" fill="#231815"/><path d="M145.439,108.251l.133.11.662-1.024-.1-.087a13.142,13.142,0,0,0-2.49-1.512l-.231-.113-.073.12-.516.859.149.074a12.63,12.63,0,0,1,2.471,1.573" transform="translate(260 47)" fill="#231815"/><path d="M144.621,112.736l.129.117.724-1.022-.11-.091a8.474,8.474,0,0,0-2.557-1.728l-.121-.049-.068.112-.527.865.134.079a10.527,10.527,0,0,1,2.4,1.717" transform="translate(260 47)" fill="#231815"/><path d="M144.917,114.553a16.659,16.659,0,0,1-2.727,4.812l-.093.1.9,1.009.112-.153a26.374,26.374,0,0,0,2.837-5.159l.048-.117-1.009-.666Z" transform="translate(260 47)" fill="#231815"/><path d="M167.017,109.746h-3.086v8.125H172.7v-8.125h-4.517c.136-.311.349-.823.458-1.125h5.175v-1.1h-3.167a13.2,13.2,0,0,0,.828-1.567l.069-.158-1.188-.367-.045.148a12.26,12.26,0,0,1-.856,1.915l-.014.029H166.9c-.4-.7-.892-1.456-1.234-1.969l-.083-.125-.127.08-.736.464.335.527c.317.5.446.7.613,1.023h-2.928v1.1h4.679a6.772,6.772,0,0,1-.4,1.125m-1.887,5.689h6.4v1.38h-6.4Zm0-2.276h6.4v1.252h-6.4Zm0-2.357h6.4v1.348h-6.4Z" transform="translate(260 47)" fill="#231815"/><path d="M161.668,109.053l.1.136.9-.815-.089-.113a18.135,18.135,0,0,0-2.5-2.466l-.114-.1-.109.106-.684.76.13.1a15.431,15.431,0,0,1,2.36,2.391" transform="translate(260 47)" fill="#231815"/><path d="M163.523,118.371a2.4,2.4,0,0,1-1.437-1.94l0-4.6h-3.1v1.151H160.9v4.661a11.289,11.289,0,0,1-1.967,1.774l-.116.074.592,1.205.15-.123a26.813,26.813,0,0,0,2.148-2.179l.061-.067a5.6,5.6,0,0,0,4.542,1.772h7.462l.284-1.136H166.49a7.2,7.2,0,0,1-2.967-.593" transform="translate(260 47)" fill="#231815"/><path d="M190.681,118.131l-.2-.054a7.43,7.43,0,0,1-2.274-1.034h1.656V111.37h-9.274v5.673h2.1a8.432,8.432,0,0,1-2.489.873l-.205.041s.2.368.3.553a1.98,1.98,0,0,1-1.234-1.3v-5.348h-3.094V113h1.9v4.575a16.47,16.47,0,0,1-1.913,1.691l-.092.068.45,1.24.168-.144a22.826,22.826,0,0,0,1.993-1.99,6.119,6.119,0,0,0,4.74,1.708h7.572l.287-1.1H190.1l.582-.913m-1.957-2.049h-6.987v-.647h6.987Zm0-1.576h-6.987v-.6h6.987Zm0-1.513h-6.987v-.679h6.987Zm-4.778,4.521.125-.11-.373-.361h3.38l-.259.3.1.1a8.1,8.1,0,0,0,2.787,1.6h-6.44a9.97,9.97,0,0,1-1.919-.222,7.757,7.757,0,0,0,2.594-1.308" transform="translate(260 47)" fill="#231815"/><path d="M184.71,109.826H179.5v.976h11.519v-.976h-5.176v-.616h4.014V106.4h-4.014v-.813H184.71v.813h-4.124v2.807h4.124Zm1.136-2.463h2.878v.918h-2.878Zm-4.14,0h3.005v.918h-3.005Z" transform="translate(260 47)" fill="#231815"/><path d="M178.642,109.132l.1.132.934-.808-.087-.114a12.492,12.492,0,0,0-2.612-2.516l-.111-.079-.092.1-.668.725.126.1a13.7,13.7,0,0,1,2.411,2.456" transform="translate(260 47)" fill="#231815"/><path d="M208.3,109.826h-4.066a18.518,18.518,0,0,0,.594-1.842h2.581v-1.1h-6.036v-1.241h-1.216v1.241h-6.116v1.1h2.7a14.939,14.939,0,0,1,.571,1.842h-2.823v4.739a10.365,10.365,0,0,1-1.331,5.126l-.077.128,1.025.662.081-.139a11.784,11.784,0,0,0,1.518-5.857v-3.556h2.617l-.036.12a10.062,10.062,0,0,1-2.1,3.761l-.121.129.936.653.091-.091a7.112,7.112,0,0,0,1.22-1.626h3.28v1.857h-4.348V116.8H201.6v2.017h-5.909v1.1h12.4v-1.1h-5.3V116.8h4.189v-1.072h-4.189v-1.857h4.89v-1.088h-4.89v-1.72H201.6v1.72h-2.73c.3-.673.445-1.036.591-1.433l.06-.163-1.108-.262h9.9Zm-4.672-1.842a13.722,13.722,0,0,1-.537,1.842h-4.6c-.122-.5-.224-.829-.561-1.842Z" transform="translate(260 47)" fill="#231815"/><path d="M149.787,22.044c.005,0,.035.092.048.113.035.06,0,.15.017.217.03.148.1.289.133.437.006.078.011.155.016.232s.061.1.068.175a.136.136,0,0,1-.011.087c0,.048.07.116.087.172s0,.128.019.184a1.777,1.777,0,0,1,.164.706v.025h.025c0-.018.031-.024.05-.025l.057.081c.022.041.043.083.065.125l.088.108c.043.059.062.128.1.187a1.334,1.334,0,0,0,.128.132l.213.26c.106.094.236.167.35.251.045.038.089.075.135.112.062.039.124.044.175.1,0,.025.043.03.062.04a3.166,3.166,0,0,0,.529.179.744.744,0,0,0,.222.053l.067-.029c0,.019.02.021.035.029a.624.624,0,0,0,.266.046l.176.033.163-.053c.126-.022.26-.027.388-.04a2.092,2.092,0,0,0,.338-.072l.1,0c.027,0,.03-.045.049-.062a.222.222,0,0,1,.077-.033,1.558,1.558,0,0,0,.179-.031l.124-.093c.076-.05.153-.081.227-.139.044-.034.1-.071.14-.108.02-.02.039-.041.059-.063l.337-.264.063-.086a.815.815,0,0,1,.292-.244c.082,0,.175-.112.242-.155l.224-.133a2.13,2.13,0,0,0,.166-.19l.146-.126.068-.162c.042-.07.12-.113.16-.182.028-.05.033-.107.056-.158l.048-.1.057-.071c.006-.034.013-.068.02-.1.038-.122.108-.239.147-.363s.067-.247.1-.37c.006-.048.011-.095.017-.143l.048-.122c.011-.021.033-.036.041-.06.015-.073.029-.145.042-.217s.076-.119.087-.189c.009-.054,0-.106,0-.159.02-.079.039-.158.059-.237l.024-.21c.025-.063.083-.093.1-.163.019-.1,0-.367.09-.407,0-.048-.027-.084-.022-.136s.035-.127.051-.191c.013-.087.027-.176.04-.264.023-.072.046-.144.07-.216,0-.048.009-.1.014-.145.02-.079.047-.156.061-.239.022-.143.023-.285.044-.431.009-.03.019-.059.027-.089.012-.074.023-.149.034-.223,0-.045-.007-.089-.01-.134s.022-.109.034-.163a1.266,1.266,0,0,1,0-.175l.048-.211.037-.108c.019-.127.042-.265.053-.385l-.009-.133c0-.05.035-.087.039-.139.005-.108-.013-.225-.008-.333.014-.083.027-.166.041-.249.012-.112,0-.222.006-.333,0-.07.047-.12.048-.191s-.025-.17-.038-.255c.013-.049.025-.1.038-.149s0-.074,0-.111c.006-.109.016-.22.016-.334l-.015-.123c.014-.1.027-.207.041-.31,0-.111,0-.223-.009-.334,0-.049.01-.1.014-.149a3.721,3.721,0,0,1-.019-.383c.006-.1-.005-.194,0-.3.007-.041.014-.082.02-.123-.006-.093-.023-.2-.024-.3.01-.054.02-.107.029-.161,0-.033-.011-.067-.016-.1l.006-.119c-.006-.034-.013-.069-.019-.1s.015-.091.023-.138-.016-.072-.024-.109a3.526,3.526,0,0,0,.009-.358c-.007-.049-.014-.1-.022-.149l.015-.085-.009-.1c.012-.15.036-.285.061-.433.011-.039.022-.078.032-.118s-.009-.094,0-.142c.03-.126.076-.259.1-.387.012-.1.024-.2.035-.3,0-.04,0-.081,0-.121.018-.071.037-.141.055-.212h.013a.61.61,0,0,1,.032-.211c0-.057.007-.114.011-.17a1.865,1.865,0,0,0,.059-.3c.011-.059.021-.117.032-.175a1.962,1.962,0,0,1,.032-.2,2.969,2.969,0,0,1,.055-.358c.017-.068.045-.136.062-.2.005-.05.01-.1.016-.149.061-.243.112-.507.156-.755.005-.039.009-.08.013-.12.022-.1.059-.207.074-.313,0-.053,0-.106.008-.159s.035-.126.041-.187c0-.036.007-.072.011-.109.026-.072.052-.145.077-.217,0-.048.006-.095.008-.142.018-.077.06-.146.074-.226s.017-.134.025-.2l.039-.127c.006-.043.011-.087.016-.13s.027-.084.041-.125a1.948,1.948,0,0,0,.024-.223l-.018-.185a1.082,1.082,0,0,1,.011-.2,2.526,2.526,0,0,1,.126-.423.819.819,0,0,0-.013-.184,2.736,2.736,0,0,0,0-.395c-.013-.034-.027-.068-.041-.1-.015-.054-.031-.108-.047-.162a3.163,3.163,0,0,0-.133-.424c-.032-.067-.079-.127-.111-.193-.049-.1-.1-.195-.147-.292l-.137-.136a2.168,2.168,0,0,0-.121-.18c-.055-.062-.113-.117-.166-.181-.026-.035-.052-.072-.077-.108l-.193-.108-.265-.169c-.03-.013-.062-.025-.094-.037a2.18,2.18,0,0,0-.26-.131c-.1-.036-.211-.052-.322-.082-.085-.024-.166-.067-.253-.09a.764.764,0,0,0-.174-.012l-.1-.034a.83.83,0,0,1-.186-.033.452.452,0,0,1-.114-.1l-.084-.065a1.487,1.487,0,0,0-.158-.179l-.42-.288-.09-.029-.169-.076-.18-.1-.307-.053c-.093-.015-.231-.075-.327-.026a5.123,5.123,0,0,1-.515-.059l-.075.025a1.721,1.721,0,0,0-.484.077c-.066.021-.121.059-.192.076V.839H153.5c0-.016-.067.036-.09.042l-.1.009a.221.221,0,0,0-.08.03l-.123.046c-.062.04-.114.093-.175.133l-.127.064-.091.092c-.039.024-.078.049-.117.072l-.1.1c-.059.045-.119.088-.179.132a4.733,4.733,0,0,0-.257.418,2.475,2.475,0,0,0-.148.219c-.044.093-.063.2-.11.292-.02.036-.041.07-.062.106-.024.077-.049.154-.073.231l-.071.142c-.016.1-.033.195-.049.293a4.909,4.909,0,0,0-.157.646c-.014.066-.027.132-.041.2s-.007.15-.02.221a.766.766,0,0,0-.031.335c.016,0,.012,0,.012.013-.026,0-.033.042-.038.061l-.057.2-.009.246a2.144,2.144,0,0,0-.051.213c-.013.118.017.23-.051.321.008.037.017.074.026.111-.024,0-.029.02-.036.038-.024.061,0,.154-.006.222-.008.033-.018.067-.027.1,0,.053-.008.106-.011.159a1.269,1.269,0,0,0-.041.262c0,.033-.032.059-.04.089a1.023,1.023,0,0,0,0,.157.367.367,0,0,1-.031.088.931.931,0,0,0-.012.185,3.283,3.283,0,0,1-.08.5c-.026.137-.044.293-.06.433l0,.109c-.011.071-.036.151-.045.225a.9.9,0,0,1-.028.26,1.281,1.281,0,0,1,.009.2c-.013.086-.05.151-.064.237s-.009.18-.015.27c-.006.117-.044.24-.056.361,0,.058,0,.115.005.172-.006.126-.023.265-.025.4-.017.067-.034.133-.052.2,0,.057-.007.114-.011.171a1.227,1.227,0,0,1-.035.139c0,.045,0,.091-.005.136-.014.029-.028.058-.041.088l-.012.126-.045.058c-.017,0-.013,0-.013.013.085,0,.027.246.023.3s-.006.1-.01.154a.128.128,0,0,1-.047.056.75.75,0,0,1-.01.195c-.013.027-.027.053-.04.08,0,.045,0,.089,0,.133.027,0,.02.022.038.025,0,.1-.062.177-.067.272-.006.079.007.164,0,.247s-.025.187-.024.273c0,.037,0,.074.007.111-.011.062-.023.124-.035.186,0,.037,0,.073,0,.11s-.014.076-.02.114,0,.1,0,.147l-.033.113c0,.126.006.247,0,.37-.009.079-.018.157-.028.236l.009.149c-.006.087-.066.162-.067.247a1.67,1.67,0,0,1,.014.234c-.015.066-.03.133-.044.2,0,.043.03.065.027.11s-.03.092-.046.138c.006.143.046.3-.063.409.006.037.011.074.017.111L149.96,16c0,.047.01.1.01.149,0,.072-.036.134-.018.21-.025,0-.059.112-.087.136,0,.029.029.033.051.037s.012,0,.012.013c-.016,0,.021.111.051.123V16.7c-.023,0-.026.044-.03.064a3.361,3.361,0,0,0-.05.418.932.932,0,0,0-.019.186.725.725,0,0,0-.026.2.719.719,0,0,1,.014.2c0,.033-.008.066-.013.1l.009.1c-.006.034-.012.067-.019.1.005.05.009.1.014.149s-.009.124-.014.185c0,.037.007.074.01.111-.006.064-.028.131-.034.2,0,.037,0,.073,0,.11s-.019.083-.029.125l.006.186c0,.029.008.058.013.086,0,.046-.007.091-.01.136a2.4,2.4,0,0,1,.023.259.877.877,0,0,1-.039.153,1.358,1.358,0,0,0-.018.219,1.232,1.232,0,0,0,0,.235,1.133,1.133,0,0,1,.023.149l-.009.075c.005.049.012.1.017.148,0,.07-.037.255.018.309,0,.06-.037.126.014.173l-.03.088-.012.235c0,.033.008.065.013.1a1.4,1.4,0,0,1-.016.421c-.021,0,0,.036.013.05s-.038.047-.05.061.023.018.038.025" transform="translate(260 47)" fill="#00758d"/><path d="M165.107,33.952h.013c0,.02.032,0,.049,0a1.833,1.833,0,0,1,.546.219l.141.1a.851.851,0,0,0,.217.053c.054.014.1.056.153.066.114.021.229.028.348.047a.757.757,0,0,0,.141.022c.065,0,.145-.007.212-.016l.176-.03c.064,0,.112.021.175.015l.3-.053.114-.039.121-.015a2.361,2.361,0,0,0,.234-.107l.178-.067c.061-.046.12-.094.181-.14.087-.061.176-.121.263-.186l.072-.041a.6.6,0,0,0,.07-.093.314.314,0,0,1,.206-.117v-.013c.021,0,.013-.019.015-.035.007-.062.129-.174.169-.229.016-.035.031-.07.048-.1s.048-.057.074-.086l.068-.064c.03-.064.06-.128.091-.192.009-.037.017-.074.026-.11l.076-.09.137-.291c.016-.045-.011-.1,0-.152a2.449,2.449,0,0,1,.091-.239c.01-.054.021-.109.031-.164.049-.127.109-.254.153-.382.019-.077.039-.154.058-.23.021-.059.043-.118.065-.177s.016-.146.025-.219c.017-.094.051-.2.071-.288l.021-.18c.019-.06.037-.119.056-.178l.048-.345.027-.1c.009-.057.017-.115.026-.173s.007-.1.011-.151.03-.1.045-.147c.012-.164.022-.329.033-.494.013-.049.026-.1.039-.15s.018-.126.025-.185l.021-.357c.01-.055.05-.1.056-.152a.255.255,0,0,0-.019-.1c0-.045,0-.09,0-.134s.023-.07.034-.1.008-.063.013-.1l.021-.052c0-.041-.025-.072-.028-.11a2.206,2.206,0,0,1,.026-.222c-.005-.034-.009-.067-.014-.1.015-.1.03-.2.044-.3a2.877,2.877,0,0,1-.013-.309c0-.045.035-.076.034-.124,0-.123-.022-.256-.022-.372,0-.058.009-.115.013-.173,0-.136,0-.272,0-.408-.008-.054-.016-.108-.023-.162a3.47,3.47,0,0,1,0-.468c.007-.069.038-.135.046-.2a.983.983,0,0,0-.045-.394c-.022,0-.005-.044,0-.063-.005-.086-.011-.173-.016-.259,0-.1,0-.2.007-.31l.012-.135c0-.054,0-.107-.008-.16.006-.029.011-.058.016-.087-.005-.146-.067-.27-.077-.409,0-.079,0-.157.005-.235s-.027-.141-.041-.211c-.016-.208-.014-.421-.039-.63-.014-.066-.029-.132-.043-.2-.005-.048-.011-.1-.017-.145.005-.088.042-.172-.015-.249.02,0,0-.044,0-.063-.012-.09-.007-.191-.023-.282-.019-.076-.038-.151-.056-.227,0-.036-.005-.072-.007-.108-.011-.059-.005-.134-.018-.2s-.034-.146-.043-.224c0-.029,0-.058,0-.086s-.023-.086-.035-.128-.01-.1-.016-.143c-.006-.018-.013-.035-.019-.053-.009-.065,0-.124-.017-.183-.013-.034-.025-.068-.037-.1s-.009-.081-.013-.122-.019-.091-.03-.136c0-.074-.007-.147-.011-.221-.014-.054-.029-.108-.042-.162a1.132,1.132,0,0,0-.043-.358c0-.035.036-.063.036-.1,0-.053-.039-.081-.052-.126-.019-.07-.008-.14-.024-.207-.02,0-.012-.045-.015-.062-.021-.1-.063-.2-.084-.3s-.048-.221-.072-.332c-.011-.039-.023-.078-.035-.118l-.062-.118-.061-.167-.109-.134c-.051-.073-.082-.155-.136-.228l-.176-.195a1.943,1.943,0,0,0-.176-.2l-.1-.054-.153-.157a.8.8,0,0,0-.149-.092l-.127-.1c-.048-.037-.08-.122-.114-.138l-.094-.023-.049-.016-.088.01c-.162-.027-.291-.1-.452-.125s-.28-.033-.425-.058l-.115-.027a1.207,1.207,0,0,1-.237-.015l-.126.026v.012l-.086,0a.988.988,0,0,1-.2.041c0,.018-.013.015-.026.018a.9.9,0,0,0-.362.1.424.424,0,0,0-.179.065c-.058.025-.114.06-.171.084l-.148.055-.092.093-.123.077-.117.1c-.055.036-.121.022-.169.072l-.135.228-.191.18c-.024.034-.047.069-.071.1l-.1.085v.012a.111.111,0,0,1-.05-.024v.012c-.03,0-.049.043-.062.062V16.5c-.017,0-.013,0-.013.013a.144.144,0,0,1-.125-.037v-.012h-.013c0,.046-.379.119-.438.151a.776.776,0,0,0-.28.065c-.039.021-.055.056-.1.075l-.1.032a2.577,2.577,0,0,0-.436.25c-.072.055-.118.127-.186.185a1.794,1.794,0,0,0-.338.325.918.918,0,0,0-.179.253c0-.029-.016.019-.02.027-.048.112-.128.21-.178.321,0-.054-.084.175-.087.18-.022.04-.068.063-.079.108a.7.7,0,0,1-.031.152.082.082,0,0,1-.051.031.145.145,0,0,1-.037.1c0,.049.034.079.033.135,0,.094-.047.077-.07.141-.018.046-.008.1-.036.145,0,.033,0,.066,0,.1a1.184,1.184,0,0,1,0,.218,1.343,1.343,0,0,0-.034.275.916.916,0,0,1-.04.158c-.013.032-.037.041-.041.08,0,.074,0,.148,0,.222,0,.045-.011.091-.018.137a2.058,2.058,0,0,1-.007.209c-.005.038-.029.056-.039.089l0,.046a1.02,1.02,0,0,0-.035.163l0,.135-.024.126c0,.062.01.113-.03.16.008.034.017.066.025.1-.02,0-.037.024-.05.038h-.012c0,.04.02.071.013.111,0,.019-.023.019-.038.025s-.029.042-.037.062c.021,0,.034.014.051.024a.449.449,0,0,0,0,.1c.008.032.03.051.03.089a1.28,1.28,0,0,1-.041.162c-.009.081.012.158-.034.222a3.788,3.788,0,0,1,0,.593l-.073.2c-.009.062.03.112.034.172a.312.312,0,0,1-.032.115c-.005.031-.01.062-.016.093-.012.052-.057.076-.092.114h-.013c0,.022.02.019.038.024,0,.022.044,0,.063,0a.772.772,0,0,1,.012.1.633.633,0,0,0-.032.174,1.128,1.128,0,0,1,.04.221c-.008.071-.071.124-.069.2,0,.1.071.243-.007.334,0,.048.043.071.042.123,0,.07-.017.138-.013.211.006.119.027.247.027.37,0,.083-.007.165-.01.248s.015.14.023.21a1.221,1.221,0,0,0-.011.124c.006.046.012.091.017.136-.011.042-.023.083-.034.125a.642.642,0,0,1-.018.2c-.024,0,.016.036.025.049.02.03.008.062.011.1.007.07.015.14.022.211-.011.074-.022.148-.032.222s.022.138.017.211c.02,0,.012.02.012.037l.05-.013h.013c0,.067-.032.109-.032.173,0,.084.031.169.037.249,0,.062,0,.123,0,.185s.017.14.025.21c0,.029,0,.057,0,.086.005.056.048.092.05.149l-.021.173.018.111c0,.037-.007.075-.011.112s.034.056.042.077c.023.073.045.146.068.22s0,.172.009.259.026.207.04.308c.013.046.027.092.041.138l.018.131.03.068.006.12c.015.066.029.133.044.2a.078.078,0,0,0-.05.025h-.013c0,.017,0,.033,0,.05l.075.024v.025H161.8c0,.043.041.088.056.126.019.057.037.113.055.17s0,.134.016.194.048.124.066.189c.007.044.015.087.023.131l.031.069c.006.056.012.113.017.169.033.081.067.16.1.241l.045.162.063.093c.02.044.039.088.058.132s.051.079.076.118.035.085.052.128l.082.137c.011.036.022.072.035.108s.044.058.067.086.017.066.026.1l.039.059.036.112a1.2,1.2,0,0,0,.177.215c0,.012.053.029.068.044a2.913,2.913,0,0,0,.241.257c.047.039.108.057.151.1l.1.111c.059.049.143.058.2.114a.134.134,0,0,1,.024.1c.032,0,.048-.028.085-.025a.671.671,0,0,1,.317.171.853.853,0,0,1,.332.062c.031.012.051.044.084.052l.225.038a1.1,1.1,0,0,1,.246.026l.117.063v-.074" transform="translate(260 47)" fill="#231815"/><path d="M182.2,44.815l.117-.031a1.129,1.129,0,0,1,.186.016,1.4,1.4,0,0,0,.187-.036.945.945,0,0,1,.15.018,1.887,1.887,0,0,0,.131.191c.025.04.023.1.053.138s.085.06.12.1c0,.016,0,.011.012.014.056.012.092.064.134.1l.1.1a1.708,1.708,0,0,1,.16.093,1.813,1.813,0,0,0,.224.173c.048.028.115.035.163.062a2.076,2.076,0,0,0,.269.15l.2.042.142.059h.069c.064.018.128.034.193.051.109.02.24.024.351.037s.527-.079.574-.018c.016,0,.012,0,.012-.012l.089-.029.2-.014.12-.025.044.028h.038c0-.135.069-.1.157-.145.044-.024.07-.071.116-.091.081-.035.2-.042.272-.083.158-.092.324-.17.483-.261l.2-.091c.066-.037.119-.1.184-.134l.262-.125.132-.1c.063-.036.133-.06.2-.094s.1-.084.153-.118l.113-.062.144-.126c.113-.068.227-.129.336-.208.08-.067.161-.133.242-.2.03-.02.07-.02.1-.044l.208-.187c.159-.127.33-.248.493-.371l.081-.08.156-.106.133-.115.2-.147.108-.115c.038-.033.093-.022.121-.045l.145-.152c.057-.041.121-.087.183-.125.024-.011.046-.024.07-.036s.029-.036.045-.054.061-.053.093-.079l.05-.062c.094-.067.2-.134.286-.2l.087-.084c.054-.034.107-.069.16-.1a1.426,1.426,0,0,0,.11-.139l.1-.05.057-.063.117-.093c.136-.089.281-.159.41-.255.08-.06.139-.132.214-.2l.161-.1c.03-.024.059-.049.088-.074l.13-.061c.077-.054.137-.128.213-.18l.1-.05c.042-.028.071-.064.113-.091.083-.054.167-.1.251-.156.137-.083.253-.184.4-.261.073-.04.147-.074.222-.116l.192-.141.278-.131.147-.106c.084-.039.166-.084.249-.128a.394.394,0,0,0,.159-.106,2.187,2.187,0,0,1,.5.086l.1.007.09.022.374,0a2.765,2.765,0,0,0,.6-.147c.058-.021.132-.013.191-.033.075-.027.135-.074.209-.106a3.907,3.907,0,0,0,.359-.2,1.532,1.532,0,0,0,.216-.136c.069-.059.129-.128.2-.191l.1-.082c.077-.09.141-.208.218-.3a2.072,2.072,0,0,0,.27-.363c.114-.239.178-.5.271-.751.038-.1.077-.194.115-.292.006-.039.013-.078.019-.118.023-.047.045-.1.068-.144.006-.051.012-.1.02-.153.027-.076.056-.151.083-.227a2.684,2.684,0,0,0,.042-.593c.009-.086.017-.173.026-.259-.007-.034-.017-.067-.024-.1s0-.082,0-.123a.447.447,0,0,1,0-.206c.024-.059.082-.095.119-.147.018-.037.037-.073.055-.109.063-.075.136-.134.2-.212l.11-.177c.084-.1.168-.184.245-.287.036-.065.07-.132.1-.2.083-.12.193-.223.264-.351.014-.045.03-.091.044-.137a1.849,1.849,0,0,1,.106-.16c.034-.075.068-.151.1-.226.022-.031.042-.063.063-.094s.025-.053.037-.079l.088-.114c.009-.036.02-.072.03-.109s.045-.072.066-.108.037-.094.054-.141l.033-.056c.007-.034.014-.068.022-.1l.058-.107c.028-.063.055-.126.082-.189a5.925,5.925,0,0,0,.27-.743l.018-.191c.026-.077.053-.153.079-.23.012-.058-.007-.12.023-.17h.012a.308.308,0,0,1,.062-.161h-.013c0-.026-.033-.03-.042-.053-.013-.057-.027-.113-.041-.17a2.054,2.054,0,0,1,.026-.246c-.018-.111-.037-.222-.056-.333-.01-.045-.05-.069-.061-.114,0-.061-.01-.122-.016-.183-.011-.025-.023-.052-.035-.077-.019-.078-.04-.156-.059-.233l-.051-.142c-.024-.053-.056-.079-.064-.141-.018,0-.022-.009-.033-.02-.041-.039-.054-.108-.082-.154-.04-.067-.083-.134-.124-.2a1.774,1.774,0,0,0-.187-.212l-.113-.162a.918.918,0,0,0-.152-.133,3.294,3.294,0,0,0-.715-.453c-.085-.037-.176-.057-.26-.1a1.2,1.2,0,0,0-.212-.085l-.1-.007-.116-.034a2.487,2.487,0,0,0-.287-.01l-.1-.023-.161-.018-.038.025c-.06,0-.128-.018-.175.013V27.3a2.238,2.238,0,0,1-.3.027h-.013c0,.016,0,.012-.012.012,0,.021-.02.012-.037.013v-.013c-.021,0-.013.008-.013.025h-.013v-.012a.4.4,0,0,0-.212.088.357.357,0,0,0-.188.038c0-.017,0-.012-.013-.012,0,.018-.009.013-.023.018a2.468,2.468,0,0,0-.3.132h-.013c0,.021-.02.013-.038.014-.1,0-.132.045-.208.088a1,1,0,0,0-.142.074c-.017,0-.013-.005-.013.012-.055,0-.116.062-.163.085l-.133.048c-.045.022-.082.058-.129.078-.092.038-.269.074-.324.165l-.072-.011a.479.479,0,0,0-.158.065c-.108.053-.223.1-.329.155l-.064.052-.242.088c-.08.036-.165.071-.245.109l-.12.07-.117.032c-.053.025-.094.068-.147.095l-.278.106-.3.168-.1.027c-.067.042-.134.084-.2.125s-.134.055-.2.082l-.11.069-.19.07c-.1.051-.192.123-.3.169l-.2.068c-.108.052-.2.137-.306.189s-.231.082-.336.14c0-.017,0-.012-.013-.012,0,.02-.007.013-.023.019a.941.941,0,0,0-.221.146l-.118.072c-.016,0-.012,0-.012-.012-.019,0-.059.053-.081.065l-.17.072c0,.016.005.012-.012.013V30.4c-.036,0-.046.019-.075,0h-.013v.012c-.021,0-.037.032-.05.05h-.025v-.012l-.013.012c-.017,0-.02.01-.029.021a.3.3,0,0,1-.083.054c-.043.031-.086.062-.128.094-.029.01-.059.021-.088.033-.126.069-.244.158-.373.218l-.133.034-.222.13-.135.1a.8.8,0,0,0-.195.133c-.146,0-.211.087-.312.175a.288.288,0,0,0-.212.1H189.7c0,.017-.041.051-.05.075h-.012c0-.021-.008-.013-.026-.012,0,.02-.043.023-.06.03a1.156,1.156,0,0,0-.156.1.594.594,0,0,0-.106.048,1.639,1.639,0,0,1-.207.175,2.322,2.322,0,0,0-.288.129,4.33,4.33,0,0,1-.512.345l-.091.031c-.031.02-.063.039-.1.058l-.09.032-.066.05-.173.107-.158.126-.148.086-.121.047-.1.1c-.053.039-.111.074-.167.111-.1.067-.22.1-.321.157l-.085.1a1.838,1.838,0,0,0-.343.234.21.21,0,0,1,0,.025c0-.019-.158.113-.187.125,0,.016,0,.012-.013.012v-.012c-.065,0-.108.076-.149.114s-.106.068-.153.109a.548.548,0,0,1-.259.151c0,.07-.321.237-.377.285s-.092.111-.153.157a1.166,1.166,0,0,0-.194.132v.013l-.063-.013c0,.046-.053.112-.074.149V34.91c-.017,0-.013,0-.013.012a.185.185,0,0,0-.075.025v.013c-.018,0-.017-.013-.025-.025v.013h-.013l-.067.068c-.055.038-.109.077-.162.115-.1.093-.2.2-.3.294s-.251.188-.37.282c-.09.07-.148.165-.231.238a.648.648,0,0,0-.165.161l-.05-.012a.028.028,0,0,1,0,.013c-.025,0-.045.088-.061.111,0-.016,0-.012-.013-.012,0,.021-.015.016-.03.025l-.1.1-.162.125-.1.131c-.064.048-.134.079-.2.131l-.172.225-.179.156c-.054.058-.109.115-.163.172l-.054.085c-.06.073-.148.111-.211.175h-.012a.39.39,0,0,1-.125.124.027.027,0,0,0-.025.013c.026,0-.008.056-.018.07a1.057,1.057,0,0,1-.1.131.423.423,0,0,0-.154.135c-.024.033-.025.069-.052.1-.044.053-.1.089-.144.14-.027.032-.033.068-.07.092v.013l-.012,0a.061.061,0,0,0-.046,0l-.047.086a.936.936,0,0,0-.157.226c-.075,0-.086.071-.122.118l-.079.077-.047.129c-.02,0-.036-.018-.05-.025s-.144.255-.149.261c0-.02-.011-.012-.026-.012h-.037a.129.129,0,0,1-.074.124c0,.04-.037.074-.056.1l-.11.19-.062.06-.059.106a.258.258,0,0,0-.061.075h-.013c0-.024-.021-.03-.037-.037,0,.03-.029.055-.051.074,0,.029.027.049.039.074-.02,0-.017.013-.023.026a.787.787,0,0,1-.075.14l-.077.066a1.29,1.29,0,0,0-.136.24c-.016,0-.014,0-.025.013,0-.024-.014-.008-.025,0a.493.493,0,0,0-.074.211c-.046,0-.068.066-.074.1-.018.051-.036.1-.053.151s-.013.079-.018.119l-.033.079c-.027.157-.055.313-.083.47,0,.066,0,.131,0,.2a1.678,1.678,0,0,0-.036.174c0,.085.09.328.017.383,0,.024.022.028.038.037s.024.074.026.1a.915.915,0,0,0,.055.2.966.966,0,0,0,.029.155c.033.064.065.128.1.193a.862.862,0,0,0,.073.207c.121.169.221.351.339.522a2.272,2.272,0,0,0,.321.337c.043.044.085.089.127.133l.156.085c.08.051.155.1.236.147l.08.024.147.091a1.537,1.537,0,0,1,.152.058l.07.051c0,.024.05-.016.062-.025s.127.085.157.1l.194.018a.479.479,0,0,1,.113.035l.079.043c.026,0,.039-.01.06-.01a.461.461,0,0,1,.113.011c0-.018-.006-.01.011-.016a1.4,1.4,0,0,1,.339-.019" transform="translate(260 47)" fill="#231815"/><path d="M152.628,50.47c.055-.019.109-.039.164-.06l.2-.106.128-.055c.052-.033.072-.1.123-.13l.078-.041.085-.068.073-.017.071-.071c.052-.035.1-.071.157-.108.035-.025.108-.112.155-.1.023,0,.039-.072.137-.063v-.013c.017,0,.012,0,.014-.012a.189.189,0,0,1,.057-.114c.058-.058.137-.08.195-.131l.135-.139.091-.06.212-.2c.024-.026.047-.053.07-.079.049-.043.138-.106.175-.148l.065-.085a.043.043,0,0,1,.046-.018c0-.016,0-.012.012-.012,0-.021.019-.041.025-.062h.013c0,.023.021.029.037.037V48.6a.445.445,0,0,1,.155-.254c.021-.016.04-.034.06-.05l.055-.086.07-.065.094-.117.1-.157c.048-.04.1-.079.143-.12.012-.022.023-.045.033-.068.041-.062.083-.124.125-.185l.1-.083c.012-.032.022-.063.033-.094l.1-.11c.025-.049.048-.1.072-.146l.107-.1c.07-.075.071-.123.169-.178h.026a.139.139,0,0,0-.027-.062c-.016,0-.012,0-.012-.012.02,0,.018-.011.024-.026a1.408,1.408,0,0,1,.119-.2c.01-.026.02-.052.029-.078.022-.051.059-.1.083-.151a.792.792,0,0,1,.1-.12c.039-.053.072-.11.108-.164l.111-.184.039-.109.06-.067.08-.133c.048-.09.076-.187.127-.276.03-.052.068-.106.094-.159l.034-.087c.038-.068.086-.1.086-.194.018,0,.021-.008.035-.017l.007,0,.009-.01c.022-.033.035-.141.056-.187l.079-.141.061-.069c.007-.025.013-.052.02-.078s.044-.063.058-.1a3.177,3.177,0,0,1,.116-.323c.027-.052.07-.092.094-.146.033-.08.04-.17.069-.25.015-.035.029-.069.042-.1s.067-.067.077-.106l.012-.2c.007-.043.044-.064.057-.1s.011-.115.031-.167c.035-.093.15-.177.1-.288v-.013h.013c0,.021.02.013.038.012v-.012c.03,0-.012-.061-.026-.074,0-.045.037-.078.052-.116s.025-.087.038-.131.021-.113.031-.171c.014-.03.027-.061.04-.092l.006-.133c.027-.124.085-.233.109-.363.02-.111-.01-.233,0-.344.006-.076.048-.125.05-.2.005-.195-.03-.392-.031-.581.006-.041.013-.082.02-.123a2.136,2.136,0,0,1-.026-.285c.008-.053.015-.106.022-.16s-.027-.089-.034-.138-.01-.089-.016-.133-.038-.093-.058-.14c-.006-.064-.012-.129-.019-.193-.012-.03-.025-.06-.038-.09s-.018-.079-.028-.118l-.051-.1h.025c.027,0-.036-.112-.043-.135s-.014-.064-.021-.1l-.052-.084-.057-.157c-.024-.071-.047-.143-.071-.214l-.138-.236-.03-.076a1.235,1.235,0,0,1-.1-.142c-.016-.043-.032-.087-.049-.13a.776.776,0,0,0-.086-.1l-.114-.2-.055-.044c-.049-.049-.086-.1-.136-.151l-.073-.086-.071-.034-.125-.1-.068-.081-.148-.122-.138-.079c-.079-.054-.14-.15-.224-.193l-.179-.066-.109-.053-.094-.018c-.054-.03-.107-.061-.16-.092l-.159-.055c-.064-.017-.131-.019-.2-.034l-.094-.041-.069-.006c-.061-.015-.108-.037-.164-.056,0-.019-.008-.013-.026-.012,0,.018-.012.015-.025.024-.1,0-.263-.1-.351-.059-.072,0-.134,0-.2,0s-.145-.027-.212.01l-.214-.011-.16.021-.08.026-.1-.026a.566.566,0,0,0-.224.031v.013h-.012a.117.117,0,0,0-.038-.087c-.01.029-.02.056-.03.084-.049.066-.156.053-.22.091a1.313,1.313,0,0,1-.188,0c0,.018-.127.049-.15.063v-.012c-.088,0-.167-.027-.238.014a.029.029,0,0,1,0-.013c-.078,0-.126.057-.192.078s-.158,0-.222.036l-.254.077a1.718,1.718,0,0,1-.194.014c-.048.008-.081.053-.121.076a.587.587,0,0,1-.1.032l-.078.053v-.012a1.408,1.408,0,0,0-.351.1.871.871,0,0,0-.181.09c-.043.019-.083-.014-.127,0l-.075.052-.092.047v.013c-.079,0-.08.021-.141.042l-.1.033c-.112,0-.1.063-.178.094a1.007,1.007,0,0,1-.16.032.049.049,0,0,1,0-.012,1.055,1.055,0,0,0-.152.1l-.086.04a.525.525,0,0,0-.231.089l-.1.035-.068.054-.076.022a2.137,2.137,0,0,0-.21.1l-.071.071-.06.041c-.021,0-.02-.022-.025-.037h-.026c0,.022-.018.042-.024.062h-.013c0-.026-.081-.006-.1,0,0,.069-.227.176-.287.2,0,.012,0,.009-.013,0-.053,0-.1.065-.142.093l-.1.045a.6.6,0,0,1-.3.137c0,.066-.113.086-.163.088v-.012c-.022,0,0-.025,0-.038-.017,0-.012.005-.013-.011-.018,0-.014.009-.017.023-.017.073-.171.162-.232.2v.012h-.012c0-.039-.058-.027-.078-.013-.051.038-.071.1-.124.136l-.089.03a2.436,2.436,0,0,0-.239.167c-.081.056-.284.164-.319.254l-.082.005-.063.062a1.6,1.6,0,0,0-.205.158v.013H146.9c0-.028-.062-.032-.08-.016s-.009.045-.007.066H146.8a.21.21,0,0,1,0-.025h-.026c0,.016,0,.012.013.012,0,.061-.107.114-.137.162-.16,0-.174.123-.325.138,0,.016-.009.022-.018.033a1.571,1.571,0,0,1-.214.136,1.091,1.091,0,0,1-.205.168c0,.012,0,.007-.012,0-.083,0-.131.092-.187.137v.013h-.013v-.013c-.021,0-.021-.022-.025-.037h-.026c0,.053-.059.107-.1.136,0,.02-.025,0-.038-.012h-.012v.013c-.034,0-.113.133-.14.16a4.24,4.24,0,0,0-.317.312c-.025.04-.049.079-.074.117s-.078.02-.109.053a.372.372,0,0,0-.055.1l-.09.106-.168.118c-.063.079-.125.158-.188.236l-.162.149c-.021.041-.044.082-.065.122l-.133.127c-.022.04-.045.08-.067.121a3.445,3.445,0,0,1-.233.263c-.021.034-.042.067-.062.1a.69.69,0,0,1-.167.13c-.022,0-.025.036-.033.052a1.416,1.416,0,0,1-.109.152,1.136,1.136,0,0,1-.126.187c-.033.035-.081.045-.109.088l-.036.069-.056.064-.079.146c-.067.094-.162.164-.228.255s-.069.181-.194.206c0,.091-.111.164-.124.273a.2.2,0,0,0-.088.049c-.021,0-.015.032-.018.049-.014.061-.06.086-.1.131-.01.024-.021.049-.032.073l-.148.219c-.023,0-.006.025,0,.038s-.014.007-.025,0h-.025a2.261,2.261,0,0,1-.24.354c-.026.04-.018.094-.029.14l-.048.1c-.044.072-.11.126-.159.2-.031.057-.063.112-.1.169a.52.52,0,0,0-.124.235h-.05v.05c-.082,0-.118.236-.147.292-.014.026-.042.036-.064.056h-.012a.267.267,0,0,1-.01.1c-.022.055-.079.091-.1.146s-.031.109-.046.164l-.167.307c-.034.074-.09.3-.146.342-.037.1-.075.191-.112.287l-.075.078c-.047.107-.013.132-.111.218l.012.1c-.016.065-.058.114-.079.175s-.027.1-.04.143-.043.066-.065.1-.017.062-.026.092c-.03.067-.061.133-.091.2a1.119,1.119,0,0,0-.022.195c-.013.044-.028.088-.041.133a.262.262,0,0,1-.017.028c-.022,0-.013.019-.015.038-.009.08-.059.137-.074.212,0,.039,0,.077,0,.116-.014.019-.029.038-.044.056,0,.092-.024.165-.023.26-.056,0-.083.209-.087.26-.019,0-.019.009-.024.025a.662.662,0,0,0,.022.273c.006.071-.028.128-.021.2.011.038.023.076.036.113l0,.209c.01.083.041.148.047.236.01.066.019.133.028.2-.006.036-.013.073-.019.11,0,.053,0,.106,0,.16l.024.087c0,.034-.007.067-.01.1s.014.059.022.088l.015.208.024.114c0,.077-.02.143-.017.223.005.028.011.057.016.085v.1c.027.082.055.163.083.244.016.038.048.063.059.1.018.067,0,.16.025.224a1.778,1.778,0,0,0,.164.307l.071.062a4.2,4.2,0,0,1,.265.369c.01.032.02.064.031.1s.043.008.063.012.037.021.049.037c.049.06.1.119.146.179l.076.06.052.059.106.049c.025.027.051.054.076.082a1.37,1.37,0,0,1,.264.247.367.367,0,0,1,.2.056l.075.07a2.092,2.092,0,0,0,.363.183l.121.03.114,0c.081.022.161.057.24.075l.122.013.153.038c.041,0,.083,0,.124,0l.277.041.187.014c.142,0,.3-.043.415.046h.012c0-.046.092-.05.127-.056h.3c.107-.008.188-.055.289-.067s.207.011.311,0l.118-.043a.507.507,0,0,1,.284-.015c0-.017,0-.011.01-.018.07-.038.081-.015.155-.031s.159-.031.247-.046l.339-.09.125-.053.074,0q.035-.012.069-.027l.08-.01.081-.043.1-.02.222-.085c.08-.028.152-.088.232-.117l.22-.065c.059-.024.117-.05.175-.075s.108-.013.153-.043c.069-.045.148-.073.22-.112l.083-.058.113-.038c.062-.031.108-.089.174-.111a.232.232,0,0,1,.108,0c0-.033.063-.1.091-.118s.091-.016.126-.041a2.15,2.15,0,0,1,.208-.139l.073-.029.158-.124.09-.041.136-.1.211-.157a1.551,1.551,0,0,0,.2-.088l.157-.162c.1-.077.224-.134.322-.218.045-.039.077-.091.118-.13l.183-.116c.1-.1.205-.207.3-.308.027-.034.054-.069.082-.1l.114-.094a.823.823,0,0,0,.2-.137c.02-.029.04-.06.06-.091.041-.043.1-.084.14-.124s.049-.084.1-.115a.707.707,0,0,1,.166-.037l.081-.04c.1-.033.2-.049.3-.083,0-.02.008-.011.024-.009.1.012.157-.072.241-.1.041-.013.079-.007.123-.019.021,0,.032-.026.049-.037,0-.017,0-.012.015-.012.071,0,.149-.122.217-.148l.093-.017c.074-.032.132-.091.206-.125m-13.075-.785c0,.021.008.042.013.061-.023,0-.013-.042-.013-.061" transform="translate(260 47)" fill="#de0515"/><path d="M135.393,51.757a1.01,1.01,0,0,0,.142-.064l.3-.243.144-.106c.063-.06.1-.144.169-.2,0-.025.017,0,.025.012h.013a.441.441,0,0,1,.087-.181l.039-.107.084-.081.072-.133c.043-.066.086-.132.128-.2.06-.149.115-.3.183-.449.021-.035.041-.07.062-.1l.086-.188.079-.114.021-.1c.033-.1.073-.2.112-.3.021,0,.006-.034,0-.05-.009-.107.053-.133.065-.212.015-.1.017-.193.031-.3a.53.53,0,0,1,.044-.113.881.881,0,0,0,.041-.186c0-.046-.027-.064-.032-.1-.006-.069-.012-.139-.019-.208,0-.053.005-.107.007-.161l-.006-.148c.008-.033.016-.067.025-.1l.009-.173c0-.087-.062-.136-.081-.21a1,1,0,0,1-.008-.147,1.455,1.455,0,0,0-.069-.248c.018,0,.018-.016.022-.03.02-.078-.112-.315-.126-.415a.1.1,0,0,1,.051.025c0-.017.015-.026.025-.037.028,0-.021-.047-.032-.056a.841.841,0,0,1-.233-.409.63.63,0,0,1-.065-.2c-.053,0-.06-.1-.076-.129-.033-.067-.081-.125-.11-.194-.043-.1-.069-.219-.121-.318-.07-.121-.141-.242-.212-.362a3.371,3.371,0,0,0-.25-.27c-.025-.034-.05-.067-.074-.1l-.12-.08-.055-.1a2.3,2.3,0,0,0-.3-.206.951.951,0,0,0-.219-.153c-.021,0-.048-.033-.067-.041a1.445,1.445,0,0,1-.284-.107.516.516,0,0,1-.089-.1c-.042-.049-.085-.076-.129-.119l-.138-.149c-.064-.054-.151-.074-.217-.122l-.077-.082-.13-.084-.091-.092c-.046-.037-.093-.046-.126-.1-.06,0-.1-.071-.126-.111v-.012a1.128,1.128,0,0,1-.316-.079l-.146-.037a.392.392,0,0,0-.216-.041c-.039,0-.112-.083-.157-.1a1.654,1.654,0,0,0-.22-.036c0,.013,0,.016-.012.025H132.7c0-.018-.032-.009-.05-.007a2.29,2.29,0,0,1-.464-.039l-.1.05c-.078.023-.16-.017-.238-.013a.828.828,0,0,0-.238.065v.013l-.139-.026a.762.762,0,0,0-.563.166v-.012a1.213,1.213,0,0,0-.449.25h-.025c0-.023-.014-.007-.026,0-.1,0-.168.095-.249.138v.012a.026.026,0,0,1-.025-.012h-.025c0,.034-.121.087-.15.125a.071.071,0,0,1-.05-.025H129.9l-.01.027c-.034.058-.085.079-.133.118a4.214,4.214,0,0,1-.487.34l-.159.123-.1.132-.078.049-.072.074c-.05.038-.106.069-.154.111s-.081.113-.135.161c-.036.031-.084.048-.111.089l-.078.134c-.017,0-.013,0-.013.013h-.012v.012l-.075-.012v.062c-.079,0-.08.11-.111.153-.051.069-.1.1-.125.182-.075,0-.218.213-.237.274h-.012l-.013-.049h-.013v.012c-.021,0-.034.015-.05.025,0,.086-.017.079-.049.143s-.046.168-.077.219l-.192.273c-.034.066-.068.132-.1.2v.012c-.021,0-.029-.022-.037-.037h-.025a.593.593,0,0,1-.116.3l-.043.084-.115.072c0,.04.041.062.036.107l-.059.123-.033.125-.12.242c-.015.094-.031.188-.047.282-.021.063-.042.125-.064.188l-.018.185c0,.018-.012.015-.025.025h-.013a1.417,1.417,0,0,1-.077.363l-.018.228c-.018.072-.037.143-.055.214,0,.044,0,.088.005.132-.012.027-.023.055-.035.082-.01.058.033.092-.013.145,0-.034-.012.041-.012.049a.092.092,0,0,0,.05-.025h.012c0,.029.009.058.013.087-.02,0-.023.025-.027.041a1.287,1.287,0,0,0,.062.589c0,.041,0,.082.005.122l.027.113.015.125c.029.08.057.16.086.239,0,.014,0,.028,0,.042l-.011.027c.01.026.019.052.028.078a1.81,1.81,0,0,0,.1.309c.024.054-.005.118.013.175s.078.063.1.109.074.112.1.172.04.1.061.155l.149.148.074.115c.045.047.1.079.147.126.092.088.171.191.271.277a2.55,2.55,0,0,0,.264.173c.064.042.109.145.2.133.019,0,.014.009.019.023.033.1.133.153.2.227l.055.107c0,.024.057.041.075.05l.109.066.083.075c.066.037.134.089.2.12l.178.067a1.945,1.945,0,0,0,.288.162,2.057,2.057,0,0,0,.234.076c.066.016.112.01.163.057v.012a.483.483,0,0,1,.147,0c.03.015.059.031.088.047.067.028.124-.013.179-.036,0-.017-.005-.012.012-.012,0,.018.012.017.026.023a.558.558,0,0,0,.3-.021l.14.012c.049-.008.1-.017.149-.024h.124l.176-.033c.019,0,.027-.02.042-.026l.162-.049a.566.566,0,0,1,.109,0,.4.4,0,0,0,.124-.042l.112-.075c.124-.067.706-.361.815-.236.033,0,.072-.047.1-.062,0-.024.037,0,.052,0a1.573,1.573,0,0,0,.45-.07c.041-.019.071-.051.112-.073v-.012a.163.163,0,0,0,.138,0l.14-.067.107-.026a.716.716,0,0,1,.155-.1.541.541,0,0,1,.109-.014l.138-.034c.142-.04.278-.106.422-.147.073-.021.128-.073.205-.089.06,0,.112-.028.163.012.024,0,.1-.086.13-.1.09-.049.188-.069.28-.116.074-.037.137-.1.217-.139" transform="translate(260 47)" fill="#231815"/><path d="M139.565,49.746c0-.02-.008-.041-.013-.061,0,.019-.009.061.013.061" transform="translate(260 47)" fill="#231815"/><path d="M163.4,56.061c-.009-.059-.019-.116-.029-.175,0-.031.005-.064.007-.1a.569.569,0,0,1-.019-.088c0-.1.023-.21.016-.31,0-.073-.025-.138-.026-.222.005-.046.009-.091.013-.137-.006-.07-.013-.139-.019-.21a.576.576,0,0,1,0-.358c-.023,0-.031-.032-.041-.048a.647.647,0,0,1-.061-.384h-.013c0-.018-.01.006-.012.013-.022,0-.016-.123-.022-.147-.017-.065-.079-.108-.11-.167l-.147-.292-.1-.138c-.021-.041-.042-.084-.064-.126l-.112-.134a1.142,1.142,0,0,0-.072-.1,1.364,1.364,0,0,0-.156-.132c-.027-.034-.055-.067-.083-.1-.057-.051-.126-.084-.184-.13a3.1,3.1,0,0,0-.3-.245c-.087-.051-.189-.055-.278-.1l-.262-.153-.154-.031a.883.883,0,0,0-.167-.055l-.253-.022h-.093c-.03-.015-.061-.031-.092-.045v.012a.123.123,0,0,0-.1.05l-.063-.012h-.038l-.163.013a.49.49,0,0,1-.15-.011h-.013c0,.043-.15.031-.187.038-.06,0-.123.054-.177.071s-.128,0-.174.031a.479.479,0,0,0-.3.137h-.013c0-.022-.043-.013-.062-.012,0,.029-.041.05-.064.059a.872.872,0,0,0-.241.113l-.1.115a1.393,1.393,0,0,1-.414.286.14.14,0,0,0,.025.075V52.9c-.093,0-.116.13-.155.182a.55.55,0,0,1-.143.13v.049c0,.032-.061.09-.078.118l-.087.171c-.01.03-.021.06-.03.09-.037.066-.1.1-.1.179.021,0,.013-.02.013-.037h.012c0,.029,0,.058,0,.086-.071,0-.12.149-.165.183l-.156.075a1.4,1.4,0,0,0-.13.1c-.119.078-.267.137-.335.275-.062,0-.106.06-.163.076a.236.236,0,0,1-.017.108,1.154,1.154,0,0,1-.111.11l-.062.089-.073.064c-.07.078-.062.141-.16.2l.014.062c0,.025-.031.046-.042.068l-.045.085c-.03.034-.06.068-.092.1l-.045.093c0-.019-.011-.019-.025-.025,0,.022-.058.045-.075.063-.017,0-.012-.005-.012.012h.012c0,.016,0,0,.012.011h.013c0,.024-.043.031-.062.038a.458.458,0,0,1,0,.111h.026c-.027,0-.1.229-.174.26a.668.668,0,0,1-.074.286h-.038c0-.02-.008-.041-.013-.062h-.037v.013c-.034,0,.009.073.026.086,0,.016,0,.013-.013.013,0,.026-.024.053-.037.074v.013h.012a.251.251,0,0,0-.111.137c-.021.055-.074.259-.124.285v.012c-.017,0-.012,0-.012.012-.052,0-.017.057-.032.088a.128.128,0,0,1-.068.049c0,.169.035.308-.1.421h-.012c0,.031.029.047.05.062v.013H155.3V57.52l-.016.029c-.024.061-.048.121-.071.182a.934.934,0,0,1-.123.348.112.112,0,0,0,.038.074.572.572,0,0,1-.049.173c-.009,0-.017.088-.049.111a.857.857,0,0,1-.089.277c-.007.034-.014.068-.022.1s-.034.047-.05.072c-.037.106-.015.206-.111.281,0,.016.009.033.014.05,0,.047-.527.366-.574.5h-.013c0-.012-.008-.025-.013-.037h-.025a.157.157,0,0,1-.112.162c0,.016,0,.012-.012.012,0,.031-.03.037-.025.074a.732.732,0,0,0-.137.125h-.013c0,.021-.019.012-.037.012,0,.157-.092.129-.136.237a.888.888,0,0,1-.081.212c-.025.072-.027.157-.054.229l-.058.1-.036.195-.105.278a1.652,1.652,0,0,1-.044.37.15.15,0,0,1-.069.076l-.008,0-.012.006h-.025c0,.077.145.128.026.247a.532.532,0,0,1-.024.185c-.02,0-.012.008-.007.024a.473.473,0,0,1-.066.3,1.229,1.229,0,0,1-.049.26c0-.013-.039.1-.062.124.005.029.009.057.014.086,0,.057-.041.135-.024.2-.007.021-.014.042-.02.063a.724.724,0,0,0-.016.271c-.054,0-.062.262-.048.322-.021,0-.047.028-.062.037,0,.067,0,.235-.049.273a.126.126,0,0,0,.026.075c0,.012-.006.007-.013,0s-.013.009-.015.024c-.008.065-.035.124-.044.186a1.127,1.127,0,0,1-.026.211c0,.014,0,.014.013.024-.029,0-.017.134-.074.174v.012c.019,0,.02.023.025.037s0,.031,0,.049a3.962,3.962,0,0,0-.032.57h-.037c0,.155.013.309,0,.47-.012.046-.024.091-.037.136,0,.1,0,.19,0,.285l-.012.089c0,.04.008.08.011.121s-.038.085-.041.139.021.1.031.147a.352.352,0,0,1-.026.1c-.006.049-.013.1-.02.148.011.066.02.131.029.2,0,.091-.009.181-.014.272a.218.218,0,0,1-.067.149v.087c.018,0,.018-.011.025-.025h.012c0,.176-.011.355-.013.532l.018.21h.051c0,.029,0,.058,0,.086.021.047.041.093.061.14.031.091.057.177.085.268a.421.421,0,0,0,.05.139l.131.1c.022.041.043.083.065.125l.158.185c.046.072.109.132.161.2.028.038.042.092.08.12l.091.049.054.056a1.735,1.735,0,0,0,.176.112l.124.1c.058.033.133.018.182.07.023,0,.1.068.141.081l.18.04.1.052c.165.055.335.1.5.155.066.024.157-.005.22.023.029.013.028.054.032.087.016,0,.032-.008.049-.013s.026.027.038.038h-.012a1.861,1.861,0,0,0,.057.273c0,.053,0,.106,0,.159a1.043,1.043,0,0,0,.044.173c.011.052.006.1.015.158a1.858,1.858,0,0,0,.164.324v.036h-.025c0,.086.109.152.154.216l.077.134.042.114a1.485,1.485,0,0,0,.162.183c.036.048.071.1.106.145a3.829,3.829,0,0,0,.539.472.777.777,0,0,0,.126.089l.06.017.09.071.078.02a1.109,1.109,0,0,0,.2.077l.08.011c.074.026.13.081.208.1.06.018.134,0,.2.015l.155.049.288.028.2.029.065-.02h.16c.054-.007.1-.038.153-.044l.171-.021.118-.044.159-.028.139-.058.158-.048.13-.1c0,.02.032.007.05.012s.139-.11.162-.124a1.011,1.011,0,0,1,.155-.053.7.7,0,0,0,.139-.128.925.925,0,0,1,.126-.077.618.618,0,0,0,.191-.229l.113-.025c0-.022-.014-.034-.025-.049h.012c0-.018,0-.015.014-.024a.677.677,0,0,0,.11-.157c.019-.02.038-.04.056-.061l.039-.077c.031-.041.064-.082.1-.123.017-.046.034-.093.052-.139.032-.068.079-.139.108-.207l.039-.13c.047-.147.1-.289.147-.438a2.442,2.442,0,0,1,.068-.369c0,.027.043-.04.047-.055a.176.176,0,0,0-.01-.082c.021,0,.026-.043.025-.063a.6.6,0,0,1,.034-.21c.029-.115.065-.222.092-.336.02-.082,0-.172.032-.245v.013l.01-.017c.008-.039.015-.078.023-.118a.638.638,0,0,0,.064-.312c.04,0,.039-.146.045-.185s.021-.1.032-.149l.049-.1c.006-.045.013-.089.019-.134.022-.066.045-.133.067-.2.005-.048.011-.1.016-.144.022-.09.053-.182.071-.276.012-.064.008-.135.025-.195s.031-.136.054-.2.074-.141.05-.222v-.012h.063v-.012h.012l-.018-.087a.824.824,0,0,1,.078-.358c0-.089.037-.126.045-.2,0-.053.005-.107.008-.159.01-.034.02-.067.029-.1.016-.083.025-.166.044-.246.013-.053.049-.086.058-.14a2.661,2.661,0,0,1,.047-.331l.05-.081a.905.905,0,0,0,.027-.205c.009-.029.017-.059.026-.089,0-.049.005-.1.007-.147l.05-.013a3.018,3.018,0,0,1,0-.456c.021-.068.042-.134.062-.2.029-.1.039-.2.061-.307.016-.08.051-.16.071-.239,0-.056.009-.113.013-.17l.024-.1a.535.535,0,0,1-.006-.12c.015-.058.03-.118.045-.178.013-.085.025-.17.036-.257.018-.058.035-.117.052-.175.014-.095,0-.2.019-.3s.049-.183.074-.274c0-.044.008-.089.013-.134l.036-.1c0-.042.009-.083.013-.125s.02-.107.031-.161-.007-.116,0-.171.021-.083.031-.125c.007-.062,0-.121.007-.185.007-.029.014-.059.02-.087s0-.074-.008-.11l.04-.077a1.358,1.358,0,0,0,.035-.2l0-.235c.01-.041.019-.083.028-.125l.009-.221c.026-.2.062-.4.074-.608.008-.041.017-.083.025-.125,0-.089-.006-.179-.01-.268.005-.042.044-.07.051-.115s-.005-.107-.007-.16c0-.1.018-.2.022-.284,0-.037-.007-.074-.01-.111l.018-.112c0-.12.005-.239.007-.359a.654.654,0,0,1,.029-.125l.015-.222c.007-.125-.052-.421.037-.495v-.024c-.039,0-.03-.116-.026-.148-.022,0,.007-.027.011-.042.011-.043-.014-.079-.011-.121,0-.082.007-.165.011-.247-.005-.032-.01-.065-.016-.1s.013-.059.02-.089.006-.081.01-.122c.011-.094,0-.18,0-.273a3.813,3.813,0,0,0,.034-.482" transform="translate(260 47)" fill="#231815"/><path d="M212.356,60.961c0-.054,0-.108,0-.161-.009-.029-.018-.058-.028-.088l.018-.11-.034-.161c-.005-.043-.011-.087-.017-.131l-.1-.143a1,1,0,0,1-.126-.245c-.036-.1-.047-.21-.076-.318-.012-.03-.024-.061-.037-.091-.007-.054-.015-.109-.022-.165s-.076-.08-.109-.118-.04-.084-.068-.12l-.066-.066-.034-.1c-.019-.039-.063-.065-.085-.1s-.026-.063-.04-.094-.046-.057-.07-.085-.046-.074-.068-.111a1.506,1.506,0,0,1-.165-.206c-.025-.06-.049-.119-.074-.178a.407.407,0,0,0-.083-.078.536.536,0,0,1-.05-.074c-.024-.024-.046-.049-.07-.073s-.024-.073-.037-.11a1.4,1.4,0,0,0-.1-.117l-.03-.076-.117-.089c-.049-.068-.1-.137-.146-.206l-.073-.069c-.014-.028-.028-.058-.043-.086a.509.509,0,0,0-.085-.067l-.071-.087-.081-.149a.515.515,0,0,0-.178-.154c-.027,0-.035-.092-.059-.115-.052-.049-.118-.086-.168-.133s-.076-.087-.121-.126l-.109-.067c-.04-.037-.038-.093-.082-.127s-.116-.036-.163-.076-.056-.1-.091-.148l-.092-.079c-.11-.074-.288-.034-.395-.129-.032-.051-.063-.1-.093-.155a1.594,1.594,0,0,0-.176-.051,2.321,2.321,0,0,1-.348-.114l-.1-.045-.132-.018-.1-.052-.129-.011-.121-.053c-.077-.029-.153-.041-.233-.063l-.317-.106a.146.146,0,0,0-.136.066h-.013v.013h-.013c0-.018-.012-.018-.025-.023-.066-.025-.141-.025-.209-.048l-.094-.042a.11.11,0,0,0-.086.016l-.063-.012h-.012c0,.036-.107.031-.138.038h-.025v.013c-.087,0-.216-.114-.3-.085-.072,0-.124.036-.189.04-.113,0-.319-.109-.375.013a1.5,1.5,0,0,1-.343-.1c-.1-.022-.192-.033-.284-.062-.042-.013-.078-.059-.127-.047-.089,0-.138-.057-.218-.074-.115-.025-.183.116-.3-.034H204c0,.02-.025.02-.038.025s0,.012-.013.012a1.294,1.294,0,0,0-.137-.025,1.375,1.375,0,0,1-.141-.052L203.3,54.6a1.266,1.266,0,0,0-.247-.033.679.679,0,0,1-.146.012c-.083-.018-.246-.094-.33-.06l-.1.013-.075.013a1.036,1.036,0,0,1-.324-.043c-.05-.017-.09-.051-.141-.066l-.125-.012c0,.019-.061.041-.075.063-.073,0-.129-.047-.192-.063l-.145-.008-.128-.025a.206.206,0,0,0-.1.025,1.259,1.259,0,0,1-.2-.023c0,.02-.023.012-.037.008-.148-.033-.207-.082-.364-.031,0,.025-.027,0-.038-.011h-.012c0,.018-.014.016-.025.024-.066,0-.219-.052-.276-.022a.3.3,0,0,0-.126.062c-.022,0-.064-.053-.092-.062a1.511,1.511,0,0,0-.2-.034l-.137-.023-.1.048c0,.016,0,.012-.012.012,0-.013-.074-.012-.094-.023s-.03-.031-.045-.05v-.013H199.4V54.3l-.076.023a.713.713,0,0,0-.225.053c0,.012-.005.007-.013,0l-.338-.085-.088.076-.188-.034c-.1,0-.162.044-.251.044l-.187-.029c-.081,0-.125.063-.2.07-.1.008-.233-.025-.3.041-.045,0-.079-.029-.117-.037l-.084,0c-.1,0-.185-.051-.276.014a.321.321,0,0,0-.225.063c-.127,0-.358-.1-.451,0-.059,0-.105-.042-.164-.011-.063,0-.1.032-.163.033-.092,0-.211-.049-.3-.018a.113.113,0,0,0-.113.062c-.016,0-.012,0-.012-.012-.049,0-.1-.022-.163-.02l-.175.034c0,.021-.073-.005-.088-.012s-.012,0-.012.013c-.02,0-.013-.011-.013-.025v-.012c-.017,0-.013-.005-.013.012-.073,0-.139.057-.2.078l-.145.016-.106.031a.506.506,0,0,1-.173-.028.428.428,0,0,0-.173.02l-.11,0-.059.034-.159.044a1.454,1.454,0,0,1-.2,0l-.139.026-.123.007c-.061.008-.093.057-.166.068-.118.017-.249-.047-.351.026l-.01.009a1.058,1.058,0,0,0-.126,0c0-.019-.026-.022-.042-.025-.082-.02-.13.031-.2.044l-.172.006-.117.042c-.043,0-.082-.017-.122,0-.085,0-.151.029-.227.032h-.186c-.041.007-.067.037-.1.043s-.083-.029-.134-.021c-.066.011-.12.063-.192.076s-.122-.012-.185,0c0-.016,0-.012-.013-.012,0,.023-.054.032-.074.038,0,.016,0,.012-.013.012,0-.018-.045.007-.063.013v.012l-.113-.049c0,.017-.007.033-.011.05a.27.27,0,0,0-.114.038c0,.022-.025,0-.04,0a.586.586,0,0,0-.285.042c-.073.014-.161-.01-.226.028a.418.418,0,0,0-.148.019.32.32,0,0,1-.09.032v.012l-.088.019-.1.007-.12.054-.1.022a.637.637,0,0,0-.275.051c0,.018-.051-.005-.075,0l-.139.022a.617.617,0,0,0-.136,0,1.109,1.109,0,0,0-.231.1l-.17.1h-.013c0-.05-.223.035-.25.052l-.151.013v-.012c-.018,0-.037.018-.05.024a.2.2,0,0,1-.151.014v.012a1.993,1.993,0,0,0-.237.113c-.041.01-.083.019-.125.027s-.11.042-.165.064H187.4a1.118,1.118,0,0,0-.23.12l-.148.053h-.013c0,.021-.034-.006-.05-.011,0,.026-.021.044-.037.062,0-.017,0-.013-.013-.013,0,0-.125.059-.15.076v-.013l-.113.038c0,.008-.068,0-.087.025l-.076-.012c0,.041-.2.145-.237.187,0,.017.005.013-.012.013,0-.035-.112.034-.13.039l-.083.012c-.1,0-.237.165-.319.214a.754.754,0,0,1-.181.073c0,.017,0,.013-.012.013v-.013c-.037,0-.063.04-.091.056-.07.04-.144.083-.215.121a1.567,1.567,0,0,0-.163.07l-.151.126a1.294,1.294,0,0,0-.138.058l-.114.116-.1.038c-.04.046-.081.092-.121.139-.078.076-.177.131-.254.206-.049.048-.082.1-.129.144l-.076.049-.089.013c0,.063-.269.3-.326.359l-.062.073-.088.064-.073.087-.1.065c-.019,0-.014.02-.017.036l-.005.022c-.016.048-.082.07-.116.1s-.07.1-.112.148a1.042,1.042,0,0,1-.114.087c-.022.027-.045.054-.068.08l-.078.133c-.067.1-.132.191-.2.285-.021,0-.025.064-.034.083a2.963,2.963,0,0,0-.141.295c-.007.034-.015.068-.021.1-.018.052-.05.1-.066.156s0,.131-.047.17a2.175,2.175,0,0,1-.054.433l-.024.076a1.112,1.112,0,0,0,.043.33.512.512,0,0,1,.037.1c.013.108.018.218.027.322l0,.084.057.1.024.138a1.838,1.838,0,0,1,.2.439c.079,0,.1.1.126.161.02,0,0,.032,0,.048.066,0,.216.239.228.3a1.417,1.417,0,0,1,.162.089l.03.02a.412.412,0,0,1,.1.133l.115.1.172.1.065.058.061.029.078.064a3.158,3.158,0,0,0,.322.085l.108.056c.122.027.328.029.42.11.011.01.022.019.031.029s.014.021.02.032v.012c.021,0,.028-.023.038-.037.051,0,.083.042.138.042.076,0,.153-.025.226-.029l.237.012.142-.035.121,0,.127-.032.309-.034c.032-.02.064-.038.1-.058.126-.059.257-.113.384-.169l.164-.074a.4.4,0,0,0,.1-.034c.073-.054.125-.129.2-.187l.161-.1a2.039,2.039,0,0,0,.19-.182l.075-.049a2.12,2.12,0,0,1,.155-.179l.189-.093c.037-.04.075-.078.114-.118l.108-.054v-.025h.013v.012c.009.064.2.171.246.238.028.04.01.106.045.144v.013l.009-.006a.091.091,0,0,1,.063-.018l.021.007c.079.051.1.137.163.195l.1.053a2.013,2.013,0,0,0,.2.181.475.475,0,0,0,.106.029l.109.067.145.048c.072.029.16.053.23.09l.116.063c.034,0,.067.01.1.015l.085.039.386.073c.053.015.1.06.153.067.094.011.177-.048.263-.056.107-.01.215.027.325.021.04,0,.066-.027.1-.03.062-.006.126.007.185,0l.166-.043a.37.37,0,0,1,.1.02h.148a2.363,2.363,0,0,0,.24-.05,1.01,1.01,0,0,1,.135,0c.034-.009.068-.019.1-.027l.25.03c.063,0,.1-.054.152-.061l.125.032a.667.667,0,0,0,.249-.1c.017,0,.059.038.075.049s.037-.023.053-.028l.086-.018.287-.036.149,0,.16-.031c.034-.012.053-.038.092-.041a.289.289,0,0,1,.113.027c0-.066.425-.095.5-.1l.135-.01a1,1,0,0,1,.179-.041c.059,0,.113.015.174.006l.1-.041c.075-.008.142.024.223.016.058-.007.1-.053.151-.067a.87.87,0,0,1,.123,0c.051-.008.1-.018.151-.027a.868.868,0,0,1,.129.03c.066.01.125.009.185.022.005-.016.008-.033.013-.049a1.24,1.24,0,0,1,.269.125,1.225,1.225,0,0,0,.459.147l.226-.015.264.047.376.016.075.016.088,0,.177.014c.085,0,.174-.016.261-.009.046.01.093.017.139.025.068,0,.112-.034.187-.028.1.01.212.057.314.059.072,0,.136-.044.214-.046l.226.046c.07.007.118-.028.186-.025l.274.027.129.05c0-.021.056-.041.076-.048.155-.059.327.037.476.053.109.011.226,0,.338.006.064,0,.116.025.176.031a.762.762,0,0,1,.188.025c0-.044.1-.019.126-.018a.548.548,0,0,1,.122,0l.222.081a.452.452,0,0,0,.107-.018,1.7,1.7,0,0,1,.239-.02c.1,0,.317.137.409.08l.03-.029a.255.255,0,0,0,.1-.013c0-.023.043,0,.059.007l.084.043.359.043a1.243,1.243,0,0,1,.236-.005c.112.027.223.053.336.078.04.017.047.076.1.079.066,0,.074-.1.148-.1l.394.1c.1.014.184-.042.271-.031a.73.73,0,0,1,.131.052l.109,0,.225.043c.079,0,.143-.05.225-.02.053,0,.1.051.153.059a1.211,1.211,0,0,0,.324.01l.171-.029c.032.017.065.035.1.051l.117.016.092.027c.1.01.224-.057.325-.019l.129.04a.491.491,0,0,0,.135.015c.106,0,.154-.056.274-.042a.839.839,0,0,1,.155.063.819.819,0,0,0,.473-.009c0,.021.034.028.051.035l.076.011a.83.83,0,0,0,.237.045,1.583,1.583,0,0,1,.263-.016c.108.011.2.071.314.044,0,.018.03.045.038.061h.012c0-.1.233-.105.277-.014.026,0,.043-.02.066-.026a.317.317,0,0,1,.147,0,.139.139,0,0,1,.024-.062l.073,0c.043.007.061.033.1,0a1.6,1.6,0,0,0,.175-.024c.062-.007.124-.015.185-.024.027-.011.053-.024.08-.036.052-.015.107,0,.158-.014l.1-.058.119-.012c.047-.025.1-.048.145-.074l.118-.011c.03-.017.061-.033.091-.051l.127-.022c.037-.013.068-.04.1-.053s.074-.009.1-.029l.121-.113.171-.119c.016-.021.03-.045.045-.067l.071-.065c.032-.039.062-.079.093-.119,0-.014.069-.032.088-.05.091-.087.194-.183.293-.266l.117-.084c.056-.06.113-.119.169-.178l.148-.114a4.006,4.006,0,0,0,.231-.42c.046-.077.143-.2.136-.293.019,0,.026-.034.029-.052s0-.063.007-.094.028-.052.032-.091,0-.088,0-.132c.009-.022.018-.044.029-.067.008-.048,0-.1.016-.144a.5.5,0,0,0,.039-.126c0-.071-.007-.14-.01-.21" transform="translate(260 47)" fill="#bb7960"/><path d="M176.45,72.587c-.013-.034-.026-.067-.038-.1l-.015-.121c-.024-.084-.049-.167-.074-.25-.009-.057-.017-.114-.026-.171-.03-.105-.075-.215-.1-.325-.008-.038.008-.081,0-.124-.032-.153-.08-.3-.113-.455a1.369,1.369,0,0,0-.07-.282h-.012a.155.155,0,0,0-.017-.144c-.028-.038-.021-.079-.036-.123-.022-.065-.056-.128-.078-.194l-.021-.1c-.029-.09-.086-.174-.109-.264-.01-.051-.021-.1-.032-.155-.036-.08-.071-.16-.107-.241a.465.465,0,0,1-.023-.22c-.019,0-.019-.011-.026-.025-.025-.047-.055-.092-.078-.141l-.018-.1c-.024-.064-.048-.129-.071-.193-.005-.027-.008-.054-.011-.081a1.065,1.065,0,0,1-.127-.408c-.019,0-.023-.019-.033-.032a.476.476,0,0,1-.1-.13.905.905,0,0,1-.018-.118c-.012-.045-.126-.257-.166-.262a.794.794,0,0,0-.107-.344c-.013-.029-.024-.058-.037-.088a1.122,1.122,0,0,1-.076-.105c-.036-.078-.066-.16-.108-.236s-.079-.116-.11-.181c-.04-.083-.079-.167-.118-.25-.032-.059-.09-.111-.123-.17s-.027-.127-.062-.18c-.026-.03-.054-.06-.08-.091-.031-.048-.063-.1-.093-.145l-.054-.066-.081-.162c-.033-.044-.066-.09-.1-.134-.016-.034-.033-.069-.049-.1l-.1-.1c-.033-.05-.039-.107-.07-.157a.54.54,0,0,0-.186-.173c-.022,0-.016-.04-.021-.06a.507.507,0,0,0-.225-.276l-.074-.043c-.027-.03-.056-.059-.084-.088v-.013h-.012a.751.751,0,0,1-.243-.2c-.007-.019-.015-.04-.023-.059l-.037-.012V64.4l-.023,0c-.077-.038-.142-.142-.211-.2-.049-.039-.1-.05-.152-.088l-.07-.078-.174-.149a1.488,1.488,0,0,0-.186-.1l-.155-.129a.947.947,0,0,1-.188-.134v-.013a.7.7,0,0,1-.289-.06c0-.021-.023-.008-.038-.007-.138.013-.3-.166-.4-.113a1.105,1.105,0,0,1-.253-.054c-.063-.015-.126-.014-.185-.03,0,.012-.005.015-.013.023l-.126-.023c-.051.031-.089.015-.149.022l-.1.018a.319.319,0,0,0-.151.012h-.012c0-.025-.039.027-.05.038v-.013a1.091,1.091,0,0,0-.551.177,1.076,1.076,0,0,0-.455.193l-.1.043c-.087.053-.129.155-.243.152-.013.033-.025.067-.038.1-.109,0-.311.264-.364.356-.014.028-.029.056-.043.085-.035.039-.092.046-.128.083-.026,0,.013.027.025.037s-.032.048-.04.066c-.024.056-.048.113-.071.169,0,0-.074.18-.163.186,0,.076.015.123-.048.174,0,.062-.008.08-.063.1,0,.081,0,.118-.061.162a.509.509,0,0,1-.008.146c-.023.079-.085.136-.106.217-.006.048-.013.1-.019.143l-.066.166c-.036.149-.023.3-.145.406l.044.125c.007.065-.025.094-.034.149,0,.039,0,.079,0,.118s-.2.125-.246.142v.012h-.038v-.012c-.024,0-.031.054-.054.068l-.2.117-.091.094-.137.113-.082.1-.152.122-.144.2-.073.074-.04.074-.078.094a2.138,2.138,0,0,0-.142.293.4.4,0,0,1-.042.108.093.093,0,0,1-.047.027v.013h-.012c0-.022-.017,0-.026.012s-.012.008-.012.025l.05.012c0,.012,0,.025,0,.037-.074,0-.053.153-.049.2h-.013v.012c-.018,0-.037-.017-.05-.025v.013h-.025c0,.068.044.119.039.21h-.038c0,.053-.034.088-.039.137l.012.134c-.005.125-.03.268-.022.4,0,.069.017.15.022.224,0,.036,0,.073,0,.109a.742.742,0,0,1,.011.224c-.021,0-.013.007-.013.024h.013v.012l.062-.013v.012c-.019,0-.013.009-.014.025a.447.447,0,0,0,.049.2c.013.036,0,.074.007.11a.629.629,0,0,1,.049.136c-.017,0-.012,0-.012-.012-.028,0,.025.147.026.185l-.037-.012v.012h-.013v.062c.063,0,.092.051.114.1s.015.1.023.148,0,.078,0,.118c.022.035.044.071.067.106l-.006.121a1.265,1.265,0,0,0,.034.195l.044.056a.634.634,0,0,1,.076.134l.035.1c.005.029.009.058.013.088l.049.063c.029.062.05.125.085.186.024.04.048.08.071.12s.027.086.041.13.041.083.055.13a.678.678,0,0,0,.033.129l.109.132.044.108c.029.045.057.091.085.136a.746.746,0,0,0,.1.219c.021,0,.016.054.022.072.019.074.1.1.142.15l.083.115a.322.322,0,0,1,.063.12.255.255,0,0,0,.028.091c.032.048.09.075.128.119l.167.294c0,.014,0,.014.013.017a.983.983,0,0,1,.328.377l-.05-.012c-.026,0-.024.042-.025.062h.013c0,.026.082-.018.1-.026a.062.062,0,0,1,.044.029,2.937,2.937,0,0,0,.223.239l.117.144c.025.023.067.028.1.055.036.048.073.093.109.141l.078.059.057.067c.05.046.128.053.17.1a1.618,1.618,0,0,1,.142.224l.062.067a.609.609,0,0,1,.115.225h.012c.087.049.168.218.247.3.056.06.12.1.176.159.034.037.068.073.1.11l.148.09a.9.9,0,0,0,.219.175l.117.036c.027,0,.024.053.026.075l.1-.026c0,.025.058.056.08.068a2.166,2.166,0,0,0,.471.143c.032.009.056.033.091.037.088.011.174.009.259.027l.17.052a1.315,1.315,0,0,0,.259-.025,3.249,3.249,0,0,0,.449-.047,2.1,2.1,0,0,1,.415-.1l.2.018h.261l.09.007.235-.028c.06-.012.119-.026.178-.039l.234-.018.128-.039a3.713,3.713,0,0,0,.437-.086c.163-.048.308-.133.464-.194a1.651,1.651,0,0,0,.446-.256c.07-.057.17-.069.227-.146.013-.029.025-.058.037-.088.089,0,.543-.566.624-.658.012-.022.025-.045.037-.069s.019-.026.029-.04l.061-.06a1.077,1.077,0,0,1,.09-.137l.092-.078a.42.42,0,0,1,.088-.139c.023,0,.015-.042.019-.061l.108-.228c.01-.047.019-.1.029-.143l.1-.24.027-.169c.011-.047.031-.089.038-.139s0-.112,0-.161c.006-.033.011-.066.016-.1a.882.882,0,0,1-.005-.2c.015-.043.049-.074.054-.124s-.011-.124-.01-.185.015-.124.024-.186,0-.14,0-.21a1.818,1.818,0,0,0,.031-.211c0-.057-.031-.1-.039-.163l0-.157" transform="translate(260 47)" fill="#231815"/><path d="M132.75,69.447a1.547,1.547,0,0,1,.034-.235c-.009-.044-.018-.09-.026-.135,0-.131.05-.424-.046-.507,0-.025.009-.05.014-.074s-.009-.066-.014-.1a2.642,2.642,0,0,0-.019-.271,1.646,1.646,0,0,0-.033-.17,1.04,1.04,0,0,1-.05-.152c-.01-.066-.03-.137-.034-.2,0-.032,0-.065,0-.1-.015-.04-.05-.06-.069-.1s-.023-.084-.035-.126c-.027-.055-.077-.1-.105-.152-.015-.032-.032-.066-.048-.1a.453.453,0,0,0-.035-.12,1.813,1.813,0,0,0-.175-.2c-.021-.034-.041-.068-.061-.1l-.081-.091-.084-.13-.133-.106-.085-.093c-.086-.053-.173-.107-.259-.162l-.051-.057-.084-.046-.074-.056a2.5,2.5,0,0,0-.468-.166c-.065-.019-.112-.085-.175-.106l-.142-.013c-.092-.015-.186-.054-.279-.069L130,65.518v.012c-.11,0-.266.013-.339-.072h-.025c0,.1-.23.085-.288.113a1.708,1.708,0,0,0-.213.043.437.437,0,0,1-.137-.016c0,.01-.094.039-.113.088h-.037a.745.745,0,0,0-.158-.2c-.037-.021-.074-.045-.11-.067l-.155-.167-.083-.066-.07-.032c-.124-.1-.292-.281-.47-.263,0,0-.1-.106-.113-.123h-.038c0,.019-.01.012-.025.012-.036,0-.067-.036-.094-.051l-.159-.067a2.643,2.643,0,0,0-.285-.036c-.074-.015-.149-.043-.216-.063l-.173-.024-.128-.037a.573.573,0,0,1-.263.049l-.1-.012a.815.815,0,0,0-.252.066v-.013c-.079,0-.219.086-.3.065a.211.211,0,0,0-.125.086c-.017,0-.013,0-.013-.011a.175.175,0,0,0-.112.049.305.305,0,0,0-.182.035l-.069.065-.118.061a.373.373,0,0,1-.07.05l-.124.016a.13.13,0,0,1-.045.078l-.1.065-.235.236c-.04.024-.08.046-.121.069-.024.038-.049.074-.074.112l-.066.048a.264.264,0,0,0-.058.089c0,.023-.026.024-.045.034-.061.035-.068.108-.1.158l-.069.05a.929.929,0,0,0-.137.2c0,.009-.012.063-.026.057h-.006c0,.016-.009.022-.018.033a1.036,1.036,0,0,0-.109.2l-.049.059a1.825,1.825,0,0,0-.188.368c-.043.12-.076.246-.11.37l-.018.107c-.013.039-.056.062-.064.105s0,.055,0,.082c-.006.047-.013.092-.02.137,0,.076.023.116-.03.174h-.012a2.527,2.527,0,0,1-.031.273c0,.041,0,.082,0,.123-.009.058-.017.116-.025.174s.012.112,0,.168a2.04,2.04,0,0,0-.056.217c.005.036.009.073.013.109s-.03.05-.044.078a.219.219,0,0,0,0,.108s-.013.148-.049.174c0,.084.016.227-.061.272.006.042.01.082.015.124a.629.629,0,0,0-.013.186c-.017,0-.015,0-.02.017a.843.843,0,0,0-.03.279.558.558,0,0,1-.028.128c-.011.052-.021.105-.031.158,0-.018-.012-.018-.025-.025v.013c-.021,0-.018.017-.019.037s.006.065.009.1c-.014.093-.1.15-.063.251-.062,0-.088.259-.084.322a.506.506,0,0,0,.024.112c-.022,0-.041.078-.05.1-.016,0-.012-.005-.012.012.02,0,.02.021.025.037.026,0-.025.072-.037.087s-.013,0-.01.012c.015.093-.037.146-.051.236.026,0-.016.019-.025.025v.049h.013c0,.017.007,0,.013-.012h.012v.05c-.086,0-.048.412-.11.483,0,.044.028.078.025.124-.02.093-.039.187-.059.279l-.054.083c-.005.044-.011.087-.017.131-.019.071-.038.143-.056.215,0,.028,0,.056,0,.085,0-.016,0-.016-.013-.025a.173.173,0,0,1-.061.149.711.711,0,0,1-.036.359c-.015,0,0,.1-.006.122l-.03.076c-.015,0-.011.075-.018.1a.871.871,0,0,0-.062.3c0,.051.026.081.017.135a.593.593,0,0,1-.046.166l-.048.075c-.024.085.1.207-.05.243v.012c-.034,0-.007.195,0,.223-.018,0-.025.015-.037.025v.037c.057,0,.018.113,0,.136.006.033.011.066.017.1s-.015.066-.022.1l-.009.135c-.006.038-.027.055-.037.09a.824.824,0,0,0-.013.195c0,.088-.051.1-.006.2-.024,0-.055.038-.075.05,0,.032.068.182.014.2-.012.045-.025.09-.037.136s-.01.115-.014.173c-.008.037-.015.075-.022.112.005.1.01.205.016.308a.958.958,0,0,1-.053.186l-.024.174-.039.151c0,.11,0,.219-.007.328a.115.115,0,0,1-.086.079c0,.114-.011.225-.007.333.006.029.011.059.015.088-.009.058-.02.115-.03.173,0,.032,0,.065,0,.1l-.054.236a1.535,1.535,0,0,1-.022.236c-.006.029-.013.057-.02.087a.978.978,0,0,0,.008.123l-.006.074a.893.893,0,0,1,.021.2c0,.025-.036.057-.041.088,0,.061,0,.12,0,.181a1.333,1.333,0,0,0-.069.2c.009.083.017.165.024.247-.01.058-.02.116-.031.174,0,.14,0,.28,0,.419-.019.063-.039.125-.059.187-.009.108.007.3-.07.371.015.038.03.074.044.112.013.075-.028.119-.033.186a.482.482,0,0,1-.01.153c-.015.015-.032.029-.048.044,0,.047.047.087.039.16a.108.108,0,0,0-.012.137c0-.022.014-.006.025,0v-.012h.013a.409.409,0,0,0,0,.1c-.074,0-.037.256-.024.26s.009,0,0,.013c0,.046-.021.085-.023.136,0,.07.008.141.012.211,0,.142-.01.292-.009.432,0,.025-.021.037-.037.05,0,.108.03.1-.037.2-.022,0,.006.057.011.075a1.068,1.068,0,0,1,.05.382l-.033.263c0,.044,0,.088,0,.131a.714.714,0,0,0-.024.127c.005.037.01.073.014.111l-.018.149c.006.029.012.057.019.087,0,.066,0,.133,0,.2-.006.033-.013.064-.019.1,0,.142,0,.28,0,.421,0,.036-.011.073-.017.11.009.062.017.125.026.187s0,.132,0,.2-.03.112-.029.173c0,.087.042.165.046.248,0,.033-.006.065-.009.1,0,.081.012.157.02.233.007.06-.026.11-.029.163s.013.107.018.161-.007.082-.01.123.02.067.031.1a1.425,1.425,0,0,0,0,.16h.038c.029,0-.027.209-.036.235,0-.021-.008-.012-.025-.012,0,.016-.008.032-.013.049h.013c0,.022.013.006.025,0h.025c0,.051-.039.1-.041.161,0,.092.059.157.069.246.006.057-.016.1-.008.161a2.254,2.254,0,0,1,.052.285c-.009.087-.018.174-.027.259h.012v.013c.019,0,.018-.014.025-.026h.013a.976.976,0,0,0-.007.122l.024.1c0,.094-.027.19-.018.284.026.124.051.248.077.371s.049.423.133.495c.021,0,.013.019.017.036.019.127.123.22.162.336.026.079.012.162.072.222.027.028.059.034.083.065l.048.091.108.1c.029.033.035.069.064.1s.062.043.093.066.034.04.052.06l.087.063.045.051.085.046a3.556,3.556,0,0,0,.326.241l.179.089c.049.029.106.112.161.126l.091.013a1.278,1.278,0,0,0,.206.069l.187.022c.086.012.121.088.214.041h.013c0,.017.008.034.013.05.031,0,.051-.019.087-.017a.857.857,0,0,0,.327,0c0,.017.03.007.049.005a2.362,2.362,0,0,0,.553-.045,1.849,1.849,0,0,1,.351-.107l.2-.036c.043-.022.075-.066.117-.091l.279-.151.114-.106.168-.1a2.318,2.318,0,0,0,.184-.187c.067,0,.122-.116.157-.156l.107-.1c.023-.031.045-.063.068-.1a.813.813,0,0,0,.125-.144l.015-.069c.015-.033.031-.065.047-.1.042-.077.106-.163.139-.242a.91.91,0,0,1,.087-.234c.021,0,.016-.078.021-.1l.036-.09a1.526,1.526,0,0,1,.026-.169c.018-.039.037-.078.056-.118,0-.043.005-.087.007-.131s.047-.061.046-.1-.038-.074-.043-.124l0-.309c0-.028.008-.057.012-.086L127,89.081c0-.053,0-.106,0-.159s-.028-.1,0-.162c-.029,0-.035-.073-.038-.1l.1.012a.171.171,0,0,0,.075-.025c0-.024.033-.005.05,0,0,.015.055.01.073.017a2.543,2.543,0,0,0,.264.075c.071.019.111.066.2.073s.225-.03.337-.018l.087.017c.081-.007.153-.048.24-.054a1.053,1.053,0,0,0,.247-.015c.1-.03.183-.089.278-.118l.122-.022.105-.051.155-.053.1-.069.091-.016.207-.178c.035-.03.076-.026.112-.052l.063-.071.156-.131c.062-.063.094-.137.151-.2l.075-.075a.7.7,0,0,1,.151-.182c0-.038.041-.058.053-.091l.03-.117c.021-.034.041-.069.063-.1s.04-.087.061-.13.085-.1.107-.158c.047-.131.065-.279.1-.415.015-.058.066-.087.074-.152s-.027-.12-.017-.181l.036-.13.009-.092a.754.754,0,0,0,.058-.142l0-.121a3.691,3.691,0,0,1,.108-.465l0-.008c0-.021-.008-.041-.013-.062l.033-.149.006-.122c.015-.075.048-.143.064-.214l.057-.357c.008-.07.045-.128.009-.2.017,0,.013,0,.013-.013-.018,0,.008-.042.014-.061.006-.045.011-.09.016-.135l.043-.106c0-.026,0-.052,0-.079l.027-.067c0-.048.01-.1.014-.144a1.054,1.054,0,0,0,.047-.2l.048-.224c.005-.05-.018-.081-.008-.132.035-.17.1-.337.142-.5.025-.139.049-.278.074-.417.017-.09.054-.178.072-.265,0-.039,0-.079,0-.119s.022-.06.032-.09c0-.052,0-.1,0-.156s.048-.1.05-.165a.972.972,0,0,1,.013-.37c0,.012,0,.009.013,0s.021-.021.026-.037a.975.975,0,0,0,.02-.138c.015-.087.039-.184.049-.272.008-.068-.014-.151.038-.2-.008-.065-.017-.132-.025-.2.009-.1.055-.192.068-.3,0-.049,0-.1,0-.146l.036-.126c0-.057,0-.114.007-.172s.021-.116.031-.174l.018-.222c.019-.05.039-.1.058-.152l-.006-.147.033-.149-.012-.158a.462.462,0,0,1,.035-.1c.006-.036.011-.071.017-.106l.039-.1c.038-.131,0-.557.086-.626,0-.1,0-.2,0-.3l.027-.088c0-.044-.03-.072-.03-.123,0-.1.034-.185.042-.285,0-.073-.012-.153,0-.221.01-.034.02-.069.031-.1.006-.073,0-.15,0-.223,0-.042,0-.083.041-.1a2.151,2.151,0,0,1,0-.321c.012-.088.046-.161.052-.25l0-.134c0-.028-.007-.056-.01-.084.012-.064.045-.139.06-.2l-.006-.112a.725.725,0,0,0-.01-.258c.019,0,.025-.03.031-.042.038-.081-.015-.186-.014-.28a1.315,1.315,0,0,1,.055-.261c-.005-.069-.012-.14-.018-.21.009-.046.019-.092.028-.139v-.07c.005-.029.027-.044.03-.077.007-.076-.031-.135-.027-.209l.024-.136c0-.045-.006-.09-.009-.134l.045-.176a.527.527,0,0,0-.024-.112V72.6a.133.133,0,0,1,.067-.111v-.025l-.03-.01a.072.072,0,0,1-.031-.064l.03-.245.042-.127c0-.045-.008-.09-.013-.136,0-.1,0-.19,0-.285,0-.047.028-.079.028-.122a.656.656,0,0,1,0-.212c.016,0-.028-.117-.029-.148,0-.06.034-.1.03-.16-.018-.107-.038-.214-.056-.321l.02-.077.015-.17c.006-.029.011-.059.017-.088s-.015-.059-.022-.088a2.945,2.945,0,0,1-.007-.409c0-.032.007-.065.01-.1,0-.016,0-.012-.013-.012,0-.022.033-.04.033-.072,0-.059-.047-.113-.052-.176M121.195,89.525v0m5.776-.567c0,.017.008.033.013.05-.021,0-.013-.032-.013-.05" transform="translate(260 47)" fill="#523386"/><path d="M145.431,85.171c-.016-.151,0-.294-.022-.445-.006-.043-.035-.07-.041-.111l0-.162c-.017-.074-.035-.148-.052-.222,0-.056,0-.113,0-.171a.457.457,0,0,0-.064-.114c-.019-.05-.038-.1-.058-.149a1.245,1.245,0,0,1-.04-.147c-.014-.078,0-.149-.045-.208-.01,0-.031-.1-.046-.119a.37.37,0,0,1-.1-.179c0-.039,0-.079-.007-.118l-.047-.081a.493.493,0,0,1-.038-.134,1.044,1.044,0,0,1,.022-.222c0-.087-.024-.171-.026-.261,0-.045.01-.089.014-.134-.005-.072-.044-.121-.053-.186l-.012-.271c-.019-.051-.037-.1-.056-.155-.008-.034.01-.063.012-.094a.19.19,0,0,0-.079-.147c0-.029.018-.054.014-.086-.007-.048-.039-.073-.051-.117-.013-.061-.026-.122-.038-.183s.017-.128.01-.194c-.023-.055-.045-.11-.067-.166-.04-.121-.07-.233-.107-.352-.014-.043-.059-.061-.074-.1-.022-.068-.033-.138-.058-.2a1.633,1.633,0,0,1-.067-.168,1.09,1.09,0,0,0-.032-.155l-.054-.072c-.009-.028-.017-.057-.026-.085l-.054-.084c-.011-.038-.023-.076-.035-.115l-.063-.1-.034-.087c-.02-.027-.039-.055-.058-.083-.028-.077-.056-.155-.083-.232a3.047,3.047,0,0,0-.186-.286l-.085-.149c-.012-.029-.023-.058-.034-.086l-.1-.093a.392.392,0,0,0-.06-.138c-.126-.107-.165-.25-.266-.373l-.129-.114-.081-.123c-.031-.033-.071-.042-.1-.07l-.075-.1-.116-.094L142.484,77c-.05-.044-.116-.052-.167-.1,0-.023-.04-.018-.058-.024-.054-.021-.068-.085-.107-.123s-.112-.031-.158-.068-.055-.079-.093-.117l-.167-.144-.081-.082c-.033-.012-.052.007-.079.018v.012h-.012l-.094-.117c-.049-.04-.109-.061-.158-.1,0,.038-.111-.05-.123-.075-.043-.086-.121-.093-.188-.151s-.118-.121-.176-.183-.156-.07-.227-.125l-.082-.115a2.009,2.009,0,0,0-.262-.132c-.046-.03-.055-.057-.114-.065,0-.129-.812-.362-.955-.391l-.163-.01c0,.019-.045.028-.064.033a.286.286,0,0,1-.169,0,.427.427,0,0,0-.069-.031.978.978,0,0,1-.263-.077.584.584,0,0,1-.125.075v.012c-.04,0-.068-.023-.113-.017-.061.008-.089.043-.141.061s-.078,0-.121.006l-.089.039h-.013v.013l-.077.028-.11.006a.707.707,0,0,0-.239.129H137.4c0,.02-.032.022-.047.031l-.131.074a1.453,1.453,0,0,0-.4.195l-.05-.012c0,.016-.038.047-.05.063-.027.031-.054.061-.08.092s-.079.032-.112.065l-.152.146-.1.068-.046.066-.081.055-.046.068-.048.038a1.331,1.331,0,0,1-.174.162c0,.016.009.032.013.049-.022,0-.032.035-.048.05a.7.7,0,0,0-.091.1l-.077.068c-.011.032-.022.062-.034.093a1.153,1.153,0,0,0-.135.3h-.013c0-.078-.093.139-.093.139l-.031.01c-.033,0-.023.061-.017.084a.205.205,0,0,1,.019.087c0,.055-.053.08-.066.129s-.01.079-.016.12a2.6,2.6,0,0,0-.039.261c-.005.052-.011.1-.017.153l-.034.032H135.2c0,.058.041.1.039.161s-.024.117-.036.175c0,.084.023.158.021.246,0,.052-.03.089-.036.138l.006.122a2.085,2.085,0,0,0,0,.285l-.006.123c.005.071.048.124.05.2a.934.934,0,0,0,0,.284c-.02,0-.021.021-.025.037-.044,0,.045.107.064.124.021,0,.011.042.011.061-.008.186.086.308.076.482a.657.657,0,0,1-.033.125c.018,0,.022.006.036.014l.023.015.017.023c.005.057.011.113.016.169.028.113.1.211.12.335,0,.07.007.138.01.208.013.046.056.066.076.107s.013.12.031.175c.012.038.044.057.06.092.025.073.049.146.074.218a.065.065,0,0,1,0,.051c0,.063.056.116.077.173.018,0,.017-.01.024-.025h.013v.049h-.037V82.2h.013v.013c.055,0,.139.088.151.135a.466.466,0,0,0,.068.221c.022.031.057.046.073.08.063.133.1.285.173.41a1.3,1.3,0,0,0,.121.147.367.367,0,0,0,.085.1.248.248,0,0,0,0,.105l.067.072c.059.077.105.157.16.237.038.057.067.114.108.171.023.025.045.05.068.074l.051.146c.059.072.118.142.177.213a2.557,2.557,0,0,1,.237.47.87.87,0,0,1,.08.2c.03,0,.054.032.072.052l.088.164c.106.148.211.29.312.443.036.053.053.112.087.166l.047.048a.247.247,0,0,1,.04.163.19.19,0,0,1,.092.023l.052.069.181.18c.022.036.044.072.067.107l.068.056c.038.045.066.1.106.146l.109.1.066.1.066.058.073.1.054.044c.013.024.026.05.038.075a.944.944,0,0,0,.127.148c.027.027.079.032.112.049-.02,0,.007.079.013.1a.219.219,0,0,1,.2.116.219.219,0,0,0,.055.084c.065.045.117.025.183.094,0,.021.042.015.06.019a.9.9,0,0,1,.271.124c.029.025.039.061.076.082l.092.038a1.264,1.264,0,0,0,.218.116c.064.021.134.019.2.045a4.007,4.007,0,0,0,.907.29l.14.035a1.853,1.853,0,0,0,.225-.037c.084,0,.157.05.249.039.04,0,.061-.035.1-.051a.27.27,0,0,1,.17.013l.087.014c.067-.018.135-.037.2-.054l.172.012c.046-.008.073-.043.116-.051s.1,0,.161-.005a.979.979,0,0,0,.129-.046l.079,0,.182-.08c.038-.008.075-.019.113-.027.053-.027.09-.073.161-.052.029,0,.064-.077.074-.1H144c0,.017,0,.013.012.013,0-.026.017.015.026.024v-.011h.012a1.766,1.766,0,0,1,.37-.317c.035-.029.087-.031.123-.064.119-.112.208-.25.318-.368.037-.039.086-.054.121-.089l.051-.128a1.2,1.2,0,0,1,.275-.415c0-.127.093-.235.06-.347,0-.024.059-.089.068-.126a2.591,2.591,0,0,0,.038-.419c0-.043.03-.076.028-.124a1.394,1.394,0,0,0-.01-.183,2.687,2.687,0,0,1-.065-.275" transform="translate(260 47)" fill="#ef821d"/><path d="M126.983,89.008c0-.017-.008-.033-.013-.05,0,.018-.008.05.013.05" transform="translate(260 47)" fill="#231815"/><path d="M147.955,126.61v-1.342c0-.252-.089-.377-.35-.377h-.158v-.176h1.612v.176h-.182c-.271,0-.35.115-.35.377v2.886c0,.258.088.378.35.378h.182v.175h-1.612v-.175h.158c.246,0,.35-.115.35-.378v-1.369h-1.5v1.369c0,.263.093.378.35.378h.172v.175h-1.6v-.175h.158c.246,0,.35-.115.35-.378v-2.886c0-.252-.089-.377-.35-.377h-.158v-.176h1.6v.176h-.172c-.266,0-.35.115-.35.377v1.342Z" transform="translate(260 47)" fill="#231815"/><path d="M150.975,127.415c0,1.008-.167,1.249-.517,1.249-.247,0-.518-.083-.518-1.172,0-1.063.153-1.326.508-1.326.33,0,.527.17.527,1.249m.572,0a1.123,1.123,0,1,0-1.089,1.4,1.286,1.286,0,0,0,1.089-1.4" transform="translate(260 47)" fill="#231815"/><path d="M153.238,126.906c.192.4.429.887.582,1.194.2.4.359.416.488.432h.039v.176h-1.188v-.176c.054,0,.173,0,.173-.148a.4.4,0,0,0-.045-.164c-.024-.049-.177-.372-.414-.86l-.207.258v.641c0,.158.079.273.232.273h.084v.176h-1.124v-.176h.074c.143,0,.227-.1.227-.273v-3.116c0-.143-.04-.247-.153-.247a.65.65,0,0,0-.168.028l-.034-.148c.369-.066.645-.121.709-.137a.564.564,0,0,1,.119-.022c.024,0,.034.016.034.066v2.656l.606-.751a.3.3,0,0,0,.069-.175c0-.082-.039-.115-.133-.115h-.241v-.175h1.286v.175h-.182a.859.859,0,0,0-.641.372Z" transform="translate(260 47)" fill="#231815"/><path d="M156.067,126.906c.192.4.429.887.582,1.194.2.4.359.416.488.432h.039v.176h-1.188v-.176c.054,0,.173,0,.173-.148a.4.4,0,0,0-.045-.164c-.024-.049-.177-.372-.414-.86l-.207.258v.641c0,.158.079.273.232.273h.084v.176h-1.124v-.176h.074c.143,0,.227-.1.227-.273v-3.116c0-.143-.04-.247-.153-.247a.65.65,0,0,0-.168.028l-.034-.148c.369-.066.645-.121.709-.137a.564.564,0,0,1,.119-.022c.024,0,.034.016.034.066v2.656l.606-.751a.3.3,0,0,0,.069-.175c0-.082-.039-.115-.133-.115H155.8v-.175h1.286v.175H156.9a.859.859,0,0,0-.641.372Z" transform="translate(260 47)" fill="#231815"/><path d="M158.836,128.4a.558.558,0,0,1-.345.132.336.336,0,0,1-.375-.351c0-.5.533-.75.72-.832Zm0-1.21a2.012,2.012,0,0,0-1.124.624.674.674,0,0,0-.167.438.551.551,0,0,0,.6.564,1.062,1.062,0,0,0,.715-.284.44.44,0,0,0,.414.284.6.6,0,0,0,.512-.377.036.036,0,0,0-.029-.039.086.086,0,0,0-.059.039.208.208,0,0,1-.148.054c-.158,0-.2-.126-.2-.383v-1.424c0-.241-.015-.662-.75-.662a1.564,1.564,0,0,0-.739.164.509.509,0,0,0-.232.4.31.31,0,0,0,.311.323c.286,0,.306-.274.316-.422a.284.284,0,0,1,.295-.318.3.3,0,0,1,.291.334Z" transform="translate(260 47)" fill="#231815"/><path d="M160.093,128.531c.118,0,.237-.065.246-.3V126.62c0-.131-.034-.273-.182-.273a.447.447,0,0,0-.168.033l-.034-.137c.074-.017.754-.192.779-.2s.079-.022.083-.022c.02,0,.03.022.03.044v2.174c0,.2.084.3.266.3h.153v.176h-1.355v-.176Zm.138-3.526a.353.353,0,1,1,.35.4.377.377,0,0,1-.35-.4" transform="translate(260 47)" fill="#231815"/><path d="M163.148,128.285a.548.548,0,0,1-.423.247c-.355,0-.6-.449-.6-1.1,0-.476.124-1.182.636-1.182a.494.494,0,0,1,.389.18Zm.927.422v-.175h-.143c-.182,0-.261-.082-.261-.274v-3.6c0-.022-.01-.044-.03-.044a.645.645,0,0,0-.083.022c-.247.071-.641.192-.888.269l.04.125a.636.636,0,0,1,.241-.065c.143,0,.2.109.2.224v1.052a.74.74,0,0,0-.537-.225c-.635,0-1.035.635-1.035,1.391,0,.685.34,1.4.971,1.4a.674.674,0,0,0,.6-.329v.225Z" transform="translate(260 47)" fill="#231815"/><path d="M165.943,127.415c0,1.008-.167,1.249-.517,1.249-.247,0-.518-.083-.518-1.172,0-1.063.153-1.326.508-1.326.33,0,.527.17.527,1.249m.572,0a1.123,1.123,0,1,0-1.089,1.4,1.286,1.286,0,0,0,1.089-1.4" transform="translate(260 47)" fill="#231815"/><path d="M171.043,126.61v-1.342c0-.252-.089-.377-.35-.377h-.158v-.176h1.612v.176h-.182c-.271,0-.35.115-.35.377v2.886c0,.258.089.378.35.378h.182v.175h-1.612v-.175h.158c.247,0,.35-.115.35-.378v-1.369h-1.5v1.369c0,.263.093.378.35.378h.172v.175h-1.6v-.175h.158c.247,0,.35-.115.35-.378v-2.886c0-.252-.089-.377-.35-.377h-.158v-.176h1.6v.176H169.9c-.266,0-.35.115-.35.377v1.342Z" transform="translate(260 47)" fill="#231815"/><path d="M173.053,127.091c.025-.257.089-.9.538-.9.394,0,.409.58.414.9Zm1.469.915a.959.959,0,0,1-.739.526c-.444,0-.764-.449-.74-1.265h1.494a1.59,1.59,0,0,0-.36-.97.794.794,0,0,0-.586-.279,1.32,1.32,0,0,0-1.085,1.451,1.2,1.2,0,0,0,1.109,1.342,1.159,1.159,0,0,0,1-.717Z" transform="translate(260 47)" fill="#231815"/><path d="M175.882,126.544a.972.972,0,0,1,.833-.526c.237,0,.444.11.444.4a.36.36,0,0,1-.35.4.318.318,0,0,1-.336-.328c-.005-.093-.009-.132-.088-.132-.158,0-.469.241-.5,1.035v.756c0,.252.089.378.355.378h.128v.175h-1.449v-.175h.094c.246,0,.35-.11.35-.378v-1.44c0-.269-.04-.351-.207-.351a.5.5,0,0,0-.193.033l-.039-.109c.256-.077.754-.219.828-.241a.742.742,0,0,1,.094-.028c.029,0,.039.039.039.088Z" transform="translate(260 47)" fill="#231815"/><path d="M177.523,128.531c.118,0,.237-.065.247-.3V126.62c0-.131-.035-.273-.183-.273a.44.44,0,0,0-.167.033l-.035-.137c.074-.017.754-.192.779-.2s.079-.022.084-.022.029.022.029.044v2.174c0,.2.084.3.266.3h.153v.176h-1.355v-.176Zm.138-3.526a.353.353,0,1,1,.35.4.377.377,0,0,1-.35-.4" transform="translate(260 47)" fill="#231815"/><path d="M178.913,126.3v-.175a.666.666,0,0,0,.512-.225,1.052,1.052,0,0,0,.227-.712h.158v.937h.675v.175h-.675v1.829c0,.285.138.378.276.378a.513.513,0,0,0,.379-.208l.079.1a.917.917,0,0,1-.69.411c-.345,0-.552-.258-.552-.685V126.3Z" transform="translate(260 47)" fill="#231815"/><path d="M182.106,128.4a.556.556,0,0,1-.345.132.336.336,0,0,1-.375-.351c0-.5.533-.75.72-.832Zm0-1.21a2.012,2.012,0,0,0-1.124.624.674.674,0,0,0-.167.438.551.551,0,0,0,.6.564,1.062,1.062,0,0,0,.715-.284.44.44,0,0,0,.414.284.6.6,0,0,0,.512-.377.036.036,0,0,0-.029-.039.086.086,0,0,0-.059.039.208.208,0,0,1-.148.054c-.158,0-.2-.126-.2-.383v-1.424c-.005-.241-.015-.662-.75-.662a1.564,1.564,0,0,0-.739.164.508.508,0,0,0-.231.4.309.309,0,0,0,.31.323c.286,0,.306-.274.316-.422a.284.284,0,0,1,.295-.318.3.3,0,0,1,.291.334Z" transform="translate(260 47)" fill="#231815"/><path d="M183.683,129.091a.312.312,0,0,1,.118-.241.684.684,0,0,1,.316-.148c.315,0,1.168.027,1.168.394,0,.28-.513.345-.863.345a1.554,1.554,0,0,1-.552-.082.268.268,0,0,1-.187-.268m.483-1.216a1.078,1.078,0,0,0,.31.049.947.947,0,0,0,.976-.947.9.9,0,0,0-.212-.58c.025-.028.04-.044.069-.044.064,0,.094.06.109.087.079.132.1.181.226.181.2,0,.262-.2.262-.328a.357.357,0,0,0-.345-.368c-.148,0-.252.1-.439.34a.991.991,0,0,0-.656-.246.936.936,0,0,0-.951.941.969.969,0,0,0,.217.619.882.882,0,0,0,.281.23c-.128.033-.488.121-.488.438,0,.269.266.373.345.406-.241.038-.591.1-.591.449,0,.416.532.52,1.1.52.281,0,1.33-.022,1.33-.728,0-.384-.3-.575-1.133-.652a1.655,1.655,0,0,1-.537-.115.092.092,0,0,1-.035-.077c0-.1.089-.147.158-.175m.33-1.681c.389,0,.424.586.424.8,0,.471-.168.751-.444.751-.31,0-.428-.362-.428-.756s.118-.794.448-.794" transform="translate(260 47)" fill="#231815"/><path d="M186.65,127.091c.025-.257.089-.9.538-.9.394,0,.409.58.414.9Zm1.469.915a.959.959,0,0,1-.739.526c-.444,0-.764-.449-.74-1.265h1.494a1.59,1.59,0,0,0-.36-.97.794.794,0,0,0-.586-.279,1.32,1.32,0,0,0-1.085,1.451,1.2,1.2,0,0,0,1.109,1.342,1.159,1.159,0,0,0,1-.717Z" transform="translate(260 47)" fill="#231815"/></g></svg>