<svg xmlns="http://www.w3.org/2000/svg" width="164.398" height="59.899" viewBox="0 0 164.398 59.899"><g transform="translate(-69.667 -570.798)"><path d="M145.032,0l15.908,13.165L164.4,45.442,150.378,58.194,23.275,59.9l-9.052-4.371L12.965,44.433,0,41.181l10.954-7.843L10.2,19.217,22.772,8.458Z" transform="translate(69.667 570.798)" fill="#ffe330"/><path d="M7.306-10.387a.219.219,0,0,0,.13-.195c0-.1-.078-.156-.234-.182a10.861,10.861,0,0,0-1.391-.286,3.316,3.316,0,0,1-.481.923A11.263,11.263,0,0,1,.312-6.175a2.316,2.316,0,0,1,.6.9c.091.221.143.312.234.312a.743.743,0,0,0,.3-.117,16.964,16.964,0,0,0,2.613-1.69v1.04c0,.13.013.143.156.143.078,0,.39-.026,1.391-.026H7.41c1.014,0,1.326.026,1.4.026.13,0,.143-.013.143-.143v-1a13.851,13.851,0,0,0,2.73,1.612A.779.779,0,0,0,12-5.005c.117,0,.156-.091.221-.338a3.055,3.055,0,0,1,.533-1.092A11.135,11.135,0,0,1,7.2-10.309Zm-3.12,3.51A12.6,12.6,0,0,0,6.448-9.243,12.062,12.062,0,0,0,8.762-6.877c-.13,0-.468.013-1.352.013H5.6c-1,0-1.313-.013-1.391-.013ZM8.658-3.3A15.8,15.8,0,0,1,6.136.39q-.078.078-.078.117c0,.091.169.156.663.351a2.611,2.611,0,0,0,.65.234c.065,0,.1-.039.156-.1A29,29,0,0,0,10.062-2.8a1.989,1.989,0,0,1,.429-.624c.13-.1.169-.156.169-.286,0-.078-.026-.182-.455-.6-.338-.325-.455-.364-.585-.364a.73.73,0,0,0-.195.052,1.263,1.263,0,0,1-.455.052H4.29c-1.261,0-1.69-.026-1.768-.026-.13,0-.143.013-.143.143v1.014c0,.143.013.156.143.156.078,0,.507-.026,1.768-.026Zm9.7-.078c.663.013,1.339.013,1.989-.039.13,0,.169-.052.182-.208a8.761,8.761,0,0,0,.065-.975c0-.117-.039-.169-.208-.143-.624.039-1.157.052-1.846.039.078-.52.208-1.4.286-1.859a12.817,12.817,0,0,0,1.729-.065c.156-.013.208-.052.208-.195a6.069,6.069,0,0,0,.026-.975c0-.091-.039-.156-.13-.156a7.411,7.411,0,0,1-1.6.078c.065-.481.143-.923.208-1.222a1.274,1.274,0,0,1,.234-.559.38.38,0,0,0,.1-.247c0-.117-.1-.234-.286-.3a7.728,7.728,0,0,0-1.56-.364,6.114,6.114,0,0,1,.013,1.092c-.026.39-.065.741-.169,1.495a10.567,10.567,0,0,1-2.353-.494c0,.468.026.9.039,1.209,0,.117.052.182.208.221a9.091,9.091,0,0,0,1.872.364c-.052.533-.156,1.378-.221,1.859a8.129,8.129,0,0,1-2.106-.507,7.513,7.513,0,0,0,.026,1.209c.013.156.052.221.143.247a10.241,10.241,0,0,0,1.768.39c-.052.585-.091.949-.091,1.222,0,1.9.975,2.938,3.276,2.938,2.236,0,3.744-1.2,3.744-3.042A3.389,3.389,0,0,0,22.8-4.81a.3.3,0,0,0-.273-.052,4.147,4.147,0,0,1-1.326.078,3.13,3.13,0,0,1,1.17,2.366c0,1.17-.845,1.755-2.366,1.755-1.209,0-1.729-.468-1.729-1.664A8.009,8.009,0,0,1,18.356-3.38ZM31.434-6.136a7.858,7.858,0,0,1-.7,2.3A7.525,7.525,0,0,1,26.52-.26a4.027,4.027,0,0,1,.741.819c.143.221.195.3.3.3a1.038,1.038,0,0,0,.312-.1A8.531,8.531,0,0,0,32.032-3.3a7.56,7.56,0,0,0,.494-1.248A9.961,9.961,0,0,0,37.154.7a.836.836,0,0,0,.3.13c.1,0,.156-.1.273-.325a4.335,4.335,0,0,1,.754-.975,8.678,8.678,0,0,1-5.2-5.668h3.107c1.17,0,1.573.026,1.651.026.13,0,.143-.013.143-.156V-7.332c0-.13-.013-.143-.143-.143-.078,0-.481.026-1.651.026H33.033c.052-.559.065-1.157.078-1.794a2.249,2.249,0,0,1,.117-.91.546.546,0,0,0,.078-.273c0-.091-.1-.156-.234-.182a14.957,14.957,0,0,0-1.495-.1A10.184,10.184,0,0,1,31.642-9.2c-.013.637-.026,1.222-.065,1.755H28.6c-1.17,0-1.573-.026-1.651-.026-.13,0-.143.013-.143.143v1.066c0,.143.013.156.143.156.078,0,.481-.026,1.651-.026Zm18.226-2.5a49.01,49.01,0,0,1-.429,6.968c-.143.806-.4,1.053-.923,1.053a8.076,8.076,0,0,1-1.352-.13A3.208,3.208,0,0,1,47.242.325c.039.351.052.351.39.377s.585.039.832.039c1.261,0,1.859-.52,2.093-1.859a47.57,47.57,0,0,0,.468-7.475c0-.351,0-.728.026-1.157,0-.13-.026-.156-.143-.156-.078,0-.481.026-1.677.026H46.15c-1.2,0-1.586-.026-1.664-.026-.13,0-.143.013-.143.143v1.014c0,.13.013.143.143.143.078,0,.468-.026,1.664-.026h.208a14.88,14.88,0,0,1-.611,5.187,5.887,5.887,0,0,1-3.614,3.38A3.655,3.655,0,0,1,43,.663c.143.156.208.234.286.234a1.131,1.131,0,0,0,.351-.156,6.713,6.713,0,0,0,3.393-3.77,17.379,17.379,0,0,0,.689-5.6Zm-7.4,2.3,1.04-.221c1.027-.195,1.378-.247,1.495-.273.143-.026.156-.039.143-.169l-.1-1.04c-.013-.13-.013-.143-.143-.117s-.455.117-1.469.312l-.962.182V-8.866a3.383,3.383,0,0,1,.091-1.2.564.564,0,0,0,.078-.273c0-.078-.078-.13-.247-.156-.429-.052-.832-.078-1.339-.091a10.366,10.366,0,0,1,.078,1.716V-7.41c-.962.182-1.3.234-1.43.26s-.13.026-.117.169l.13,1.066c.013.13.026.143.156.117l1.261-.26v2.977c0,.689.156.949.481,1.118a2.846,2.846,0,0,0,1.274.195,2.65,2.65,0,0,0,1.469-.325c.416-.273.65-.676.728-1.924.026-.338.026-.351-.312-.468a3.917,3.917,0,0,1-.871-.442c-.026,1.287-.078,1.56-.286,1.742a.777.777,0,0,1-.559.156.9.9,0,0,1-.468-.091c-.091-.065-.117-.169-.117-.429ZM54.392-9.906a10.489,10.489,0,0,1-.234,1.937A24.817,24.817,0,0,0,53.716-3.7a12.187,12.187,0,0,0,.6,3.874c.026.091.078.156.169.143A6.453,6.453,0,0,0,55.549.1c.117-.026.169-.078.169-.169s-.026-.208-.026-.364a1.476,1.476,0,0,1,.039-.4A12.709,12.709,0,0,1,56.472-2.8.36.36,0,0,0,56.537-3a.518.518,0,0,0-.091-.2,3.375,3.375,0,0,1-.455-.819c-.377.91-.611,1.339-.884,1.937A12.537,12.537,0,0,1,55.029-3.6a21.065,21.065,0,0,1,.546-4.2,3.071,3.071,0,0,1,.312-.923c.169-.26.195-.3.195-.39,0-.117-.078-.2-.3-.312A5.753,5.753,0,0,0,54.392-9.906ZM57.382-3.2a2.864,2.864,0,0,0,.455,1.69c.559.767,1.456,1.079,3.38,1.079a17.454,17.454,0,0,0,2.119-.143c.221-.026.221-.039.221-.195a9.632,9.632,0,0,0-.078-1.118c-.026-.169-.052-.182-.182-.169a18.635,18.635,0,0,1-2.483.169c-1.417,0-2.041-.325-2.119-1.222,0-.143-.026-.208-.13-.2ZM57.8-6.89a15.893,15.893,0,0,1,2.951-.3c.663,0,1.339.026,2.119.078.117.013.156-.039.169-.156.026-.364.026-.715.026-1.1,0-.13-.026-.156-.3-.169-.546-.052-1.144-.078-1.924-.078a20.756,20.756,0,0,0-2.821.234c-.13.026-.169.065-.182.221C57.811-7.943,57.811-7.618,57.8-6.89ZM4.563,10.034c-1.261,0-1.69-.026-1.768-.026-.13,0-.143.013-.143.143V11.1c0,.13.013.143.143.143.052,0,.351-.013.832-.013a8.517,8.517,0,0,0,1.742,2.262A15.874,15.874,0,0,1,.715,14.675a4.321,4.321,0,0,1,.52.923c.1.26.143.338.286.338a1.174,1.174,0,0,0,.273-.026,15.9,15.9,0,0,0,4.745-1.534,13.207,13.207,0,0,0,4.849,1.573c.1.013.195.026.247.026.169,0,.195-.078.3-.364a4.9,4.9,0,0,1,.494-.975A15,15,0,0,1,7.774,13.57a9.535,9.535,0,0,0,1.911-1.976,1.7,1.7,0,0,1,.429-.442c.1-.065.156-.117.156-.208s-.052-.234-.377-.546c-.377-.377-.494-.455-.611-.455a.5.5,0,0,0-.169.052,1.239,1.239,0,0,1-.351.039Zm3.77,1.183a6.761,6.761,0,0,1-1.781,1.638,5.922,5.922,0,0,1-1.521-1.638ZM2.886,6.641c-.182.065-.182.091-.1.208a7,7,0,0,1,.494.988H2.808c-1.2,0-1.625-.026-1.7-.026-.13,0-.143.013-.143.143,0,.091.026.3.026.741v.65c0,.845-.026,1.144-.026,1.222,0,.13.013.143.143.143h1.04c.13,0,.143-.013.143-.143V9.059h8.424v1.508c0,.13.013.143.143.143h1.053c.13,0,.143-.013.143-.143,0-.078-.026-.377-.026-1.209V8.6c0-.351.026-.572.026-.65,0-.13-.013-.143-.143-.143-.078,0-.507.026-1.7.026H9.646c.156-.26.286-.507.416-.754a1.536,1.536,0,0,1,.286-.4c.078-.078.143-.143.143-.221s-.065-.143-.2-.195c-.325-.13-.689-.26-1.131-.39a2.822,2.822,0,0,1-.195.637,10.9,10.9,0,0,1-.754,1.326H7.345a8.28,8.28,0,0,0-.546-1.6c-.065-.13-.117-.117-.26-.078l-.793.247c-.156.052-.182.1-.13.221a8.292,8.292,0,0,1,.442,1.209H4.615a10.273,10.273,0,0,0-.7-1.417C3.848,6.3,3.8,6.277,3.64,6.342Zm7.293-2.535a8.642,8.642,0,0,1-1.092.286c-.728.13-1.612.247-2.912.364-1.521.13-3.224.221-4.875.234a4.006,4.006,0,0,1,.4.819c.13.4.13.4.416.39,1.508-.052,3.081-.156,4.459-.286,1.573-.143,2.574-.286,3.848-.468a4,4,0,0,1,.624-.052c.143,0,.208-.052.208-.13a.432.432,0,0,0-.143-.273A5.553,5.553,0,0,0,10.179,4.106ZM21.567,9.93a7.183,7.183,0,0,1-.4,2.9,4.219,4.219,0,0,1-2.2,2.158,4.289,4.289,0,0,1,1.014.637.271.271,0,0,0,.26.117.581.581,0,0,0,.325-.117,4.574,4.574,0,0,0,1.859-2.015A6.783,6.783,0,0,0,23,10.593l-.013-2c.6-.065,1.17-.143,1.794-.26.117-.013.182-.065.169-.234-.026-.338-.052-.65-.1-.975-.013-.13-.078-.156-.234-.117-.546.117-1.1.208-1.664.286V5.848A1.589,1.589,0,0,1,23.01,5.3a.523.523,0,0,0,.091-.26c0-.1-.065-.169-.208-.208a7.921,7.921,0,0,0-1.677-.182,4.057,4.057,0,0,1,.221,1.066c.052.494.052,1.079.078,1.729-.468.039-1.079.052-1.443.052-.481,0-1.131-.013-1.612-.065.065.572.091.923.143,1.183.013.143.117.208.3.208.481.013.819.013,1.092,0,.377,0,.871-.026,1.56-.078Zm-4.511,4.394a1.588,1.588,0,0,1,.039-.338A9.772,9.772,0,0,1,17.68,12.4a.973.973,0,0,0,.156-.429.39.39,0,0,0-.117-.247,3.774,3.774,0,0,1-.429-.871c-.312.728-.546,1.17-.871,1.859a11.058,11.058,0,0,1-.13-2.054,24.223,24.223,0,0,1,.494-3.9A7.385,7.385,0,0,1,17.03,5.8a.47.47,0,0,0,.078-.26c0-.091-.078-.182-.286-.286A6.377,6.377,0,0,0,15.457,4.8a14.055,14.055,0,0,1-.143,1.937,29.633,29.633,0,0,0-.39,4.16,11.115,11.115,0,0,0,.767,4.03c.078.156.143.195.3.169a3.216,3.216,0,0,0,.9-.273c.13-.052.169-.091.169-.182Zm11.453-3.6v3.458c0,1.2-.026,1.625-.026,1.7,0,.13.013.143.143.143h.988c.13,0,.143-.013.143-.143,0-.065-.026-.507-.026-1.7V10.606l.728-.091c.052.2.091.377.13.572.026.156.052.156.234.091l.637-.234a.242.242,0,0,0,.13-.065v3.185c0,1.157-.026,1.7-.026,1.781,0,.13.013.143.143.143h.975c.13,0,.143-.013.143-.143v-.52h3.952c1.092,0,1.456.026,1.521.026.13,0,.143-.013.143-.143v-.975c0-.13-.013-.143-.143-.143-.065,0-.429.026-1.521.026H32.825V6.108a2.874,2.874,0,0,1,.065-1.014.5.5,0,0,0,.078-.247c0-.065-.052-.117-.182-.143-.325-.039-.91-.091-1.287-.1a16.481,16.481,0,0,1,.091,1.859v4.147A12.851,12.851,0,0,0,30.8,8.357c-.052-.13-.065-.143-.208-.078L30,8.526c-.156.065-.182.1-.13.221a7.409,7.409,0,0,1,.312.806l-1.313.078c.611-.793,1.3-1.781,1.963-2.847a1.7,1.7,0,0,1,.4-.507c.091-.065.143-.117.143-.208s-.039-.117-.156-.182a7.352,7.352,0,0,0-1.079-.481,5.8,5.8,0,0,1-.364.819c-.273.481-.546.962-.845,1.43-.182-.221-.377-.442-.572-.663a17.665,17.665,0,0,0,1.118-1.807.707.707,0,0,1,.247-.312.2.2,0,0,0,.117-.169c0-.078-.052-.143-.169-.208-.312-.156-.7-.325-1.079-.468a2.878,2.878,0,0,1-.234.689,13.671,13.671,0,0,1-.767,1.43l-.312-.325c-.091-.1-.13-.091-.234.039l-.481.637c-.052.078-.091.117-.091.169a.176.176,0,0,0,.065.117,16.072,16.072,0,0,1,1.7,1.937c-.234.325-.468.65-.715.962a6.572,6.572,0,0,1-1-.039c.039.416.078.767.143,1.105.026.13.078.208.169.208a.367.367,0,0,0,.2-.052,1.28,1.28,0,0,1,.494-.1Zm6.552-2.366h-.286c-1.053,0-1.4-.026-1.482-.026-.13,0-.143.013-.143.156v.9c0,.117.013.13.143.13.078,0,.429-.026,1.456-.026a7.319,7.319,0,0,1-1.885,2.587,2.181,2.181,0,0,1,.507.624c.091.13.143.2.208.2s.143-.065.247-.182a7.249,7.249,0,0,0,1.287-2.145c-.013,1.872-.091,2.717-.091,3.016,0,.13.013.143.143.143h.91c.13,0,.143-.013.143-.143,0-.3-.065-1.2-.065-3.094a7.251,7.251,0,0,0,1.378,2.21c.091.091.156.143.221.143s.13-.065.195-.208a3.332,3.332,0,0,1,.468-.741,8.181,8.181,0,0,1-1.937-2.4h.208c1.053,0,1.391.026,1.469.026.13,0,.143-.013.143-.13v-.9c0-.143-.013-.156-.143-.156-.078,0-.416.026-1.469.026h-.468V5.744A3.109,3.109,0,0,1,36.3,4.717a.5.5,0,0,0,.078-.221c0-.065-.091-.117-.247-.143-.325-.039-.754-.091-1.144-.1a13.89,13.89,0,0,1,.078,1.612Zm-8.593,6.318a4.442,4.442,0,0,1,.715.338.807.807,0,0,0,.3.156c.078,0,.1-.1.169-.312a15.051,15.051,0,0,0,.429-2.34,1.685,1.685,0,0,1,.1-.481.294.294,0,0,0,.065-.2c0-.052-.065-.117-.221-.156a9.991,9.991,0,0,0-1-.208,5.809,5.809,0,0,1-.026.832A7.62,7.62,0,0,1,26.468,14.675Zm3.653-3.029c-.156.039-.169.065-.13.195a12.146,12.146,0,0,1,.416,2.366c.013.143.026.156.208.091l.663-.221c.156-.052.182-.091.156-.221a10.381,10.381,0,0,0-.494-2.275c-.039-.13-.078-.13-.221-.091ZM36.387,7.5a2.869,2.869,0,0,1,.6.234.743.743,0,0,0,.3.117c.1,0,.156-.091.247-.325a12.469,12.469,0,0,0,.52-1.456.734.734,0,0,1,.13-.286.248.248,0,0,0,.091-.156c0-.065-.039-.1-.156-.156-.221-.091-.767-.26-1.014-.325a3.419,3.419,0,0,1-.091.533A7.039,7.039,0,0,1,36.387,7.5ZM33.306,5.484c-.156.039-.182.091-.13.221a10.1,10.1,0,0,1,.52,2.028c.026.143.065.169.247.1l.624-.208c.182-.065.208-.065.169-.247a11.776,11.776,0,0,0-.585-2.015c-.052-.13-.091-.156-.247-.1Zm15.067.143a6.451,6.451,0,0,1,1.313,1.508.136.136,0,0,0,.221.039l.546-.4a.131.131,0,0,0,.039-.208,5.983,5.983,0,0,0-1.235-1.391c-.078-.065-.13-.078-.195-.026Zm1.2-.858a6.15,6.15,0,0,1,1.3,1.495.133.133,0,0,0,.221.039l.52-.4a.15.15,0,0,0,.039-.234,5.429,5.429,0,0,0-1.235-1.339c-.078-.065-.117-.078-.195-.026Zm-6.4,2.964c-.507.078-.988.143-1.534.195-.572.052-1.144.091-1.716.091a11.877,11.877,0,0,0,.4,1.339.285.285,0,0,0,.416.169,3.82,3.82,0,0,1,.715-.208c.351-.065.767-.143,1.274-.221a27.412,27.412,0,0,1-2.379,5.1.242.242,0,0,0-.052.143.267.267,0,0,0,.1.195,5.912,5.912,0,0,0,.9.572.213.213,0,0,0,.338-.117,35.9,35.9,0,0,0,2.613-6.11,8.611,8.611,0,0,1,1.092-.091c.572,0,.741.286.741,1.2a10.04,10.04,0,0,1-.507,3.237c-.208.533-.4.689-.832.689a3.459,3.459,0,0,1-1.495-.338,3.715,3.715,0,0,1,.247,1.209.347.347,0,0,0,.234.364,3.445,3.445,0,0,0,1.352.2,1.861,1.861,0,0,0,1.755-1.222,11.076,11.076,0,0,0,.7-4.069c0-1.664-.65-2.509-1.859-2.509a9.934,9.934,0,0,0-1.04.052c.169-.546.3-1.027.468-1.56a1.645,1.645,0,0,1,.26-.494.271.271,0,0,0,.091-.195.274.274,0,0,0-.208-.26,9.515,9.515,0,0,0-1.56-.429,8.849,8.849,0,0,1-.13,1.443C43.472,6.537,43.381,6.992,43.173,7.733Zm4.485-.1A8.8,8.8,0,0,1,49.79,11c.039.156.169.169.3.1a5.305,5.305,0,0,0,.975-.65.186.186,0,0,0,.052-.26,8.7,8.7,0,0,0-2.158-3.159c-.091-.091-.156-.117-.247-.065A11.024,11.024,0,0,0,47.658,7.629Zm7.93-.1c-.663.208-1.391.39-1.833.494a5.915,5.915,0,0,1-.949.117,6.86,6.86,0,0,0,.507,1.2.314.314,0,0,0,.26.208c.13,0,.26-.13.377-.182a12.184,12.184,0,0,1,1.56-.52c-.013.312-.013.559-.013.884-.793,1.118-1.469,2.041-2.548,3.419a.339.339,0,0,0-.117.221.2.2,0,0,0,.078.143,4.169,4.169,0,0,0,.806.728.36.36,0,0,0,.156.065c.052,0,.091-.039.143-.13.481-.741,1-1.547,1.508-2.34-.039,1.17-.039,2.535-.039,3.718,0,.156.052.221.182.221a9.78,9.78,0,0,0,1.014-.052.159.159,0,0,0,.182-.182c0-1.417-.039-3.289-.052-4.927.676-.78,1.287-1.391,1.82-1.911.637-.572,1.079-.845,1.456-.845.26,0,.4.286.4.858s-.026.988-.091,2.132c-.065,1.1-.1,1.833-.1,2.184,0,1.352.546,1.989,1.664,1.989a3.141,3.141,0,0,0,2.5-1.495.38.38,0,0,0,.091-.221A.487.487,0,0,0,64.4,13a3.234,3.234,0,0,1-.481-.975,3.412,3.412,0,0,1-.78,1.092,1.694,1.694,0,0,1-.962.468c-.325,0-.481-.091-.481-.741,0-.4.065-.988.13-2.184.091-1.2.1-1.989.1-2.366a1.519,1.519,0,0,0-1.56-1.729,3.561,3.561,0,0,0-2.353,1.274c-.507.494-.793.793-1.209,1.261V9.033c.208-.429.429-.832.676-1.235a.274.274,0,0,0,.065-.143.226.226,0,0,0-.117-.182,4.159,4.159,0,0,0-.494-.286c.026-.6.039-.871.065-1.3a1.577,1.577,0,0,1,.117-.637A.526.526,0,0,0,57.213,5c0-.13-.065-.208-.273-.26A7.318,7.318,0,0,0,55.458,4.5a4.76,4.76,0,0,1,.13,1.261Zm15.795-.364a4.7,4.7,0,0,0-2.5,4.121c0,2.7,2.509,4.017,4.8,4.017.156,0,.208-.078.247-.273a4.624,4.624,0,0,0,.143-1.118c0-.143-.078-.195-.286-.195-2.262-.143-3.458-1.053-3.458-2.73,0-1.56,1.1-3.081,3.315-3.835a5.8,5.8,0,0,1,1.586-.286c.169,0,.247-.039.247-.195a7.427,7.427,0,0,0-.143-1.144c-.013-.091-.078-.169-.273-.143-3.354.442-6.214.871-7.813,1.105a17.934,17.934,0,0,1-2.067.221,9.058,9.058,0,0,0,.481,1.4.3.3,0,0,0,.247.195.759.759,0,0,0,.286-.1c.195-.065.325-.091.819-.208,1.391-.286,2.782-.559,4.368-.858Zm7.1-1.2a6.969,6.969,0,0,1,.156,1.7,23.568,23.568,0,0,0,.312,3.783c.351,2.2,1.417,3.393,2.431,3.393.91,0,1.716-.7,2.21-2.028a.4.4,0,0,0-.091-.481,4.969,4.969,0,0,1-.832-1c-.507,1.352-.832,1.807-1.248,1.807-.546,0-.884-.884-1.066-1.911a16.372,16.372,0,0,1-.234-2.964,5.841,5.841,0,0,1,.117-1.274,1.132,1.132,0,0,0,.1-.364c0-.091-.091-.182-.208-.234A5.627,5.627,0,0,0,78.481,5.965Zm6.656,1.846a8.759,8.759,0,0,1,2.431,4.537c.026.156.117.2.273.143a4.412,4.412,0,0,0,1.014-.52c.1-.065.182-.117.143-.286A8.6,8.6,0,0,0,86.45,7.239a.2.2,0,0,0-.143-.078.386.386,0,0,0-.143.052C85.956,7.317,85.631,7.5,85.137,7.811Zm10.79,4.329c-.611-.052-.923-.052-1.248-.052-1.573,0-2.6.793-2.6,1.846,0,1.079.962,1.82,2.652,1.82,1.781,0,2.626-.572,2.639-1.976a10.315,10.315,0,0,1,2.587,1.482.2.2,0,0,0,.143.065.191.191,0,0,0,.169-.1,3.911,3.911,0,0,0,.572-.962c.039-.156.039-.195-.091-.312a11.591,11.591,0,0,0-3.445-1.573c-.039-.6-.065-1.235-.091-1.833a23.546,23.546,0,0,0,2.548-.312c.143-.013.195-.052.195-.182,0-.39-.026-.819-.039-1.066-.013-.117-.052-.143-.208-.1-.936.143-1.56.273-2.548.338,0-.468-.013-.949-.013-1.469a26.594,26.594,0,0,0,3-.338c.1-.013.143-.039.143-.208a6.945,6.945,0,0,0-.065-.949c-.013-.156-.065-.2-.221-.156a21.875,21.875,0,0,1-2.847.39c.013-.39.013-.572.026-.832a1.671,1.671,0,0,1,.195-.624.265.265,0,0,0-.143-.39A7.533,7.533,0,0,0,95.6,4.4a3.739,3.739,0,0,1,.156.871c.013.442.026.78.026,1.261a29.722,29.722,0,0,1-3.406-.13c.026.533.052.845.091,1.17.013.13.078.182.221.182a21.394,21.394,0,0,0,3.107.065c.013.494.013,1,.026,1.495a18.291,18.291,0,0,1-2.925-.1,7.758,7.758,0,0,0,.078,1.1c.013.169.065.221.208.221a23.019,23.019,0,0,0,2.678.052C95.875,11.035,95.9,11.568,95.927,12.14Zm.026,1.235a1.248,1.248,0,0,1-.143.728,1.606,1.606,0,0,1-1.183.39c-.9,0-1.287-.247-1.287-.585,0-.416.455-.689,1.4-.689A5.607,5.607,0,0,1,95.953,13.375Zm13.468-6.89c-1.56.091-3.237.195-4.03.26a8.574,8.574,0,0,1-1.586.052,9.11,9.11,0,0,0,.325,1.313c.039.13.091.182.221.182s.325-.117.611-.156c1.027-.143,2.86-.3,4.5-.39,0,.429.013.871.013,1.326a1.593,1.593,0,0,0-.988-.26,1.894,1.894,0,0,0-1.963,1.95,1.8,1.8,0,0,0,1.807,1.989,1.5,1.5,0,0,0,1.222-.52,4.343,4.343,0,0,1-2.665,2.86,2.9,2.9,0,0,1,.988.52.736.736,0,0,0,.39.195,1.239,1.239,0,0,0,.507-.247,4.854,4.854,0,0,0,2.314-4.2,4.05,4.05,0,0,0-.195-1.287c-.013-.793-.013-1.625-.013-2.418,1.352-.013,2.613-.013,3.965.026.156.013.221-.026.221-.169.013-.325.013-.663,0-.988-.013-.169-.039-.195-.195-.195-1.248,0-2.587.013-3.991.065.013-.494.013-.663.026-.832a1.359,1.359,0,0,1,.1-.377.548.548,0,0,0,.117-.3c0-.117-.143-.208-.364-.247a13.208,13.208,0,0,0-1.521-.182,4.131,4.131,0,0,1,.156.949C109.408,5.757,109.408,6.082,109.421,6.485Zm-.832,3.341a.779.779,0,0,1,.858.832.835.835,0,0,1-.884.9.806.806,0,0,1-.832-.884A.827.827,0,0,1,108.589,9.826ZM123.461,4.7h-2.028l.364,7.735h1.313Zm-1.95,9v1.755h1.846V13.7Z" transform="translate(93.102 602)"/></g></svg>