<svg xmlns="http://www.w3.org/2000/svg" width="145.46" height="59.899" viewBox="0 0 145.46 59.899"><g transform="translate(-69.667 -570.798)"><path d="M128.325,0,142.4,13.165l3.06,32.276-12.4,12.752L20.594,59.9l-8.009-4.371L11.472,44.433,0,41.181l9.692-7.843L9.024,19.217,20.149,8.458Z" transform="translate(69.667 570.798)" fill="#ffe330"/><path d="M2.353-6.37V-.975c0,1.157-.026,1.7-.026,1.794,0,.13.013.143.143.143H3.588c.143,0,.156-.013.156-.143V.247H9.893c1.274,0,1.716.026,1.794.026.13,0,.143-.013.143-.143V-.91c0-.13-.013-.143-.143-.143-.078,0-.52.026-1.794.026H3.744V-6.37H5.759v1.781c0,1.417-.026,2.106-.026,2.2,0,.13.013.143.13.143H6.942c.13,0,.143-.013.143-.143v-.624h2.08v.6c0,.13.013.143.143.143h1.079c.13,0,.143-.013.143-.143,0-.078-.026-.793-.026-2.236V-6.37H10.7c1.131,0,1.508.026,1.6.026.117,0,.13-.013.13-.143V-7.5c0-.13-.013-.143-.13-.143-.091,0-.468.026-1.6.026H10.5V-8.749a7.037,7.037,0,0,1,.052-1.222,1.286,1.286,0,0,0,.091-.338c0-.065-.065-.13-.195-.143-.455-.052-.9-.078-1.378-.091a15.539,15.539,0,0,1,.091,1.781v1.144H7.085V-8.775a6.855,6.855,0,0,1,.052-1.2,2.165,2.165,0,0,0,.078-.338c0-.065-.065-.13-.182-.143-.455-.052-.9-.078-1.365-.091a15.463,15.463,0,0,1,.091,1.768v1.157H3.744v-1a7.492,7.492,0,0,1,.052-1.3,1.675,1.675,0,0,0,.078-.325c0-.065-.065-.13-.2-.143a11.883,11.883,0,0,0-1.417-.1,16.646,16.646,0,0,1,.091,1.885v.988H2.3C1.17-7.618.78-7.644.7-7.644c-.117,0-.13.013-.13.143v1.014c0,.13.013.143.13.143.078,0,.468-.026,1.6-.026ZM9.165-4.186H7.085V-6.37h2.08ZM20.423-.624c0,.975-.026,1.43-.026,1.508,0,.143.013.156.143.156h1.118c.143,0,.156-.013.156-.156,0-.078-.026-.533-.026-1.508V-1.95a5.86,5.86,0,0,1,.052-1.2,1.144,1.144,0,0,0,.065-.2,10,10,0,0,0,2.522,1.417,1.154,1.154,0,0,0,.3.091c.1,0,.143-.091.247-.338a3.343,3.343,0,0,1,.585-.9,7.967,7.967,0,0,1-3.965-2.2h.52c1.274,0,1.729.026,1.807.026.13,0,.143-.013.143-.13,0-.078-.026-.442-.026-1.287V-8.944c0-.845.026-1.209.026-1.287,0-.13-.013-.143-.143-.143-.078,0-.533.026-1.807.026H16.874c-1.261,0-1.716-.026-1.807-.026-.117,0-.13.013-.13.143,0,.078.026.442.026,1.287v2.288c0,.845-.026,1.2-.026,1.287,0,.117.013.13.13.13.091,0,.546-.026,1.807-.026h.286a7.364,7.364,0,0,1-3.783,2.3,3.307,3.307,0,0,1,.572.819c.117.234.156.325.273.325a.9.9,0,0,0,.312-.091,9.091,9.091,0,0,0,2.691-1.612,4.147,4.147,0,0,1,.026.806c-.091,1.391-.819,2.2-2.743,2.743a2.924,2.924,0,0,1,.7.741c.143.221.195.312.3.312a.854.854,0,0,0,.312-.1,3.915,3.915,0,0,0,2.756-3.588,1.8,1.8,0,0,1,.1-.572.675.675,0,0,0,.078-.247c0-.117-.091-.156-.247-.182-.325-.039-.728-.078-1.079-.091a8.221,8.221,0,0,0,1.287-1.56h1.365a7.774,7.774,0,0,0,1.443,1.638c-.377-.039-.78-.065-1.2-.078a12.95,12.95,0,0,1,.091,1.768ZM22.7-6.331H20.111v-.975H22.7Zm0-2.938v.975H20.111v-.975Zm-6.409.975v-.975h2.522v.975Zm0,1.963v-.975h2.522v.975Zm17-1.443a4.7,4.7,0,0,0-2.5,4.121c0,2.7,2.509,4.017,4.8,4.017.156,0,.208-.078.247-.273a4.624,4.624,0,0,0,.143-1.118c0-.143-.078-.195-.286-.195-2.262-.143-3.458-1.053-3.458-2.73,0-1.56,1.105-3.081,3.315-3.835a5.8,5.8,0,0,1,1.586-.286c.169,0,.247-.039.247-.195a7.427,7.427,0,0,0-.143-1.144c-.013-.091-.078-.169-.273-.143-3.354.442-6.214.871-7.813,1.105a17.934,17.934,0,0,1-2.067.221,9.059,9.059,0,0,0,.481,1.4.3.3,0,0,0,.247.195.759.759,0,0,0,.286-.1c.2-.065.325-.091.819-.208,1.391-.286,2.782-.559,4.368-.858Zm1.885,1.859a6.451,6.451,0,0,1,1.313,1.508.136.136,0,0,0,.221.039l.546-.4a.131.131,0,0,0,.039-.208A5.983,5.983,0,0,0,36.062-6.37c-.078-.065-.13-.078-.195-.026Zm1.2-.858a6.15,6.15,0,0,1,1.3,1.5.133.133,0,0,0,.221.039l.52-.4a.15.15,0,0,0,.039-.234,5.429,5.429,0,0,0-1.235-1.339c-.078-.065-.117-.078-.195-.026ZM44.356-3.38c.663.013,1.339.013,1.989-.039.13,0,.169-.052.182-.208a8.761,8.761,0,0,0,.065-.975c0-.117-.039-.169-.208-.143-.624.039-1.157.052-1.846.039.078-.52.208-1.4.286-1.859a12.817,12.817,0,0,0,1.729-.065c.156-.013.208-.052.208-.195a6.069,6.069,0,0,0,.026-.975c0-.091-.039-.156-.13-.156a7.41,7.41,0,0,1-1.6.078c.065-.481.143-.923.208-1.222a1.274,1.274,0,0,1,.234-.559.38.38,0,0,0,.1-.247c0-.117-.1-.234-.286-.3a7.728,7.728,0,0,0-1.56-.364,6.114,6.114,0,0,1,.013,1.092c-.026.39-.065.741-.169,1.495a10.567,10.567,0,0,1-2.353-.494c0,.468.026.9.039,1.209,0,.117.052.182.208.221a9.091,9.091,0,0,0,1.872.364c-.052.533-.156,1.378-.221,1.859a8.129,8.129,0,0,1-2.106-.507,7.513,7.513,0,0,0,.026,1.209c.013.156.052.221.143.247a10.241,10.241,0,0,0,1.768.39c-.052.585-.091.949-.091,1.222,0,1.9.975,2.938,3.276,2.938,2.236,0,3.744-1.2,3.744-3.042A3.389,3.389,0,0,0,48.8-4.81a.3.3,0,0,0-.273-.052,4.147,4.147,0,0,1-1.326.078,3.13,3.13,0,0,1,1.17,2.366c0,1.17-.845,1.755-2.366,1.755-1.209,0-1.729-.468-1.729-1.664A8.009,8.009,0,0,1,44.356-3.38ZM57.967-7.462c.117-.455.208-.936.3-1.456h.546c.9,0,1.183.026,1.274.026.117,0,.13-.013.13-.143v-.91c0-.13-.013-.143-.13-.143-.091,0-.377.026-1.274.026H57.343c-.91,0-1.2-.026-1.274-.026-.13,0-.143.013-.143.143v.91c0,.13.013.143.143.143.065,0,.312-.013.988-.026a8.488,8.488,0,0,1-1.911,4.55,2.861,2.861,0,0,1,.572.7c.091.156.156.234.221.234s.143-.065.234-.182a9.181,9.181,0,0,0,1.443-2.7h1.3a11.332,11.332,0,0,1-.507,2.08,8.44,8.44,0,0,0-.78-.7c-.1-.091-.156-.078-.234.039l-.455.689c-.078.117-.091.156.039.26a6.474,6.474,0,0,1,.91.9A8.2,8.2,0,0,1,55.328-.208a2.715,2.715,0,0,1,.65.637c.143.2.221.286.3.286S56.42.65,56.55.546a10.092,10.092,0,0,0,3.5-6.422c.065-.416.1-.546.169-.624a.357.357,0,0,0,.091-.234c0-.117-.065-.208-.364-.494-.325-.3-.429-.364-.533-.364a.387.387,0,0,0-.182.065.6.6,0,0,1-.3.065Zm-4.29,6.344c0,1.287-.013,1.911-.013,1.989,0,.13.013.143.13.143h1.027c.143,0,.143-.013.143-.143,0-.065-.013-.7-.013-1.989V-7.865c.221-.52.429-1.053.611-1.625a1.274,1.274,0,0,1,.234-.533c.091-.091.143-.156.143-.247s-.078-.156-.221-.208c-.4-.156-.754-.247-1.209-.377a4.153,4.153,0,0,1-.169.962,11.707,11.707,0,0,1-2.132,4.212,2.969,2.969,0,0,1,.4.975c.052.234.117.338.208.338.052,0,.13-.065.208-.169q.351-.487.663-.975c-.013.585-.013,1.183-.013,1.638ZM64-8.918a3.989,3.989,0,0,1,.078-1.313.662.662,0,0,0,.078-.273c0-.065-.078-.13-.195-.143-.416-.052-.858-.065-1.339-.078a12.348,12.348,0,0,1,.091,1.833v7.9c0,.416-.13.507-.481.507a10.377,10.377,0,0,1-1.183-.091,2.4,2.4,0,0,1,.377,1c.078.416.078.416.494.416,1.053,0,1.3-.091,1.651-.338.39-.273.455-.624.455-1.261S64-2.522,64-3.432Zm-3.38,4.693c0,1.105-.026,1.612-.026,1.7,0,.13.013.143.143.143h.988c.13,0,.143-.013.143-.143,0-.078-.026-.6-.026-1.7v-3.5a8.756,8.756,0,0,1,.039-1.391,1.236,1.236,0,0,0,.091-.312c0-.052-.052-.117-.182-.13-.3-.039-.819-.078-1.248-.091a16.462,16.462,0,0,1,.078,1.937ZM72.384-7.969A2.953,2.953,0,0,1,75.3-4.953c0,2.457-1.729,3.367-3.926,3.887a2.757,2.757,0,0,1,.91.819c.169.26.286.312.559.234,2.639-.793,4-2.314,4-4.732,0-2.587-1.833-4.511-4.953-4.511a5.689,5.689,0,0,0-4.225,1.664A4.79,4.79,0,0,0,66.2-4.212c0,2.119,1.157,3.341,2.3,3.341a2.469,2.469,0,0,0,2.21-1.495,16.278,16.278,0,0,0,1.625-5.6Zm-1.56.078a14.853,14.853,0,0,1-1.378,4.654c-.351.624-.637.793-.975.793-.4,0-.884-.663-.884-1.859a3.743,3.743,0,0,1,1.014-2.4A3.915,3.915,0,0,1,70.824-7.891ZM85.618-2.9a6.7,6.7,0,0,0-1.027-.078c-1.469,0-2.405.767-2.405,1.9S83.148.767,84.578.767C86.06.767,87,.169,87-1.131A9.669,9.669,0,0,1,88.582-.039c.052.052.091.078.13.078s.078-.026.117-.091a8,8,0,0,0,.6-1.053c.065-.13.052-.182-.078-.273a10.193,10.193,0,0,0-2.34-1.209,16.977,16.977,0,0,1-.143-2.21,1.351,1.351,0,0,1,.052-.533A1.63,1.63,0,0,0,87-5.6a.2.2,0,0,0-.182-.208A7.027,7.027,0,0,0,85.4-6.058a4.566,4.566,0,0,1,.1.923C85.514-4.524,85.54-3.731,85.618-2.9Zm.026,1.235a1.5,1.5,0,0,1,.013.26c0,.546-.429.923-1.131.923-.741,0-1.105-.208-1.105-.624,0-.494.507-.754,1.157-.754A3.313,3.313,0,0,1,85.644-1.664ZM83.525-8.333c.117-.39.221-.793.312-1.105a1.429,1.429,0,0,1,.208-.481.32.32,0,0,0,.117-.247c0-.091-.078-.169-.208-.195a12.022,12.022,0,0,0-1.521-.273,5.032,5.032,0,0,1-.078,1.053c-.091.468-.182.91-.338,1.456-.6.052-.988.065-1.495.065-.377,0-.676-.013-1.209-.052a6.791,6.791,0,0,0,.13,1.105c.026.169.052.208.182.208.325.013.429.013.715.013.4,0,.806,0,1.3-.026a26.226,26.226,0,0,1-2.249,4.537.249.249,0,0,0-.065.156c0,.052.026.091.091.143a6.171,6.171,0,0,0,.9.663.36.36,0,0,0,.156.065c.052,0,.091-.039.143-.13a35.921,35.921,0,0,0,2.535-5.577c.806-.117,1.443-.208,2.145-.351.1-.013.156-.039.156-.156a7.054,7.054,0,0,0-.117-1.053c-.026-.143-.078-.143-.195-.1A13.972,13.972,0,0,1,83.525-8.333ZM86.411-7.1A11.235,11.235,0,0,1,89.1-5.681a.181.181,0,0,0,.117.052c.039,0,.078-.026.117-.091a7.908,7.908,0,0,0,.546-.962.31.31,0,0,0,.052-.156c0-.052-.039-.091-.117-.143A10.142,10.142,0,0,0,87.269-8.2.181.181,0,0,0,87-8.112C86.827-7.878,86.632-7.488,86.411-7.1Zm6.11-1.937a6.969,6.969,0,0,1,.156,1.7,23.568,23.568,0,0,0,.312,3.783c.351,2.2,1.417,3.393,2.431,3.393.91,0,1.716-.7,2.21-2.028a.4.4,0,0,0-.091-.481,4.969,4.969,0,0,1-.832-1c-.507,1.352-.832,1.807-1.248,1.807-.546,0-.884-.884-1.066-1.911a16.372,16.372,0,0,1-.234-2.964,5.841,5.841,0,0,1,.117-1.274,1.132,1.132,0,0,0,.1-.364c0-.091-.091-.182-.208-.234A5.627,5.627,0,0,0,92.521-9.035Zm6.656,1.846a8.759,8.759,0,0,1,2.431,4.537c.026.156.117.195.273.143a4.412,4.412,0,0,0,1.014-.52c.1-.065.182-.117.143-.286a8.6,8.6,0,0,0-2.548-4.446.2.2,0,0,0-.143-.078.386.386,0,0,0-.143.052C100-7.683,99.671-7.5,99.177-7.189Zm-90.3,19.5.533-3.562a1.465,1.465,0,0,1,.351-.858.358.358,0,0,0,.13-.26A.337.337,0,0,0,9.776,7.4a5.034,5.034,0,0,0-1.027-.9.281.281,0,0,0-.182-.078.517.517,0,0,0-.208.078,2.019,2.019,0,0,1-.962.13H5.083q-1.229,0-2.223-.078a10.212,10.212,0,0,0,.117,1.287c.026.182.052.26.182.26.559-.039,1.222-.065,1.846-.065H7.852l-.611,4.29H3.276c-.754,0-1.573-.013-2.314-.065a11.217,11.217,0,0,0,.091,1.261c.026.208.065.26.286.247.481,0,1.17-.039,2.054-.039H9.529c.767,0,1.573.026,2.314.026.182.013.221-.039.221-.247a6.433,6.433,0,0,0,0-1c0-.182-.039-.221-.286-.221-.663.013-1.352.026-2.015.026ZM20.618,8.175c.832,0,1.664.013,2.275.039.13,0,.156-.065.169-.247a8.591,8.591,0,0,0,0-1.157c0-.156-.039-.221-.143-.221-.559.026-1.339.065-2.34.065H18.005c-.78,0-1.391-.013-2.21-.078a8.762,8.762,0,0,0,.078,1.378c.013.2.052.273.182.273.6-.026,1.17-.052,1.989-.052ZM21.71,13.7c.884,0,2.223.013,2.847.039.169,0,.195-.078.195-.273a8.209,8.209,0,0,0,0-1.131c0-.169-.039-.234-.208-.234-.6.026-1.482.065-2.925.065H16.887c-.819,0-1.755-.013-2.691-.078.039.689.065,1.131.117,1.43.026.169.065.247.195.247.637-.052,1.5-.065,2.34-.065Zm12.74-2.717c.962,0,1.924.013,2.9.026.182.013.234-.039.234-.195a9.582,9.582,0,0,0,0-1.222c0-.156-.039-.195-.234-.182-1,.013-2,.039-2.99.039H30.173a16.7,16.7,0,0,1-2.808-.156,14.11,14.11,0,0,0,.195,1.573c.039.195.143.273.3.273a10.4,10.4,0,0,1,1.911-.156Zm11.076-4.29c.156-.234.286-.429.429-.65a1.411,1.411,0,0,1,.325-.351.259.259,0,0,0,.143-.221.271.271,0,0,0-.13-.221,6.4,6.4,0,0,0-1.521-.689,5.552,5.552,0,0,1-.767,1.755,15.42,15.42,0,0,1-3.5,3.861,3.526,3.526,0,0,1,1.248.559.312.312,0,0,0,.195.078.4.4,0,0,0,.273-.143,18.105,18.105,0,0,0,2.457-2.665l3.146-.091a13.244,13.244,0,0,1-2.4,3.692,14.976,14.976,0,0,1-4.329,3.315,3.421,3.421,0,0,1,1.235.6.458.458,0,0,0,.3.143.351.351,0,0,0,.208-.065,16.512,16.512,0,0,0,3.952-3.237,17.918,17.918,0,0,0,2.574-4.017,1.566,1.566,0,0,1,.429-.559.375.375,0,0,0,.156-.273.421.421,0,0,0-.169-.3,6,6,0,0,0-.884-.7.377.377,0,0,0-.208-.078.261.261,0,0,0-.169.052,1.206,1.206,0,0,1-.65.156ZM59.618,12.1a6.7,6.7,0,0,0-1.027-.078c-1.469,0-2.4.767-2.4,1.9s.962,1.846,2.392,1.846c1.482,0,2.418-.6,2.418-1.9a9.669,9.669,0,0,1,1.586,1.092c.052.052.091.078.13.078s.078-.026.117-.091a8,8,0,0,0,.6-1.053c.065-.13.052-.182-.078-.273a10.193,10.193,0,0,0-2.34-1.209,16.978,16.978,0,0,1-.143-2.21,1.351,1.351,0,0,1,.052-.533A1.63,1.63,0,0,0,61,9.4a.2.2,0,0,0-.182-.208A7.027,7.027,0,0,0,59.4,8.942a4.566,4.566,0,0,1,.1.923C59.514,10.476,59.54,11.269,59.618,12.1Zm.026,1.235a1.5,1.5,0,0,1,.013.26c0,.546-.429.923-1.131.923-.741,0-1.1-.208-1.1-.624,0-.494.507-.754,1.157-.754A3.313,3.313,0,0,1,59.644,13.336ZM57.525,6.667c.117-.39.221-.793.312-1.105a1.429,1.429,0,0,1,.208-.481.32.32,0,0,0,.117-.247c0-.091-.078-.169-.208-.195a12.022,12.022,0,0,0-1.521-.273,5.031,5.031,0,0,1-.078,1.053c-.091.468-.182.91-.338,1.456-.6.052-.988.065-1.495.065-.377,0-.676-.013-1.209-.052a6.792,6.792,0,0,0,.13,1.105c.026.169.052.208.182.208.325.013.429.013.715.013.4,0,.806,0,1.3-.026a26.226,26.226,0,0,1-2.249,4.537.249.249,0,0,0-.065.156c0,.052.026.091.091.143a6.171,6.171,0,0,0,.9.663.36.36,0,0,0,.156.065c.052,0,.091-.039.143-.13a35.921,35.921,0,0,0,2.535-5.577c.806-.117,1.443-.208,2.145-.351.1-.013.156-.039.156-.156a7.054,7.054,0,0,0-.117-1.053c-.026-.143-.078-.143-.195-.1A13.972,13.972,0,0,1,57.525,6.667ZM60.411,7.9A11.235,11.235,0,0,1,63.1,9.319a.181.181,0,0,0,.117.052c.039,0,.078-.026.117-.091a7.907,7.907,0,0,0,.546-.962.31.31,0,0,0,.052-.156c0-.052-.039-.091-.117-.143A10.143,10.143,0,0,0,61.269,6.8.181.181,0,0,0,61,6.888C60.827,7.122,60.632,7.512,60.411,7.9ZM74.4,12.1V14.87c0,.429.117.728.338.845a2.393,2.393,0,0,0,1.17.182,1.756,1.756,0,0,0,1.248-.312c.234-.208.4-.546.468-1.534.026-.338,0-.377-.338-.468a2.45,2.45,0,0,1-.754-.325c-.026,1.053-.091,1.287-.195,1.378a.574.574,0,0,1-.377.091c-.156,0-.247,0-.312-.052s-.078-.117-.078-.338V12.1c.689.013.962.026,1.027.026.13,0,.143-.013.143-.13,0-.078-.026-.3-.026-.884v-.936c0-.585.026-.793.026-.871,0-.13-.013-.143-.143-.143-.078,0-.416.026-1.4.026H73.4c-1.014,0-1.326-.026-1.417-.026-.13,0-.143.013-.143.143,0,.091.026.286.026.871v.936c0,.585-.026.793-.026.884,0,.117.013.13.143.13.065,0,.247-.013.689-.013-.039,1.859-.741,2.5-2.483,3.016a2.5,2.5,0,0,1,.624.65c.117.2.208.26.312.26a.786.786,0,0,0,.312-.1c1.5-.7,2.327-1.508,2.4-3.835Zm1.066-.936H73.086v-1.04h2.379Zm-6.539.936v1.833c-.26.078-.494.143-.728.195a8.348,8.348,0,0,0,.325,1.118c.052.117.1.156.169.156s.117-.039.195-.1a1.952,1.952,0,0,1,.442-.221,16.316,16.316,0,0,0,1.846-.91c.364-.208.377-.247.338-.611-.026-.247-.039-.52-.039-.741a12.276,12.276,0,0,1-1.378.689V12.1c.494.013.7.026.767.026.13,0,.143-.013.143-.13,0-.078-.026-.3-.026-.884v-.936c0-.585.026-.793.026-.871,0-.13-.013-.143-.143-.143-.078,0-.4.026-1.378.026H67.756c-.975,0-1.3-.026-1.378-.026-.143,0-.156.013-.156.143,0,.091.026.286.026.871v.936c0,.585-.026.793-.026.884,0,.117.013.13.156.13.052,0,.247-.013.715-.026a3.389,3.389,0,0,1-1.729,3.029,2.7,2.7,0,0,1,.689.7c.078.1.13.156.195.156s.182-.065.351-.195a4.624,4.624,0,0,0,1.69-3.692Zm.806-.936H67.47v-1.04h2.262Zm5.98-2.613c1.118,0,1.482.026,1.56.026.13,0,.143-.013.143-.143V7.642c0-.13-.013-.143-.143-.143-.078,0-.429.026-1.443.026l.156-.351a.975.975,0,0,1,.143-.286.263.263,0,0,0,.1-.182c0-.078-.078-.1-.208-.143-.208-.065-.572-.156-.988-.247a2.11,2.11,0,0,1-.117.559c-.078.247-.156.455-.234.65h-.923a10.594,10.594,0,0,0-.325-1.053c-.052-.143-.117-.156-.273-.117l-.663.156c-.182.039-.195.091-.13.221a6.289,6.289,0,0,1,.3.793c-.637,0-.884-.026-.936-.026-.13,0-.143.013-.143.143v.793c0,.13.013.143.143.143.078,0,.442-.026,1.56-.026Zm-6.136,0c1.092,0,1.443.026,1.521.026.143,0,.156-.013.156-.143V7.642c0-.13-.013-.143-.156-.143-.065,0-.3.026-.962.026l.156-.364a.877.877,0,0,1,.169-.286c.065-.065.1-.1.1-.182s-.052-.117-.195-.156c-.234-.065-.624-.156-1-.221a2.145,2.145,0,0,1-.117.559c-.078.247-.156.455-.234.65h-.9a7.8,7.8,0,0,0-.338-1.066c-.052-.13-.117-.156-.273-.117l-.637.169c-.182.052-.195.078-.143.208A7.264,7.264,0,0,1,67,7.525c-.91,0-1.248-.026-1.3-.026-.143,0-.156.013-.156.143v.793c0,.13.013.143.156.143.065,0,.429-.026,1.534-.026Zm5.837-2.288c1.053,0,1.4.026,1.495.026.13,0,.143-.013.143-.143V5.38c0-.13-.013-.143-.143-.143-.091,0-.442.026-1.495.026h-.546v-.3a.813.813,0,0,1,.078-.455c.039-.065.078-.091.078-.182,0-.065-.091-.117-.221-.13a12.289,12.289,0,0,0-1.248-.065,3.365,3.365,0,0,1,.078.884v.247h-.338c-1.066,0-1.4-.026-1.482-.026-.13,0-.143.013-.143.143v.767c0,.13.013.143.143.143.078,0,.416-.026,1.482-.026Zm-5.863,0c1.04,0,1.365.026,1.443.026.143,0,.156-.013.156-.143V5.38c0-.13-.013-.143-.156-.143-.078,0-.4.026-1.443.026h-.286V4.977c0-.273.013-.377.078-.468a.274.274,0,0,0,.065-.2c0-.052-.078-.1-.208-.117-.442-.039-.78-.065-1.261-.065a3.156,3.156,0,0,1,.078.884v.247h-.455c-1.04,0-1.378-.026-1.456-.026-.143,0-.156.013-.156.143v.767c0,.13.013.143.156.143.078,0,.416-.026,1.456-.026ZM88.569,12.01a12.577,12.577,0,0,1-.234,2.041c-.117.52-.325.6-.676.6a7.64,7.64,0,0,1-1.092-.091,2.529,2.529,0,0,1,.286.858c.091.429.091.429.416.442.247.013.494.013.728.013a1.437,1.437,0,0,0,1.365-.689,7.757,7.757,0,0,0,.585-3.029c.026-.312.039-.78.078-1.131.013-.117-.026-.143-.169-.143-.078,0-.533.026-1.807.026H85.28V9.943h1.43c1.248,0,1.677.026,1.755.026.143,0,.156-.013.156-.143V8.981c0-.13-.013-.143-.156-.143-.078,0-.507.026-1.755.026H85.28V7.928h1.43c1.248,0,1.677.026,1.755.026.143,0,.156-.013.156-.143V6.966c0-.13-.013-.143-.156-.143-.078,0-.507.026-1.755.026H85.28V5.887h2.171c1.261,0,1.69.026,1.768.026.13,0,.143-.013.143-.143V4.86c0-.13-.013-.143-.143-.143-.078,0-.507.026-1.768.026h-5.2c-1.365,0-1.976-.026-2.106-.026s-.156.013-.156.143c0,.091.026.611.026,1.69V10.2c0,1.079-.026,1.612-.026,1.69,0,.13.013.143.156.143s.741-.026,2.106-.026ZM81.341,6.849V5.887h2.626v.962Zm0,4.056V9.943h2.626v.962Zm0-2.041V7.928h2.626v.936Zm-1.781,6.8a.435.435,0,0,0,.156.065c.039,0,.052-.026.091-.091a9.31,9.31,0,0,0,1.222-2.665c.039-.143.013-.182-.143-.234l-.793-.286c-.195-.065-.208-.078-.26.065a6.547,6.547,0,0,1-1.209,2.4c-.078.1-.065.143.1.247Zm2.145-2.873c-.195.013-.208.039-.182.182a15.869,15.869,0,0,1,.3,2.366c.013.156.026.156.234.13l.845-.13c.195-.026.195-.065.182-.2a14.17,14.17,0,0,0-.377-2.3c-.039-.143-.052-.143-.221-.13Zm2.171-.065c-.182.039-.208.052-.156.195a11.119,11.119,0,0,1,.468,1.963c.026.156.052.156.247.117l.767-.182c.182-.026.182-.065.156-.182a11.878,11.878,0,0,0-.546-1.924c-.052-.143-.065-.143-.221-.117Zm2.08-.221c-.182.039-.208.078-.143.208a8.22,8.22,0,0,1,.546,1.625c.039.143.065.156.247.1l.7-.221c.156-.052.169-.065.13-.208a8.674,8.674,0,0,0-.611-1.56c-.052-.117-.078-.143-.247-.1ZM98.5,4.7H96.473l.364,7.735H98.15Zm-1.95,9v1.755H98.4V13.7Z" transform="translate(93.102 604)"/></g></svg>