<svg xmlns="http://www.w3.org/2000/svg" width="145.46" height="59.899" viewBox="0 0 145.46 59.899"><g transform="translate(-69.667 -570.798)"><path d="M128.325,0,142.4,13.165l3.06,32.276-12.4,12.752L20.594,59.9l-8.009-4.371L11.472,44.433,0,41.181l9.692-7.843L9.024,19.217,20.149,8.458Z" transform="translate(69.667 570.798)" fill="#ffe330"/><path d="M9.009-4.771A14.637,14.637,0,0,0,9.36-1.118C9.789.351,10.439.936,11.167.936c.806,0,1.144-.572,1.365-2.067.065-.416.078-.455-.195-.559a2.3,2.3,0,0,1-.9-.559c-.091,1.235-.208,1.664-.364,1.664-.26,0-.312-.325-.481-1.066a14.1,14.1,0,0,1-.247-2.522,14.57,14.57,0,0,1,.013-1.677c0-.13-.026-.156-.156-.156-.078,0-.507.026-1.794.026H3.341c-1.261,0-1.7-.026-1.781-.026-.143,0-.156.013-.156.143v.975c0,.13.013.143.156.143.078,0,.52-.026,1.781-.026ZM2.587-3.536c-.13.13-.13.156-.013.234.6.4,1.17.832,1.716,1.274A9.846,9.846,0,0,1,.78-.195a2.906,2.906,0,0,1,.663.754c.13.221.195.3.286.3a.982.982,0,0,0,.325-.1A11.819,11.819,0,0,0,5.265-1.2C5.85-.663,6.409-.1,6.955.494c.052.052.091.078.13.078s.1-.039.182-.117L7.995-.3a.2.2,0,0,0,.078-.143.223.223,0,0,0-.1-.156q-.9-.819-1.755-1.521a10.554,10.554,0,0,0,.9-1.118,1.251,1.251,0,0,1,.351-.377c.1-.065.169-.13.169-.208s-.052-.143-.169-.234a4.973,4.973,0,0,0-1.118-.533,4.244,4.244,0,0,1-.39.728c-.247.338-.494.65-.754.949-.6-.455-1.183-.858-1.742-1.235-.1-.078-.13-.065-.26.052ZM9.88-8.515c1.274,0,1.7.026,1.781.026.143,0,.156-.013.156-.143v-.949c0-.13-.013-.143-.156-.143-.078,0-.507.026-1.781.026H4.069l.2-.4a.729.729,0,0,1,.221-.286c.052-.052.091-.078.091-.169s-.065-.143-.182-.182a8.776,8.776,0,0,0-1.183-.286,2.816,2.816,0,0,1-.234.689A7.661,7.661,0,0,1,.715-7.475a2.369,2.369,0,0,1,.663.6c.13.182.208.26.286.26s.156-.078.3-.221A10,10,0,0,0,3.38-8.515Zm-1.1,1.807c1.222,0,1.651.026,1.729.026.13,0,.143-.013.143-.156v-.871c0-.13-.013-.143-.143-.143-.078,0-.507.026-1.729.026H5.109c-1.235,0-1.651-.026-1.716-.026-.13,0-.143.013-.143.143v.871c0,.143.013.156.143.156.065,0,.481-.026,1.716-.026Zm12.246-3.458c-1.1,0-1.482-.026-1.56-.026-.143,0-.156.013-.156.143v.91c0,.13.013.143.156.143.026,0,.117,0,.3-.013a8.294,8.294,0,0,0,1.547,2.262,10.1,10.1,0,0,1-2.483,1.261v-.845c0-.78.026-1.131.026-1.209,0-.13-.013-.143-.143-.143-.091,0-.442.026-1.43.026h-.234v-.832h.312c1.092,0,1.482.026,1.56.026.117,0,.13-.013.13-.143v-.845c0-.117-.013-.13-.13-.13-.078,0-.468.026-1.56.026h-.312v-.039a2.1,2.1,0,0,1,.091-.845.58.58,0,0,0,.065-.234c0-.065-.065-.1-.208-.13a10.952,10.952,0,0,0-1.235-.091,8.02,8.02,0,0,1,.091,1.339h-.559c-1.092,0-1.456-.026-1.534-.026-.13,0-.143.013-.143.13v.845c0,.13.013.143.143.143.078,0,.442-.026,1.534-.026h.559v.832H15.6c-.988,0-1.339-.026-1.417-.026-.13,0-.143.013-.143.143,0,.078.026.429.026,1.209v2.015c0,.793-.026,1.131-.026,1.222,0,.117.013.13.143.13.078,0,.429-.026,1.417-.026h.234v.845h-.572c-1.131,0-1.508-.026-1.586-.026-.13,0-.143.013-.143.143V-1.2c0,.13.013.143.143.143.078,0,.455-.026,1.586-.026h.572C15.821.143,15.808.806,15.808.871c0,.13.013.143.143.143h.962c.13,0,.143-.013.143-.143,0-.052-.026-.728-.026-1.95h.325c1.131,0,1.534.026,1.612.026.117,0,.13-.013.13-.143v-.832c0-.13-.013-.143-.13-.143-.078,0-.481.026-1.612.026H17.03V-2.99h.247c.988,0,1.339.026,1.43.026.13,0,.143-.013.143-.13,0-.078-.026-.429-.026-1.222V-5.46a4.353,4.353,0,0,1,.416.7c.1.247.143.351.247.351a.937.937,0,0,0,.312-.1,12.425,12.425,0,0,0,2.431-1.4,10.266,10.266,0,0,0,2.509,1.378,1.154,1.154,0,0,0,.3.091c.117,0,.143-.1.247-.351a2.956,2.956,0,0,1,.442-.806,11.133,11.133,0,0,1-2.548-1.144A10.145,10.145,0,0,0,24.57-8.541a1.935,1.935,0,0,1,.416-.559c.13-.1.156-.169.156-.26,0-.117-.026-.169-.39-.546-.351-.351-.429-.377-.533-.377a.369.369,0,0,0-.169.052.678.678,0,0,1-.325.065ZM23.4-9.022A7.267,7.267,0,0,1,22.217-7.5a6.409,6.409,0,0,1-1.17-1.521Zm-5.642,5.1h-.767V-4.9h.767Zm-2.626,0V-4.9H15.9v.975Zm0-1.859v-.936H15.9v.936Zm2.626-.936v.936h-.767v-.936Zm4.979,3.237v-.078a2.79,2.79,0,0,1,.078-.988.679.679,0,0,0,.052-.273c0-.078-.065-.13-.195-.143-.442-.039-.845-.078-1.313-.091a8.86,8.86,0,0,1,.091,1.508v.065h-.39c-1.092,0-1.456-.026-1.534-.026-.13,0-.143.013-.143.143v.923c0,.13.013.143.143.143.078,0,.442-.026,1.534-.026h.39V-.572h-.884c-1.209,0-1.6-.026-1.677-.026-.13,0-.143.013-.143.143V.468c0,.143.013.156.143.156.078,0,.468-.026,1.677-.026h3.146c1.209,0,1.612.026,1.69.026.117,0,.13-.013.13-.156V-.455c0-.13-.013-.143-.13-.143-.078,0-.481.026-1.69.026h-.975V-2.327h.6c1.092,0,1.456.026,1.547.026.13,0,.143-.013.143-.143v-.923c0-.13-.013-.143-.143-.143-.091,0-.455.026-1.547.026Zm5.655-6.422a10.489,10.489,0,0,1-.234,1.937A24.817,24.817,0,0,0,27.716-3.7a12.187,12.187,0,0,0,.6,3.874c.026.091.078.156.169.143A6.453,6.453,0,0,0,29.549.1c.117-.026.169-.078.169-.169s-.026-.208-.026-.364a1.476,1.476,0,0,1,.039-.4A12.709,12.709,0,0,1,30.472-2.8.36.36,0,0,0,30.537-3a.518.518,0,0,0-.091-.2,3.375,3.375,0,0,1-.455-.819c-.377.91-.611,1.339-.884,1.937A12.536,12.536,0,0,1,29.029-3.6a21.065,21.065,0,0,1,.546-4.2,3.071,3.071,0,0,1,.312-.923c.169-.26.2-.3.2-.39,0-.117-.078-.2-.3-.312A5.753,5.753,0,0,0,28.392-9.906ZM31.382-3.2a2.864,2.864,0,0,0,.455,1.69c.559.767,1.456,1.079,3.38,1.079a17.454,17.454,0,0,0,2.119-.143c.221-.026.221-.039.221-.195a9.632,9.632,0,0,0-.078-1.118c-.026-.169-.052-.182-.182-.169a18.635,18.635,0,0,1-2.483.169c-1.417,0-2.041-.325-2.119-1.222,0-.143-.026-.208-.13-.2ZM31.8-6.89a15.893,15.893,0,0,1,2.951-.3c.663,0,1.339.026,2.119.078.117.013.156-.039.169-.156.026-.364.026-.715.026-1.1,0-.13-.026-.156-.3-.169-.546-.052-1.144-.078-1.924-.078a20.756,20.756,0,0,0-2.821.234c-.13.026-.169.065-.182.221C31.811-7.943,31.811-7.618,31.8-6.89ZM8.359,8.539c0,.143.013.156.143.156.078,0,.325-.026,1.17-.026H10.5a5.209,5.209,0,0,1-.559.611c-.13,0-.273-.013-.429-.026q.059.41.078.819H9.412c-.936,0-1.235-.026-1.313-.026-.13,0-.143.013-.143.143v.9c0,.13.013.143.143.143.078,0,.377-.026,1.313-.026h.182v1.144c0,.351-.091.429-.442.429a5.612,5.612,0,0,1-.832-.065,3.3,3.3,0,0,1,.247.91c.052.3.052.3.468.312a2.221,2.221,0,0,0,1.378-.26,1.037,1.037,0,0,0,.416-1c0-.494-.026-1.066-.026-1.469h.169c.923,0,1.222.026,1.3.026.117,0,.13-.013.13-.143v-.9c0-.13-.013-.143-.13-.143-.078,0-.377.026-1.3.026H10.8a.553.553,0,0,1,.065-.325.634.634,0,0,0,.078-.169l.676-.676a1.664,1.664,0,0,1,.442-.39.266.266,0,0,0,.182-.221c0-.117-.052-.195-.286-.481s-.351-.351-.455-.351a.519.519,0,0,0-.169.052.669.669,0,0,1-.273.039H9.672c-.533,0-.819,0-.988-.013.169-.247.312-.494.455-.754h1.7c1.014,0,1.352.026,1.43.026.117,0,.13-.013.13-.13V5.77c0-.13-.013-.143-.13-.143-.078,0-.416.026-1.43.026H9.633c.065-.169.13-.351.182-.533a1.02,1.02,0,0,1,.2-.377.267.267,0,0,0,.1-.2c0-.078-.078-.117-.273-.182A6.987,6.987,0,0,0,8.8,4.132a4.017,4.017,0,0,1-.156.767,8.793,8.793,0,0,1-.858,1.872v-.91c0-.13-.013-.143-.143-.143-.078,0-.325.026-1.118.026V5.328A2.084,2.084,0,0,1,6.591,4.6a.608.608,0,0,0,.078-.247c0-.078-.078-.13-.208-.143-.481-.039-.819-.065-1.3-.065a6.607,6.607,0,0,1,.078,1.183v.416H5.005c-.884,0-1.157-.026-1.235-.026-.13,0-.143.013-.143.143v.884c0,.143.013.156.143.156.065,0,.26-.013.819-.026.026,2.769-.169,4.329-1.118,5.85a3.062,3.062,0,0,1,.637.715c.091.13.156.208.221.208s.143-.078.221-.208A9.965,9.965,0,0,0,5.707,9.2h.741a15.482,15.482,0,0,1-.195,3.068c-.078.351-.2.442-.416.442a4.562,4.562,0,0,1-.689-.078,4.4,4.4,0,0,1,.26.975c.039.3.052.3.338.325.143.013.247.013.4.013a1.088,1.088,0,0,0,1.118-.754,14.56,14.56,0,0,0,.351-3.744c0-.325.013-.845.039-1.274,0-.13-.026-.156-.156-.156-.078,0-.221.026-.78.026H5.772c.013-.377.026-.767.026-1.17h.611c.884,0,1.157.026,1.235.026H7.7a6.3,6.3,0,0,1-.429.6,2.123,2.123,0,0,1,.65.351c.247.182.325.247.442.143ZM3.367,10.4c0-.806.026-1.183.026-1.261,0-.13-.013-.143-.13-.143-.078,0-.273.026-.923.026h-.7c-.65,0-.819-.026-.884-.026-.13,0-.143.013-.143.143v.988c0,.143.013.156.143.156.065,0,.234-.026.884-.026h.468v2.9a7.436,7.436,0,0,1-.975.858,2.852,2.852,0,0,1-.7.39,10.153,10.153,0,0,0,.507,1.157c.052.1.117.182.195.182a.216.216,0,0,0,.182-.13,1.464,1.464,0,0,1,.286-.273c.494-.416.819-.728,1.2-1.105A2.768,2.768,0,0,0,4.173,15.4a9.259,9.259,0,0,0,3.081.351c1.365,0,2.925-.026,4.6-.117.4-.026.4-.026.468-.442a2.013,2.013,0,0,1,.351-.949c-1.937.195-3.952.273-5.616.273a8.63,8.63,0,0,1-2.574-.26,2,2,0,0,1-1.118-1.066ZM3.5,6.745c.143-.1.143-.13.078-.234A10.4,10.4,0,0,0,1.937,4.574c-.1-.091-.143-.078-.286.013l-.689.481c-.156.1-.169.143-.065.234A10.11,10.11,0,0,1,2.5,7.33c.039.065.078.091.117.091a.286.286,0,0,0,.156-.078ZM22.36,8.578a14.55,14.55,0,0,0,1.794,3.354.244.244,0,0,0,.208.156.2.2,0,0,0,.143-.065,5.861,5.861,0,0,0,.715-.819A.408.408,0,0,0,25.311,11a.252.252,0,0,0-.078-.169A13.184,13.184,0,0,1,23.1,7.876a15.774,15.774,0,0,1-.871-1.95c-.026-.091-.091-.169-.195-.143a7.638,7.638,0,0,0-.975.247c-.2.065-.2.13-.13.351s.1.377.143.533.065.4.091.676a17.728,17.728,0,0,1,.078,1.95,6.569,6.569,0,0,1-.806,3.536,2.546,2.546,0,0,1-2.327,1.183c-1.118,0-1.95-.754-1.95-2.418a6.087,6.087,0,0,1,1.6-3.9A4.873,4.873,0,0,1,18.993,6.81c.143-.078.208-.156.208-.26a.63.63,0,0,0-.117-.3,3.346,3.346,0,0,0-.546-.689.267.267,0,0,0-.182-.1.432.432,0,0,0-.208.1,2.238,2.238,0,0,1-.91.273,17.016,17.016,0,0,1-1.7.221A6.588,6.588,0,0,1,14.2,6.03a8.8,8.8,0,0,0,.351,1.326.261.261,0,0,0,.221.195c.1,0,.3-.091.52-.13.572-.1,1.027-.143,1.456-.208a5.325,5.325,0,0,0-.78.949,7.282,7.282,0,0,0-1.2,3.848c0,2.249,1.352,3.692,3.38,3.692a3.727,3.727,0,0,0,3.159-1.352,5.945,5.945,0,0,0,1.17-3.757A12.337,12.337,0,0,0,22.3,8.6Zm.013-3.367a6.45,6.45,0,0,1,1.313,1.508.136.136,0,0,0,.221.039l.546-.4a.131.131,0,0,0,.039-.208,5.983,5.983,0,0,0-1.235-1.391c-.078-.065-.13-.078-.195-.026Zm1.2-.858a6.15,6.15,0,0,1,1.3,1.495.133.133,0,0,0,.221.039l.52-.4a.15.15,0,0,0,.039-.234,5.429,5.429,0,0,0-1.235-1.339c-.078-.065-.117-.078-.2-.026Zm4.823.741a10.489,10.489,0,0,1-.234,1.937,24.817,24.817,0,0,0-.442,4.264,12.187,12.187,0,0,0,.6,3.874c.026.091.078.156.169.143a6.453,6.453,0,0,0,1.066-.208c.117-.026.169-.078.169-.169s-.026-.208-.026-.364a1.476,1.476,0,0,1,.039-.4,12.709,12.709,0,0,1,.741-1.963A.36.36,0,0,0,30.537,12a.518.518,0,0,0-.091-.195,3.375,3.375,0,0,1-.455-.819c-.377.91-.611,1.339-.884,1.937a12.536,12.536,0,0,1-.078-1.521,21.065,21.065,0,0,1,.546-4.2,3.071,3.071,0,0,1,.312-.923c.169-.26.2-.3.2-.39,0-.117-.078-.2-.3-.312A5.753,5.753,0,0,0,28.392,5.094Zm2.99,6.708a2.864,2.864,0,0,0,.455,1.69c.559.767,1.456,1.079,3.38,1.079a17.454,17.454,0,0,0,2.119-.143c.221-.026.221-.039.221-.195a9.632,9.632,0,0,0-.078-1.118c-.026-.169-.052-.182-.182-.169a18.635,18.635,0,0,1-2.483.169c-1.417,0-2.041-.325-2.119-1.222,0-.143-.026-.208-.13-.195ZM31.8,8.11a15.893,15.893,0,0,1,2.951-.3c.663,0,1.339.026,2.119.078.117.013.156-.039.169-.156.026-.364.026-.715.026-1.1,0-.13-.026-.156-.3-.169-.546-.052-1.144-.078-1.924-.078a20.756,20.756,0,0,0-2.821.234c-.13.026-.169.065-.182.221C31.811,7.057,31.811,7.382,31.8,8.11ZM43.862,11.1a10.64,10.64,0,0,1-4.329,3.2,3.369,3.369,0,0,1,.611.858c.117.221.156.312.247.312a.971.971,0,0,0,.312-.13,11.282,11.282,0,0,0,4.056-3.549c-.013,1.833-.065,3.6-.065,4.108,0,.13.013.143.143.143h1.131c.13,0,.143-.013.143-.143,0-.481-.039-2.3-.065-4.186a11.477,11.477,0,0,0,4.316,3.666.943.943,0,0,0,.3.13c.091,0,.13-.091.234-.325a3.674,3.674,0,0,1,.676-.949A12.015,12.015,0,0,1,46.9,11.1h2.483c1.17,0,1.573.026,1.651.026.13,0,.143-.013.143-.156v-.949c0-.13-.013-.143-.143-.143-.078,0-.481.026-1.651.026H48.269c.3-.455.533-.858.78-1.287a1.424,1.424,0,0,1,.325-.468.179.179,0,0,0,.117-.169c0-.091-.052-.156-.208-.208a12.115,12.115,0,0,0-1.313-.325,3.477,3.477,0,0,1-.208.689A10.9,10.9,0,0,1,46.9,9.9h-.819V7.122h2.587c1.248,0,1.664.026,1.742.026.143,0,.156-.013.156-.143V6.043c0-.13-.013-.143-.156-.143-.078,0-.494.026-1.742.026H46.085V5.64A4.3,4.3,0,0,1,46.15,4.7a1.646,1.646,0,0,0,.078-.364c0-.052-.052-.117-.182-.13-.455-.052-.936-.078-1.4-.091a8.492,8.492,0,0,1,.091,1.534v.273H42.341c-1.248,0-1.664-.026-1.742-.026-.13,0-.143.013-.143.143v.962c0,.13.013.143.143.143.078,0,.494-.026,1.742-.026h2.392V9.9h-3.12c-1.17,0-1.573-.026-1.651-.026-.13,0-.143.013-.143.143v.949c0,.143.013.156.143.156.078,0,.481-.026,1.651-.026ZM41.574,7.824c-.156.052-.182.091-.1.221a7.965,7.965,0,0,1,.78,1.6c.052.13.078.143.247.078l.936-.351c.143-.052.182-.078.13-.208a9.618,9.618,0,0,0-.819-1.6c-.078-.117-.117-.117-.26-.065Zm17.849-.663a4.7,4.7,0,0,0-2.5,4.121c0,2.7,2.509,4.017,4.8,4.017.156,0,.208-.078.247-.273a4.624,4.624,0,0,0,.143-1.118c0-.143-.078-.195-.286-.195-2.262-.143-3.458-1.053-3.458-2.73,0-1.56,1.1-3.081,3.315-3.835a5.8,5.8,0,0,1,1.586-.286c.169,0,.247-.039.247-.195a7.427,7.427,0,0,0-.143-1.144c-.013-.091-.078-.169-.273-.143-3.354.442-6.214.871-7.813,1.105a17.934,17.934,0,0,1-2.067.221,9.059,9.059,0,0,0,.481,1.4.3.3,0,0,0,.247.195.759.759,0,0,0,.286-.1c.195-.065.325-.091.819-.208,1.391-.286,2.782-.559,4.368-.858Zm10.426-.078c.026-.663.052-1.118.065-1.443a1.37,1.37,0,0,1,.156-.507.486.486,0,0,0,.065-.2c0-.117-.091-.208-.247-.26a9.562,9.562,0,0,0-1.5-.3,5.213,5.213,0,0,1,.13,1.326c0,.741-.013,1.118-.013,1.729-.728.182-1.365.312-1.794.4a4.95,4.95,0,0,1-.767.065,11.9,11.9,0,0,0,.533,1.274.278.278,0,0,0,.234.169.386.386,0,0,0,.208-.1,1.223,1.223,0,0,1,.286-.156c.377-.143.754-.247,1.261-.39,0,.273,0,.572-.013.884-.806,1.183-1.534,2.236-2.418,3.549a.315.315,0,0,0-.078.143c0,.039.026.065.065.1a5.622,5.622,0,0,0,.845.715.325.325,0,0,0,.143.065c.052,0,.091-.039.143-.13.39-.663.884-1.482,1.274-2.158-.039,1.456-.065,2.665-.065,3.51,0,.143.065.221.182.221a6.042,6.042,0,0,0,1.014-.065c.169-.013.221-.052.221-.169-.026-1.3-.039-2.587-.078-4.524a14.649,14.649,0,0,1,2.158-2.093,3.072,3.072,0,0,1,1.755-.806c.715,0,1.144.9,1.144,2.73a11.075,11.075,0,0,1-.065,1.261,4.161,4.161,0,0,0-1.456-.26,1.866,1.866,0,0,0-2.015,1.807,1.816,1.816,0,0,0,2.041,1.716,2.336,2.336,0,0,0,2.3-1.209,7.06,7.06,0,0,1,.936.936c.052.065.091.091.117.091s.065-.026.1-.065a7.061,7.061,0,0,0,.689-1c.052-.078.039-.143-.052-.234a10.688,10.688,0,0,0-1.287-1.079,13.635,13.635,0,0,0,.156-2.262c0-2.483-.871-3.731-2.47-3.731a4.331,4.331,0,0,0-2.743,1.313,12.1,12.1,0,0,0-1.274,1.183,2.508,2.508,0,0,0,.013-.325,8.337,8.337,0,0,1,.663-1,.349.349,0,0,0,.1-.208.28.28,0,0,0-.078-.169,1.786,1.786,0,0,0-.364-.338.2.2,0,0,0-.156-.052Zm4.537,6.084A1.078,1.078,0,0,1,73.294,14c-.546,0-.871-.26-.871-.624,0-.325.364-.559.884-.559A1.544,1.544,0,0,1,74.386,13.167ZM85.5,4.7H83.473l.364,7.735H85.15Zm-1.95,9v1.755H85.4V13.7Z" transform="translate(93.102 604)"/></g></svg>