<svg xmlns="http://www.w3.org/2000/svg" width="180.305" height="59.899" viewBox="0 0 180.305 59.899"><g transform="translate(-69.667 -570.798)"><path d="M159.065,0l17.447,13.165L180.3,45.442,164.929,58.194,25.527,59.9,15.6,55.528,14.22,44.433,0,41.181l12.014-7.843-.827-14.121L24.975,8.458Z" transform="translate(69.667 570.798)" fill="#ffe330"/><path d="M8.8-2.561H4.342c-1.027,0-1.781-.026-2.392-.065a12.325,12.325,0,0,0,.065,1.352c.013.143.065.195.182.195.624-.013,1.313-.052,2.132-.052H8.8v.52c0,.195.039.208.247.221a8.4,8.4,0,0,0,1.144,0c.182-.013.234-.052.234-.182-.013-.364-.052-1.4-.052-2.353V-6.032c0-.689.026-1.365.026-2.054.013-.169-.052-.221-.26-.221-.689.026-1.378.052-2.054.052H4.225a18.6,18.6,0,0,1-2.171-.091c0,.429.026,1.04.065,1.391,0,.156.052.221.2.221a17.891,17.891,0,0,1,1.95-.078H8.8Zm.78-7.124a6.45,6.45,0,0,1,1.313,1.508.136.136,0,0,0,.221.039l.546-.4a.131.131,0,0,0,.039-.208,5.983,5.983,0,0,0-1.235-1.391c-.078-.065-.13-.078-.195-.026Zm1.2-.858a6.15,6.15,0,0,1,1.3,1.5.133.133,0,0,0,.221.039l.52-.4a.15.15,0,0,0,.039-.234,5.429,5.429,0,0,0-1.235-1.339c-.078-.065-.117-.078-.195-.026ZM20.93-4.017c.962,0,1.924.013,2.9.026.182.013.234-.039.234-.195a9.582,9.582,0,0,0,0-1.222c0-.156-.039-.195-.234-.182-1,.013-2,.039-2.99.039H16.653a16.7,16.7,0,0,1-2.808-.156,14.109,14.109,0,0,0,.195,1.573c.039.195.143.273.3.273a10.4,10.4,0,0,1,1.911-.156ZM33.306-7.085a3.6,3.6,0,0,1,.117-1.443.832.832,0,0,0,.1-.325c0-.1-.065-.182-.234-.221a12.406,12.406,0,0,0-1.625-.273,10.38,10.38,0,0,1,.13,2.262v4.069c0,.663.013.819-.078.988a.4.4,0,0,0-.052.2.518.518,0,0,0,.117.273,3.754,3.754,0,0,0,.78.793.554.554,0,0,0,.273.1.413.413,0,0,0,.26-.1,4.317,4.317,0,0,1,.377-.273A21.589,21.589,0,0,0,35.789-2.6a16.432,16.432,0,0,0,1.924-1.7c.143-.143.195-.234.195-.325a.647.647,0,0,0-.078-.221,3.748,3.748,0,0,1-.4-1.313,12.475,12.475,0,0,1-2.275,2.21,13.216,13.216,0,0,1-1.846,1.209ZM28.769-8.528a3.5,3.5,0,0,1,.13,1.092,8.47,8.47,0,0,1-.546,3.679A6.454,6.454,0,0,1,26.195-1.17a4.607,4.607,0,0,1,1.1.546.442.442,0,0,0,.247.1.589.589,0,0,0,.338-.169,6.7,6.7,0,0,0,1.846-2.444,9.729,9.729,0,0,0,.7-3.822,1.875,1.875,0,0,1,.156-.884c.078-.182.052-.338-.169-.4A10.51,10.51,0,0,0,28.769-8.528ZM46.826-3.237a5.425,5.425,0,0,0-1.04-.1c-1.313,0-2.275.767-2.275,1.833,0,1.118.832,1.82,2.327,1.82,1.534,0,2.275-.6,2.379-1.69a7.72,7.72,0,0,1,1.4,1.04.18.18,0,0,0,.117.065.157.157,0,0,0,.117-.078,7.023,7.023,0,0,0,.6-1c.065-.143.052-.182-.065-.26A8.508,8.508,0,0,0,48.23-2.86c-.065-1.118-.091-2.028-.091-3.484a14.649,14.649,0,0,0,2-.273c.091-.013.143-.078.143-.195a5.2,5.2,0,0,0-.078-.923c-.026-.143-.052-.195-.208-.156-.559.091-1.235.182-1.846.234,0-.6,0-.936.026-1.378a1.466,1.466,0,0,1,.1-.455.558.558,0,0,0,.078-.221c0-.117-.091-.182-.234-.221a7.237,7.237,0,0,0-1.573-.247A5.359,5.359,0,0,1,46.722-8.9c0,.481.013.9.013,1.365a18.806,18.806,0,0,1-2.964-.039A7.964,7.964,0,0,0,43.862-6.4c.013.13.065.169.234.169a26.288,26.288,0,0,0,2.678.013C46.787-5.187,46.8-4.238,46.826-3.237ZM46.852-2a1.831,1.831,0,0,1,.013.26c0,.468-.416.845-1.066.845-.767,0-1.053-.247-1.053-.65s.364-.624.975-.624A3.621,3.621,0,0,1,46.852-2ZM40.82-10.153a6.542,6.542,0,0,1-.091,1.534A28.238,28.238,0,0,0,40.2-3.692,12.11,12.11,0,0,0,40.755.273c.065.182.117.195.26.156A5.444,5.444,0,0,0,41.99.208c.117-.039.169-.078.156-.169a2.455,2.455,0,0,1,.013-.689,7.705,7.705,0,0,1,.663-1.976.377.377,0,0,0,.078-.208.281.281,0,0,0-.078-.182,3.457,3.457,0,0,1-.455-.819c-.273.65-.546,1.209-.806,1.807-.039-.546-.039-1.144-.039-1.664a25.814,25.814,0,0,1,.65-4.732,2.638,2.638,0,0,1,.234-.715.664.664,0,0,0,.091-.286c0-.1-.052-.182-.195-.26A10.151,10.151,0,0,0,40.82-10.153ZM54.925.9c.143,0,.156-.013.156-.143V0H60.9V.7c0,.13.013.143.143.143H62.2c.13,0,.143-.013.143-.143,0-.078-.026-.9-.026-4.784V-7.033c0-2.145.026-2.99.026-3.068,0-.13-.013-.143-.143-.143-.091,0-.546.026-1.807.026h-4.81c-1.261,0-1.716-.026-1.807-.026-.13,0-.143.013-.143.143,0,.091.026.936.026,3.5v2.548c0,3.887-.026,4.719-.026,4.81,0,.13.013.143.143.143Zm.156-2.158V-3.055H60.9v1.794Zm0-3.029V-6.019H60.9V-4.29Zm0-4.667H60.9v1.7H55.081ZM70.746-4.979c0-1.157.026-1.755.026-1.833,0-.117-.013-.13-.143-.13-.078,0-.39.026-1.352.026H67.639c-.962,0-1.274-.026-1.365-.026-.13,0-.143.013-.143.13,0,.091.026.611.026,1.729v4.29c0,1.118-.026,1.612-.026,1.69,0,.13.013.143.143.143h1.04c.13,0,.143-.013.143-.143,0-.065-.026-.585-.026-1.651v-.91h2.08V-.585c0,.26-.078.338-.429.338s-.52-.013-.871-.039a2.411,2.411,0,0,1,.3.832c.065.4.065.39.481.39.949-.013,1.274-.1,1.469-.273.273-.234.312-.585.312-1.079,0-.39-.026-1.079-.026-1.742ZM67.431-2.7v-1h2.08v1Zm2.08-3.055v1h-2.08v-1ZM75-7.813c1.157,0,1.56.026,1.638.026.13,0,.143-.013.143-.156v-.988c0-.13-.013-.143-.143-.143-.078,0-.481.026-1.638.026H73.281c.208-.273.39-.533.533-.754a1.439,1.439,0,0,1,.351-.455c.065-.052.117-.1.117-.169,0-.091-.065-.13-.182-.182a12.364,12.364,0,0,0-1.3-.351,2.877,2.877,0,0,1-.247.65,13.448,13.448,0,0,1-.793,1.261H68.835l.819-.325c.195-.078.195-.091.143-.208a6.636,6.636,0,0,0-.754-1.248c-.078-.117-.091-.117-.273-.052l-.884.338c-.143.065-.169.091-.091.208a8.671,8.671,0,0,1,.728,1.287H66.989c-1.144,0-1.547-.026-1.625-.026-.13,0-.143.013-.143.143v.988c0,.143.013.156.143.156.078,0,.481-.026,1.625-.026Zm.819,2.47a4.17,4.17,0,0,1,.078-1.248.679.679,0,0,0,.091-.273c0-.065-.078-.13-.208-.143-.442-.052-.858-.078-1.339-.091a10.732,10.732,0,0,1,.1,1.755V-.858c0,.416-.156.507-.559.507A10.7,10.7,0,0,1,72.67-.416a2.609,2.609,0,0,1,.351.91c.091.416.091.4.494.4,1.17,0,1.521-.065,1.872-.286s.455-.546.455-1.183-.026-1.339-.026-2.262ZM71.981-3.237c0,.871-.026,1.274-.026,1.365,0,.13.013.13.143.13h1.027c.13,0,.143,0,.143-.13,0-.078-.026-.494-.026-1.365V-4.771a6.006,6.006,0,0,1,.052-1.287,1.124,1.124,0,0,0,.078-.3c0-.078-.052-.13-.182-.143-.442-.052-.832-.091-1.3-.1a13.377,13.377,0,0,1,.091,1.846Zm13-7.059H82.953l.364,7.735H84.63Zm-1.95,9V.455h1.846V-1.3ZM4.6,4.431a3.056,3.056,0,0,1,.052.585c0,.364-.052.949-.1,1.417a19.822,19.822,0,0,1-2.522-.052c.026.364.026.7.065.988.013.221.091.286.234.3a5.17,5.17,0,0,0,.741.026c.221,0,.572.013,1.339-.013-.026.494-.052,1.066-.065,1.625C2.743,10.1,1.3,11.685,1.3,13.349a1.417,1.417,0,0,0,1.443,1.612,4.09,4.09,0,0,0,2.262-.936,2.591,2.591,0,0,0,.221.507c.078.13.13.13.26.065a4.135,4.135,0,0,0,.78-.455c.13-.091.182-.156.1-.325a3.921,3.921,0,0,1-.234-.585A13.75,13.75,0,0,0,8.593,9.826,1.941,1.941,0,0,1,10.2,11.711a2.238,2.238,0,0,1-1.04,1.95,7.484,7.484,0,0,1-2.418.949,3.305,3.305,0,0,1,.767.806c.143.286.286.325.572.247C10.153,15.1,11.7,13.882,11.7,12A3.179,3.179,0,0,0,9.035,8.825a1.124,1.124,0,0,1,.169-.26.225.225,0,0,0,.078-.156c0-.078-.078-.182-.234-.286a5.232,5.232,0,0,0-1.157-.481,3.19,3.19,0,0,1-.221.949,7.8,7.8,0,0,0-1.989.286c.013-.455.039-.767.091-1.313a27.582,27.582,0,0,0,3.692-.546c.143-.026.273-.091.273-.26a4.032,4.032,0,0,0-.13-.884c-.026-.117-.065-.169-.221-.13a24.992,24.992,0,0,1-3.38.546c.039-.221.065-.416.1-.65a1,1,0,0,1,.182-.468.286.286,0,0,0,.065-.208q0-.156-.234-.234A7.121,7.121,0,0,0,4.6,4.431Zm1.17,7.514a13.921,13.921,0,0,1-.156-1.95A6.1,6.1,0,0,1,7.28,9.7,11.93,11.93,0,0,1,5.772,11.945ZM4.342,10.58a16.856,16.856,0,0,0,.26,2.236,2.786,2.786,0,0,1-1.508.754.444.444,0,0,1-.429-.494A3.468,3.468,0,0,1,4.342,10.58ZM17,4.691A5.817,5.817,0,0,1,17.342,6.2a19.729,19.729,0,0,0,.676,3.172c-1.521.962-2.47,1.911-2.47,3.354,0,1.69,1.3,2.5,3.757,2.5a27.78,27.78,0,0,0,3.874-.195c.156-.013.247-.078.234-.221a11.479,11.479,0,0,0-.13-1.209c-.026-.156-.091-.182-.234-.156a22.7,22.7,0,0,1-3.965.3c-1.495,0-2.067-.325-2.067-1.092,0-.611.4-1.222,1.534-1.963a18.091,18.091,0,0,1,3.055-1.521,6.238,6.238,0,0,1,1.248-.39c.182-.026.26-.13.26-.26a.526.526,0,0,0-.091-.273,6.676,6.676,0,0,0-.949-1.222,3.216,3.216,0,0,1-.9.7c-.728.39-1.2.637-1.846.988a18.279,18.279,0,0,1-.416-2.236c-.026-.3-.065-.611-.065-.871,0-.182.091-.364.091-.546,0-.1-.078-.169-.234-.208A7.524,7.524,0,0,0,17,4.691ZM35.5,8.37A14.55,14.55,0,0,0,37.3,11.724a.244.244,0,0,0,.208.156.2.2,0,0,0,.143-.065A5.862,5.862,0,0,0,38.363,11a.408.408,0,0,0,.091-.208.252.252,0,0,0-.078-.169,13.184,13.184,0,0,1-2.132-2.951,15.773,15.773,0,0,1-.871-1.95c-.026-.091-.091-.169-.195-.143a7.638,7.638,0,0,0-.975.247c-.195.065-.195.13-.13.351s.1.377.143.533.065.4.091.676a17.727,17.727,0,0,1,.078,1.95,6.569,6.569,0,0,1-.806,3.536,2.546,2.546,0,0,1-2.327,1.183c-1.118,0-1.95-.754-1.95-2.418a6.087,6.087,0,0,1,1.6-3.9A4.873,4.873,0,0,1,32.136,6.6c.143-.078.208-.156.208-.26a.63.63,0,0,0-.117-.3,3.346,3.346,0,0,0-.546-.689.267.267,0,0,0-.182-.1.432.432,0,0,0-.208.1,2.238,2.238,0,0,1-.91.273,17.016,17.016,0,0,1-1.7.221,6.588,6.588,0,0,1-1.339-.026,8.8,8.8,0,0,0,.351,1.326.261.261,0,0,0,.221.2c.1,0,.3-.091.52-.13.572-.1,1.027-.143,1.456-.208a5.325,5.325,0,0,0-.78.949,7.309,7.309,0,0,0-1.2,3.887,3.32,3.32,0,0,0,3.38,3.653,3.727,3.727,0,0,0,3.159-1.352,5.945,5.945,0,0,0,1.17-3.757A12.337,12.337,0,0,0,35.438,8.4ZM43,4.691A5.817,5.817,0,0,1,43.342,6.2a19.729,19.729,0,0,0,.676,3.172c-1.521.962-2.47,1.911-2.47,3.354,0,1.69,1.3,2.5,3.757,2.5a27.78,27.78,0,0,0,3.874-.195c.156-.013.247-.078.234-.221a11.48,11.48,0,0,0-.13-1.209c-.026-.156-.091-.182-.234-.156a22.7,22.7,0,0,1-3.965.3c-1.495,0-2.067-.325-2.067-1.092,0-.611.4-1.222,1.534-1.963a18.091,18.091,0,0,1,3.055-1.521,6.238,6.238,0,0,1,1.248-.39c.182-.026.26-.13.26-.26a.526.526,0,0,0-.091-.273,6.676,6.676,0,0,0-.949-1.222,3.216,3.216,0,0,1-.9.7c-.728.39-1.2.637-1.846.988a18.278,18.278,0,0,1-.416-2.236c-.026-.3-.065-.611-.065-.871,0-.182.091-.364.091-.546,0-.1-.078-.169-.234-.208A7.524,7.524,0,0,0,43,4.691Zm12.948,6.76h.442c.52,0,.7.026.78.026.143,0,.156-.013.156-.143v-.858c0-.143-.013-.156-.156-.156-.078,0-.26.026-.78.026h-.442V8.669c.663.013.9.026.975.026.13,0,.143-.013.143-.143,0-.091-.026-.39-.026-1.131V5.861c0-.728.026-1.053.026-1.131,0-.13-.013-.143-.143-.143-.091,0-.351.026-1.222.026H54.431c-.858,0-1.131-.026-1.209-.026-.13,0-.143.013-.143.143,0,.091.026.4.026,1.131v1.56c0,.741-.026,1.04-.026,1.131,0,.13.013.143.143.143.078,0,.351-.026,1.209-.026h.338V13.7c-.169.052-.351.1-.52.143V11.022a2.117,2.117,0,0,1,.065-.78.5.5,0,0,0,.078-.234c0-.078-.065-.1-.182-.13a11.036,11.036,0,0,0-1.17-.117,6.314,6.314,0,0,1,.078,1.222v3.146c-.247.052-.468.091-.689.117.1.39.234.806.364,1.183.039.1.1.156.182.156a.387.387,0,0,0,.234-.1,1.56,1.56,0,0,1,.442-.208c1.17-.351,2.353-.767,3.341-1.17.39-.156.39-.156.364-.559a7.294,7.294,0,0,1,0-.754c-.468.195-.936.377-1.4.533ZM54.262,5.7h1.651V7.6H54.262Zm4.719,10.27c.13,0,.143-.013.143-.13v-.416h3.224v.377c0,.117.013.13.143.13h.975c.143,0,.156-.013.156-.13,0-.078-.026-.442-.026-2.353V12.127c0-.962.026-1.352.026-1.417,0-.13-.013-.143-.156-.143-.078,0-.442.026-1.547.026H59.566c-1.092,0-1.469-.026-1.56-.026-.117,0-.13.013-.13.143,0,.065.026.455.026,1.612v1.157c0,1.924-.026,2.275-.026,2.366,0,.117.013.13.13.13Zm.143-1.586v-.884h3.224v.884Zm0-2.756h3.224v.845H59.124Zm2.314-6.318a1.4,1.4,0,0,1,.078-.65.554.554,0,0,0,.078-.234c0-.078-.078-.117-.182-.13-.442-.052-.78-.078-1.235-.091a6.326,6.326,0,0,1,.078,1.209V8.864c0,.3-.1.416-.52.416-.247,0-.533-.013-.806-.039a2.6,2.6,0,0,1,.273.741c.078.4.091.4.494.4a2.546,2.546,0,0,0,1.365-.234c.377-.234.429-.52.429-1,0-.429-.026-1.04-.052-1.755a7.09,7.09,0,0,0,2.21,2.535c.143.1.208.156.273.156s.13-.091.234-.286a4.844,4.844,0,0,1,.533-.78,6.491,6.491,0,0,1-2.08-1.586,13.421,13.421,0,0,0,1.157-1.027,1.419,1.419,0,0,1,.416-.312.219.219,0,0,0,.156-.182c0-.065-.039-.117-.13-.195a11.222,11.222,0,0,0-.962-.637,1.929,1.929,0,0,1-.273.442,10.377,10.377,0,0,1-1.014.988,6.223,6.223,0,0,1-.52-1.066Zm-2.951.455c-.676,0-.845-.026-.923-.026-.117,0-.143.013-.143.143v.9c0,.117.013.13.143.13.065,0,.208-.026.65-.026h.611a5.186,5.186,0,0,1-2.106,2.275,2.6,2.6,0,0,1,.559.572c.13.182.182.273.273.273.065,0,.143-.065.286-.169A6.441,6.441,0,0,0,59.9,7.187a1.581,1.581,0,0,1,.234-.468.275.275,0,0,0,.1-.221c0-.117-.052-.182-.351-.481s-.364-.338-.442-.338a.319.319,0,0,0-.156.052.553.553,0,0,1-.273.039Zm10.92,4.823c.715-1.17,1.417-2.535,2.249-4.134a3.389,3.389,0,0,1,.4-.559.406.406,0,0,0,.143-.26.339.339,0,0,0-.182-.273,7.532,7.532,0,0,0-1.456-.728,7.8,7.8,0,0,1-.65,1.9C69.2,8.162,68,10.645,66.105,14.363a.387.387,0,0,0-.065.182.226.226,0,0,0,.117.169,4.2,4.2,0,0,0,1,.559c.169.052.234.026.312-.156a15.1,15.1,0,0,1,1.521-2.886,2.27,2.27,0,0,1,1.638-1.105c.455,0,.741.377.858,1.677.169,1.833.728,2.522,2.041,2.522a3.247,3.247,0,0,0,2.392-1.092,7.031,7.031,0,0,0,1.118-1.612.459.459,0,0,0,.052-.221.357.357,0,0,0-.143-.273,3.154,3.154,0,0,1-.754-1.079,6.435,6.435,0,0,1-1.313,2.119,1.661,1.661,0,0,1-1.222.624c-.494,0-.65-.429-.754-1.378-.143-1.248-.494-2.457-1.9-2.457a2.58,2.58,0,0,0-1.586.663ZM85.1,5.861H88.01c1.131,0,1.495.026,1.573.026.13,0,.143-.013.143-.13V4.808c0-.13-.013-.143-.143-.143-.078,0-.442.026-1.573.026H85.54c-1.105,0-1.5-.026-1.573-.026-.13,0-.143.013-.143.143,0,.078.026.533.026,1.469v3.6c-.572,0-.819-.026-.871-.026-.143,0-.156.013-.156.143v.949c0,.13.013.143.156.143.052,0,.273-.013.793-.013v3.315c-.4.052-.793.1-1.157.13.078.364.169.832.273,1.209a.213.213,0,0,0,.195.169.346.346,0,0,0,.208-.078,2.575,2.575,0,0,1,.481-.156c.858-.182,1.768-.416,2.86-.741.377-.117.39-.117.4-.533a4.727,4.727,0,0,1,.065-.78,7.231,7.231,0,0,0,2.548,2.145.852.852,0,0,0,.312.117c.091,0,.143-.091.234-.325a2.375,2.375,0,0,1,.546-.858,6.321,6.321,0,0,1-2.262-1.352,8.291,8.291,0,0,0,1.131-.962.922.922,0,0,1,.377-.247c.1-.039.143-.078.143-.169,0-.065-.039-.1-.117-.169a9.032,9.032,0,0,0-.91-.663,2.915,2.915,0,0,1-.351.507,9.015,9.015,0,0,1-.936.923,5.918,5.918,0,0,1-.728-1.495h1.5c1.248,0,1.677.026,1.755.026.143,0,.156-.013.156-.143V9.995c0-.13-.013-.143-.156-.143-.078,0-.507.026-1.755.026H85.1V9.2h2.379c1.157,0,1.56.026,1.638.026.117,0,.13-.013.13-.156V8.318c0-.13-.013-.143-.13-.143-.078,0-.481.026-1.638.026H85.1V7.525h2.379c1.17,0,1.573.026,1.651.026.117,0,.13-.013.13-.143V6.641c0-.13-.013-.143-.13-.143-.078,0-.481.026-1.651.026H85.1Zm-.078,5.2h.871A8.178,8.178,0,0,0,87.1,13.6c-.728.234-1.43.416-2.08.559Zm-4.745-.923c.065-.481.13-.975.182-1.521H81.64c.624,0,.871.026.949.026.13,0,.143-.013.143-.143,0-.078-.026-.416-.026-1.17V5.991c0-.754.026-1.092.026-1.17,0-.143-.013-.156-.143-.156-.078,0-.325.026-.949.026H80.21c-.819,0-1.066-.026-1.157-.026-.13,0-.13.013-.13.156V5.77c0,.117,0,.13.13.13.091,0,.338-.026,1.157-.026H81.5V7.512H80.314c-.507,0-.806-.026-.884-.026-.13,0-.169.039-.169.169a7.188,7.188,0,0,1-.052.923,23.83,23.83,0,0,1-.481,2.977c-.039.182-.013.208.611.312.572.091.6.091.637-.078s.078-.325.1-.494H81.3c-.117,2.028-.247,2.7-.455,3.042a.728.728,0,0,1-.611.26,8.6,8.6,0,0,1-1.144-.091,4.6,4.6,0,0,1,.286.923c.078.416.078.416.351.442.234.013.455.013.624.013.949,0,1.4-.286,1.638-.871a11.874,11.874,0,0,0,.559-3.822c.013-.273.026-.611.065-.923.013-.13-.026-.156-.156-.156-.078,0-.247.026-.858.026ZM94.588,4.6a12.029,12.029,0,0,1-.1,1.482,27.479,27.479,0,0,0-.312,3.237,8.317,8.317,0,0,0,.39,2.639c.026.091.091.182.182.169.325-.039.884-.117,1.04-.156a.182.182,0,0,0,.169-.208,1.625,1.625,0,0,1,.065-.39,10.643,10.643,0,0,1,.767-1.664.612.612,0,0,0,.13-.325.3.3,0,0,0-.078-.208,2.7,2.7,0,0,1-.4-.845c-.351.663-.624,1.157-.91,1.664a13.132,13.132,0,0,1,.039-1.43c.078-.676.182-1.6.364-2.483a1.5,1.5,0,0,1,.234-.611.3.3,0,0,0,.091-.208c0-.117-.078-.195-.247-.26A6.813,6.813,0,0,0,94.588,4.6Zm4.16.026a6.228,6.228,0,0,1,.273,1.417c.091.832.156,2.184.156,3.107A6.259,6.259,0,0,1,98.085,13.3a6.434,6.434,0,0,1-2.21,1.742,3.017,3.017,0,0,1,1.105.6.377.377,0,0,0,.273.143.45.45,0,0,0,.26-.091A7.164,7.164,0,0,0,99.658,13.6a8.539,8.539,0,0,0,.988-4.511c0-.936-.091-2.119-.182-3.354a4.6,4.6,0,0,1,.026-.6c.026-.221,0-.286-.26-.351A7.507,7.507,0,0,0,98.748,4.626ZM111.5,4.7h-2.028l.364,7.735h1.313Zm-1.95,9v1.755H111.4V13.7Z" transform="translate(109.102 601.748)"/></g></svg>