<svg xmlns="http://www.w3.org/2000/svg" width="145.46" height="59.899" viewBox="0 0 145.46 59.899"><g transform="translate(-69.667 -570.798)"><path d="M128.325,0,142.4,13.165l3.06,32.276-12.4,12.752L20.594,59.9l-8.009-4.371L11.472,44.433,0,41.181l9.692-7.843L9.024,19.217,20.149,8.458Z" transform="translate(69.667 570.798)" fill="#ffe330"/><path d="M6.11,1.053c.13,0,.143-.013.143-.143,0-.078-.026-.559-.026-1.56V-5.005h4.407c1.131,0,1.508.026,1.586.026.117,0,.13-.013.13-.143v-.819c0-.13-.013-.143-.13-.143-.078,0-.455.026-1.586.026H2.288C1.157-6.058.78-6.084.7-6.084c-.13,0-.143.013-.143.143v.819c0,.13.013.143.143.143.065,0,.4-.013,1.287-.026V-.923A1.432,1.432,0,0,1,1.755-.9,11.7,11.7,0,0,1,.533-.806,8.685,8.685,0,0,0,.793.234c.039.13.1.208.182.208A.5.5,0,0,0,1.183.364a1.492,1.492,0,0,1,.468-.13C2.7.078,3.991-.156,5.031-.377,5.018.429,5.005.832,5.005.91c0,.13.013.143.143.143ZM5.031-1.365c-.585.1-1.222.195-1.833.286v-.9H5.031ZM3.2-4.316v-.689H5.031v.689Zm0,1.508v-.676H5.031v.676Zm.884-7.579c-1.287,0-1.729-.026-1.82-.026-.13,0-.143.013-.143.156,0,.078.026.364.026,1.066v1.365c0,.7-.026.988-.026,1.066,0,.143.013.156.143.156.091,0,.533-.026,1.82-.026H8.814c1.287,0,1.742.026,1.82.026.13,0,.143-.013.143-.156,0-.078-.026-.364-.026-1.066V-9.191c0-.7.026-.988.026-1.066,0-.143-.013-.156-.143-.156-.078,0-.533.026-1.82.026ZM9.464-7.54H3.432V-8.1H9.464ZM3.432-9.425H9.464v.546H3.432ZM8.151-4.238c-1.027,0-1.352-.026-1.43-.026-.13,0-.143.013-.143.143v.754c0,.143.013.156.143.156.039,0,.13,0,.338-.013a7.3,7.3,0,0,0,1.274,2.08A7.1,7.1,0,0,1,6.24-.169a2.519,2.519,0,0,1,.481.741c.091.208.143.3.234.3A1.024,1.024,0,0,0,7.215.78,8.747,8.747,0,0,0,9.178-.364,7.279,7.279,0,0,0,11.4.754c.338.1.364.1.494-.247a4.047,4.047,0,0,1,.455-.832,7.083,7.083,0,0,1-2.3-.884A6.793,6.793,0,0,0,11.1-2.782c.156-.325.247-.481.351-.546a.261.261,0,0,0,.13-.234c0-.091-.039-.182-.351-.481-.3-.273-.364-.3-.455-.3a.545.545,0,0,0-.2.052.684.684,0,0,1-.234.052Zm1.937,1a5.1,5.1,0,0,1-.9,1.352,4.6,4.6,0,0,1-.949-1.352Zm13.533-5.3a47.909,47.909,0,0,1-.364,7.111c-.091.585-.325.9-.858.9a7.657,7.657,0,0,1-1.482-.13,2.49,2.49,0,0,1,.338.975c.078.442.078.468.39.494a8.348,8.348,0,0,0,1.014.026A1.7,1.7,0,0,0,24.57-.845,51.661,51.661,0,0,0,25-8.515c0-.364,0-.728.026-1.157,0-.143-.026-.169-.156-.169-.078,0-.481.026-1.651.026H20.436c-1.17,0-1.56-.026-1.638-.026-.143,0-.156.013-.156.156v1.027c0,.13.013.143.156.143.078,0,.468-.026,1.638-.026H20.5a16.274,16.274,0,0,1-.585,4.914A6.432,6.432,0,0,1,17.225-.065a3.54,3.54,0,0,1,.806.741c.13.182.195.273.273.273s.13-.065.26-.182A8.026,8.026,0,0,0,21.19-3.055a19.2,19.2,0,0,0,.728-5.486ZM15.522-.6C15.522.377,15.5.819,15.5.9c0,.13.013.143.143.143h1.053c.13,0,.143-.013.143-.143,0-.065-.026-.52-.026-1.495V-4.186a11.1,11.1,0,0,0,1.2,1.274c.13.13.208.2.273.2s.13-.091.247-.273a4.934,4.934,0,0,1,.559-.754c-.312-.2-.611-.416-.9-.637.273-.312.455-.559.728-.884a1.036,1.036,0,0,1,.3-.3.163.163,0,0,0,.13-.143c0-.091-.026-.117-.13-.208a9.3,9.3,0,0,0-.923-.585,3.833,3.833,0,0,1-.3.65,8.135,8.135,0,0,1-.559.78,3.681,3.681,0,0,1-.468-.559A16.067,16.067,0,0,0,18.1-7.514a1.5,1.5,0,0,1,.286-.416c.1-.078.156-.13.156-.208,0-.1-.091-.247-.325-.494-.26-.273-.416-.377-.507-.377a.4.4,0,0,0-.169.078.527.527,0,0,1-.286.065h-.429V-9.36a2.718,2.718,0,0,1,.091-1.014.666.666,0,0,0,.078-.286c0-.052-.078-.117-.208-.13-.468-.052-.858-.078-1.352-.091a7.68,7.68,0,0,1,.1,1.573v.442h-.221c-.975,0-1.287-.026-1.365-.026-.13,0-.143.013-.143.143v.962c0,.13.013.143.143.143.078,0,.39-.026,1.365-.026H16.8a10.694,10.694,0,0,1-3.432,4.017,3.128,3.128,0,0,1,.416.806c.078.208.117.3.208.3a.6.6,0,0,0,.273-.156,13.019,13.019,0,0,0,1.261-1.157ZM33.384-7.969A2.953,2.953,0,0,1,36.3-4.953c0,2.457-1.729,3.367-3.926,3.887a2.757,2.757,0,0,1,.91.819c.169.26.286.312.559.234,2.639-.793,4-2.314,4-4.732,0-2.587-1.833-4.511-4.953-4.511a5.689,5.689,0,0,0-4.225,1.664A4.79,4.79,0,0,0,27.2-4.212c0,2.119,1.157,3.341,2.3,3.341a2.469,2.469,0,0,0,2.21-1.495,16.278,16.278,0,0,0,1.625-5.6Zm-1.56.078a14.853,14.853,0,0,1-1.378,4.654c-.351.624-.637.793-.975.793-.4,0-.884-.663-.884-1.859a3.743,3.743,0,0,1,1.014-2.4A3.915,3.915,0,0,1,31.824-7.891ZM44.473-2.145A3.7,3.7,0,0,1,41.847-.494a2.777,2.777,0,0,1,.585.741c.091.169.13.234.221.234A.9.9,0,0,0,42.965.39a4.443,4.443,0,0,0,2.509-2A5.092,5.092,0,0,0,47.7.065a.792.792,0,0,0,.3.091c.091,0,.13-.078.221-.273l.065-.156A2.92,2.92,0,0,1,48.5.468c.065.4.065.4.559.4.962,0,1.313-.13,1.56-.351a1.52,1.52,0,0,0,.364-1.209c0-.637-.039-1.677-.039-2.587V-8.645c0-1.118.026-1.664.026-1.742,0-.13-.013-.143-.143-.143-.091,0-.442.026-1.456.026H47.437c-1.027,0-1.365-.026-1.443-.026-.13,0-.143.013-.143.143,0,.091.026.377.026,1.105v1.6c0,.728-.026,1-.026,1.079,0,.143.013.156.143.156.078,0,.416-.026,1.443-.026h2.184V-.936c0,.39-.117.507-.546.507a5.993,5.993,0,0,1-.7-.026,3.677,3.677,0,0,1,.3-.442,4.99,4.99,0,0,1-2.366-1.248h.741c1.183,0,1.6.026,1.677.026.13,0,.143-.013.143-.143V-3c0-.13-.013-.143-.143-.143-.078,0-.494.026-1.677.026H45.968a7.03,7.03,0,0,0,.065-.767h.819c1.144,0,1.534.026,1.612.026.143,0,.156-.013.156-.143v-.741c0-.13-.013-.143-.156-.143-.065,0-.4.026-1.235.026l.247-.481A.815.815,0,0,1,47.7-5.6a.223.223,0,0,0,.1-.156c0-.091-.091-.143-.208-.182-.312-.091-.663-.169-1.066-.247a3.262,3.262,0,0,1-.169.546c-.117.273-.221.52-.351.78h-.962a8.79,8.79,0,0,0-.65-1.183c-.078-.117-.1-.117-.26-.065l-.715.234c-.156.052-.182.1-.091.221a5.557,5.557,0,0,1,.455.793c-.832,0-1.157-.026-1.222-.026-.143,0-.156.013-.156.143V-4c0,.13.013.143.156.143.078,0,.468-.026,1.612-.026h.65a6.475,6.475,0,0,1-.052.767H43.94c-1.2,0-1.612-.026-1.677-.026-.13,0-.143.013-.143.143v.741c0,.13.013.143.143.143.065,0,.481-.026,1.677-.026ZM47.151-7.4v-.65h2.47v.65Zm2.47-2.158v.637h-2.47v-.637ZM41.73-10.5c-.949,0-1.443-.026-1.534-.026-.13,0-.143.013-.143.143,0,.091.026,1,.026,2.821v5.629c0,1.82-.026,2.7-.026,2.8,0,.13.013.143.143.143h1.092c.13,0,.143-.013.143-.143,0-.091-.026-.975-.026-2.8V-6.474H43.55c.845,0,1.235.026,1.313.026.117,0,.13-.013.13-.156,0-.078-.026-.416-.026-1.183v-1.4c0-.754.026-1.118.026-1.2,0-.13-.013-.143-.13-.143-.078,0-.468.026-1.313.026ZM43.693-7.4H41.4v-.65h2.288Zm0-2.158v.637H41.4v-.637Zm20.1.975c0-1.092.026-1.625.026-1.7,0-.13-.013-.143-.143-.143-.078,0-.416.026-1.417.026H60.45c-1,0-1.326-.026-1.4-.026-.143,0-.156.013-.156.143,0,.091.026.416.026,1.222v2.093c0,.806-.026,1.131-.026,1.222,0,.13.013.143.156.143.078,0,.4-.026,1.4-.026h1.989v4.576c0,.39-.117.507-.533.507a12.007,12.007,0,0,1-1.261-.065,3.572,3.572,0,0,1,.325.975c.078.416.091.416.507.416,1.352,0,1.677-.091,1.989-.351s.377-.572.377-1.2-.052-1.677-.052-2.587ZM60.2-6.6V-7.54h2.236V-6.6Zm2.236-2.769v.923H60.2v-.923ZM54.847-10.4c-.936,0-1.417-.026-1.508-.026-.13,0-.143.013-.143.143,0,.091.026.988.026,2.756v5.59C53.222-.169,53.2.7,53.2.793c0,.13.013.143.143.143H54.47c.13,0,.143-.013.143-.143,0-.091-.026-.962-.026-2.73V-5.629h1.989c.819,0,1.183.026,1.261.026.13,0,.143-.013.143-.143,0-.078-.026-.481-.026-1.313v-1.9c0-.845.026-1.248.026-1.326,0-.13-.013-.143-.143-.143-.078,0-.442.026-1.261.026Zm1.82,3.8h-2.08V-7.54h2.08Zm0-2.769v.923h-2.08v-.923ZM5.746,8.539l.013.9h-1.7c-1.248,0-1.69-.026-1.768-.026-.13,0-.143.026-.156.169a5.7,5.7,0,0,1-.156.793,15.729,15.729,0,0,1-.741,2.34c-.065.156.026.156.65.221.65.065.65.065.7-.091l.13-.364H4.966A10.351,10.351,0,0,1,.507,14.61a3.778,3.778,0,0,1,.559.806c.117.234.169.312.273.312a1.522,1.522,0,0,0,.312-.078,9.716,9.716,0,0,0,4.147-2.5l.013.533C5.824,14.961,5.8,15.6,5.8,15.845c0,.143.013.156.143.156H7.033c.143,0,.156-.013.156-.156,0-.221-.065-.91-.078-2.171l-.026-1.2h3.367a4.256,4.256,0,0,1-.208,1.235c-.117.221-.325.247-.663.247a7.767,7.767,0,0,1-1.287-.13,3.723,3.723,0,0,1,.3.884c.078.4.1.429.468.455.312.026.533.026.754.026a1.575,1.575,0,0,0,1.534-.676,4.516,4.516,0,0,0,.429-1.82c.039-.4.065-.78.117-1.157.013-.13-.026-.156-.156-.156-.078,0-.533.026-1.82.026H7.072l-.013-.9H8.866c1.339,0,2,.026,2.067.026.143,0,.156-.013.156-.143,0-.078-.026-.351-.026-.988V8.565c0-.624.026-.9.026-.975,0-.13-.013-.143-.156-.143-.065,0-.728.026-2.067.026H3.549c-1.261,0-1.69-.026-1.768-.026-.13,0-.143.013-.143.143v.832c0,.13.013.143.143.143.078,0,.507-.026,1.768-.026Zm4,0v.9h-2.7l-.013-.9ZM3.055,11.412l.247-.9h2.47l.013.9ZM8.775,6.16a7.7,7.7,0,0,1,.4.949c.052.143.078.143.26.1l.845-.2c.169-.039.182-.078.13-.195-.117-.234-.234-.455-.364-.663h.208c1.313,0,1.781.026,1.859.026.117,0,.13-.013.13-.143V5.237c0-.13-.013-.143-.13-.143-.078,0-.546.026-1.859.026H8.346L8.437,4.9a.757.757,0,0,1,.195-.312c.065-.065.1-.091.1-.182s-.065-.13-.208-.169a9.523,9.523,0,0,0-1.092-.182,3.045,3.045,0,0,1-.208.611A5.775,5.775,0,0,1,6.435,6V5.237c0-.13-.013-.143-.156-.143-.078,0-.429.026-1.521.026H3.25L3.367,4.9a1.054,1.054,0,0,1,.221-.325.263.263,0,0,0,.1-.182c0-.091-.065-.143-.2-.169-.3-.065-.78-.143-1.144-.182a2.493,2.493,0,0,1-.234.6A6.386,6.386,0,0,1,.468,6.719a3.4,3.4,0,0,1,.637.52c.143.156.208.234.286.234s.143-.065.286-.208a7.3,7.3,0,0,0,.962-1.1h.936a6.255,6.255,0,0,1,.377.923c.052.156.078.156.26.117l.871-.195c.156-.039.169-.065.117-.182q-.156-.332-.351-.663c1.014,0,1.352.026,1.43.026q-.2.234-.429.468a2.543,2.543,0,0,1,.65.429c.156.156.221.234.3.234s.143-.078.273-.221A7.617,7.617,0,0,0,7.8,6.16Zm14.638,4.485c1.17,0,1.573.026,1.651.026.13,0,.143-.013.143-.13V9.28c0-.117-.013-.13-.143-.13-.078,0-.481.026-1.651.026H15.574c-1.17,0-1.573-.026-1.651-.026-.13,0-.143.013-.143.13v1.261c0,.117.013.13.143.13.078,0,.481-.026,1.651-.026Zm10.27,3.77v.234c0,.793-.026,1.183-.026,1.261,0,.13.013.143.143.143h1.066c.13,0,.143-.013.143-.143,0-.065-.026-.468-.026-1.261v-.234H36.5c1.274,0,1.716.026,1.794.026.13,0,.143-.013.143-.143v-.78c0-.143-.013-.156-.143-.156-.078,0-.52.026-1.794.026H34.983v-.754h.741c1.144,0,1.534.026,1.612.026.143,0,.156-.013.156-.143,0-.078-.026-.377-.026-1.079v-1.43c0-.7.026-1.014.026-1.092,0-.13-.013-.143-.156-.143-.078,0-.468.026-1.612.026H33.137c-1.144,0-1.534-.026-1.625-.026-.13,0-.143.013-.143.143,0,.091.026.39.026,1.092v1.43c0,.7-.026,1-.026,1.079,0,.13.013.143.143.143.091,0,.481-.026,1.625-.026h.546v.754H32.24c-1.261,0-1.69-.026-1.768-.026-.143,0-.156.013-.156.156v.78c0,.13.013.143.156.143.078,0,.507-.026,1.768-.026Zm2.548-2.639h-3.64v-.637h3.64Zm0-2.08v.611h-3.64V9.7ZM28.223,4.535c-.637,0-.949-.026-1.04-.026-.13,0-.143.013-.143.143,0,.091.026.988.026,2.821V13.1c0,1.807-.026,2.7-.026,2.782,0,.117.013.13.143.13H28.21c.13,0,.143-.013.143-.13,0-.078-.026-1.014-.026-2.8V5.731h1.248A15.916,15.916,0,0,1,28.509,8.76a4.16,4.16,0,0,1,1.118,2.626c0,.663-.351.949-1.17.91a1.5,1.5,0,0,1,.273.78c.039.4.039.4.442.377a1.653,1.653,0,0,0,1.69-1.82,4.2,4.2,0,0,0-1.079-2.964A23.74,23.74,0,0,0,30.758,6.1a1.076,1.076,0,0,1,.234-.52.291.291,0,0,0,.117-.221c0-.078-.039-.208-.312-.52-.3-.325-.4-.377-.494-.377a.325.325,0,0,0-.169.039.6.6,0,0,1-.26.039Zm8.268,3.627c1.261,0,1.69.026,1.768.026.13,0,.143-.013.143-.13V7.265c0-.13-.013-.143-.143-.143-.078,0-.507.026-1.768.026h-.325c.182-.325.325-.65.442-.9a.5.5,0,0,1,.13-.182c.715.013,1,.026,1.066.026.13,0,.143-.013.143-.156V5.224c0-.13-.013-.143-.143-.143-.078,0-.494.026-1.677.026H35.035V4.938a.9.9,0,0,1,.065-.416.567.567,0,0,0,.078-.221q0-.1-.195-.117c-.416-.039-.832-.065-1.313-.065a3.348,3.348,0,0,1,.078.793v.2h-.611c-1.2,0-1.6-.026-1.677-.026-.13,0-.143.013-.143.143v.715c0,.143.013.156.143.156.052,0,.234-.013.676-.013A4.767,4.767,0,0,1,32.6,7.148h-.039c-1.248,0-1.69-.026-1.755-.026-.13,0-.143.013-.143.143v.793c0,.117.013.13.143.13.065,0,.507-.026,1.755-.026ZM35.425,6.069a7.259,7.259,0,0,1-.455,1.079H33.826A7.151,7.151,0,0,0,33.4,6.069ZM49.491,11.5c1.157,0,1.56.026,1.638.026.13,0,.143-.013.143-.143v-.78c0-.143-.013-.156-.143-.156-.078,0-.481.026-1.638.026H46.059V9.8h1.9c1.261,0,1.7.026,1.781.026.13,0,.143-.013.143-.156v-.7c0-.143-.013-.156-.143-.156-.078,0-.52.026-1.781.026h-1.9V8.175h1.378c1.209,0,1.625.026,1.7.026.13,0,.143-.013.143-.13V7.343c0-.13-.013-.143-.143-.143-.078,0-.494.026-1.7.026H46.059a.541.541,0,0,1,.078-.364A.284.284,0,0,0,46.2,6.68c0-.065-.065-.13-.195-.143-.455-.052-.845-.078-1.326-.091a3.877,3.877,0,0,1,.091.78h-1.2c-1.222,0-1.638-.026-1.716-.026-.143,0-.156.013-.156.143v.728c0,.117.013.13.156.13.078,0,.494-.026,1.716-.026h1.2v.663h-1.69c-1.274,0-1.716-.026-1.794-.026-.13,0-.143.013-.143.156v.7c0,.143.013.156.143.156.078,0,.52-.026,1.794-.026h1.69v.676H41.548c-1.157,0-1.56-.026-1.638-.026-.13,0-.143.013-.143.156v.78c0,.13.013.143.143.143.078,0,.481-.026,1.638-.026Zm-6.76,4.55c.143,0,.156-.013.156-.143v-.455h5.3v.4c0,.117.013.13.143.13h1.092c.143,0,.156-.013.156-.13,0-.078-.026-.338-.026-1.755v-.871c0-.546.026-.832.026-.91,0-.143-.013-.156-.156-.156-.078,0-.533.026-1.781.026H43.433c-1.261,0-1.7-.026-1.794-.026-.13,0-.143.013-.143.156,0,.078.026.364.026,1.04v.767c0,1.443-.026,1.7-.026,1.781,0,.13.013.143.143.143Zm.156-2.821h5.3v1.2h-5.3Zm3.185-8.151a1.206,1.206,0,0,1,.065-.533,1.086,1.086,0,0,0,.065-.26c0-.065-.065-.117-.195-.13-.455-.039-.936-.065-1.391-.065a4.565,4.565,0,0,1,.091.988h-2.9c-1.2,0-1.612-.026-1.7-.026-.13,0-.143.013-.143.156,0,.078.026.3.026.715v.442c0,1.105-.026,1.3-.026,1.391,0,.13.013.143.143.143h1.066c.13,0,.143-.013.143-.143V6.186h8.359V7.759c0,.13.013.143.143.143h1.066c.13,0,.143-.013.143-.143,0-.078-.026-.286-.026-1.391V5.835c0-.325.026-.546.026-.624,0-.143-.013-.156-.143-.156-.078,0-.507.026-1.7.026ZM59.5,4.7H57.473l.364,7.735H59.15Zm-1.95,9v1.755H59.4V13.7Z" transform="translate(93.102 604)"/></g></svg>