<svg xmlns="http://www.w3.org/2000/svg" width="164.398" height="59.899" viewBox="0 0 164.398 59.899"><g transform="translate(-69.667 -570.798)"><path d="M145.032,0l15.908,13.165L164.4,45.442,150.378,58.194,23.275,59.9l-9.052-4.371L12.965,44.433,0,41.181l10.954-7.843L10.2,19.217,22.772,8.458Z" transform="translate(69.667 570.798)" fill="#ffe330"/><path d="M8.32-.507C8.32.377,8.294.806,8.294.884c0,.13.013.143.143.143h1.04c.13,0,.143-.013.143-.143,0-.065-.026-.507-.026-1.391h.975c1.274,0,1.716.026,1.794.026.13,0,.143-.013.143-.143v-.793c0-.143-.013-.156-.143-.156-.078,0-.52.026-1.794.026H9.594v-.819h.429c1.261,0,1.69.026,1.768.026.13,0,.143-.013.143-.156v-.728c0-.143-.013-.156-.143-.156-.078,0-.507.026-1.768.026H9.594V-4c1.04,0,1.417.026,1.495.026.13,0,.143-.013.143-.156,0-.078-.026-.247-.026-.767V-5.59c0-.52.026-.7.026-.78,0-.143-.013-.156-.143-.156-.078,0-.468.026-1.638.026H6.591c-1.17,0-1.573-.026-1.664-.026-.13,0-.143.013-.143.156,0,.078.026.26.026.78V-4.9c0,.52-.026.689-.026.767,0,.143.013.156.143.156C5.018-3.978,5.421-4,6.591-4H8.32v.65H6.11c-1.248,0-1.664-.026-1.742-.026-.143,0-.156.013-.156.156V-2.5c0,.143.013.156.156.156.052,0,.3-.013.884-.026v.819c-.988,0-1.365-.026-1.43-.026-.13,0-.143.013-.143.156v.793c0,.13.013.143.143.143.078,0,.52-.026,1.807-.026ZM9.906-4.862H6.1V-5.6H9.906ZM6.526-1.547v-.819H8.32v.819Zm3.965-5.5c1.274,0,1.716.026,1.781.026.13,0,.143-.013.143-.156v-.767c0-.13-.013-.143-.143-.143-.065,0-.4.026-1.3.026v-.949c0-.468.026-.663.026-.741,0-.13-.013-.143-.13-.143-.078,0-.494.026-1.638.026H8.112c.026-.065.039-.143.065-.221a1.038,1.038,0,0,1,.182-.338.254.254,0,0,0,.091-.195c0-.091-.065-.13-.182-.156-.4-.052-.871-.1-1.326-.13a3.046,3.046,0,0,1-.117.728c-.039.1-.052.208-.091.312H6.513c-1.144,0-1.534-.026-1.612-.026-.13,0-.143.013-.143.143V-9c0,.13.013.143.143.143.078,0,.455-.026,1.508-.026-.091.26-.208.533-.325.819h-.26c-1.274,0-1.7-.026-1.781-.026-.13,0-.143.013-.143.143v.767c0,.143.013.156.143.156.078,0,.507-.026,1.781-.026ZM9.672-8.879v.819H7.488L7.8-8.879ZM1.885-1.105c0,1.274-.026,1.9-.026,1.976,0,.13.013.143.13.143H3.068c.13,0,.143-.013.143-.143,0-.065-.026-.7-.026-1.976V-7.826c.273-.572.52-1.157.741-1.768A1.327,1.327,0,0,1,4.2-10.14a.292.292,0,0,0,.117-.234c0-.091-.065-.143-.2-.2a10.7,10.7,0,0,0-1.2-.338A4.426,4.426,0,0,1,2.7-10,11.9,11.9,0,0,1,.338-5.863a4.83,4.83,0,0,1,.39,1.092c.039.156.078.234.143.234s.143-.065.247-.182c.273-.325.546-.65.78-.988-.013.624-.013,1.274-.013,1.781ZM18.434-6.136a7.858,7.858,0,0,1-.7,2.3A7.525,7.525,0,0,1,13.52-.26a4.027,4.027,0,0,1,.741.819c.143.221.2.3.3.3a1.038,1.038,0,0,0,.312-.1A8.531,8.531,0,0,0,19.032-3.3a7.56,7.56,0,0,0,.494-1.248A9.961,9.961,0,0,0,24.154.7a.836.836,0,0,0,.3.13c.1,0,.156-.1.273-.325a4.335,4.335,0,0,1,.754-.975,8.678,8.678,0,0,1-5.2-5.668h3.107c1.17,0,1.573.026,1.651.026.13,0,.143-.013.143-.156V-7.332c0-.13-.013-.143-.143-.143-.078,0-.481.026-1.651.026H20.033c.052-.559.065-1.157.078-1.794a2.249,2.249,0,0,1,.117-.91.546.546,0,0,0,.078-.273c0-.091-.1-.156-.234-.182a14.957,14.957,0,0,0-1.5-.1A10.184,10.184,0,0,1,18.642-9.2c-.013.637-.026,1.222-.065,1.755H15.6c-1.17,0-1.573-.026-1.651-.026-.13,0-.143.013-.143.143v1.066c0,.143.013.156.143.156.078,0,.481-.026,1.651-.026ZM33.618-2.9a6.7,6.7,0,0,0-1.027-.078c-1.469,0-2.4.767-2.4,1.9S31.148.767,32.578.767C34.06.767,35,.169,35-1.131A9.669,9.669,0,0,1,36.582-.039c.052.052.091.078.13.078s.078-.026.117-.091a8,8,0,0,0,.6-1.053c.065-.13.052-.182-.078-.273a10.193,10.193,0,0,0-2.34-1.209,16.978,16.978,0,0,1-.143-2.21,1.351,1.351,0,0,1,.052-.533A1.63,1.63,0,0,0,35-5.6a.2.2,0,0,0-.182-.208A7.027,7.027,0,0,0,33.4-6.058a4.566,4.566,0,0,1,.1.923C33.514-4.524,33.54-3.731,33.618-2.9Zm.026,1.235a1.5,1.5,0,0,1,.013.26c0,.546-.429.923-1.131.923-.741,0-1.105-.208-1.105-.624,0-.494.507-.754,1.157-.754A3.313,3.313,0,0,1,33.644-1.664ZM31.525-8.333c.117-.39.221-.793.312-1.105a1.429,1.429,0,0,1,.208-.481.32.32,0,0,0,.117-.247c0-.091-.078-.169-.208-.195a12.022,12.022,0,0,0-1.521-.273,5.031,5.031,0,0,1-.078,1.053c-.091.468-.182.91-.338,1.456-.6.052-.988.065-1.5.065-.377,0-.676-.013-1.209-.052a6.792,6.792,0,0,0,.13,1.105c.026.169.052.208.182.208.325.013.429.013.715.013.4,0,.806,0,1.3-.026a26.226,26.226,0,0,1-2.249,4.537.249.249,0,0,0-.065.156c0,.052.026.091.091.143a6.171,6.171,0,0,0,.9.663.36.36,0,0,0,.156.065c.052,0,.091-.039.143-.13a35.922,35.922,0,0,0,2.535-5.577c.806-.117,1.443-.208,2.145-.351.1-.013.156-.039.156-.156a7.054,7.054,0,0,0-.117-1.053c-.026-.143-.078-.143-.195-.1A13.972,13.972,0,0,1,31.525-8.333ZM34.411-7.1A11.235,11.235,0,0,1,37.1-5.681a.181.181,0,0,0,.117.052c.039,0,.078-.026.117-.091a7.907,7.907,0,0,0,.546-.962.31.31,0,0,0,.052-.156c0-.052-.039-.091-.117-.143A10.143,10.143,0,0,0,35.269-8.2.181.181,0,0,0,35-8.112C34.827-7.878,34.632-7.488,34.411-7.1ZM8.541,10.645h1.95c1.157,0,1.56.026,1.638.026.13,0,.13-.013.13-.143V9.514c0-.117,0-.13-.13-.13-.078,0-.481.026-1.638.026H7.124V7.551H9.178c1.261,0,1.7.026,1.781.026.13,0,.143-.013.143-.143V6.459c0-.143-.013-.156-.143-.156-.078,0-.52.026-1.781.026H7.124V5.536A2.222,2.222,0,0,1,7.2,4.678a.734.734,0,0,0,.078-.26c0-.078-.091-.13-.208-.143-.455-.052-.9-.078-1.391-.1a6.841,6.841,0,0,1,.091,1.443v.715H3.991c.117-.234.221-.494.338-.754A.99.99,0,0,1,4.563,5.2.246.246,0,0,0,4.68,5c0-.078-.091-.143-.208-.195a8.388,8.388,0,0,0-1.209-.377,3.3,3.3,0,0,1-.312,1.027A8.12,8.12,0,0,1,1.04,8.188a3.323,3.323,0,0,1,.767.559c.143.143.221.221.286.221s.143-.078.273-.221a9.812,9.812,0,0,0,.923-1.2H5.772V9.41h-3.2c-1.17,0-1.56-.026-1.638-.026-.143,0-.156.013-.156.13v1.014c0,.13.013.143.156.143.078,0,.468-.026,1.638-.026H4.238a4.31,4.31,0,0,1-.754,2.587A4.694,4.694,0,0,1,.637,14.87a3.994,3.994,0,0,1,.689.845c.117.221.169.312.273.312a1.154,1.154,0,0,0,.3-.091A5.468,5.468,0,0,0,4.68,13.908,5.839,5.839,0,0,0,5.6,10.645H7.176V14.22c0,.78.1,1.066.312,1.261.26.247.806.39,2,.39,1.287,0,1.781-.182,2.145-.559a2.75,2.75,0,0,0,.637-1.963c.013-.325.013-.325-.312-.4a2.782,2.782,0,0,1-.949-.39c-.013,1.092-.117,1.547-.325,1.768-.182.182-.468.286-1.092.286-.52,0-.832-.065-.936-.182s-.117-.208-.117-.637Zm10.231,4.3c-.013.611-.026.936-.026.988,0,.13.013.143.143.143H19.9c.143,0,.156-.013.156-.143,0-.039-.026-.377-.026-.988h3.523c1.144,0,1.534.026,1.612.026.13,0,.143-.013.143-.143v-.676c0-.13-.013-.143-.143-.143-.078,0-.468.026-1.612.026H20.033V13.6H21.84c1.274,0,1.729.026,1.82.026.13,0,.143-.013.143-.143,0-.078-.026-.286-.026-.858v-.962c0-.572.026-.793.026-.871,0-.13-.013-.143-.143-.143-.091,0-.546.026-1.82.026H20.033v-.442h3.12c1.209,0,1.625.026,1.7.026.13,0,.143-.013.143-.143v-.65c0-.117-.013-.13-.143-.13-.078,0-.494.026-1.7.026h-3.12a3.127,3.127,0,0,1,.026-.4h1.066c.13,0,.143-.013.143-.143,0-.039-.013-.195-.026-.494h2.184c1.339,0,1.742.026,1.82.026.13,0,.143-.013.143-.156V7.629c0-.13-.013-.143-.143-.143-.078,0-.481.026-1.82.026H21.242V7.057h1.69c1.1,0,1.4.026,1.482.026.13,0,.143-.013.143-.156v-.52c0-.13-.013-.143-.143-.143-.078,0-.377.026-1.482.026h-1.69V5.835h2.041c1.261,0,1.638.026,1.716.026.13,0,.143-.013.143-.143V5.133c0-.13-.013-.143-.143-.143-.078,0-.455.026-1.716.026H21.242a1.158,1.158,0,0,1,.078-.52.478.478,0,0,0,.065-.208c0-.052-.052-.1-.182-.117-.338-.039-.806-.078-1.287-.091a10.281,10.281,0,0,1,.078,1.4V7.46c0,.468-.013.793,0,1.014h-.026c-.429-.052-.819-.078-1.287-.091.039.377.065.663.078.975H15.834c-1.2,0-1.625-.026-1.7-.026-.13,0-.143.013-.143.13v.65c0,.13.013.143.143.143.078,0,.507-.026,1.7-.026h2.938v.442H17.108c-1.274,0-1.729-.026-1.807-.026-.143,0-.156.013-.156.143,0,.078.026.3.026.871v.962c0,.572-.026.767-.026.858,0,.13.013.143.156.143.078,0,.533-.026,1.807-.026h1.664v.442H15.431c-1.157,0-1.547-.026-1.625-.026-.117,0-.13.013-.13.143v.676c0,.13.013.143.13.143.078,0,.468-.026,1.625-.026ZM22.5,12.92h-2.47v-.494H22.5Zm0-1.573v.494h-2.47v-.494ZM16.445,12.92v-.494h2.327v.494Zm0-1.079v-.494h2.327v.494Zm1.378-6.864h-2c-1.17,0-1.56-.026-1.638-.026-.13,0-.143.013-.143.143V5.64c0,.143.013.156.143.156.078,0,.468-.026,1.638-.026h2l-.026.416h-1.7c-1.066,0-1.378-.026-1.456-.026-.13,0-.143.013-.143.143V6.8c0,.117.013.13.143.13.078,0,.39-.026,1.456-.026h1.6a2.2,2.2,0,0,1-.1.312c-.845.091-1.768.143-2.782.195a10.563,10.563,0,0,1-1.118.013c.039.325.078.6.117.767.039.13.078.208.156.208a.557.557,0,0,0,.208-.065,2.074,2.074,0,0,1,.52-.1c.845-.091,1.625-.195,2.327-.3a4.481,4.481,0,0,1-1.43.65,2.7,2.7,0,0,1,.689.494c.169.169.247.247.351.247a1.03,1.03,0,0,0,.338-.1A3.023,3.023,0,0,0,18.72,7.564a6.823,6.823,0,0,0,.312-2.249,2.209,2.209,0,0,1,.078-.806,1.08,1.08,0,0,0,.065-.234c0-.065-.078-.117-.208-.13a11.908,11.908,0,0,0-1.209-.065,4.913,4.913,0,0,1,.065.871Zm13.884,1.9c.091-.325.182-.767.312-1.235a2.475,2.475,0,0,1,.273-.52.312.312,0,0,0,.065-.208.216.216,0,0,0-.143-.208,7.577,7.577,0,0,0-1.638-.364,8.945,8.945,0,0,1-.078,1.2c-.091.533-.195,1.1-.325,1.625a17.569,17.569,0,0,1-2.106.13,6,6,0,0,1-.962-.039c.065.468.13.91.182,1.183.026.169.078.208.273.208.611,0,1.521-.065,2.275-.143a48.8,48.8,0,0,1-2.249,6.162.209.209,0,0,0,.1.26c.273.156.91.429,1.04.481s.221.052.286-.13c.832-2.158,1.5-4.147,2.379-7.033a20.76,20.76,0,0,0,2.262-.494c.169-.039.208-.078.2-.247-.013-.273-.052-.65-.091-.936-.013-.1-.065-.169-.208-.13C32.916,6.615,32.214,6.784,31.707,6.875Zm.234,5.967a2.536,2.536,0,0,0,.585,1.781c.585.611,1.469.845,3.172.845a15.448,15.448,0,0,0,1.768-.143c.208-.013.221-.052.208-.208a8.127,8.127,0,0,0-.1-1.131c-.013-.1-.052-.13-.156-.117a19.435,19.435,0,0,1-2.184.182c-1.248,0-1.885-.273-1.989-1.222-.013-.13-.065-.182-.195-.182A6.621,6.621,0,0,0,31.941,12.842Zm1.014-2.457a14.386,14.386,0,0,1,2.613-.3,8.693,8.693,0,0,1,1.612.156c.182.039.247-.013.247-.234a9.176,9.176,0,0,0-.013-1.04c0-.156-.039-.169-.221-.2a9.467,9.467,0,0,0-1.521-.13,13.577,13.577,0,0,0-2.535.3c-.195.039-.234.078-.234.26C32.9,9.462,32.929,9.93,32.955,10.385Zm10.14-3.5c-1,.078-1.807.117-2.821.117.052.429.143.975.182,1.131a.222.222,0,0,0,.247.182c.663,0,1.482-.065,2.184-.117-.221,1.3-.4,2.262-.689,3.406-.052.195-.1.39-.169.611a.887.887,0,0,0-.052.26c0,.117.078.169.286.26a3.654,3.654,0,0,0,.975.286c.117.013.156-.039.247-.195.117-.169.247-.325.364-.494a4.323,4.323,0,0,1,3.419-1.612c.988,0,1.482.559,1.482,1.235,0,.819-.481,1.417-1.482,1.833a10.127,10.127,0,0,1-3.731.715,2.481,2.481,0,0,1,.7.923c.1.247.195.312.325.312a6.022,6.022,0,0,0,.962-.091,8.659,8.659,0,0,0,3.315-1.04,2.914,2.914,0,0,0,1.482-2.626,2.639,2.639,0,0,0-2.9-2.457,5.623,5.623,0,0,0-3.731,1.378c.234-.91.416-1.781.6-2.86,1.092-.143,1.794-.286,2.912-.533.117-.026.156-.065.156-.208a5.883,5.883,0,0,0-.091-.962c-.026-.169-.091-.182-.273-.13a23.774,23.774,0,0,1-2.444.481c.065-.455.117-.715.182-1.066a1.349,1.349,0,0,1,.221-.481.427.427,0,0,0,.091-.208c0-.1-.091-.182-.26-.234a8.508,8.508,0,0,0-1.56-.273,4.313,4.313,0,0,1,.026,1.261C43.212,6,43.16,6.433,43.1,6.888Zm15.418.338a4.7,4.7,0,0,0-2.5,4.121c0,2.7,2.509,4.017,4.8,4.017.156,0,.208-.078.247-.273a4.624,4.624,0,0,0,.143-1.118c0-.143-.078-.195-.286-.195-2.262-.143-3.458-1.053-3.458-2.73,0-1.56,1.105-3.081,3.315-3.835a5.8,5.8,0,0,1,1.586-.286c.169,0,.247-.039.247-.195a7.427,7.427,0,0,0-.143-1.144c-.013-.091-.078-.169-.273-.143-3.354.442-6.214.871-7.813,1.105a17.934,17.934,0,0,1-2.067.221,9.059,9.059,0,0,0,.481,1.4.3.3,0,0,0,.247.195.759.759,0,0,0,.286-.1c.195-.065.325-.091.819-.208,1.391-.286,2.782-.559,4.368-.858ZM60.4,9.085a6.451,6.451,0,0,1,1.313,1.508.136.136,0,0,0,.221.039l.546-.4a.131.131,0,0,0,.039-.208A5.983,5.983,0,0,0,61.282,8.63c-.078-.065-.13-.078-.195-.026Zm1.2-.858a6.15,6.15,0,0,1,1.3,1.5.133.133,0,0,0,.221.039l.52-.4a.15.15,0,0,0,.039-.234,5.429,5.429,0,0,0-1.235-1.339c-.078-.065-.117-.078-.195-.026Zm9.087-1.742c-1.56.091-3.237.195-4.03.26a8.574,8.574,0,0,1-1.586.052A9.11,9.11,0,0,0,65.39,8.11c.039.13.091.182.221.182s.325-.117.611-.156c1.027-.143,2.86-.3,4.5-.39,0,.429.013.871.013,1.326a1.593,1.593,0,0,0-.988-.26,1.894,1.894,0,0,0-1.963,1.95,1.8,1.8,0,0,0,1.807,1.989,1.5,1.5,0,0,0,1.222-.52,4.343,4.343,0,0,1-2.665,2.86,2.9,2.9,0,0,1,.988.52.736.736,0,0,0,.39.195,1.239,1.239,0,0,0,.507-.247,4.854,4.854,0,0,0,2.314-4.2,4.05,4.05,0,0,0-.195-1.287c-.013-.793-.013-1.625-.013-2.418,1.352-.013,2.613-.013,3.965.026.156.013.221-.026.221-.169.013-.325.013-.663,0-.988-.013-.169-.039-.195-.195-.195-1.248,0-2.587.013-3.991.065.013-.494.013-.663.026-.832a1.359,1.359,0,0,1,.1-.377.548.548,0,0,0,.117-.3c0-.117-.143-.208-.364-.247A13.208,13.208,0,0,0,70.5,4.457a4.131,4.131,0,0,1,.156.949C70.668,5.757,70.668,6.082,70.681,6.485Zm-.832,3.341a.779.779,0,0,1,.858.832.835.835,0,0,1-.884.9.806.806,0,0,1-.832-.884A.827.827,0,0,1,69.849,9.826Z" transform="translate(93.102 602)"/></g></svg>