<svg xmlns="http://www.w3.org/2000/svg" width="145.46" height="59.899" viewBox="0 0 145.46 59.899"><g transform="translate(-69.667 -570.798)"><path d="M128.325,0,142.4,13.165l3.06,32.276-12.4,12.752L20.594,59.9l-8.009-4.371L11.472,44.433,0,41.181l9.692-7.843L9.024,19.217,20.149,8.458Z" transform="translate(69.667 570.798)" fill="#ffe330"/><path d="M6.565-5.07A33.056,33.056,0,0,1,5.2-.962c-.39.026-.793.026-1.287.013.091.507.182.923.286,1.3.039.117.091.208.195.208a.562.562,0,0,0,.247-.1,1.575,1.575,0,0,1,.481-.1C7.2.1,8.632-.1,10.543-.455c.182.364.338.741.507,1.131.052.13.078.143.26.052l.884-.442c.195-.091.208-.143.143-.273a25.281,25.281,0,0,0-2.119-3.692c-.091-.13-.13-.13-.286-.052l-.793.377c-.156.078-.182.13-.1.247.325.494.65,1,.962,1.56-1.183.2-2.236.325-3.315.442A40.653,40.653,0,0,0,8.06-5.07H10.5c1.274,0,1.7.026,1.781.026.13,0,.143-.013.143-.156v-1c0-.13-.013-.143-.143-.143-.078,0-.507.026-1.781.026H5.941c-1.274,0-1.7-.026-1.781-.026-.13,0-.143.013-.143.143v1c0,.143.013.156.143.156.078,0,.507-.026,1.781-.026ZM1.95-1.105c0,1.274-.026,1.9-.026,1.976,0,.13.013.143.156.143H3.159c.13,0,.143-.013.143-.143,0-.065-.026-.7-.026-1.976V-7.631A20.223,20.223,0,0,0,4.069-9.5a1.184,1.184,0,0,1,.286-.52c.1-.091.143-.143.143-.234s-.065-.156-.208-.221a7.923,7.923,0,0,0-1.222-.416,3.385,3.385,0,0,1-.221.936A12.042,12.042,0,0,1,.338-5.694,3.483,3.483,0,0,1,.819-4.615c.039.156.1.221.169.221a.364.364,0,0,0,.247-.169c.26-.312.507-.624.728-.923-.013.481-.013.975-.013,1.391ZM9.763-8.5c1.2,0,1.6.026,1.677.026.143,0,.156-.013.156-.143V-9.633c0-.13-.013-.143-.156-.143-.078,0-.481.026-1.677.026H6.721c-1.2,0-1.6-.026-1.677-.026-.143,0-.156.013-.156.143v1.014c0,.13.013.143.156.143.078,0,.481-.026,1.677-.026Zm12.805,1c-.143.065-.156.117-.065.234.208.247.416.494.611.767-.793.1-1.534.169-2.418.234a15.125,15.125,0,0,0,.923-1.9h1.872c1.209,0,1.625.026,1.7.026.117,0,.13-.013.13-.13v-.923c0-.13-.013-.143-.13-.143-.078,0-.494.026-1.7.026H22.308V-9.62a1.747,1.747,0,0,1,.065-.754.609.609,0,0,0,.078-.273c0-.065-.078-.117-.208-.13-.468-.052-.9-.078-1.378-.091a6.805,6.805,0,0,1,.091,1.248v.312h-.767c-1.209,0-1.612-.026-1.69-.026-.13,0-.143.013-.143.143V-9l-.1-.078a9.449,9.449,0,0,0-1.092-.559,6.548,6.548,0,0,1-.39.884c-.26.455-.533.91-.819,1.352-.182-.221-.377-.429-.585-.65A15.341,15.341,0,0,0,16.51-9.776a.843.843,0,0,1,.247-.3c.065-.052.117-.1.117-.169s-.052-.13-.169-.208a9.739,9.739,0,0,0-1.118-.507,4.143,4.143,0,0,1-.312.806,13.282,13.282,0,0,1-.7,1.287c-.1-.091-.195-.2-.3-.3-.052-.052-.078-.078-.117-.078s-.078.039-.13.117l-.442.637c-.052.078-.091.13-.091.169s.026.065.078.117a18.6,18.6,0,0,1,1.7,1.82q-.409.565-.819,1.092a7.963,7.963,0,0,1-.936-.052c.039.416.091.767.156,1.105.026.13.065.208.156.208a.367.367,0,0,0,.2-.052,1.5,1.5,0,0,1,.494-.1l1.066-.078V-.806c0,1.2-.026,1.625-.026,1.7,0,.13.013.143.143.143h.988c.13,0,.143-.013.143-.143,0-.065-.026-.507-.026-1.7V-4.381l.689-.078c.052.182.091.377.13.572.026.156.052.156.234.1l.663-.208c.156-.052.195-.117.156-.247a13.3,13.3,0,0,0-.845-2.3c-.065-.13-.091-.143-.234-.091L17.03-6.4c-.156.065-.182.1-.13.221.1.247.221.494.312.754l-1.365.078a34.506,34.506,0,0,0,1.989-2.821,1.6,1.6,0,0,1,.429-.52.326.326,0,0,0,.091-.052v.468c0,.117.013.13.143.13.078,0,.481-.026,1.69-.026h.039a12.44,12.44,0,0,1-.923,1.976c-.26.013-.52,0-.806-.013a7.582,7.582,0,0,0,.26,1.209c.039.117.078.169.143.169A.366.366,0,0,0,19.1-4.9a2.085,2.085,0,0,1,.585-.117c1.352-.13,2.613-.26,4.1-.455.13.221.247.442.364.676.039.065.065.091.091.091a.471.471,0,0,0,.169-.065l.767-.4c.143-.078.156-.13.1-.247A13.2,13.2,0,0,0,23.5-7.787c-.091-.1-.117-.1-.26-.039Zm.676,4.342a3,3,0,0,1,.065-1,.734.734,0,0,0,.078-.26c0-.091-.1-.143-.26-.156-.4-.039-.845-.065-1.248-.091a7.369,7.369,0,0,1,.078,1.326V-.234a.912.912,0,0,0,.364.871,2.276,2.276,0,0,0,1.157.2c.9,0,1.326-.117,1.56-.364s.39-.624.442-1.586c.013-.338-.013-.377-.312-.455a2.945,2.945,0,0,1-.806-.338,3.4,3.4,0,0,1-.169,1.365.507.507,0,0,1-.442.182.785.785,0,0,1-.4-.078c-.065-.026-.1-.117-.1-.286ZM17.316.091a2.934,2.934,0,0,1,.715.637c.13.169.208.234.312.234a.9.9,0,0,0,.325-.13c1.651-.962,2.275-2.054,2.288-4.212a2.808,2.808,0,0,1,.065-.7,1,1,0,0,0,.065-.247c0-.091-.1-.156-.286-.169-.377-.039-.78-.065-1.183-.078A7.961,7.961,0,0,1,19.669-3.5C19.669-1.456,19.214-.793,17.316.091ZM13.455-.3a3.633,3.633,0,0,1,.715.351.568.568,0,0,0,.286.13c.078,0,.117-.091.182-.286a13,13,0,0,0,.455-2.379,1.819,1.819,0,0,1,.091-.481.294.294,0,0,0,.065-.195c0-.052-.065-.117-.221-.156-.234-.052-.572-.1-.988-.156A5.4,5.4,0,0,1,14-2.665,7.617,7.617,0,0,1,13.455-.3ZM17.3-3.354c-.156.039-.169.078-.13.208a10.56,10.56,0,0,1,.442,1.95c.026.143.039.169.234.1l.663-.221c.182-.065.182-.117.156-.247a10.308,10.308,0,0,0-.546-1.872c-.052-.13-.065-.13-.221-.091ZM30-10.309A5.817,5.817,0,0,1,30.342-8.8a19.729,19.729,0,0,0,.676,3.172c-1.521.962-2.47,1.911-2.47,3.354,0,1.69,1.3,2.5,3.757,2.5a27.78,27.78,0,0,0,3.874-.2c.156-.013.247-.078.234-.221a11.48,11.48,0,0,0-.13-1.209c-.026-.156-.091-.182-.234-.156a22.7,22.7,0,0,1-3.965.3c-1.495,0-2.067-.325-2.067-1.092,0-.611.4-1.222,1.534-1.963a18.091,18.091,0,0,1,3.055-1.521,6.238,6.238,0,0,1,1.248-.39c.182-.026.26-.13.26-.26a.526.526,0,0,0-.091-.273,6.676,6.676,0,0,0-.949-1.222,3.216,3.216,0,0,1-.9.7c-.728.39-1.2.637-1.846.988a18.278,18.278,0,0,1-.416-2.236c-.026-.3-.065-.611-.065-.871,0-.182.091-.364.091-.546,0-.1-.078-.169-.234-.208A7.524,7.524,0,0,0,30-10.309ZM43.862-7.943h-.286c-.832,0-1.079-.026-1.157-.026-.143,0-.156.013-.156.143v.754c0,.13.013.143.156.143.078,0,.325-.026,1.157-.026h.091a5.992,5.992,0,0,1-1.781,1.742c.039-.65.052-1.378.052-2.223V-9.165h7.423c1.222,0,1.664.026,1.742.026.117,0,.13-.013.13-.143V-10.2c0-.143-.013-.156-.13-.156-.078,0-.507.026-1.729.026h-6.9c-1.235,0-1.664-.026-1.742-.026-.143,0-.156.013-.156.156,0,.078.026.91.026,2.756a27.424,27.424,0,0,1-.234,4.29A7.518,7.518,0,0,1,39.351-.247a3.765,3.765,0,0,1,.806.741c.117.143.195.221.247.221s.1-.078.195-.247a10.582,10.582,0,0,0,1.04-3.133,20.485,20.485,0,0,0,.247-2.5,2.645,2.645,0,0,1,.442.65c.091.156.143.247.221.247s.143-.065.273-.2A6.441,6.441,0,0,0,43.9-5.954c-.013,1.105-.065,1.846-.065,2.015,0,.143.013.156.143.156h.845c.13,0,.143-.013.143-.156,0-.169-.052-.962-.065-2.223a3.965,3.965,0,0,0,.585.741c.117.117.182.169.247.169s.13-.065.221-.234a2.36,2.36,0,0,1,.416-.52,5.843,5.843,0,0,1-1.248-.949c.637.013.845.026.923.026.13,0,.143-.013.143-.143v-.754c0-.13-.013-.143-.143-.143-.078,0-.325.026-1.092.026v-.1a1.468,1.468,0,0,1,.052-.481c.026-.065.078-.117.078-.195s-.065-.117-.182-.13c-.338-.039-.715-.065-1.1-.078a5.814,5.814,0,0,1,.065.9Zm5.4,8.515c1.274,0,1.716.026,1.794.026.13,0,.143-.013.143-.143v-.91c0-.13-.013-.143-.143-.143-.078,0-.52.026-1.794.026H47.034v-1.17h1.534c1.066,0,1.352.026,1.43.026.13,0,.143-.013.143-.143v-.858c0-.13-.013-.13-.143-.13-.078,0-.364.013-1.43.013H47.034a1.912,1.912,0,0,1,.091-.689.763.763,0,0,0,.065-.26c0-.065-.078-.13-.208-.143-.442-.052-.819-.078-1.313-.091a5.918,5.918,0,0,1,.1,1.235v2.21H44.33V-1.924a1.914,1.914,0,0,1,.078-.7.608.608,0,0,0,.078-.247c0-.065-.078-.13-.208-.143-.468-.052-.78-.078-1.261-.091a6.758,6.758,0,0,1,.078,1.2V-.572c-.962,0-1.339-.026-1.4-.026-.13,0-.143.013-.143.143v.91c0,.13.013.143.143.143C41.769.6,42.2.572,43.42.572ZM47.944-7.943c-.871,0-1.144-.026-1.222-.026-.13,0-.143.013-.143.143v.754c0,.13.013.143.143.143.065,0,.3-.013.949-.026a6.543,6.543,0,0,1-1.885,1.9,2.414,2.414,0,0,1,.494.572c.1.169.169.26.234.26s.143-.078.286-.208A6.288,6.288,0,0,0,48-6.006c-.026,1.157-.065,1.9-.065,2.067,0,.143.013.156.143.156h.832c.143,0,.156-.013.156-.156,0-.169-.052-.949-.078-2.184A6.442,6.442,0,0,0,50.492-4.3c.143.117.234.169.3.169s.117-.065.182-.221a3.389,3.389,0,0,1,.494-.767,7.225,7.225,0,0,1-2.236-1.833h.26c.923,0,1.209.026,1.3.026.13,0,.143-.013.143-.143v-.754c0-.13-.013-.143-.143-.143-.091,0-.377.026-1.3.026h-.442V-8.06a1.366,1.366,0,0,1,.052-.468c.026-.078.065-.117.065-.195s-.039-.117-.156-.13a10.2,10.2,0,0,0-1.131-.065,5.839,5.839,0,0,1,.065.871Zm13.481,3.6c1.261,0,1.7.026,1.781.026.13,0,.143-.013.143-.156,0-.078-.026-.416-.026-1.17V-7.488c0-.754.026-1.092.026-1.17,0-.13-.013-.143-.143-.143-.078,0-.52.026-1.781.026H59.2v-.572a2.366,2.366,0,0,1,.091-.9.714.714,0,0,0,.091-.3c0-.1-.078-.156-.26-.182-.468-.039-.871-.078-1.378-.091A10.569,10.569,0,0,1,57.863-9.1v.325H55.679c-1.274,0-1.716-.026-1.794-.026-.13,0-.143.013-.143.143,0,.078.026.416.026,1.17v1.846c0,.754-.026,1.092-.026,1.17,0,.143.013.156.143.156.078,0,.52-.026,1.794-.026h2.106a6.369,6.369,0,0,1-.143,1,3.305,3.305,0,0,1-.351.884,6.108,6.108,0,0,1-1.391-1.6c-.065-.117-.091-.117-.234-.039l-.767.416c-.156.091-.182.117-.117.247a7.488,7.488,0,0,0,1.625,1.963,7.722,7.722,0,0,1-3.77,1.222,3.968,3.968,0,0,1,.559.91c.1.26.13.325.26.325a1.857,1.857,0,0,0,.3-.039A7.967,7.967,0,0,0,57.538-.676,14.513,14.513,0,0,0,63.453.832c.169.013.2.013.26.013.156,0,.182-.091.273-.377a5.011,5.011,0,0,1,.481-1.027,14.91,14.91,0,0,1-6.045-1.2,5,5,0,0,0,.546-1.326,7.917,7.917,0,0,0,.182-1.261Zm.52-1.209H59.2c.013-.65,0-1.339,0-2h2.743Zm-6.8,0v-2h2.717c0,.637,0,1.339-.013,2ZM69.6-10.569a3.056,3.056,0,0,1,.052.585c0,.364-.052.949-.1,1.417a19.822,19.822,0,0,1-2.522-.052c.026.364.026.7.065.988.013.221.091.286.234.3a5.17,5.17,0,0,0,.741.026c.221,0,.572.013,1.339-.013-.026.494-.052,1.066-.065,1.625C67.743-4.9,66.3-3.315,66.3-1.651A1.417,1.417,0,0,0,67.743-.039,4.089,4.089,0,0,0,70-.975a2.591,2.591,0,0,0,.221.507c.078.13.13.13.26.065a4.135,4.135,0,0,0,.78-.455c.13-.091.182-.156.1-.325a3.92,3.92,0,0,1-.234-.585,13.75,13.75,0,0,0,2.457-3.406,1.941,1.941,0,0,1,1.612,1.885,2.238,2.238,0,0,1-1.04,1.95,7.485,7.485,0,0,1-2.418.949,3.305,3.305,0,0,1,.767.806c.143.286.286.325.572.247C75.153.1,76.7-1.118,76.7-3a3.179,3.179,0,0,0-2.665-3.172,1.124,1.124,0,0,1,.169-.26.225.225,0,0,0,.078-.156c0-.078-.078-.182-.234-.286a5.232,5.232,0,0,0-1.157-.481,3.19,3.19,0,0,1-.221.949,7.8,7.8,0,0,0-1.989.286c.013-.455.039-.767.091-1.313a27.582,27.582,0,0,0,3.692-.546c.143-.026.273-.091.273-.26a4.033,4.033,0,0,0-.13-.884c-.026-.117-.065-.169-.221-.13a24.992,24.992,0,0,1-3.38.546c.039-.221.065-.416.1-.65a1,1,0,0,1,.182-.468.286.286,0,0,0,.065-.208q0-.156-.234-.234A7.121,7.121,0,0,0,69.6-10.569Zm1.17,7.514a13.92,13.92,0,0,1-.156-1.95,6.1,6.1,0,0,1,1.664-.3A11.93,11.93,0,0,1,70.772-3.055ZM69.342-4.42a16.856,16.856,0,0,0,.26,2.236,2.786,2.786,0,0,1-1.508.754.444.444,0,0,1-.429-.494A3.468,3.468,0,0,1,69.342-4.42ZM83.681-5.486c.988-.949,1.859-1.859,2.808-2.782a2.1,2.1,0,0,1,.572-.416A.344.344,0,0,0,87.282-9a.451.451,0,0,0-.143-.312,4.919,4.919,0,0,0-.871-.832.464.464,0,0,0-.3-.1.672.672,0,0,0-.247.1,3.449,3.449,0,0,1-.715.195c-1.014.195-2.158.364-2.951.442a6.265,6.265,0,0,1-1.209-.026,6.224,6.224,0,0,0,.455,1.4.3.3,0,0,0,.286.221.954.954,0,0,0,.26-.065,4,4,0,0,1,.546-.156c.806-.169,1.729-.351,2.509-.494-.6.741-1.209,1.391-2.015,2.223a31.292,31.292,0,0,1-3.081,2.873c-.1.1-.143.195-.065.3a5.853,5.853,0,0,0,.767.845.319.319,0,0,0,.195.117c.065,0,.13-.052.221-.143.39-.39.754-.767,1.131-1.105a5.292,5.292,0,0,1,3.328-1.378,1.9,1.9,0,0,1,2.041,1.963A1.958,1.958,0,0,1,86.1-.949a2.366,2.366,0,0,0-2.444-1.9,1.725,1.725,0,0,0-1.833,1.586c0,1.209.988,1.911,2.626,1.911,2.782,0,4.537-1.391,4.537-3.562a3.017,3.017,0,0,0-3.224-3.12,3.912,3.912,0,0,0-2.067.585ZM84.812-.624a2.846,2.846,0,0,1-.6.052c-.78,0-1.131-.273-1.131-.676,0-.273.247-.494.624-.494C84.253-1.742,84.643-1.339,84.812-.624ZM10.569,12.01a12.577,12.577,0,0,1-.234,2.041c-.117.52-.325.6-.676.6a7.64,7.64,0,0,1-1.092-.091,2.529,2.529,0,0,1,.286.858c.091.429.091.429.416.442.247.013.494.013.728.013a1.437,1.437,0,0,0,1.365-.689,7.757,7.757,0,0,0,.585-3.029c.026-.312.039-.78.078-1.131.013-.117-.026-.143-.169-.143-.078,0-.533.026-1.807.026H7.28V9.943H8.71c1.248,0,1.677.026,1.755.026.143,0,.156-.013.156-.143V8.981c0-.13-.013-.143-.156-.143-.078,0-.507.026-1.755.026H7.28V7.928H8.71c1.248,0,1.677.026,1.755.026.143,0,.156-.013.156-.143V6.966c0-.13-.013-.143-.156-.143-.078,0-.507.026-1.755.026H7.28V5.887H9.451c1.261,0,1.69.026,1.768.026.13,0,.143-.013.143-.143V4.86c0-.13-.013-.143-.143-.143-.078,0-.507.026-1.768.026h-5.2c-1.365,0-1.976-.026-2.106-.026s-.156.013-.156.143c0,.091.026.611.026,1.69V10.2c0,1.079-.026,1.612-.026,1.69,0,.13.013.143.156.143s.741-.026,2.106-.026ZM3.341,6.849V5.887H5.967v.962Zm0,4.056V9.943H5.967v.962Zm0-2.041V7.928H5.967v.936Zm-1.781,6.8a.434.434,0,0,0,.156.065c.039,0,.052-.026.091-.091a9.31,9.31,0,0,0,1.222-2.665c.039-.143.013-.182-.143-.234l-.793-.286c-.195-.065-.208-.078-.26.065a6.547,6.547,0,0,1-1.209,2.4c-.078.1-.065.143.1.247ZM3.7,12.79c-.195.013-.208.039-.182.182a15.869,15.869,0,0,1,.3,2.366c.013.156.026.156.234.13l.845-.13c.195-.026.195-.065.182-.2a14.169,14.169,0,0,0-.377-2.3c-.039-.143-.052-.143-.221-.13Zm2.171-.065c-.182.039-.208.052-.156.195a11.119,11.119,0,0,1,.468,1.963c.026.156.052.156.247.117l.767-.182c.182-.026.182-.065.156-.182a11.878,11.878,0,0,0-.546-1.924c-.052-.143-.065-.143-.221-.117Zm2.08-.221c-.182.039-.208.078-.143.208a8.22,8.22,0,0,1,.546,1.625c.039.143.065.156.247.1l.7-.221c.156-.052.169-.065.13-.208a8.673,8.673,0,0,0-.611-1.56c-.052-.117-.078-.143-.247-.1Zm15.353-4.94c1.17,0,1.573.026,1.651.026.143,0,.156-.013.156-.143V6.394c0-.13-.013-.143-.156-.143-.078,0-.481.026-1.651.026H20.1v-.65c0-.7,0-.845.078-.975a.605.605,0,0,0,.078-.26c0-.078-.078-.143-.208-.143A13.229,13.229,0,0,0,18.6,4.158a7.715,7.715,0,0,1,.1,1.495v.624h-2.99c-1.17,0-1.573-.026-1.651-.026-.13,0-.143.013-.143.143V7.447c0,.13.013.143.143.143.078,0,.481-.026,1.651-.026h.247a11.943,11.943,0,0,0,2.522,4.719,13.863,13.863,0,0,1-4.758,2.3,2.93,2.93,0,0,1,.585.962c.091.234.13.325.247.325a1.522,1.522,0,0,0,.312-.078,14.634,14.634,0,0,0,4.641-2.548,14.39,14.39,0,0,0,4.641,2.574,1.134,1.134,0,0,0,.3.065c.13,0,.169-.091.26-.338a3.312,3.312,0,0,1,.611-1.066,13.509,13.509,0,0,1-4.758-2.21A11.173,11.173,0,0,0,23.01,7.564Zm-1.833,0a8.091,8.091,0,0,1-1.95,3.8,8.929,8.929,0,0,1-2.145-3.8ZM33.54,10.528a22.572,22.572,0,0,0,3.432-2.522,2.686,2.686,0,0,1,.676-.494c.13-.039.221-.117.221-.208s-.039-.156-.143-.26a11.333,11.333,0,0,0-1.014-.858,5.066,5.066,0,0,1-.767.884,14.338,14.338,0,0,1-2.4,1.911V5.731a2.1,2.1,0,0,1,.091-.884.5.5,0,0,0,.078-.247c0-.1-.078-.156-.247-.169-.455-.052-.871-.078-1.391-.091a9.082,9.082,0,0,1,.078,1.508v8.2c0,.871.26,1.209.689,1.417a5.471,5.471,0,0,0,2.262.26,4.389,4.389,0,0,0,2.353-.442c.442-.325.663-.884.754-2.158.026-.338.039-.338-.286-.455a4.081,4.081,0,0,1-1-.533c-.052,1.235-.169,1.794-.39,1.976a1.935,1.935,0,0,1-1.339.325A4.613,4.613,0,0,1,33.9,14.35c-.286-.1-.364-.273-.364-.741ZM28.587,13.9c0,1.261-.026,1.885-.026,1.976,0,.117.013.13.156.13h1.131c.13,0,.143-.013.143-.13,0-.078-.026-.715-.026-1.976V7.252a15.332,15.332,0,0,0,.819-1.677,1.343,1.343,0,0,1,.325-.559.272.272,0,0,0,.117-.221c0-.091-.052-.13-.221-.2a8.963,8.963,0,0,0-1.261-.416,4.788,4.788,0,0,1-.26.91,10.724,10.724,0,0,1-3,4.394,4.984,4.984,0,0,1,.494,1.066c.065.2.117.286.195.286s.156-.078.286-.195a14.125,14.125,0,0,0,1.157-1.352c-.013.572-.026,1.17-.026,1.664ZM46.618,12.1a6.7,6.7,0,0,0-1.027-.078c-1.469,0-2.4.767-2.4,1.9s.962,1.846,2.392,1.846c1.482,0,2.418-.6,2.418-1.9a9.669,9.669,0,0,1,1.586,1.092c.052.052.091.078.13.078s.078-.026.117-.091a8,8,0,0,0,.6-1.053c.065-.13.052-.182-.078-.273a10.193,10.193,0,0,0-2.34-1.209,16.978,16.978,0,0,1-.143-2.21,1.351,1.351,0,0,1,.052-.533A1.63,1.63,0,0,0,48,9.4a.2.2,0,0,0-.182-.208A7.027,7.027,0,0,0,46.4,8.942a4.566,4.566,0,0,1,.1.923C46.514,10.476,46.54,11.269,46.618,12.1Zm.026,1.235a1.5,1.5,0,0,1,.013.26c0,.546-.429.923-1.131.923-.741,0-1.1-.208-1.1-.624,0-.494.507-.754,1.157-.754A3.313,3.313,0,0,1,46.644,13.336ZM44.525,6.667c.117-.39.221-.793.312-1.105a1.429,1.429,0,0,1,.208-.481.32.32,0,0,0,.117-.247c0-.091-.078-.169-.208-.195a12.022,12.022,0,0,0-1.521-.273,5.031,5.031,0,0,1-.078,1.053c-.091.468-.182.91-.338,1.456-.6.052-.988.065-1.495.065-.377,0-.676-.013-1.209-.052a6.792,6.792,0,0,0,.13,1.105c.026.169.052.208.182.208.325.013.429.013.715.013.4,0,.806,0,1.3-.026a26.226,26.226,0,0,1-2.249,4.537.249.249,0,0,0-.065.156c0,.052.026.091.091.143a6.171,6.171,0,0,0,.9.663.36.36,0,0,0,.156.065c.052,0,.091-.039.143-.13a35.921,35.921,0,0,0,2.535-5.577c.806-.117,1.443-.208,2.145-.351.1-.013.156-.039.156-.156a7.054,7.054,0,0,0-.117-1.053c-.026-.143-.078-.143-.195-.1A13.972,13.972,0,0,1,44.525,6.667ZM47.411,7.9A11.235,11.235,0,0,1,50.1,9.319a.181.181,0,0,0,.117.052c.039,0,.078-.026.117-.091a7.907,7.907,0,0,0,.546-.962.31.31,0,0,0,.052-.156c0-.052-.039-.091-.117-.143A10.143,10.143,0,0,0,48.269,6.8.181.181,0,0,0,48,6.888C47.827,7.122,47.632,7.512,47.411,7.9Zm11.973-.871A2.953,2.953,0,0,1,62.3,10.047c0,2.457-1.729,3.367-3.926,3.887a2.757,2.757,0,0,1,.91.819c.169.26.286.312.559.234,2.639-.793,4-2.314,4-4.732,0-2.587-1.833-4.511-4.953-4.511a5.689,5.689,0,0,0-4.225,1.664,4.79,4.79,0,0,0-1.469,3.38c0,2.119,1.157,3.341,2.3,3.341a2.469,2.469,0,0,0,2.21-1.495,16.278,16.278,0,0,0,1.625-5.6Zm-1.56.078a14.853,14.853,0,0,1-1.378,4.654c-.351.624-.637.793-.975.793-.4,0-.884-.663-.884-1.859A3.743,3.743,0,0,1,55.6,8.292,3.915,3.915,0,0,1,57.824,7.109Zm14.469.117a4.7,4.7,0,0,0-2.5,4.121c0,2.7,2.509,4.017,4.8,4.017.156,0,.208-.078.247-.273a4.625,4.625,0,0,0,.143-1.118c0-.143-.078-.195-.286-.195-2.262-.143-3.458-1.053-3.458-2.73,0-1.56,1.105-3.081,3.315-3.835a5.8,5.8,0,0,1,1.586-.286c.169,0,.247-.039.247-.195a7.428,7.428,0,0,0-.143-1.144c-.013-.091-.078-.169-.273-.143-3.354.442-6.214.871-7.813,1.105a17.934,17.934,0,0,1-2.067.221,9.059,9.059,0,0,0,.481,1.4.3.3,0,0,0,.247.195.759.759,0,0,0,.286-.1c.195-.065.325-.091.819-.208,1.391-.286,2.782-.559,4.368-.858Zm1.885,1.859a6.45,6.45,0,0,1,1.313,1.508.136.136,0,0,0,.221.039l.546-.4a.131.131,0,0,0,.039-.208A5.983,5.983,0,0,0,75.062,8.63c-.078-.065-.13-.078-.195-.026Zm1.2-.858a6.15,6.15,0,0,1,1.3,1.5.133.133,0,0,0,.221.039l.52-.4a.15.15,0,0,0,.039-.234,5.429,5.429,0,0,0-1.235-1.339c-.078-.065-.117-.078-.195-.026Zm9.087-1.742c-1.56.091-3.237.195-4.03.26a8.574,8.574,0,0,1-1.586.052A9.11,9.11,0,0,0,79.17,8.11c.039.13.091.182.221.182s.325-.117.611-.156c1.027-.143,2.86-.3,4.5-.39,0,.429.013.871.013,1.326a1.593,1.593,0,0,0-.988-.26,1.894,1.894,0,0,0-1.963,1.95,1.8,1.8,0,0,0,1.807,1.989,1.5,1.5,0,0,0,1.222-.52,4.343,4.343,0,0,1-2.665,2.86,2.9,2.9,0,0,1,.988.52.736.736,0,0,0,.39.195,1.239,1.239,0,0,0,.507-.247,4.854,4.854,0,0,0,2.314-4.2,4.05,4.05,0,0,0-.195-1.287c-.013-.793-.013-1.625-.013-2.418,1.352-.013,2.613-.013,3.965.026.156.013.221-.026.221-.169.013-.325.013-.663,0-.988-.013-.169-.039-.195-.195-.195-1.248,0-2.587.013-3.991.065.013-.494.013-.663.026-.832a1.359,1.359,0,0,1,.1-.377.548.548,0,0,0,.117-.3c0-.117-.143-.208-.364-.247a13.208,13.208,0,0,0-1.521-.182,4.131,4.131,0,0,1,.156.949C84.448,5.757,84.448,6.082,84.461,6.485Zm-.832,3.341a.779.779,0,0,1,.858.832.835.835,0,0,1-.884.9.806.806,0,0,1-.832-.884A.827.827,0,0,1,83.629,9.826ZM98.5,4.7H96.473l.364,7.735H98.15Zm-1.95,9v1.755H98.4V13.7Z" transform="translate(93.102 602)"/></g></svg>