<svg xmlns="http://www.w3.org/2000/svg" width="194" height="71.878" viewBox="0 0 194 71.878"><g transform="translate(4100 -2510.558)"><path d="M171.147,0l18.772,15.8L194,54.53l-16.543,15.3L27.466,71.879,16.784,66.634,15.3,53.32,0,49.417l12.926-9.411-.89-16.945L26.872,10.15Z" transform="translate(-4100 2510.557)" fill="#ffe330"/><path d="M7.072-7.952l.016,1.1h-2.1c-1.536,0-2.08-.032-2.176-.032-.16,0-.176.032-.192.208a7.011,7.011,0,0,1-.192.976,19.359,19.359,0,0,1-.912,2.88c-.08.192.032.192.8.272.8.08.8.08.864-.112l.16-.448H6.112A12.74,12.74,0,0,1,.624-.48a4.649,4.649,0,0,1,.688.992C1.456.8,1.52.9,1.648.9A1.873,1.873,0,0,0,2.032.8a11.958,11.958,0,0,0,5.1-3.072l.016.656C7.168-.048,7.136.736,7.136,1.04c0,.176.016.192.176.192H8.656c.176,0,.192-.016.192-.192,0-.272-.08-1.12-.1-2.672L8.72-3.1h4.144a5.239,5.239,0,0,1-.256,1.52c-.144.272-.4.3-.816.3a9.559,9.559,0,0,1-1.584-.16,4.582,4.582,0,0,1,.368,1.088c.1.5.128.528.576.56.384.032.656.032.928.032a1.938,1.938,0,0,0,1.888-.832,5.558,5.558,0,0,0,.528-2.24c.048-.5.08-.96.144-1.424.016-.16-.032-.192-.192-.192-.1,0-.656.032-2.24.032H8.7l-.016-1.1h2.224c1.648,0,2.464.032,2.544.032.176,0,.192-.016.192-.176,0-.1-.032-.432-.032-1.216V-7.92c0-.768.032-1.1.032-1.2,0-.16-.016-.176-.192-.176-.08,0-.9.032-2.544.032H4.368c-1.552,0-2.08-.032-2.176-.032-.16,0-.176.016-.176.176V-8.1c0,.16.016.176.176.176.1,0,.624-.032,2.176-.032Zm4.928,0v1.1H8.672l-.016-1.1ZM3.76-4.416l.3-1.1H7.1l.016,1.1ZM10.8-10.88a9.478,9.478,0,0,1,.5,1.168c.064.176.1.176.32.128l1.04-.24c.208-.048.224-.1.16-.24-.144-.288-.288-.56-.448-.816h.256c1.616,0,2.192.032,2.288.032.144,0,.16-.016.16-.176v-.992c0-.16-.016-.176-.16-.176-.1,0-.672.032-2.288.032H10.272l.112-.272a.932.932,0,0,1,.24-.384c.08-.08.128-.112.128-.224,0-.128-.08-.16-.256-.208a11.721,11.721,0,0,0-1.344-.224,3.748,3.748,0,0,1-.256.752,7.108,7.108,0,0,1-.976,1.648v-.944c0-.16-.016-.176-.192-.176-.1,0-.528.032-1.872.032H4l.144-.272a1.3,1.3,0,0,1,.272-.4.324.324,0,0,0,.128-.224c0-.112-.08-.176-.24-.208-.368-.08-.96-.176-1.408-.224a3.069,3.069,0,0,1-.288.736,7.86,7.86,0,0,1-2.032,2.56,4.182,4.182,0,0,1,.784.64c.176.192.256.288.352.288.08,0,.176-.08.352-.256a8.987,8.987,0,0,0,1.184-1.36H4.4a7.7,7.7,0,0,1,.464,1.136c.064.192.1.192.32.144l1.072-.24c.192-.048.208-.08.144-.224q-.192-.408-.432-.816c1.248,0,1.664.032,1.76.032q-.24.288-.528.576a3.13,3.13,0,0,1,.8.528c.192.192.272.288.368.288.08,0,.176-.1.336-.272a9.375,9.375,0,0,0,.9-1.152ZM27.056-9.536c1.584,0,2.128.032,2.224.032.16,0,.176-.016.176-.176v-1.472c0-.16-.016-.176-.176-.176-.1,0-.64.032-2.224.032H20.928c-1.568,0-2.112-.032-2.208-.032-.176,0-.192.016-.192.176V-9.68c0,.16.016.176.192.176.1,0,.64-.032,2.208-.032ZM28.9-.768c1.424,0,1.9.032,2,.032.16,0,.176-.016.176-.176V-2.384c0-.16-.016-.176-.176-.176-.1,0-.576.032-2,.032H19.12c-1.424,0-1.92-.032-2.016-.032-.16,0-.176.016-.176.176V-.912c0,.16.016.176.176.176.1,0,.592-.032,2.016-.032Zm12.56.048v.288c0,.976-.032,1.456-.032,1.552,0,.16.016.176.176.176h1.312c.16,0,.176-.016.176-.176,0-.08-.032-.576-.032-1.552V-.72h1.872c1.568,0,2.112.032,2.208.032.16,0,.176-.016.176-.176v-.96c0-.176-.016-.192-.176-.192-.1,0-.64.032-2.208.032H43.056v-.928h.912c1.408,0,1.888.032,1.984.032.176,0,.192-.016.192-.176,0-.1-.032-.464-.032-1.328v-1.76c0-.864.032-1.248.032-1.344,0-.16-.016-.176-.192-.176-.1,0-.576.032-1.984.032H40.784c-1.408,0-1.888-.032-2-.032-.16,0-.176.016-.176.176,0,.112.032.48.032,1.344v1.76c0,.864-.032,1.232-.032,1.328,0,.16.016.176.176.176.112,0,.592-.032,2-.032h.672v.928H39.68c-1.552,0-2.08-.032-2.176-.032-.176,0-.192.016-.192.192v.96c0,.16.016.176.192.176.1,0,.624-.032,2.176-.032Zm3.136-3.248h-4.48v-.784h4.48Zm0-2.56v.752h-4.48v-.752ZM34.736-12.88c-.784,0-1.168-.032-1.28-.032-.16,0-.176.016-.176.176,0,.112.032,1.216.032,3.472v6.928c0,2.224-.032,3.328-.032,3.424,0,.144.016.16.176.16H34.72c.16,0,.176-.016.176-.16,0-.1-.032-1.248-.032-3.44v-9.056H36.4A19.589,19.589,0,0,1,35.088-7.68a5.119,5.119,0,0,1,1.376,3.232c0,.816-.432,1.168-1.44,1.12a1.852,1.852,0,0,1,.336.96c.048.5.048.5.544.464a2.035,2.035,0,0,0,2.08-2.24,5.17,5.17,0,0,0-1.328-3.648,29.217,29.217,0,0,0,1.2-3.168,1.324,1.324,0,0,1,.288-.64.358.358,0,0,0,.144-.272c0-.1-.048-.256-.384-.64-.368-.4-.5-.464-.608-.464a.4.4,0,0,0-.208.048.737.737,0,0,1-.32.048ZM44.912-8.416c1.552,0,2.08.032,2.176.032.16,0,.176-.016.176-.16V-9.52c0-.16-.016-.176-.176-.176-.1,0-.624.032-2.176.032h-.4c.224-.4.4-.8.544-1.1a.621.621,0,0,1,.16-.224c.88.016,1.232.032,1.312.032.16,0,.176-.016.176-.192v-.88c0-.16-.016-.176-.176-.176-.1,0-.608.032-2.064.032H43.12v-.208a1.1,1.1,0,0,1,.08-.512.7.7,0,0,0,.1-.272q0-.12-.24-.144c-.512-.048-1.024-.08-1.616-.08a4.121,4.121,0,0,1,.1.976v.24h-.752c-1.472,0-1.968-.032-2.064-.032-.16,0-.176.016-.176.176v.88c0,.176.016.192.176.192.064,0,.288-.016.832-.016a5.867,5.867,0,0,1,.576,1.312H40.08c-1.536,0-2.08-.032-2.16-.032-.16,0-.176.016-.176.176v.976c0,.144.016.16.176.16.08,0,.624-.032,2.16-.032ZM43.6-10.992a8.933,8.933,0,0,1-.56,1.328H41.632a8.8,8.8,0,0,0-.528-1.328ZM60.912-4.3c1.424,0,1.92.032,2.016.032.16,0,.176-.016.176-.176v-.96c0-.176-.016-.192-.176-.192-.1,0-.592.032-2.016.032H56.688V-6.4h2.336c1.552,0,2.1.032,2.192.032.16,0,.176-.016.176-.192v-.864c0-.176-.016-.192-.176-.192-.1,0-.64.032-2.192.032H56.688V-8.4h1.7c1.488,0,2,.032,2.1.032.16,0,.176-.016.176-.16v-.9c0-.16-.016-.176-.176-.176-.1,0-.608.032-2.1.032h-1.7a.666.666,0,0,1,.1-.448.35.35,0,0,0,.08-.224c0-.08-.08-.16-.24-.176-.56-.064-1.04-.1-1.632-.112a4.772,4.772,0,0,1,.112.96H53.632c-1.5,0-2.016-.032-2.112-.032-.176,0-.192.016-.192.176v.9c0,.144.016.16.192.16.1,0,.608-.032,2.112-.032H55.1v.816h-2.08c-1.568,0-2.112-.032-2.208-.032-.16,0-.176.016-.176.192v.864c0,.176.016.192.176.192.1,0,.64-.032,2.208-.032H55.1v.832H51.136c-1.424,0-1.92-.032-2.016-.032-.16,0-.176.016-.176.192v.96c0,.16.016.176.176.176.1,0,.592-.032,2.016-.032Zm-8.32,5.6c.176,0,.192-.016.192-.176V.56h6.528v.5c0,.144.016.16.176.16h1.344c.176,0,.192-.016.192-.16,0-.1-.032-.416-.032-2.16V-2.176c0-.672.032-1.024.032-1.12,0-.176-.016-.192-.192-.192-.1,0-.656.032-2.192.032H53.456c-1.552,0-2.1-.032-2.208-.032-.16,0-.176.016-.176.192,0,.1.032.448.032,1.28v.944c0,1.776-.032,2.1-.032,2.192,0,.16.016.176.176.176Zm.192-3.472h6.528V-.7H52.784ZM56.7-12.208a1.485,1.485,0,0,1,.08-.656,1.336,1.336,0,0,0,.08-.32c0-.08-.08-.144-.24-.16-.56-.048-1.152-.08-1.712-.08a5.619,5.619,0,0,1,.112,1.216H51.456c-1.472,0-1.984-.032-2.1-.032-.16,0-.176.016-.176.192,0,.1.032.368.032.88v.544c0,1.36-.032,1.6-.032,1.712,0,.16.016.176.176.176h1.312c.16,0,.176-.016.176-.176v-1.936H61.136v1.936c0,.16.016.176.176.176h1.312c.16,0,.176-.016.176-.176,0-.1-.032-.352-.032-1.712v-.656c0-.4.032-.672.032-.768,0-.176-.016-.192-.176-.192-.1,0-.624.032-2.1.032Zm-44.5,25a38.684,38.684,0,0,1-.416,6.368c-.16.848-.576,1.072-1.168,1.072a12.563,12.563,0,0,1-2.4-.208,4.015,4.015,0,0,1,.464,1.264c.1.512.1.528.592.576a11.343,11.343,0,0,0,1.536.064c1.6-.016,2.384-.576,2.672-2.112a46.335,46.335,0,0,0,.5-7.024c0-.416,0-.96.032-1.44,0-.16-.032-.192-.192-.192-.112,0-.64.032-2.192.032H8.272c.016-.464.016-.928.016-1.36a4.531,4.531,0,0,1,.128-1.36.675.675,0,0,0,.144-.4c0-.112-.08-.192-.32-.224a16.844,16.844,0,0,0-1.888-.176A13.081,13.081,0,0,1,6.5,9.8c0,.464-.016.928-.016,1.392H3.9c-1.536,0-2.064-.032-2.144-.032-.176,0-.192.016-.192.176v1.312c0,.16.016.176.192.176.08,0,.608-.032,2.144-.032H6.4a12.638,12.638,0,0,1-.672,3.216C4.976,18.1,3.36,19.624.752,20.76a3.575,3.575,0,0,1,1.008.928c.176.24.256.336.384.336a1.49,1.49,0,0,0,.384-.144A9.688,9.688,0,0,0,7.36,16.648a14.11,14.11,0,0,0,.8-3.856Zm13.52,3.328c1.36-.56,2.4-.912,3.44-1.28a5.117,5.117,0,0,1,.976-.24c.16-.032.24-.1.24-.224a.633.633,0,0,0-.128-.352,9.856,9.856,0,0,0-1.12-1.408,4.812,4.812,0,0,1-1.216.864c-.816.416-1.728.832-2.352,1.12a1.767,1.767,0,0,0-1.952-1.728,3.184,3.184,0,0,0-1.6.5L22,13.336a16.511,16.511,0,0,0,1.2-1.776c1.168-.128,2.544-.3,3.744-.48.224-.032.288-.1.272-.256a5.4,5.4,0,0,0-.16-1.152c-.032-.144-.08-.192-.256-.16a25.739,25.739,0,0,1-2.912.5c.192-.432.272-.64.368-.864a1.246,1.246,0,0,1,.272-.384.309.309,0,0,0,.112-.24.287.287,0,0,0-.192-.272A10.1,10.1,0,0,0,22.624,7.8a3.9,3.9,0,0,1-.112.976,12.329,12.329,0,0,1-.48,1.376,35.292,35.292,0,0,1-3.68.016c.048.48.112,1.072.16,1.328.032.176.08.256.224.256.944,0,1.808-.016,2.56-.048a16.35,16.35,0,0,1-3.344,3.968c-.08.064-.112.112-.112.176a.26.26,0,0,0,.064.144,7.611,7.611,0,0,0,.912,1.056.319.319,0,0,0,.176.112c.064,0,.112-.048.192-.144a21.561,21.561,0,0,1,1.6-1.744,3.863,3.863,0,0,1,2.208-1.152c.72-.032.912.288.96,1.1-2.416,1.248-3.376,2.368-3.376,3.9,0,1.856,1.392,2.64,4.016,2.64a28.458,28.458,0,0,0,3.968-.208c.128,0,.192-.112.176-.3a7.16,7.16,0,0,0-.144-1.312c-.016-.144-.08-.192-.224-.176a27.344,27.344,0,0,1-3.984.32c-1.68,0-2.224-.432-2.224-1.1,0-.768.512-1.392,1.936-2.128-.016.576-.016,1.376-.016,1.952,0,.16.064.256.208.256a8.655,8.655,0,0,0,1.136-.08c.208-.032.3-.112.3-.288ZM35.04,8.264c-1.04,0-1.36-.032-1.472-.032-.16,0-.176.016-.176.176,0,.112.032.768.032,2.16V15.96c0,1.392-.032,2.048-.032,2.144,0,.16.016.16.176.16.112,0,.432-.016,1.472-.016h1.52c1.04,0,1.36.032,1.472.032.16,0,.176-.016.176-.176,0-.1-.032-.752-.032-2.144V10.568c0-1.392.032-2.064.032-2.16,0-.16-.016-.176-.176-.176-.112,0-.432.032-1.472.032Zm1.712,8.656H34.864V15.272h1.888Zm-1.888-2.928V12.408h1.888v1.584Zm1.888-4.4v1.536H34.864V9.592Zm5.616,5.6v4.576c0,.528-.176.656-.656.656a9.57,9.57,0,0,1-1.408-.1,3.573,3.573,0,0,1,.4,1.248c.08.5.1.5.592.5a4.187,4.187,0,0,0,2.3-.384c.4-.32.48-.784.48-1.6,0-.512-.016-1.2-.016-1.936v-2.96h.912c1.472,0,1.984.032,2.064.032.16,0,.176-.016.176-.176V13.832c0-.16-.016-.176-.176-.176-.08,0-.592.032-2.064.032h-3.84c-1.472,0-1.984-.032-2.064-.032-.16,0-.176.016-.176.176v1.216c0,.16.016.176.176.176.08,0,.592-.032,2.064-.032ZM43.7,9.5V9.064a2.669,2.669,0,0,1,.1-.9.676.676,0,0,0,.08-.32c0-.064-.1-.128-.256-.144-.544-.064-1.12-.112-1.712-.128a7.629,7.629,0,0,1,.112,1.52v.4H41.1c-1.472,0-1.984-.032-2.08-.032-.16,0-.176.016-.176.176,0,.1.032.336.032.8v.432c0,1.2-.032,1.408-.032,1.5,0,.176.016.176.176.176h1.232c.176,0,.192,0,.192-.176V10.984h4.976v1.392c0,.176.016.176.176.176h1.28c.144,0,.16,0,.16-.176,0-.1-.032-.3-.032-1.5v-.544c0-.352.032-.592.032-.688,0-.16-.016-.176-.16-.176-.112,0-.624.032-2.1.032ZM32.544,21.432a3.962,3.962,0,0,1,.976.592c.16.128.24.192.32.192.1,0,.176-.112.352-.32a10.424,10.424,0,0,0,1.152-2.032,1.517,1.517,0,0,1,.24-.464c.1-.1.128-.128.128-.224,0-.08-.048-.144-.192-.208-.352-.128-.88-.3-1.328-.448a2.591,2.591,0,0,1-.192.688A6.205,6.205,0,0,1,32.544,21.432Zm3.824-2.448c-.208.1-.24.144-.176.3a15.873,15.873,0,0,0,1.136,2.128c.144.224.208.336.3.336.064,0,.144-.064.288-.192a5.168,5.168,0,0,1,.944-.64A11.02,11.02,0,0,1,37.408,18.7c-.08-.16-.1-.176-.3-.064Zm20.1-7.5a9.159,9.159,0,0,0-3.264.912c-.1-.384-.144-.672-.224-1.136a5.207,5.207,0,0,1-.064-.912c0-.288-.048-.4-.3-.464A6.946,6.946,0,0,0,50.8,9.624a7.243,7.243,0,0,1,.48,1.5c.16.7.32,1.5.5,2.112A6.1,6.1,0,0,0,49.5,17.832c0,1.6.88,2.592,2.1,2.592a3.678,3.678,0,0,0,2.672-1.52c.176.208.3.336.432.464a.346.346,0,0,0,.224.1.382.382,0,0,0,.224-.08,4.583,4.583,0,0,0,.992-.976,5.647,5.647,0,0,1-.688-.816,28.806,28.806,0,0,0,2.336-4.672,2.987,2.987,0,0,1,2.88,3.024c0,2.784-2.608,3.776-4.784,4.224a3.272,3.272,0,0,1,1.04,1.056c.192.3.3.352.656.272,3.184-.784,4.912-2.5,4.912-5.344,0-2.544-1.744-4.24-4.272-4.64.208-.64.352-1.024.448-1.28a2.638,2.638,0,0,1,.32-.592.548.548,0,0,0,.112-.272c0-.112-.08-.208-.256-.288a6.624,6.624,0,0,0-1.888-.64,4.134,4.134,0,0,1-.032,1.088A12.175,12.175,0,0,1,56.464,11.48Zm-2.88,2.352a6.276,6.276,0,0,1,2.416-.9,19.272,19.272,0,0,1-1.52,3.232A11.983,11.983,0,0,1,53.584,13.832Zm-1.312,1.056a16.536,16.536,0,0,0,1.1,2.592c-.672.816-1.184,1.168-1.664,1.168-.336,0-.56-.432-.56-.976A4.478,4.478,0,0,1,52.272,14.888ZM70.624,14.3c1.264-1.28,2.416-2.416,3.664-3.728a3.561,3.561,0,0,1,.624-.512.545.545,0,0,0,.336-.448.439.439,0,0,0-.112-.288,4.866,4.866,0,0,0-1.072-1.072.406.406,0,0,0-.576-.016,1.842,1.842,0,0,1-.864.288c-.864.16-2.112.336-3.088.448a18.374,18.374,0,0,1-2.112.1,9.143,9.143,0,0,0,.624,1.7c.1.208.208.3.32.3a.7.7,0,0,0,.336-.112,5.7,5.7,0,0,1,.624-.208c1.056-.224,1.952-.416,3.056-.64-1.568,1.856-2.784,3.232-3.7,4.224-.96,1.008-1.76,1.84-2.928,2.912a.274.274,0,0,0-.128.192.411.411,0,0,0,.112.192,7.833,7.833,0,0,0,.928.976.3.3,0,0,0,.208.112.415.415,0,0,0,.256-.176A16.181,16.181,0,0,1,68.7,16.952a7.6,7.6,0,0,1,4.88-2.048c1.328,0,2.3.656,2.3,1.968,0,1.952-2.128,3.2-6,3.7a3.481,3.481,0,0,1,1.1,1.216c.16.3.3.288.624.224,3.936-.592,6.208-2.32,6.208-4.928a3.565,3.565,0,0,0-3.856-3.632,6.487,6.487,0,0,0-3.28.912ZM89.232,8.328h-2.5l.448,9.52H88.8ZM86.832,19.4v2.16H89.1V19.4Z" transform="translate(-4071.877 2546.5)"/></g></svg>