<svg xmlns="http://www.w3.org/2000/svg" width="145.46" height="59.899" viewBox="0 0 145.46 59.899"><g transform="translate(-69.667 -570.798)"><path d="M128.325,0,142.4,13.165l3.06,32.276-12.4,12.752L20.594,59.9l-8.009-4.371L11.472,44.433,0,41.181l9.692-7.843L9.024,19.217,20.149,8.458Z" transform="translate(69.667 570.798)" fill="#ffe330"/><path d="M4.147-5.369C4.134-2.353,3.289-1.222.585-.286A2.7,2.7,0,0,1,1.274.52c.117.234.169.325.273.325a.894.894,0,0,0,.3-.1c2.5-1.092,3.627-2.483,3.744-6.11H7.306V-.936c0,.819.156,1.092.52,1.287A3.572,3.572,0,0,0,9.7.65c1.157,0,1.638-.1,2.054-.455.364-.3.559-.793.663-1.989.026-.338.026-.351-.3-.455a5.2,5.2,0,0,1-.936-.4c-.052,1.092-.143,1.547-.338,1.755a1.489,1.489,0,0,1-1.04.26,2.372,2.372,0,0,1-.832-.1c-.182-.078-.221-.182-.221-.637V-5.369h1.664c1.17,0,1.573.026,1.651.026.13,0,.143-.013.143-.143V-6.539c0-.13-.013-.143-.143-.143-.078,0-.481.026-1.651.026H2.574c-1.17,0-1.56-.026-1.638-.026-.13,0-.143.013-.143.143v1.053c0,.13.013.143.143.143.078,0,.468-.026,1.638-.026ZM8.983-8.723c1.274,0,1.716.026,1.794.026.143,0,.156-.013.156-.143V-9.919c0-.13-.013-.143-.156-.143-.078,0-.52.026-1.794.026H4.069c-1.274,0-1.729-.026-1.807-.026-.13,0-.143.013-.143.143V-8.84c0,.13.013.143.143.143.078,0,.533-.026,1.807-.026ZM21.762-6.084a10.387,10.387,0,0,1-1.976,2.912,12.974,12.974,0,0,0-1.391-1,.391.391,0,0,0-.182-.078c-.052,0-.091.026-.156.091-.273.234-.533.507-.819.793A13.771,13.771,0,0,1,20.865-.1c.052.078.091.117.143.117s.078-.026.143-.078a7.063,7.063,0,0,0,.819-.7c.078-.078.117-.13.117-.182s-.039-.1-.1-.182a10.525,10.525,0,0,0-1.222-1.287,14.819,14.819,0,0,0,2.34-3.25,1.978,1.978,0,0,1,.442-.624.257.257,0,0,0,.078-.182.421.421,0,0,0-.117-.273A4.773,4.773,0,0,0,22.7-7.4a.45.45,0,0,0-.26-.091.286.286,0,0,0-.169.052,1.34,1.34,0,0,1-.663.13l-2.379.065c.221-.351.559-.91.767-1.313A2.071,2.071,0,0,1,20.384-9a.312.312,0,0,0,.117-.221.229.229,0,0,0-.117-.195A8.884,8.884,0,0,0,18.954-10a6.118,6.118,0,0,1-.78,1.911,16.363,16.363,0,0,1-4.238,4.927,3.492,3.492,0,0,1,1.105.507A.25.25,0,0,0,15.2-2.6c.078,0,.143-.052.26-.13a15.88,15.88,0,0,0,3.068-3.276ZM34.346-3.237a5.425,5.425,0,0,0-1.04-.1c-1.313,0-2.275.767-2.275,1.833,0,1.118.832,1.82,2.327,1.82,1.534,0,2.275-.6,2.379-1.69a7.72,7.72,0,0,1,1.4,1.04.18.18,0,0,0,.117.065.157.157,0,0,0,.117-.078,7.023,7.023,0,0,0,.6-1c.065-.143.052-.182-.065-.26A8.508,8.508,0,0,0,35.75-2.86c-.065-1.118-.091-2.028-.091-3.484a14.649,14.649,0,0,0,2-.273c.091-.013.143-.078.143-.195a5.2,5.2,0,0,0-.078-.923c-.026-.143-.052-.195-.208-.156-.559.091-1.235.182-1.846.234,0-.6,0-.936.026-1.378a1.466,1.466,0,0,1,.1-.455.558.558,0,0,0,.078-.221c0-.117-.091-.182-.234-.221a7.237,7.237,0,0,0-1.573-.247A5.359,5.359,0,0,1,34.242-8.9c0,.481.013.9.013,1.365a18.806,18.806,0,0,1-2.964-.039A7.964,7.964,0,0,0,31.382-6.4c.013.13.065.169.234.169a26.288,26.288,0,0,0,2.678.013C34.307-5.187,34.32-4.238,34.346-3.237ZM34.372-2a1.831,1.831,0,0,1,.013.26c0,.468-.416.845-1.066.845-.767,0-1.053-.247-1.053-.65s.364-.624.975-.624A3.621,3.621,0,0,1,34.372-2ZM28.34-10.153a6.542,6.542,0,0,1-.091,1.534,28.238,28.238,0,0,0-.533,4.927A12.11,12.11,0,0,0,28.275.273c.065.182.117.195.26.156A5.444,5.444,0,0,0,29.51.208c.117-.039.169-.078.156-.169a2.455,2.455,0,0,1,.013-.689,7.705,7.705,0,0,1,.663-1.976.377.377,0,0,0,.078-.208.281.281,0,0,0-.078-.182,3.457,3.457,0,0,1-.455-.819c-.273.65-.546,1.209-.806,1.807-.039-.546-.039-1.144-.039-1.664a25.815,25.815,0,0,1,.65-4.732,2.638,2.638,0,0,1,.234-.715.664.664,0,0,0,.091-.286c0-.1-.052-.182-.195-.26A10.151,10.151,0,0,0,28.34-10.153ZM2.808,10.216H9.971c1.235,0,1.651.026,1.729.026.13,0,.143-.013.143-.143V9.358c0-.13-.013-.143-.143-.143-.078,0-.494.026-1.729.026H3.406c-1.235,0-1.664-.026-1.742-.026-.13,0-.143.013-.143.143,0,.065.026.52.026,1.482a9.308,9.308,0,0,1-.2,2.327,4.484,4.484,0,0,1-.988,1.82,2.88,2.88,0,0,1,.78.767c.1.143.169.208.234.208s.156-.078.26-.234a7.506,7.506,0,0,0,.949-2.223l.091-.481H3.965v1.638c-.065,0-.13.013-.2.013-.481.039-.767.052-1.2.052a9.083,9.083,0,0,0,.247,1.131c.052.143.117.182.169.182a.35.35,0,0,0,.195-.065,1.252,1.252,0,0,1,.468-.117c.988-.13,2.106-.312,3.159-.546.4-.078.4-.078.416-.494.026-.208.052-.429.091-.624a7.792,7.792,0,0,0,4.186,1.7c.4.065.429.065.559-.247a2.853,2.853,0,0,1,.546-.871,11.981,11.981,0,0,1-2.7-.442c.26-.169.481-.338.65-.468a1.074,1.074,0,0,1,.351-.221c.091-.026.117-.065.117-.143a.125.125,0,0,0-.091-.13c-.26-.091-.676-.247-1.014-.351h.234c1.274,0,1.716.026,1.794.026.13,0,.143-.013.143-.143v-.741c0-.13-.013-.143-.143-.143-.078,0-.52.026-1.794.026H2.782c.013-.312.026-.624.026-.91Zm2.444,2.808H6.4a4.6,4.6,0,0,0,.9,1.144c-.624.13-1.352.247-2.041.338Zm4.563,0a2.539,2.539,0,0,1-.312.4,5.736,5.736,0,0,1-.585.52,3.564,3.564,0,0,1-1.157-.923ZM8.359,5.016a1.224,1.224,0,0,1,.065-.52A.545.545,0,0,0,8.476,4.3c0-.052-.052-.1-.169-.117-.351-.039-.689-.078-1.17-.091a6.213,6.213,0,0,1,.052.923H5.863a1.281,1.281,0,0,1,.065-.507A.642.642,0,0,0,5.993,4.3c0-.052-.052-.1-.169-.117-.338-.039-.7-.065-1.183-.078a4.741,4.741,0,0,1,.065.91H3.9c-1.261,0-1.716-.026-1.794-.026-.13,0-.143.013-.143.143,0,.091.026.364.026,1.053V7.564c0,.676-.026.962-.026,1.04,0,.143.013.156.143.156.078,0,.533-.026,1.794-.026H9.243c1.274,0,1.716.026,1.794.026.13,0,.143-.013.143-.156,0-.078-.026-.364-.026-1.04V6.186c0-.689.026-.975.026-1.053,0-.13-.013-.143-.143-.143-.078,0-.52.026-1.794.026ZM9.867,7.889H8.359V7.226H9.867Zm-6.6,0V7.226H4.706v.663Zm6.6-2.028v.624H8.359V5.861Zm-6.6.624V5.861H4.706v.624Zm2.6,1.4V7.226H7.189v.663Zm0-2.028H7.189v.624H5.863Zm3.029,5.694c1.209,0,1.625.026,1.7.026.143,0,.156-.013.156-.143v-.624c0-.117-.013-.13-.156-.13-.078,0-.494.026-1.7.026H5.551c-1.222,0-1.638-.026-1.716-.026-.13,0-.143.013-.143.156v.6c0,.13.013.143.143.143.078,0,.494-.026,1.716-.026ZM22.633,6.849H21.281V6.212a11.244,11.244,0,0,1,.052-1.495c.013-.13.078-.26.078-.364,0-.052-.065-.091-.195-.1-.442-.052-.819-.078-1.287-.091a14.063,14.063,0,0,1,.1,2.041v.65c-.663,0-.936-.026-.988-.026-.13,0-.143.013-.143.13v.975c0,.13.013.143.143.143.052,0,.325-.013.988-.026V9.163c0,.494-.013.923-.039,1.3-.78,0-1.079-.026-1.144-.026a.141.141,0,0,0-.078.013V9.657c0-.13-.013-.143-.143-.143-.078,0-.416.026-1.43.026h-.208v-.9h.065c.9,0,1.183.026,1.261.026.143,0,.156-.013.156-.143V7.707c0-.13-.013-.143-.156-.143-.078,0-.364.026-1.261.026h-.065V6.732h.156c.988,0,1.3.026,1.378.026.143,0,.156-.013.156-.156V5.757c0-.13-.013-.143-.156-.143-.078,0-.39.026-1.378.026h-.156V5.614a2.424,2.424,0,0,1,.091-.975.609.609,0,0,0,.078-.273c0-.065-.078-.117-.208-.13-.455-.052-.767-.078-1.261-.091a7.274,7.274,0,0,1,.1,1.495H15.4c-.975,0-1.3-.026-1.378-.026-.13,0-.143.013-.143.143V6.6c0,.143.013.156.143.156.078,0,.4-.026,1.378-.026h.39V7.59h-.221c-.91,0-1.2-.026-1.274-.026-.13,0-.143.013-.143.143v.819c0,.13.013.143.143.143.078,0,.364-.026,1.274-.026H15.8v.9h-.52c-1.014,0-1.352-.026-1.43-.026-.13,0-.143.013-.143.143V10.5c0,.143.013.156.143.156.078,0,.416-.026,1.43-.026h.13a8.652,8.652,0,0,1-2.028,2.886,2.706,2.706,0,0,1,.455.832c.065.156.117.234.2.234s.13-.052.221-.156a9.546,9.546,0,0,0,1.573-2.691c-.013,2.34-.091,3.952-.091,4.147,0,.117.013.13.156.13H16.9c.13,0,.143-.013.143-.13,0-.195-.065-1.794-.078-4.173a8.357,8.357,0,0,0,1.066,1.625c.091.117.156.169.208.169s.13-.078.195-.221a4.162,4.162,0,0,1,.429-.793,7.34,7.34,0,0,1-1.6-1.859c.949,0,1.287.026,1.365.026h.091v.884c0,.13.013.143.13.143.052,0,.338-.013,1.04-.026-.065.4-.143.741-.221,1.053A4.826,4.826,0,0,1,18.122,15.1a2.924,2.924,0,0,1,.793.689c.1.13.169.195.234.195s.143-.065.273-.208a7.2,7.2,0,0,0,1.469-2.769,13.2,13.2,0,0,0,.247-1.352h1.495v1.989c0,1.417-.013,2.132-.013,2.223,0,.117.013.13.13.13h1.027c.13,0,.143-.013.143-.13,0-.078-.026-.806-.026-2.223V11.659c.988.013,1.339.026,1.417.026.13,0,.143-.013.143-.143v-.949c0-.143-.013-.156-.143-.156-.078,0-.429.026-1.417.026V8.045c.806.013,1.131.026,1.2.026.13,0,.143-.013.143-.143V6.953c0-.117-.013-.13-.143-.13-.065,0-.39.026-1.2.026v-.6a14.6,14.6,0,0,1,.052-1.56,1.563,1.563,0,0,0,.078-.312c0-.078-.065-.13-.182-.143-.442-.052-.832-.078-1.3-.091a17.191,17.191,0,0,1,.091,2.119Zm-1.391,3.614c.026-.4.039-.819.039-1.287V8.045h1.352v2.418ZM36.569,12.01a12.577,12.577,0,0,1-.234,2.041c-.117.52-.325.6-.676.6a7.64,7.64,0,0,1-1.092-.091,2.529,2.529,0,0,1,.286.858c.091.429.091.429.416.442.247.013.494.013.728.013a1.437,1.437,0,0,0,1.365-.689,7.757,7.757,0,0,0,.585-3.029c.026-.312.039-.78.078-1.131.013-.117-.026-.143-.169-.143-.078,0-.533.026-1.807.026H33.28V9.943h1.43c1.248,0,1.677.026,1.755.026.143,0,.156-.013.156-.143V8.981c0-.13-.013-.143-.156-.143-.078,0-.507.026-1.755.026H33.28V7.928h1.43c1.248,0,1.677.026,1.755.026.143,0,.156-.013.156-.143V6.966c0-.13-.013-.143-.156-.143-.078,0-.507.026-1.755.026H33.28V5.887h2.171c1.261,0,1.69.026,1.768.026.13,0,.143-.013.143-.143V4.86c0-.13-.013-.143-.143-.143-.078,0-.507.026-1.768.026h-5.2c-1.365,0-1.976-.026-2.106-.026s-.156.013-.156.143c0,.091.026.611.026,1.69V10.2c0,1.079-.026,1.612-.026,1.69,0,.13.013.143.156.143s.741-.026,2.106-.026ZM29.341,6.849V5.887h2.626v.962Zm0,4.056V9.943h2.626v.962Zm0-2.041V7.928h2.626v.936Zm-1.781,6.8a.435.435,0,0,0,.156.065c.039,0,.052-.026.091-.091a9.31,9.31,0,0,0,1.222-2.665c.039-.143.013-.182-.143-.234l-.793-.286c-.195-.065-.208-.078-.26.065a6.547,6.547,0,0,1-1.209,2.4c-.078.1-.065.143.1.247ZM29.7,12.79c-.195.013-.208.039-.182.182a15.869,15.869,0,0,1,.3,2.366c.013.156.026.156.234.13l.845-.13c.195-.026.195-.065.182-.2a14.169,14.169,0,0,0-.377-2.3c-.039-.143-.052-.143-.221-.13Zm2.171-.065c-.182.039-.208.052-.156.195a11.119,11.119,0,0,1,.468,1.963c.026.156.052.156.247.117l.767-.182c.182-.026.182-.065.156-.182a11.878,11.878,0,0,0-.546-1.924c-.052-.143-.065-.143-.221-.117Zm2.08-.221c-.182.039-.208.078-.143.208a8.22,8.22,0,0,1,.546,1.625c.039.143.065.156.247.1l.7-.221c.156-.052.169-.065.13-.208a8.672,8.672,0,0,0-.611-1.56c-.052-.117-.078-.143-.247-.1ZM46.293,7.226a4.7,4.7,0,0,0-2.5,4.121c0,2.7,2.509,4.017,4.8,4.017.156,0,.208-.078.247-.273a4.624,4.624,0,0,0,.143-1.118c0-.143-.078-.195-.286-.195-2.262-.143-3.458-1.053-3.458-2.73,0-1.56,1.105-3.081,3.315-3.835a5.8,5.8,0,0,1,1.586-.286c.169,0,.247-.039.247-.195a7.427,7.427,0,0,0-.143-1.144c-.013-.091-.078-.169-.273-.143-3.354.442-6.214.871-7.813,1.105a17.934,17.934,0,0,1-2.067.221,9.059,9.059,0,0,0,.481,1.4.3.3,0,0,0,.247.195.759.759,0,0,0,.286-.1c.195-.065.325-.091.819-.208,1.391-.286,2.782-.559,4.368-.858Zm1.885,1.859a6.451,6.451,0,0,1,1.313,1.508.136.136,0,0,0,.221.039l.546-.4a.131.131,0,0,0,.039-.208A5.983,5.983,0,0,0,49.062,8.63c-.078-.065-.13-.078-.195-.026Zm1.2-.858a6.15,6.15,0,0,1,1.3,1.5.133.133,0,0,0,.221.039l.52-.4a.15.15,0,0,0,.039-.234,5.429,5.429,0,0,0-1.235-1.339c-.078-.065-.117-.078-.195-.026Zm5.5,1.586a.286.286,0,0,0-.078.156c0,.039.026.065.078.117a14.044,14.044,0,0,1,1.287,1.326,10.252,10.252,0,0,1-3.549,3.406,3.176,3.176,0,0,1,.754.689c.143.169.208.26.286.26s.156-.065.312-.182a11.6,11.6,0,0,0,4.719-6.838,10.77,10.77,0,0,0,1.625,1.924v2.951c0,1.456-.026,2.184-.026,2.262,0,.13.013.143.143.143h1.131c.13,0,.143-.013.143-.143,0-.065-.026-.806-.026-2.262V11.75a14.634,14.634,0,0,0,1.95,1.092.894.894,0,0,0,.3.1c.1,0,.143-.091.234-.325a4.011,4.011,0,0,1,.572-1.027,14.957,14.957,0,0,1-3.055-1.56V6.1a5.158,5.158,0,0,1,.091-1.443.849.849,0,0,0,.065-.26c0-.078-.078-.117-.195-.13a12.535,12.535,0,0,0-1.43-.1,11.933,11.933,0,0,1,.1,1.976V8.89a9.459,9.459,0,0,1-1.3-1.664l.078-.13c.078-.091.13-.143.13-.221s-.065-.182-.377-.455c-.338-.312-.481-.351-.572-.351a.325.325,0,0,0-.182.052.7.7,0,0,1-.39.078H56.355c.078-.208.143-.429.221-.663a1.784,1.784,0,0,1,.26-.663.291.291,0,0,0,.091-.221c0-.078-.065-.143-.2-.182a10.2,10.2,0,0,0-1.326-.286,3.926,3.926,0,0,1-.169,1.027,10.3,10.3,0,0,1-2.73,4.6,2.76,2.76,0,0,1,.65.793c.091.182.156.26.221.26s.143-.065.26-.2a12.681,12.681,0,0,0,2.21-3.263h1.846a12.591,12.591,0,0,1-.9,2.821,11.543,11.543,0,0,0-1.144-1.118c-.052-.052-.091-.078-.13-.078s-.065.026-.117.091Zm17.186-.585V7.863h.949c1.183,0,1.586.026,1.664.026.117,0,.13-.013.13-.143V6.875c0-.13-.013-.143-.13-.143-.078,0-.481.026-1.664.026H69.992c-1.17,0-1.573-.026-1.651-.026-.117,0-.13.013-.13.143v.871c0,.13.013.143.13.143.078,0,.481-.026,1.651-.026h.754V9.228h-.507c-1.066,0-1.43-.026-1.508-.026-.13,0-.143.013-.143.143V10.2c0,.13.013.143.143.143.078,0,.442-.026,1.508-.026h.507v1.729h-.9c-1.209,0-1.6-.026-1.677-.026-.143,0-.156.013-.156.143v.9c0,.13.013.143.156.143.078,0,.468-.026,1.677-.026h3.276c1.209,0,1.6.026,1.677.026.143,0,.156-.013.156-.143v-.9c0-.13-.013-.143-.156-.143-.078,0-.468.026-1.677.026H72.059V10.32h.676c1.04,0,1.4.026,1.482.026.13,0,.143-.013.143-.143V9.345c0-.13-.013-.143-.143-.143-.078,0-.442.026-1.482.026ZM73,10.7c-.143.078-.195.091-.1.195a4.1,4.1,0,0,1,.6.962c.065.143.091.182.26.091l.559-.3c.156-.078.156-.1.1-.208a5.087,5.087,0,0,0-.637-.936c-.1-.117-.13-.143-.26-.078ZM67.34,16.053c.13,0,.143-.013.143-.143v-.624h8.008V15.9c0,.13.013.143.143.143h1.118c.13,0,.143-.013.143-.143,0-.078-.026-.962-.026-4.992V7.889c0-2.132.026-3.042.026-3.12,0-.13-.013-.143-.143-.143-.091,0-.52.026-1.729.026H67.964c-1.209,0-1.638-.026-1.729-.026-.13,0-.143.013-.143.143,0,.078.026.988.026,3.562v2.587c0,4.03-.026,4.9-.026,4.992,0,.13.013.143.143.143Zm.143-10.179h8.008v8.2H67.483ZM88.569,12.01a12.577,12.577,0,0,1-.234,2.041c-.117.52-.325.6-.676.6a7.64,7.64,0,0,1-1.092-.091,2.529,2.529,0,0,1,.286.858c.091.429.091.429.416.442.247.013.494.013.728.013a1.437,1.437,0,0,0,1.365-.689,7.757,7.757,0,0,0,.585-3.029c.026-.312.039-.78.078-1.131.013-.117-.026-.143-.169-.143-.078,0-.533.026-1.807.026H85.28V9.943h1.43c1.248,0,1.677.026,1.755.026.143,0,.156-.013.156-.143V8.981c0-.13-.013-.143-.156-.143-.078,0-.507.026-1.755.026H85.28V7.928h1.43c1.248,0,1.677.026,1.755.026.143,0,.156-.013.156-.143V6.966c0-.13-.013-.143-.156-.143-.078,0-.507.026-1.755.026H85.28V5.887h2.171c1.261,0,1.69.026,1.768.026.13,0,.143-.013.143-.143V4.86c0-.13-.013-.143-.143-.143-.078,0-.507.026-1.768.026h-5.2c-1.365,0-1.976-.026-2.106-.026s-.156.013-.156.143c0,.091.026.611.026,1.69V10.2c0,1.079-.026,1.612-.026,1.69,0,.13.013.143.156.143s.741-.026,2.106-.026ZM81.341,6.849V5.887h2.626v.962Zm0,4.056V9.943h2.626v.962Zm0-2.041V7.928h2.626v.936Zm-1.781,6.8a.435.435,0,0,0,.156.065c.039,0,.052-.026.091-.091a9.31,9.31,0,0,0,1.222-2.665c.039-.143.013-.182-.143-.234l-.793-.286c-.195-.065-.208-.078-.26.065a6.547,6.547,0,0,1-1.209,2.4c-.078.1-.065.143.1.247Zm2.145-2.873c-.195.013-.208.039-.182.182a15.869,15.869,0,0,1,.3,2.366c.013.156.026.156.234.13l.845-.13c.195-.026.195-.065.182-.2a14.17,14.17,0,0,0-.377-2.3c-.039-.143-.052-.143-.221-.13Zm2.171-.065c-.182.039-.208.052-.156.195a11.119,11.119,0,0,1,.468,1.963c.026.156.052.156.247.117l.767-.182c.182-.026.182-.065.156-.182a11.878,11.878,0,0,0-.546-1.924c-.052-.143-.065-.143-.221-.117Zm2.08-.221c-.182.039-.208.078-.143.208a8.22,8.22,0,0,1,.546,1.625c.039.143.065.156.247.1l.7-.221c.156-.052.169-.065.13-.208a8.674,8.674,0,0,0-.611-1.56c-.052-.117-.078-.143-.247-.1ZM98.5,4.7H96.473l.364,7.735H98.15Zm-1.95,9v1.755H98.4V13.7Z" transform="translate(93.102 604)"/></g></svg>