<svg xmlns="http://www.w3.org/2000/svg" width="174.552" height="71.878" viewBox="0 0 174.552 71.878"><g transform="translate(4890 -716.558)"><path d="M153.99,0l16.89,15.8,3.672,38.732-14.885,15.3L24.713,71.879,15.1,66.634,13.766,53.32,0,49.417l11.63-9.411-.8-16.945L24.178,10.15Z" transform="translate(-4890 716.557)" fill="#ffe330"/><path d="M8.928-10a9.327,9.327,0,0,1-.368.928H8.24C6.816-9.072,6.3-9.1,6.208-9.1c-.176,0-.192.016-.192.176,0,.1.032.592.032,1.744v3.808c0,1.136-.032,1.568-.032,1.664,0,.176.016.192.192.192.1,0,.608-.032,2.032-.032h3.424c1.424,0,1.936.032,2.016.032.176,0,.192-.016.192-.192,0-.1-.032-.528-.032-1.664V-7.184c0-1.152.032-1.648.032-1.744,0-.16-.016-.176-.192-.176-.08,0-.592.032-2.016.032h-1.52A10.069,10.069,0,0,0,10.56-10h2.112c1.552,0,2.1.032,2.192.032.176,0,.192-.016.192-.192V-11.2c0-.176-.016-.192-.192-.192-.1,0-.64.032-2.192.032H12.16c.24-.336.432-.656.608-.944a.924.924,0,0,1,.288-.32c.1-.08.16-.144.16-.256s-.08-.176-.208-.224a14.4,14.4,0,0,0-1.536-.352,4.609,4.609,0,0,1-.272.832,10.285,10.285,0,0,1-.624,1.264H8.048l.944-.336c.16-.064.224-.112.144-.272a5.792,5.792,0,0,0-.816-1.36c-.112-.1-.144-.112-.336-.064L6.9-13.1c-.208.064-.256.128-.144.272a6.348,6.348,0,0,1,.832,1.472H7.408c-1.664,0-2.208-.032-2.3-.032-.16,0-.176.016-.176.192v1.04c0,.176.016.192.176.192.1,0,.64-.032,2.3-.032ZM12.3-2.816H7.584v-.96H12.3ZM7.584-7.84H12.3v.912H7.584Zm0,2.944v-.9H12.3v.9ZM4.5-5.7c0-.976.032-1.424.032-1.52,0-.16-.016-.176-.176-.176-.1,0-.352.032-1.2.032H2.144c-.864,0-1.088-.032-1.168-.032-.176,0-.192.016-.192.176V-6c0,.176.016.192.192.192.08,0,.3-.032,1.168-.032h.784V-2.3A8.884,8.884,0,0,1,1.52-1.264a7.251,7.251,0,0,1-.944.5,13.979,13.979,0,0,0,.656,1.5.3.3,0,0,0,.224.192A.3.3,0,0,0,1.7.784a1.167,1.167,0,0,1,.32-.32C2.528.048,3.136-.48,3.632-.96A4.262,4.262,0,0,0,5.3.5,10.2,10.2,0,0,0,9.024.928c1.664,0,3.568-.048,5.6-.144.512-.032.528-.032.592-.544a3.035,3.035,0,0,1,.432-1.264c-2.384.24-4.816.368-6.88.368a9.141,9.141,0,0,1-2.944-.3A2.433,2.433,0,0,1,4.5-2.3ZM1.28-12.24c-.176.128-.208.176-.08.288a12.467,12.467,0,0,1,1.952,2.5c.048.08.08.128.144.128.048,0,.1-.032.192-.112l.912-.768c.176-.128.192-.16.1-.288a12.157,12.157,0,0,0-2-2.384.3.3,0,0,0-.16-.08c-.048,0-.1.032-.192.1Zm21.76,1.952h-2.9c-1.536,0-2.064-.032-2.176-.032-.16,0-.176.016-.176.176,0,.1.032.608.032,2.24v1.648c0,2.56-.032,3.04-.032,3.136,0,.176.016.192.176.192h1.36c.16,0,.176-.016.176-.192v-.736H23.04v2c0,1.888-.032,2.832-.032,2.928,0,.16.016.176.176.176h1.424c.16,0,.176-.016.176-.176,0-.08-.032-1.056-.032-2.96V-3.856H28.5v.672c0,.16.016.176.176.176h1.36c.16,0,.176-.016.176-.176,0-.1-.032-.56-.032-3.12V-8.16c0-1.392.032-1.888.032-1.984,0-.16-.016-.176-.176-.176-.112,0-.64.032-2.176.032h-3.1v-1.2a3.809,3.809,0,0,1,.128-1.3.728.728,0,0,0,.08-.32c0-.112-.128-.176-.272-.192-.544-.064-1.184-.1-1.776-.112a11.987,11.987,0,0,1,.128,2.048ZM28.5-8.736v3.328H24.752V-8.736Zm-8.992,0H23.04v3.328H19.5ZM42.272-3.984a6.677,6.677,0,0,0-1.28-.128c-1.616,0-2.8.944-2.8,2.256,0,1.376,1.024,2.24,2.864,2.24,1.888,0,2.8-.736,2.928-2.08a9.5,9.5,0,0,1,1.728,1.28.221.221,0,0,0,.144.08A.193.193,0,0,0,46-.432a8.644,8.644,0,0,0,.736-1.232c.08-.176.064-.224-.08-.32A10.471,10.471,0,0,0,44-3.52c-.08-1.376-.112-2.5-.112-4.288a18.03,18.03,0,0,0,2.464-.336c.112-.016.176-.1.176-.24a6.4,6.4,0,0,0-.1-1.136c-.032-.176-.064-.24-.256-.192-.688.112-1.52.224-2.272.288,0-.736,0-1.152.032-1.7a1.8,1.8,0,0,1,.128-.56.686.686,0,0,0,.1-.272c0-.144-.112-.224-.288-.272a8.907,8.907,0,0,0-1.936-.3,6.6,6.6,0,0,1,.208,1.568c0,.592.016,1.1.016,1.68a23.146,23.146,0,0,1-3.648-.048,9.8,9.8,0,0,0,.112,1.456c.016.16.08.208.288.208a32.355,32.355,0,0,0,3.3.016C42.224-6.384,42.24-5.216,42.272-3.984Zm.032,1.52a2.254,2.254,0,0,1,.016.32c0,.576-.512,1.04-1.312,1.04-.944,0-1.3-.3-1.3-.8s.448-.768,1.2-.768A4.457,4.457,0,0,1,42.3-2.464ZM34.88-12.5a8.052,8.052,0,0,1-.112,1.888,34.755,34.755,0,0,0-.656,6.064A14.9,14.9,0,0,0,34.8.336c.08.224.144.24.32.192a6.7,6.7,0,0,0,1.2-.272c.144-.048.208-.1.192-.208A3.021,3.021,0,0,1,36.528-.8a9.484,9.484,0,0,1,.816-2.432.464.464,0,0,0,.1-.256.346.346,0,0,0-.1-.224,4.255,4.255,0,0,1-.56-1.008c-.336.8-.672,1.488-.992,2.224-.048-.672-.048-1.408-.048-2.048a31.772,31.772,0,0,1,.8-5.824,3.247,3.247,0,0,1,.288-.88.817.817,0,0,0,.112-.352c0-.128-.064-.224-.24-.32A12.494,12.494,0,0,0,34.88-12.5ZM60.928.544c1.424,0,1.9.032,2,.032.16,0,.176-.016.176-.176V-1.008c0-.16-.016-.176-.176-.176-.1,0-.576.032-2,.032H57.6V-6.384h2.016c1.664,0,2.256.032,2.368.032.16,0,.176-.016.176-.176V-7.92c0-.16-.016-.176-.176-.176-.112,0-.7.032-2.368.032H57.6V-11.12a5.54,5.54,0,0,1,.112-1.472,1.046,1.046,0,0,0,.1-.368c0-.1-.112-.176-.272-.192-.56-.064-1.248-.1-1.872-.112a12.289,12.289,0,0,1,.144,2.16v9.952H53.2V-7.84a4.615,4.615,0,0,1,.112-1.424.933.933,0,0,0,.08-.32c0-.1-.1-.192-.256-.208-.56-.064-1.248-.1-1.856-.112a15.246,15.246,0,0,1,.128,2.24v6.512h-.272c-1.424,0-1.92-.032-2.016-.032-.16,0-.176.016-.176.176V.4c0,.16.016.176.176.176.1,0,.592-.032,2.016-.032ZM71.344-3.52c-.752-.064-1.136-.064-1.536-.064-1.936,0-3.2.976-3.2,2.272,0,1.328,1.184,2.24,3.264,2.24,2.192,0,3.232-.7,3.248-2.432A12.7,12.7,0,0,1,76.3.32.245.245,0,0,0,76.48.4a.235.235,0,0,0,.208-.128,4.813,4.813,0,0,0,.7-1.184c.048-.192.048-.24-.112-.384a14.266,14.266,0,0,0-4.24-1.936c-.048-.736-.08-1.52-.112-2.256a28.979,28.979,0,0,0,3.136-.384c.176-.016.24-.064.24-.224,0-.48-.032-1.008-.048-1.312-.016-.144-.064-.176-.256-.128-1.152.176-1.92.336-3.136.416,0-.576-.016-1.168-.016-1.808a32.731,32.731,0,0,0,3.7-.416c.128-.016.176-.048.176-.256a8.548,8.548,0,0,0-.08-1.168c-.016-.192-.08-.24-.272-.192a26.923,26.923,0,0,1-3.5.48c.016-.48.016-.7.032-1.024a2.056,2.056,0,0,1,.24-.768.326.326,0,0,0-.176-.48,9.271,9.271,0,0,0-2.016-.288,4.6,4.6,0,0,1,.192,1.072c.016.544.032.96.032,1.552a36.581,36.581,0,0,1-4.192-.16c.032.656.064,1.04.112,1.44.016.16.1.224.272.224a26.331,26.331,0,0,0,3.824.08c.016.608.016,1.232.032,1.84a22.512,22.512,0,0,1-3.6-.128,9.55,9.55,0,0,0,.1,1.36c.016.208.08.272.256.272a28.331,28.331,0,0,0,3.3.064C71.28-4.88,71.312-4.224,71.344-3.52ZM71.376-2a1.535,1.535,0,0,1-.176.9,1.976,1.976,0,0,1-1.456.48c-1.1,0-1.584-.3-1.584-.72,0-.512.56-.848,1.728-.848A6.9,6.9,0,0,1,71.376-2Zm13.04-10.8a14.806,14.806,0,0,1-.128,1.824A33.819,33.819,0,0,0,83.9-6.992a10.236,10.236,0,0,0,.48,3.248c.032.112.112.224.224.208.4-.048,1.088-.144,1.28-.192a.224.224,0,0,0,.208-.256,2,2,0,0,1,.08-.48,13.1,13.1,0,0,1,.944-2.048.754.754,0,0,0,.16-.4.368.368,0,0,0-.1-.256,3.317,3.317,0,0,1-.5-1.04c-.432.816-.768,1.424-1.12,2.048a16.164,16.164,0,0,1,.048-1.76c.1-.832.224-1.968.448-3.056a1.847,1.847,0,0,1,.288-.752.366.366,0,0,0,.112-.256c0-.144-.1-.24-.3-.32A8.385,8.385,0,0,0,84.416-12.8Zm5.12.032a7.666,7.666,0,0,1,.336,1.744c.112,1.024.192,2.688.192,3.824,0,2.528-.416,3.84-1.344,5.1A7.919,7.919,0,0,1,86,.048a3.713,3.713,0,0,1,1.36.736A.464.464,0,0,0,87.7.96a.554.554,0,0,0,.32-.112,8.817,8.817,0,0,0,2.64-2.576A10.51,10.51,0,0,0,91.872-7.28c0-1.152-.112-2.608-.224-4.128a5.665,5.665,0,0,1,.032-.736c.032-.272,0-.352-.32-.432A9.24,9.24,0,0,0,89.536-12.768Zm-80.16,30.2a8.246,8.246,0,0,0-1.264-.1c-1.808,0-2.96.944-2.96,2.336,0,1.376,1.184,2.272,2.944,2.272,1.824,0,2.976-.736,2.976-2.336a11.9,11.9,0,0,1,1.952,1.344c.064.064.112.1.16.1s.1-.032.144-.112a9.845,9.845,0,0,0,.736-1.3c.08-.16.064-.224-.1-.336a12.545,12.545,0,0,0-2.88-1.488,20.9,20.9,0,0,1-.176-2.72,1.663,1.663,0,0,1,.064-.656,2.006,2.006,0,0,0,.1-.336.246.246,0,0,0-.224-.256,8.649,8.649,0,0,0-1.744-.3,5.619,5.619,0,0,1,.128,1.136C9.248,15.432,9.28,16.408,9.376,17.432Zm.032,1.52a1.843,1.843,0,0,1,.016.32c0,.672-.528,1.136-1.392,1.136-.912,0-1.36-.256-1.36-.768,0-.608.624-.928,1.424-.928A4.077,4.077,0,0,1,9.408,18.952ZM6.8,10.744c.144-.48.272-.976.384-1.36a1.759,1.759,0,0,1,.256-.592.394.394,0,0,0,.144-.3c0-.112-.1-.208-.256-.24a14.8,14.8,0,0,0-1.872-.336,6.192,6.192,0,0,1-.1,1.3c-.112.576-.224,1.12-.416,1.792-.736.064-1.216.08-1.84.08-.464,0-.832-.016-1.488-.064a8.36,8.36,0,0,0,.16,1.36c.032.208.064.256.224.256.4.016.528.016.88.016.5,0,.992,0,1.6-.032A32.278,32.278,0,0,1,1.712,18.2a.306.306,0,0,0-.08.192c0,.064.032.112.112.176a7.6,7.6,0,0,0,1.1.816.444.444,0,0,0,.192.08c.064,0,.112-.048.176-.16a44.211,44.211,0,0,0,3.12-6.864c.992-.144,1.776-.256,2.64-.432.128-.016.192-.048.192-.192a8.682,8.682,0,0,0-.144-1.3c-.032-.176-.1-.176-.24-.128A17.2,17.2,0,0,1,6.8,10.744Zm3.552,1.52a13.828,13.828,0,0,1,3.312,1.744.223.223,0,0,0,.144.064c.048,0,.1-.032.144-.112a9.731,9.731,0,0,0,.672-1.184.382.382,0,0,0,.064-.192c0-.064-.048-.112-.144-.176a12.483,12.483,0,0,0-3.136-1.5.223.223,0,0,0-.336.112C10.864,11.3,10.624,11.784,10.352,12.264Zm17.184-2.8a7.939,7.939,0,0,1,1.616,1.856.167.167,0,0,0,.272.048l.672-.5a.161.161,0,0,0,.048-.256A7.364,7.364,0,0,0,28.624,8.9c-.1-.08-.16-.1-.24-.032Zm1.472-1.056a7.569,7.569,0,0,1,1.6,1.84.164.164,0,0,0,.272.048l.64-.5a.185.185,0,0,0,.048-.288,6.682,6.682,0,0,0-1.52-1.648c-.1-.08-.144-.1-.24-.032Zm-7.872,3.648c-.624.1-1.216.176-1.888.24-.7.064-1.408.112-2.112.112a14.619,14.619,0,0,0,.5,1.648.351.351,0,0,0,.512.208,4.7,4.7,0,0,1,.88-.256c.432-.08.944-.176,1.568-.272a33.737,33.737,0,0,1-2.928,6.272.3.3,0,0,0-.064.176.329.329,0,0,0,.128.24,7.276,7.276,0,0,0,1.1.7.262.262,0,0,0,.416-.144,44.187,44.187,0,0,0,3.216-7.52,10.6,10.6,0,0,1,1.344-.112c.7,0,.912.352.912,1.472a12.357,12.357,0,0,1-.624,3.984c-.256.656-.5.848-1.024.848a4.258,4.258,0,0,1-1.84-.416,4.572,4.572,0,0,1,.3,1.488.427.427,0,0,0,.288.448,4.24,4.24,0,0,0,1.664.24,2.29,2.29,0,0,0,2.16-1.5,13.632,13.632,0,0,0,.864-5.008c0-2.048-.8-3.088-2.288-3.088a12.226,12.226,0,0,0-1.28.064c.208-.672.368-1.264.576-1.92a2.024,2.024,0,0,1,.32-.608.333.333,0,0,0,.112-.24.337.337,0,0,0-.256-.32,11.71,11.71,0,0,0-1.92-.528,10.891,10.891,0,0,1-.16,1.776C21.5,10.584,21.392,11.144,21.136,12.056Zm5.52-.128a10.831,10.831,0,0,1,2.624,4.144c.048.192.208.208.368.128a6.53,6.53,0,0,0,1.2-.8.229.229,0,0,0,.064-.32,10.708,10.708,0,0,0-2.656-3.888c-.112-.112-.192-.144-.3-.08A13.568,13.568,0,0,0,26.656,11.928Zm10.08-2.7a12.762,12.762,0,0,1,3.232,2.08c.08.08.128.112.192.112.048,0,.112-.048.176-.128a10.477,10.477,0,0,0,.816-1.12.444.444,0,0,0,.08-.192c0-.064-.032-.112-.112-.176a10.5,10.5,0,0,0-3.136-1.9.267.267,0,0,0-.3.08A8.763,8.763,0,0,0,36.736,9.224Zm-1.12,2.224a9.97,9.97,0,0,1-.144,1.44c-.192,1.424-.4,3.312-.5,5.168,0,.224.064.256.224.32a11,11,0,0,0,1.088.432c.208.048.272.048.368-.112a4.378,4.378,0,0,1,.688-.88,7.123,7.123,0,0,1,4.608-2.432c1.376,0,1.92.784,1.92,1.648a2.621,2.621,0,0,1-1.888,2.416,13.276,13.276,0,0,1-4.4.9,4.093,4.093,0,0,1,1.088,1.36c.144.24.288.256.64.208a13.873,13.873,0,0,0,4.1-1.1,3.921,3.921,0,0,0,2.416-3.584c0-2.064-1.392-3.424-3.728-3.424a7.8,7.8,0,0,0-5.344,2.528,26.7,26.7,0,0,1,.384-2.912,3,3,0,0,1,.32-.848.476.476,0,0,0,.08-.24c0-.128-.08-.224-.256-.3A9,9,0,0,0,35.616,11.448Zm18.32,1.3v4.192c0,1.36-.032,2.016-.032,2.112,0,.176.016.192.176.192.1,0,.64-.032,2.176-.032h4.352c1.52,0,2.032.032,2.128.032.16,0,.176-.016.176-.192V18.024c0-.176-.016-.192-.176-.192-.1,0-.608.032-2.128.032h-1.3V16.456h.7c1.392,0,1.856.032,1.952.032.16,0,.176-.016.176-.176v-.976c0-.176-.016-.192-.176-.192-.1,0-.56.032-1.952.032h-.7V13.832h.7c1.392,0,1.856.032,1.952.032.16,0,.176-.016.176-.176V12.7c0-.176-.016-.192-.176-.192-.1,0-.56.032-1.952.032h-.7V11.224h1.36c1.392,0,1.856.032,1.952.032.176,0,.192-.016.192-.176V10.072c0-.176-.016-.192-.192-.192-.1,0-.56.032-1.952.032H59.616a9.548,9.548,0,0,0,.5-.992,1.1,1.1,0,0,1,.336-.432c.1-.08.16-.144.16-.24s-.1-.16-.224-.208A12.539,12.539,0,0,0,58.848,7.7a6.322,6.322,0,0,1-.208.832,8.873,8.873,0,0,1-.656,1.376h-2.16l.56-.976a1.261,1.261,0,0,1,.32-.5c.1-.08.16-.144.16-.256,0-.1-.08-.16-.24-.208a10.413,10.413,0,0,0-1.472-.352,5.25,5.25,0,0,1-.336,1.056,12.4,12.4,0,0,1-2.688,3.952,2.72,2.72,0,0,1,.688.672c.16.208.24.32.336.32.08,0,.16-.1.32-.288Zm1.5,5.12V16.456h2.368v1.408Zm0-2.688V13.832h2.368v1.344Zm0-2.64V11.224h2.368v1.312ZM52.48,15.3c0-.976.032-1.424.032-1.52,0-.16-.016-.176-.176-.176-.1,0-.352.032-1.2.032H50.128c-.864,0-1.088-.032-1.168-.032-.176,0-.192.016-.192.176V15c0,.176.016.192.192.192.08,0,.3-.032,1.168-.032h.8v3.552a11.911,11.911,0,0,1-1.344,1.024,8.81,8.81,0,0,1-.96.5,13.979,13.979,0,0,0,.656,1.5.3.3,0,0,0,.224.192.267.267,0,0,0,.24-.144,1.483,1.483,0,0,1,.32-.32,18.076,18.076,0,0,0,1.648-1.408A3.094,3.094,0,0,0,53.28,21.48a11,11,0,0,0,3.744.448c1.664,0,3.568-.032,5.6-.144.512-.032.512-.032.592-.544a2.91,2.91,0,0,1,.432-1.2c-2.288.224-4.816.336-6.88.336a9.256,9.256,0,0,1-2.96-.3,2.433,2.433,0,0,1-1.328-1.344Zm-3.2-6.5c-.176.144-.192.16-.064.288a11.759,11.759,0,0,1,2.032,2.464c.048.08.08.112.128.112a.306.306,0,0,0,.192-.112l.9-.768c.176-.16.176-.176.08-.32a12.867,12.867,0,0,0-2.08-2.352.329.329,0,0,0-.144-.08.31.31,0,0,0-.192.1Zm19.376,1.9a23.522,23.522,0,0,1-3.024-.016c.048.56.1,1.024.144,1.344.016.176.064.24.208.24.784.016,1.664.016,2.672-.032,0,.528-.016,1.024-.032,1.552a2.362,2.362,0,0,0-.848-.128,2.315,2.315,0,0,0-2.128,2.512,2.114,2.114,0,0,0,1.92,2.3,1.214,1.214,0,0,0,.256-.016,3.189,3.189,0,0,0-.16,1.056c0,1.552,1.216,2.272,4.048,2.272,3.68,0,5.3-1.136,5.3-3.152a6.206,6.206,0,0,0-.24-1.76.4.4,0,0,0-.32-.288,5.423,5.423,0,0,1-1.616-.464,6.712,6.712,0,0,1,.336,2.112c0,1.28-1.248,1.888-3.68,1.888-1.776,0-2.1-.416-2.1-1.04a2,2,0,0,1,.224-.96,2.751,2.751,0,0,0,.768-2.08,3.337,3.337,0,0,0-.144-1.072c.032-1.12.048-1.728.1-2.88a22.363,22.363,0,0,0,2.48-.432c.128-.032.192-.064.192-.256a9.511,9.511,0,0,0-.08-1.152c-.016-.208-.032-.256-.3-.192-.784.192-1.472.32-2.208.432.016-.512.016-.768.032-1.072a1.362,1.362,0,0,1,.128-.544A.766.766,0,0,0,70.7,8.52c0-.128-.128-.224-.336-.272a10.5,10.5,0,0,0-1.9-.272,4.206,4.206,0,0,1,.192,1.312ZM67.9,14.984a.857.857,0,0,1,.864.976c.016.7-.32,1.152-.816,1.168-.592.016-.928-.384-.928-1.056C67.024,15.432,67.328,14.984,67.9,14.984Zm6.7-2.784a9.815,9.815,0,0,1,3.12,2.416c.064.08.128.128.176.128a.246.246,0,0,0,.176-.1,7.975,7.975,0,0,0,.912-1.1.337.337,0,0,0,.08-.176.216.216,0,0,0-.08-.16,10.161,10.161,0,0,0-3.024-2.192.239.239,0,0,0-.336.064C75.408,11.3,75.008,11.736,74.608,12.2Zm14-.288c0-.832,0-1.536.032-2.016a1.973,1.973,0,0,1,.192-.864.476.476,0,0,0,.08-.24c0-.128-.08-.224-.256-.272a14.672,14.672,0,0,0-2.048-.288,4.707,4.707,0,0,1,.224,1.456c.016.816.032,1.632.048,2.208.032,1.52.08,3.04.272,5.136a11.154,11.154,0,0,0-1.344-.048c-1.984,0-3.5,1.008-3.5,2.448,0,1.472,1.44,2.352,3.408,2.352,2.144,0,3.168-1.024,3.232-2.4a3.088,3.088,0,0,0,.016-.368,14.974,14.974,0,0,1,3.552,2.016c.128.1.176.048.272-.048a7.176,7.176,0,0,0,.848-1.344c.064-.128.048-.208-.064-.272a18.785,18.785,0,0,0-4.64-2.064c-.16-1.52-.24-2.4-.272-3.7a23.89,23.89,0,0,0,4.048-.72c.1-.032.16-.064.128-.24a11.245,11.245,0,0,0-.384-1.36.134.134,0,0,0-.192-.1A15.519,15.519,0,0,1,88.608,11.912Zm-1.408,6.9c.048.672-.48,1.376-1.68,1.376-1.008,0-1.648-.272-1.648-.816,0-.576.72-.944,1.84-.944a7.475,7.475,0,0,1,1.472.16Zm18.032-10.48h-2.5l.448,9.52H104.8Zm-2.4,11.072v2.16H105.1V19.4Z" transform="translate(-4861.877 752.5)"/></g></svg>