<svg xmlns="http://www.w3.org/2000/svg" width="180.305" height="59.899" viewBox="0 0 180.305 59.899"><g transform="translate(-69.667 -570.798)"><path d="M159.065,0l17.447,13.165L180.3,45.442,164.929,58.194,25.527,59.9,15.6,55.528,14.22,44.433,0,41.181l12.014-7.843-.827-14.121L24.975,8.458Z" transform="translate(69.667 570.798)" fill="#ffe330"/><path d="M8.112-3.068a5.425,5.425,0,0,0-1.04-.1C5.759-3.172,4.8-2.4,4.8-1.339c0,1.118.832,1.82,2.327,1.82,1.534,0,2.275-.6,2.379-1.69a7.72,7.72,0,0,1,1.4,1.04.18.18,0,0,0,.117.065.157.157,0,0,0,.117-.078,7.023,7.023,0,0,0,.6-1c.065-.143.052-.182-.065-.26A8.508,8.508,0,0,0,9.516-2.691c-.065-1.118-.091-2.028-.091-3.484a14.649,14.649,0,0,0,2-.273c.091-.013.143-.078.143-.195a5.2,5.2,0,0,0-.078-.923c-.026-.143-.052-.2-.208-.156-.559.091-1.235.182-1.846.234,0-.6,0-.936.026-1.378a1.466,1.466,0,0,1,.1-.455.558.558,0,0,0,.078-.221c0-.117-.091-.182-.234-.221a7.237,7.237,0,0,0-1.573-.247,5.359,5.359,0,0,1,.169,1.274c0,.481.013.9.013,1.365A18.806,18.806,0,0,1,5.057-7.41a7.964,7.964,0,0,0,.091,1.183c.013.13.065.169.234.169a26.288,26.288,0,0,0,2.678.013C8.073-5.018,8.086-4.069,8.112-3.068Zm.026,1.235a1.831,1.831,0,0,1,.013.26c0,.468-.416.845-1.066.845-.767,0-1.053-.247-1.053-.65S6.409-2,6.955-2A3.571,3.571,0,0,1,8.138-1.833ZM2.106-9.984A6.542,6.542,0,0,1,2.015-8.45a28.352,28.352,0,0,0-.533,4.94A12.026,12.026,0,0,0,2.041.442c.065.182.117.195.26.156A5.444,5.444,0,0,0,3.276.377C3.393.338,3.445.3,3.432.208a2.455,2.455,0,0,1,.013-.689,7.705,7.705,0,0,1,.663-1.976.377.377,0,0,0,.078-.208.281.281,0,0,0-.078-.182,3.457,3.457,0,0,1-.455-.819c-.273.65-.546,1.209-.806,1.807C2.808-2.4,2.808-3,2.808-3.523a25.815,25.815,0,0,1,.65-4.732,2.638,2.638,0,0,1,.234-.715.664.664,0,0,0,.091-.286c0-.1-.052-.182-.2-.26A10.151,10.151,0,0,0,2.106-9.984ZM9.75-10.2A6.188,6.188,0,0,1,10.8-8.515a.142.142,0,0,0,.221.078l.533-.273c.1-.052.117-.1.078-.195a6.066,6.066,0,0,0-1-1.573.137.137,0,0,0-.182-.052ZM11-10.79A6.226,6.226,0,0,1,12.051-9.1c.039.078.091.117.208.065l.52-.26a.146.146,0,0,0,.078-.221,5.5,5.5,0,0,0-1-1.521c-.065-.078-.1-.091-.182-.052Zm5.759,6.383c.715-1.17,1.417-2.535,2.249-4.134a3.388,3.388,0,0,1,.4-.559.406.406,0,0,0,.143-.26.339.339,0,0,0-.182-.273,7.532,7.532,0,0,0-1.456-.728,7.8,7.8,0,0,1-.65,1.9c-.715,1.625-1.911,4.108-3.809,7.826a.387.387,0,0,0-.065.182.226.226,0,0,0,.117.169,4.2,4.2,0,0,0,1,.559c.169.052.234.026.312-.156a15.1,15.1,0,0,1,1.521-2.886,2.27,2.27,0,0,1,1.638-1.105c.455,0,.741.377.858,1.677.169,1.833.728,2.522,2.041,2.522A3.247,3.247,0,0,0,23.27-.767a7.031,7.031,0,0,0,1.118-1.612A.459.459,0,0,0,24.44-2.6a.357.357,0,0,0-.143-.273,3.154,3.154,0,0,1-.754-1.079A6.435,6.435,0,0,1,22.23-1.833a1.661,1.661,0,0,1-1.222.624c-.494,0-.65-.429-.754-1.378-.143-1.248-.494-2.457-1.9-2.457a2.58,2.58,0,0,0-1.586.663Zm13.377-6.318a11.487,11.487,0,0,0-.442,1.209.173.173,0,0,0,.117.234A20.029,20.029,0,0,0,33.436-8.19a.187.187,0,0,0,.221-.143A7.881,7.881,0,0,0,34.008-9.4c.039-.182-.013-.26-.143-.286A23.678,23.678,0,0,1,30.134-10.725ZM27.521-6.682a9.191,9.191,0,0,0,.52,1.456c.065.156.13.221.221.221a.585.585,0,0,0,.273-.078,5.03,5.03,0,0,1,.7-.234c.858-.221,1.729-.429,2.7-.689-1.391,1.495-2.067,2.249-2.574,2.769L26.91-.741a.318.318,0,0,0-.1.208.207.207,0,0,0,.065.13,7.1,7.1,0,0,0,.91.793.242.242,0,0,0,.143.052.227.227,0,0,0,.182-.091c.442-.546,1.391-1.69,1.976-2.288a1.85,1.85,0,0,1,1.222-.65c.455,0,.611.364.819,1.248C32.4-.052,33.02.455,34.931.455A11.358,11.358,0,0,0,36.842.286c.169-.026.234-.078.234-.208a6.783,6.783,0,0,0-.091-1.144c-.026-.143-.091-.221-.234-.2a8.749,8.749,0,0,1-2.015.234c-.962,0-1.17-.208-1.43-1.274a1.479,1.479,0,0,0-1.417-1.313,1.613,1.613,0,0,0-.468.065c.871-.936,1.4-1.482,2.366-2.392a2,2,0,0,1,.416-.3.35.35,0,0,0,.234-.3.487.487,0,0,0-.143-.3,3.058,3.058,0,0,0-.767-.689c-.1-.065-.143-.091-.221-.091a.5.5,0,0,0-.286.091,1.89,1.89,0,0,1-.52.208c-.533.117-1.261.26-2.262.416A14.466,14.466,0,0,1,27.521-6.682Zm12.35-2.353a6.968,6.968,0,0,1,.156,1.7,23.568,23.568,0,0,0,.312,3.783c.351,2.2,1.417,3.393,2.431,3.393.91,0,1.716-.7,2.21-2.028a.4.4,0,0,0-.091-.481,4.969,4.969,0,0,1-.832-1c-.507,1.352-.832,1.807-1.248,1.807-.546,0-.884-.884-1.066-1.911a16.372,16.372,0,0,1-.234-2.964,5.841,5.841,0,0,1,.117-1.274,1.132,1.132,0,0,0,.1-.364c0-.091-.091-.182-.208-.234A5.627,5.627,0,0,0,39.871-9.035Zm6.656,1.846a8.759,8.759,0,0,1,2.431,4.537c.026.156.117.195.273.143a4.412,4.412,0,0,0,1.014-.52c.1-.065.182-.117.143-.286A8.6,8.6,0,0,0,47.84-7.761a.2.2,0,0,0-.143-.078.386.386,0,0,0-.143.052C47.346-7.683,47.021-7.5,46.527-7.189Zm12.207-.78a2.953,2.953,0,0,1,2.912,3.016c0,2.457-1.729,3.367-3.926,3.887a2.757,2.757,0,0,1,.91.819c.169.26.286.312.559.234,2.639-.793,4-2.314,4-4.732,0-2.587-1.833-4.511-4.953-4.511a5.689,5.689,0,0,0-4.225,1.664,4.79,4.79,0,0,0-1.469,3.38c0,2.119,1.157,3.341,2.3,3.341a2.469,2.469,0,0,0,2.21-1.495,16.278,16.278,0,0,0,1.625-5.6Zm-1.56.078A14.853,14.853,0,0,1,55.8-3.237c-.351.624-.637.793-.975.793-.4,0-.884-.663-.884-1.859a3.743,3.743,0,0,1,1.014-2.4A3.915,3.915,0,0,1,57.174-7.891Zm12.038-.052h-.286c-.832,0-1.079-.026-1.157-.026-.143,0-.156.013-.156.143v.754c0,.13.013.143.156.143.078,0,.325-.026,1.157-.026h.091a5.992,5.992,0,0,1-1.781,1.742c.039-.65.052-1.378.052-2.223V-9.165h7.423c1.222,0,1.664.026,1.742.026.117,0,.13-.013.13-.143V-10.2c0-.143-.013-.156-.13-.156-.078,0-.507.026-1.729.026h-6.9c-1.235,0-1.664-.026-1.742-.026-.143,0-.156.013-.156.156,0,.078.026.91.026,2.756a27.424,27.424,0,0,1-.234,4.29A7.517,7.517,0,0,1,64.7-.247a3.765,3.765,0,0,1,.806.741c.117.143.195.221.247.221s.1-.078.195-.247a10.582,10.582,0,0,0,1.04-3.133,20.486,20.486,0,0,0,.247-2.5,2.646,2.646,0,0,1,.442.65c.091.156.143.247.221.247s.143-.065.273-.2a6.441,6.441,0,0,0,1.079-1.495c-.013,1.105-.065,1.846-.065,2.015,0,.143.013.156.143.156h.845c.13,0,.143-.013.143-.156,0-.169-.052-.962-.065-2.223a3.965,3.965,0,0,0,.585.741c.117.117.182.169.247.169s.13-.065.221-.234a2.359,2.359,0,0,1,.416-.52,5.842,5.842,0,0,1-1.248-.949c.637.013.845.026.923.026.13,0,.143-.013.143-.143v-.754c0-.13-.013-.143-.143-.143-.078,0-.325.026-1.092.026v-.1a1.468,1.468,0,0,1,.052-.481c.026-.065.078-.117.078-.195s-.065-.117-.182-.13c-.338-.039-.715-.065-1.105-.078a5.814,5.814,0,0,1,.065.9ZM74.607.572C75.881.572,76.323.6,76.4.6c.13,0,.143-.013.143-.143v-.91c0-.13-.013-.143-.143-.143-.078,0-.52.026-1.794.026H72.384v-1.17h1.534c1.066,0,1.352.026,1.43.026.13,0,.143-.013.143-.143v-.858c0-.13-.013-.13-.143-.13-.078,0-.364.013-1.43.013H72.384a1.912,1.912,0,0,1,.091-.689.763.763,0,0,0,.065-.26c0-.065-.078-.13-.208-.143-.442-.052-.819-.078-1.313-.091a5.918,5.918,0,0,1,.1,1.235v2.21H69.68V-1.924a1.914,1.914,0,0,1,.078-.7.608.608,0,0,0,.078-.247c0-.065-.078-.13-.208-.143-.468-.052-.78-.078-1.261-.091a6.758,6.758,0,0,1,.078,1.2V-.572c-.962,0-1.339-.026-1.4-.026-.13,0-.143.013-.143.143v.91c0,.13.013.143.143.143.078,0,.507-.026,1.729-.026ZM73.294-7.943c-.871,0-1.144-.026-1.222-.026-.13,0-.143.013-.143.143v.754c0,.13.013.143.143.143.065,0,.3-.013.949-.026a6.543,6.543,0,0,1-1.885,1.9,2.414,2.414,0,0,1,.494.572c.1.169.169.26.234.26s.143-.078.286-.208a6.288,6.288,0,0,0,1.2-1.573c-.026,1.157-.065,1.9-.065,2.067,0,.143.013.156.143.156h.832c.143,0,.156-.013.156-.156,0-.169-.052-.949-.078-2.184A6.442,6.442,0,0,0,75.842-4.3c.143.117.234.169.3.169s.117-.065.182-.221a3.389,3.389,0,0,1,.494-.767,7.225,7.225,0,0,1-2.236-1.833h.26c.923,0,1.209.026,1.3.026.13,0,.143-.013.143-.143v-.754c0-.13-.013-.143-.143-.143-.091,0-.377.026-1.3.026H74.4V-8.06a1.366,1.366,0,0,1,.052-.468c.026-.078.065-.117.065-.195s-.039-.117-.156-.13a10.2,10.2,0,0,0-1.131-.065,5.838,5.838,0,0,1,.065.871Zm13.481,3.6c1.261,0,1.7.026,1.781.026.13,0,.143-.013.143-.156,0-.078-.026-.416-.026-1.17V-7.488c0-.754.026-1.092.026-1.17,0-.13-.013-.143-.143-.143-.078,0-.52.026-1.781.026H84.552v-.572a2.366,2.366,0,0,1,.091-.9.714.714,0,0,0,.091-.3c0-.1-.078-.156-.26-.182-.468-.039-.871-.078-1.378-.091A10.569,10.569,0,0,1,83.213-9.1v.325H81.029c-1.274,0-1.716-.026-1.794-.026-.13,0-.143.013-.143.143,0,.078.026.416.026,1.17v1.846c0,.754-.026,1.092-.026,1.17,0,.143.013.156.143.156.078,0,.52-.026,1.794-.026h2.106a6.368,6.368,0,0,1-.143,1,3.305,3.305,0,0,1-.351.884,6.108,6.108,0,0,1-1.391-1.6c-.065-.117-.091-.117-.234-.039l-.767.416c-.156.091-.182.117-.117.247a7.489,7.489,0,0,0,1.625,1.963,7.722,7.722,0,0,1-3.77,1.222,3.968,3.968,0,0,1,.559.91c.1.26.13.325.26.325a1.857,1.857,0,0,0,.3-.039A7.967,7.967,0,0,0,82.888-.676,14.513,14.513,0,0,0,88.8.832c.169.013.195.013.26.013.156,0,.182-.091.273-.377a5.011,5.011,0,0,1,.481-1.027,14.91,14.91,0,0,1-6.045-1.2,5,5,0,0,0,.546-1.326A7.917,7.917,0,0,0,84.5-4.342Zm.52-1.209H84.552c.013-.65,0-1.339,0-2h2.743Zm-6.8,0v-2h2.717c0,.637,0,1.339-.013,2ZM99.723-9.373a6.451,6.451,0,0,1,1.313,1.508.136.136,0,0,0,.221.039l.546-.4a.131.131,0,0,0,.039-.208,5.983,5.983,0,0,0-1.235-1.391c-.078-.065-.13-.078-.195-.026Zm1.2-.858a6.15,6.15,0,0,1,1.3,1.495.133.133,0,0,0,.221.039l.52-.4A.15.15,0,0,0,103-9.334a5.429,5.429,0,0,0-1.235-1.339c-.078-.065-.117-.078-.195-.026Zm-6.4,2.964c-.507.078-.988.143-1.534.195-.572.052-1.144.091-1.716.091a11.879,11.879,0,0,0,.4,1.339.285.285,0,0,0,.416.169,3.82,3.82,0,0,1,.715-.208c.351-.065.767-.143,1.274-.221A27.412,27.412,0,0,1,91.7-.806a.242.242,0,0,0-.052.143.267.267,0,0,0,.1.195,5.912,5.912,0,0,0,.9.572.213.213,0,0,0,.338-.117A35.9,35.9,0,0,0,95.6-6.123a8.611,8.611,0,0,1,1.092-.091c.572,0,.741.286.741,1.2a10.04,10.04,0,0,1-.507,3.237c-.208.533-.4.689-.832.689a3.459,3.459,0,0,1-1.5-.338,3.715,3.715,0,0,1,.247,1.209.347.347,0,0,0,.234.364,3.445,3.445,0,0,0,1.352.195A1.861,1.861,0,0,0,98.189-.884a11.076,11.076,0,0,0,.7-4.069c0-1.664-.65-2.509-1.859-2.509a9.934,9.934,0,0,0-1.04.052c.169-.546.3-1.027.468-1.56a1.645,1.645,0,0,1,.26-.494.271.271,0,0,0,.091-.195.274.274,0,0,0-.208-.26,9.515,9.515,0,0,0-1.56-.429,8.849,8.849,0,0,1-.13,1.443C94.822-8.463,94.731-8.008,94.523-7.267Zm4.485-.1A8.8,8.8,0,0,1,101.14-4c.039.156.169.169.3.1a5.305,5.305,0,0,0,.975-.65.186.186,0,0,0,.052-.26,8.7,8.7,0,0,0-2.158-3.159c-.091-.091-.156-.117-.247-.065A11.025,11.025,0,0,0,99.008-7.371Zm9.36,1.118c.312-.455.507-.7.689-.936s.221-.273.221-.364-.052-.2-.208-.4c-.117-.169-.26-.3-.351-.3a.241.241,0,0,0-.091.026c-.039.013-.065.026-.1.039.026-.559.052-.858.065-1.17a2.209,2.209,0,0,1,.13-.559c.091-.234.039-.377-.234-.455a9.884,9.884,0,0,0-1.508-.221,4.714,4.714,0,0,1,.13,1.131c0,.559,0,1.131-.026,1.69-1,.273-1.508.39-1.846.468a6.323,6.323,0,0,1-.884.13,11.054,11.054,0,0,0,.52,1.144c.078.156.169.234.26.234s.208-.13.429-.221c.494-.182,1.105-.364,1.482-.481-.013.247-.013.6-.013.923-.975,1.339-1.716,2.262-2.86,3.653a.225.225,0,0,0-.078.156.18.18,0,0,0,.078.143,9.024,9.024,0,0,0,.793.78.226.226,0,0,0,.143.078c.065,0,.117-.052.182-.13.481-.689,1.131-1.638,1.755-2.574-.026,1.326-.052,2.691-.065,4.017-.013.13.026.182.143.182.429,0,1.014-.039,1.157-.052.1,0,.169-.052.169-.156-.026-1.755-.065-3.328-.078-4.992a5.346,5.346,0,0,1,3.484-1.664,1.818,1.818,0,0,1,1.937,2.015,2.51,2.51,0,0,1-.884,1.963,5.989,5.989,0,0,1-2.613,1.287,3.828,3.828,0,0,1,1.027.858.426.426,0,0,0,.338.182.5.5,0,0,0,.221-.052c2.236-.806,3.458-2.184,3.458-4.186a3.088,3.088,0,0,0-3.237-3.3,5.786,5.786,0,0,0-3.731,1.521Zm12.324-1.014c-.507.078-.988.143-1.534.195-.572.052-1.144.091-1.716.091a11.876,11.876,0,0,0,.4,1.339.285.285,0,0,0,.416.169,3.82,3.82,0,0,1,.715-.208c.351-.065.767-.143,1.274-.221a27.412,27.412,0,0,1-2.379,5.1.242.242,0,0,0-.052.143.267.267,0,0,0,.1.195,5.912,5.912,0,0,0,.9.572.213.213,0,0,0,.338-.117,35.9,35.9,0,0,0,2.613-6.11,8.611,8.611,0,0,1,1.092-.091c.572,0,.741.286.741,1.209a10.016,10.016,0,0,1-.507,3.224c-.208.533-.4.689-.832.689a3.9,3.9,0,0,1-1.43-.286,3.715,3.715,0,0,1,.247,1.209.337.337,0,0,0,.234.364A4.244,4.244,0,0,0,122.6.338a1.861,1.861,0,0,0,1.755-1.222,11.164,11.164,0,0,0,.7-4.173c0-1.573-.663-2.4-1.885-2.4a9.8,9.8,0,0,0-1.014.052c.169-.546.3-1.027.468-1.56a1.645,1.645,0,0,1,.26-.494.271.271,0,0,0,.091-.195.274.274,0,0,0-.208-.26,9.515,9.515,0,0,0-1.56-.429,8.849,8.849,0,0,1-.13,1.443C120.991-8.463,120.9-8.008,120.692-7.267Zm4.628-.1A8.8,8.8,0,0,1,127.452-4c.039.156.169.169.3.1a5.305,5.305,0,0,0,.975-.65.186.186,0,0,0,.052-.26,8.7,8.7,0,0,0-2.158-3.159c-.091-.091-.156-.117-.247-.065A11.023,11.023,0,0,0,125.32-7.371Zm9.711,1.885c.988-.949,1.859-1.859,2.808-2.782a2.1,2.1,0,0,1,.572-.416A.344.344,0,0,0,138.632-9a.451.451,0,0,0-.143-.312,4.92,4.92,0,0,0-.871-.832.464.464,0,0,0-.3-.1.672.672,0,0,0-.247.1,3.449,3.449,0,0,1-.715.195c-1.014.195-2.158.364-2.951.442a6.265,6.265,0,0,1-1.209-.026,6.225,6.225,0,0,0,.455,1.4.3.3,0,0,0,.286.221.954.954,0,0,0,.26-.065,4,4,0,0,1,.546-.156c.806-.169,1.729-.351,2.509-.494-.6.741-1.209,1.391-2.015,2.223a31.293,31.293,0,0,1-3.081,2.873c-.1.1-.143.195-.065.3a5.852,5.852,0,0,0,.767.845.319.319,0,0,0,.195.117c.065,0,.13-.052.221-.143.39-.39.754-.767,1.131-1.105a5.292,5.292,0,0,1,3.328-1.378,1.9,1.9,0,0,1,2.041,1.963,1.958,1.958,0,0,1-1.326,1.976,2.366,2.366,0,0,0-2.444-1.9,1.725,1.725,0,0,0-1.833,1.586c0,1.209.988,1.911,2.626,1.911,2.782,0,4.537-1.391,4.537-3.562a3.017,3.017,0,0,0-3.224-3.12,3.912,3.912,0,0,0-2.067.585Zm1.131,4.862a2.846,2.846,0,0,1-.6.052c-.78,0-1.131-.273-1.131-.676,0-.273.247-.494.624-.494C135.6-1.742,135.993-1.339,136.162-.624ZM4.5,5.965c-.845,0-1.495,0-2.2-.052a7.574,7.574,0,0,0,.117,1.352c.026.143.065.234.169.221.7-.052,1.378-.078,2.054-.078L7.995,7.4a15.946,15.946,0,0,1-2.444,3.263A15.791,15.791,0,0,1,.975,13.973a3.562,3.562,0,0,1,1.092.845.29.29,0,0,0,.221.117.823.823,0,0,0,.3-.1A18.7,18.7,0,0,0,6.955,11.4a23.664,23.664,0,0,1,3.38,3.224.267.267,0,0,0,.182.1.225.225,0,0,0,.156-.078,6.966,6.966,0,0,0,.871-.884.322.322,0,0,0,.091-.2.3.3,0,0,0-.1-.182,30.566,30.566,0,0,0-3.6-3.146A20.515,20.515,0,0,0,9.594,7.811a2.381,2.381,0,0,1,.481-.572.359.359,0,0,0,.169-.26.346.346,0,0,0-.065-.169,4.739,4.739,0,0,0-.845-.91.43.43,0,0,0-.221-.1.217.217,0,0,0-.143.052,1.909,1.909,0,0,1-.9.117Zm9.3,4.966A14.948,14.948,0,0,0,15,12.075a.268.268,0,0,0,.182.091A.3.3,0,0,0,15.418,12a4.265,4.265,0,0,1,.52-.663c.9-.988,1.482-1.69,2.119-2.353a.271.271,0,0,1,.208-.1.322.322,0,0,1,.208.091,58.9,58.9,0,0,0,5.759,4.537.217.217,0,0,0,.143.052c.065,0,.13-.052.195-.143a7.617,7.617,0,0,0,.676-1.131.227.227,0,0,0-.117-.351,41.285,41.285,0,0,1-5.824-4.225,1.5,1.5,0,0,0-1.131-.533c-.4,0-.65.143-1.17.689-.611.65-1.248,1.313-1.885,1.963A5.985,5.985,0,0,1,13.793,10.931Zm9.113-5.5a1.371,1.371,0,0,0-1.4,1.391,1.4,1.4,0,1,0,1.4-1.391Zm0,.624a.767.767,0,1,1-.767.767A.745.745,0,0,1,22.906,6.056Zm4.381,3.289a11.4,11.4,0,0,1,2.626,1.417.252.252,0,0,0,.156.078c.052,0,.1-.052.169-.13a5.293,5.293,0,0,0,.572-.988.386.386,0,0,0,.052-.143c0-.078-.052-.13-.143-.2a9.022,9.022,0,0,0-2.5-1.274c-.117-.026-.182.039-.247.13C27.82,8.448,27.612,8.825,27.287,9.345ZM28.86,6.29a12.573,12.573,0,0,1,2.522,1.6.335.335,0,0,0,.195.091.145.145,0,0,0,.13-.078,5.564,5.564,0,0,0,.663-.975.315.315,0,0,0,.052-.169.206.206,0,0,0-.1-.169,8.838,8.838,0,0,0-2.444-1.443c-.156-.078-.234-.052-.325.1C29.328,5.588,29.081,5.952,28.86,6.29Zm-.546,7.41a8.21,8.21,0,0,0,.962,1.326.335.335,0,0,0,.26.156.288.288,0,0,0,.208-.1,4.272,4.272,0,0,1,.754-.442,30.181,30.181,0,0,0,3.887-2.444,24.22,24.22,0,0,0,3.3-3,.4.4,0,0,0,.143-.3.636.636,0,0,0-.065-.247,6.492,6.492,0,0,1-.377-1.456,23.657,23.657,0,0,1-3.744,3.627,21.777,21.777,0,0,1-3.562,2.249A6.011,6.011,0,0,1,28.314,13.7Zm15.847-2.821.611,2.405c.182.728.364,1.443.52,2.171.052.221.156.234.325.195a4.4,4.4,0,0,0,.858-.26.253.253,0,0,0,.169-.351c-.195-.728-.377-1.365-.6-2.184l-.6-2.353,2.509-.663a9.385,9.385,0,0,1-1.378,1.989,3.475,3.475,0,0,1,1.04.39.374.374,0,0,0,.195.065.246.246,0,0,0,.195-.117,15.42,15.42,0,0,0,1.469-2.444,1,1,0,0,1,.208-.273.379.379,0,0,0,.143-.26.292.292,0,0,0-.1-.2,7.015,7.015,0,0,0-.767-.65.409.409,0,0,0-.221-.117.225.225,0,0,0-.156.078,1.432,1.432,0,0,1-.65.286l-2.821.715-.247-.975a2.12,2.12,0,0,1-.078-.936c.026-.182-.065-.26-.273-.26-.338,0-.988.078-1.521.143a4.95,4.95,0,0,1,.533,1.313l.286,1.092-.78.208a15.516,15.516,0,0,1-1.976.429,7.289,7.289,0,0,0,.455,1.144c.065.13.13.182.221.182a.714.714,0,0,0,.234-.065,10.551,10.551,0,0,1,1.43-.507ZM59.826,7.915a3.6,3.6,0,0,1,.117-1.443.832.832,0,0,0,.1-.325c0-.1-.065-.182-.234-.221a12.406,12.406,0,0,0-1.625-.273,10.38,10.38,0,0,1,.13,2.262v4.069c0,.663.013.819-.078.988a.4.4,0,0,0-.052.195.518.518,0,0,0,.117.273,3.754,3.754,0,0,0,.78.793.554.554,0,0,0,.273.1.413.413,0,0,0,.26-.1,4.317,4.317,0,0,1,.377-.273,21.588,21.588,0,0,0,2.314-1.56,16.433,16.433,0,0,0,1.924-1.7c.143-.143.195-.234.195-.325a.647.647,0,0,0-.078-.221,3.748,3.748,0,0,1-.4-1.313,12.475,12.475,0,0,1-2.275,2.21,13.216,13.216,0,0,1-1.846,1.209ZM55.289,6.472a3.5,3.5,0,0,1,.13,1.092,8.47,8.47,0,0,1-.546,3.679,6.454,6.454,0,0,1-2.158,2.587,4.607,4.607,0,0,1,1.1.546.442.442,0,0,0,.247.1.589.589,0,0,0,.338-.169,6.7,6.7,0,0,0,1.846-2.444,9.729,9.729,0,0,0,.7-3.822,1.875,1.875,0,0,1,.156-.884c.078-.182.052-.338-.169-.4A10.51,10.51,0,0,0,55.289,6.472Zm14.664-1.69a6.932,6.932,0,0,1-.377,1.781C68.9,8.747,68.224,10.671,67.3,13c-.52.013-1.066.026-1.586-.013a12.111,12.111,0,0,0,.455,1.677c.065.182.208.208.377.13a4.377,4.377,0,0,1,1.521-.312c2.119-.221,4.1-.442,6.175-.754.156.338.3.676.455,1.04.039.117.1.182.182.182a.346.346,0,0,0,.156-.039,6.547,6.547,0,0,0,.988-.533c.117-.065.169-.143.169-.221a.315.315,0,0,0-.052-.169,18.281,18.281,0,0,0-2.626-4.251c-.091-.1-.169-.156-.312-.078-.364.2-.741.416-1.131.624a12.959,12.959,0,0,1,1.443,2.08c-1.456.221-2.548.325-4.55.494.819-1.95,1.508-3.861,2.236-5.85a4.177,4.177,0,0,1,.533-1.079.437.437,0,0,0,.13-.26c0-.078-.065-.143-.156-.208A7.058,7.058,0,0,0,69.953,4.782Zm15.977,6.2c.962,0,1.924.013,2.9.026.182.013.234-.039.234-.195a9.582,9.582,0,0,0,0-1.222c0-.156-.039-.195-.234-.182-1,.013-2,.039-2.99.039H81.653a16.7,16.7,0,0,1-2.808-.156,14.111,14.111,0,0,0,.195,1.573c.039.195.143.273.3.273a10.4,10.4,0,0,1,1.911-.156Zm8.931-3.7a2.963,2.963,0,0,1,.13-1.17.568.568,0,0,0,.091-.273c0-.091-.052-.169-.208-.208a11.129,11.129,0,0,0-1.638-.26,13.5,13.5,0,0,1,.13,2.379v4.8c0,1.066.273,1.677.923,1.95a6.4,6.4,0,0,0,2.47.351,26,26,0,0,0,3.861-.234c.195-.013.273-.065.273-.234,0-.273-.039-.767-.078-1.131-.013-.156-.039-.208-.234-.182a22.938,22.938,0,0,1-3.666.3,6.661,6.661,0,0,1-1.638-.143c-.338-.1-.429-.312-.429-.923V10.567a34.106,34.106,0,0,0,4.459-1.612,6.9,6.9,0,0,1,1.079-.429c.156-.039.221-.13.221-.234a.377.377,0,0,0-.1-.234,7.458,7.458,0,0,0-1.079-1.17,4.035,4.035,0,0,1-1.391.936,24.42,24.42,0,0,1-3.172,1.261Zm4.745-1.469a6.45,6.45,0,0,1,1.313,1.508.136.136,0,0,0,.221.039l.546-.4a.131.131,0,0,0,.039-.208,5.983,5.983,0,0,0-1.235-1.391c-.078-.065-.13-.078-.195-.026Zm1.2-.858a6.15,6.15,0,0,1,1.3,1.495.133.133,0,0,0,.221.039l.52-.4a.15.15,0,0,0,.039-.234,5.429,5.429,0,0,0-1.235-1.339c-.078-.065-.117-.078-.195-.026Zm10.348,6.032c.962,0,1.924.013,2.9.026.182.013.234-.039.234-.195a9.582,9.582,0,0,0,0-1.222c0-.156-.039-.195-.234-.182-1,.013-2,.039-2.99.039h-4.186a16.7,16.7,0,0,1-2.808-.156,14.111,14.111,0,0,0,.195,1.573c.039.195.143.273.3.273a10.4,10.4,0,0,1,1.911-.156Zm11.843-3.757a4.7,4.7,0,0,0-2.5,4.121c0,2.7,2.509,4.017,4.8,4.017.156,0,.208-.078.247-.273a4.625,4.625,0,0,0,.143-1.118c0-.143-.078-.195-.286-.195-2.262-.143-3.458-1.053-3.458-2.73,0-1.56,1.105-3.081,3.315-3.835a5.8,5.8,0,0,1,1.586-.286c.169,0,.247-.039.247-.195a7.428,7.428,0,0,0-.143-1.144c-.013-.091-.078-.169-.273-.143-3.354.442-6.214.871-7.813,1.105a17.934,17.934,0,0,1-2.067.221,9.059,9.059,0,0,0,.481,1.4.3.3,0,0,0,.247.195.759.759,0,0,0,.286-.1c.195-.065.325-.091.819-.208,1.391-.286,2.782-.559,4.368-.858Zm1.885,1.859a6.45,6.45,0,0,1,1.313,1.508.136.136,0,0,0,.221.039l.546-.4a.131.131,0,0,0,.039-.208,5.983,5.983,0,0,0-1.235-1.391c-.078-.065-.13-.078-.195-.026Zm1.2-.858a6.15,6.15,0,0,1,1.3,1.5.133.133,0,0,0,.221.039l.52-.4a.15.15,0,0,0,.039-.234,5.429,5.429,0,0,0-1.235-1.339c-.078-.065-.117-.078-.195-.026Zm9.087-1.742c-1.56.091-3.237.195-4.03.26a8.574,8.574,0,0,1-1.586.052,9.11,9.11,0,0,0,.325,1.313c.039.13.091.182.221.182s.325-.117.611-.156c1.027-.143,2.86-.3,4.5-.39,0,.429.013.871.013,1.326a1.593,1.593,0,0,0-.988-.26,1.894,1.894,0,0,0-1.963,1.95,1.8,1.8,0,0,0,1.807,1.989,1.5,1.5,0,0,0,1.222-.52,4.343,4.343,0,0,1-2.665,2.86,2.9,2.9,0,0,1,.988.52.736.736,0,0,0,.39.195,1.239,1.239,0,0,0,.507-.247,4.854,4.854,0,0,0,2.314-4.2,4.05,4.05,0,0,0-.195-1.287c-.013-.793-.013-1.625-.013-2.418,1.352-.013,2.613-.013,3.965.026.156.013.221-.026.221-.169.013-.325.013-.663,0-.988-.013-.169-.039-.195-.195-.195-1.248,0-2.587.013-3.991.065.013-.494.013-.663.026-.832a1.359,1.359,0,0,1,.1-.377.548.548,0,0,0,.117-.3c0-.117-.143-.208-.364-.247a13.208,13.208,0,0,0-1.521-.182,4.132,4.132,0,0,1,.156.949C135.148,5.757,135.148,6.082,135.161,6.485Zm-.832,3.341a.779.779,0,0,1,.858.832.835.835,0,0,1-.884.9.806.806,0,0,1-.832-.884A.827.827,0,0,1,134.329,9.826ZM149.2,4.7h-2.028l.364,7.735h1.313Zm-1.95,9v1.755H149.1V13.7Z" transform="translate(90.102 601.748)"/></g></svg>