<svg xmlns="http://www.w3.org/2000/svg" width="145.46" height="59.899" viewBox="0 0 145.46 59.899"><g transform="translate(-69.667 -570.798)"><path d="M128.325,0,142.4,13.165l3.06,32.276-12.4,12.752L20.594,59.9l-8.009-4.371L11.472,44.433,0,41.181l9.692-7.843L9.024,19.217,20.149,8.458Z" transform="translate(69.667 570.798)" fill="#ffe330"/><path d="M4.446-7.059a5.349,5.349,0,0,1,.143-1.612.993.993,0,0,0,.065-.273.249.249,0,0,0-.208-.247,13.226,13.226,0,0,0-1.69-.286A12.294,12.294,0,0,1,2.9-7.215L2.873-2.327a2.564,2.564,0,0,1-.052.741.527.527,0,0,0-.065.221.319.319,0,0,0,.078.208,4.01,4.01,0,0,0,.793.884.347.347,0,0,0,.221.1.377.377,0,0,0,.234-.1A3,3,0,0,1,4.81-.689,29.083,29.083,0,0,0,7.995-2.3a21.035,21.035,0,0,0,3.25-2.236.41.41,0,0,0,.13-.52,5.849,5.849,0,0,1-.208-1.508A16.065,16.065,0,0,1,7.722-3.913,21.376,21.376,0,0,1,4.407-2.275Zm17,3.042c.962,0,1.924.013,2.9.026.182.013.234-.039.234-.195a9.582,9.582,0,0,0,0-1.222c0-.156-.039-.195-.234-.182-1,.013-2,.039-2.99.039H17.173a16.7,16.7,0,0,1-2.808-.156,14.109,14.109,0,0,0,.195,1.573c.039.195.143.273.3.273a10.4,10.4,0,0,1,1.911-.156ZM30.5-9.035c-.845,0-1.495,0-2.2-.052a7.574,7.574,0,0,0,.117,1.352c.026.143.065.234.169.221.7-.052,1.378-.078,2.054-.078L33.995-7.6a15.946,15.946,0,0,1-2.444,3.263,15.791,15.791,0,0,1-4.576,3.315,3.562,3.562,0,0,1,1.092.845.29.29,0,0,0,.221.117.823.823,0,0,0,.3-.1A18.7,18.7,0,0,0,32.955-3.6a23.664,23.664,0,0,1,3.38,3.224.267.267,0,0,0,.182.1.225.225,0,0,0,.156-.078,6.966,6.966,0,0,0,.871-.884.322.322,0,0,0,.091-.195.3.3,0,0,0-.1-.182,30.566,30.566,0,0,0-3.6-3.146,20.515,20.515,0,0,0,1.664-2.431,2.381,2.381,0,0,1,.481-.572.359.359,0,0,0,.169-.26.346.346,0,0,0-.065-.169,4.739,4.739,0,0,0-.845-.91.43.43,0,0,0-.221-.1.217.217,0,0,0-.143.052,1.909,1.909,0,0,1-.9.117Zm13,0c-.845,0-1.5,0-2.2-.052a7.574,7.574,0,0,0,.117,1.352c.026.143.065.234.169.221.7-.052,1.378-.078,2.054-.078L46.995-7.6a15.946,15.946,0,0,1-2.444,3.263,15.791,15.791,0,0,1-4.576,3.315,3.562,3.562,0,0,1,1.092.845.29.29,0,0,0,.221.117.823.823,0,0,0,.3-.1A18.7,18.7,0,0,0,45.955-3.6a23.664,23.664,0,0,1,3.38,3.224.267.267,0,0,0,.182.1.225.225,0,0,0,.156-.078,6.966,6.966,0,0,0,.871-.884.322.322,0,0,0,.091-.195.3.3,0,0,0-.1-.182,30.566,30.566,0,0,0-3.6-3.146,20.515,20.515,0,0,0,1.664-2.431,2.381,2.381,0,0,1,.481-.572.359.359,0,0,0,.169-.26.346.346,0,0,0-.065-.169,4.739,4.739,0,0,0-.845-.91.43.43,0,0,0-.221-.1.217.217,0,0,0-.143.052,1.909,1.909,0,0,1-.9.117Zm15.158.442c.221-.338.3-.468.4-.65a1.087,1.087,0,0,1,.273-.273.351.351,0,0,0,.156-.26.228.228,0,0,0-.143-.208,8.187,8.187,0,0,0-1.521-.637,4.8,4.8,0,0,1-.7,1.6A14.5,14.5,0,0,1,53.443-4.94a5.416,5.416,0,0,1,1.092.6.3.3,0,0,0,.208.091A.466.466,0,0,0,55-4.368a15.7,15.7,0,0,0,2.782-2.925l3.224-.065a12.533,12.533,0,0,1-1.521,2.574,13.035,13.035,0,0,0-1.677-1.04.338.338,0,0,0-.13-.052.246.246,0,0,0-.169.091c-.3.273-.572.611-.858.923A10.868,10.868,0,0,1,58.526-3.64,15.764,15.764,0,0,1,53.742-.117a3.694,3.694,0,0,1,1.235.663.39.39,0,0,0,.247.117.708.708,0,0,0,.325-.117A15.842,15.842,0,0,0,59.7-2.7a14.407,14.407,0,0,1,1.261,1.261.226.226,0,0,0,.143.078.27.27,0,0,0,.156-.065,7.991,7.991,0,0,0,.806-.819.252.252,0,0,0,.078-.169.257.257,0,0,0-.078-.182,11.557,11.557,0,0,0-1.4-1.313,20.29,20.29,0,0,0,1.911-3.146,1.631,1.631,0,0,1,.39-.494A.333.333,0,0,0,63.1-7.8a.318.318,0,0,0-.1-.234,4.212,4.212,0,0,0-.884-.793.447.447,0,0,0-.234-.1.38.38,0,0,0-.221.091,1.272,1.272,0,0,1-.715.195ZM73.45-4.017c.962,0,1.924.013,2.9.026.182.013.234-.039.234-.195a9.582,9.582,0,0,0,0-1.222c0-.156-.039-.195-.234-.182-1,.013-2,.039-2.99.039H69.173a16.7,16.7,0,0,1-2.808-.156,14.111,14.111,0,0,0,.195,1.573c.039.195.143.273.3.273a10.4,10.4,0,0,1,1.911-.156ZM84.071-8.541a3.385,3.385,0,0,1,.091-1.222.684.684,0,0,0,.1-.3c0-.1-.065-.182-.247-.221a9.6,9.6,0,0,0-1.625-.208,9.919,9.919,0,0,1,.13,1.924v6.4c0,.832-.013,1.6-.052,2.561,0,.156.065.2.247.2a8.591,8.591,0,0,0,1.157,0c.182,0,.247-.039.234-.2-.026-.936-.052-1.7-.052-2.548V-5.031a14.4,14.4,0,0,1,3.419,1.664.2.2,0,0,0,.143.065c.065,0,.117-.052.169-.143a7.641,7.641,0,0,0,.559-1.131c.065-.169,0-.26-.143-.338a18.338,18.338,0,0,0-4.134-1.768ZM98.5-10.3H96.473l.364,7.735H98.15Zm-1.95,9V.455H98.4V-1.3Z" transform="translate(93.102 607.583)"/></g></svg>